<svg width="68" height="24" viewBox="0 0 68 24" fill="none" xmlns="http://www.w3.org/2000/svg">
<rect x="1" y="1" width="66" height="22" rx="7" fill="url(#paint0_linear_156_748)"/>
<rect x="1" y="1" width="66" height="22" rx="7" stroke="white" stroke-width="2"/>
<path d="M21.52 11.41V15.09H20.4V12.52H19.36V11.41H21.52ZM21.52 14.63C21.91 15.31 22.64 15.6 23.67 15.65C24.91 15.7 27.37 15.67 28.79 15.56C28.66 15.82 28.48 16.35 28.43 16.68C27.15 16.74 24.93 16.76 23.68 16.71C22.46 16.66 21.64 16.36 21.04 15.58C20.66 15.98 20.26 16.36 19.79 16.81L19.22 15.66C19.62 15.38 20.1 15 20.52 14.63H21.52ZM19.3 8.34L20.24 7.74C20.77 8.22 21.39 8.9 21.66 9.39L20.64 10.06C20.41 9.58 19.81 8.85 19.3 8.34ZM22.13 11.6H28.26V12.47H22.13V11.6ZM21.83 13.14H28.57V14.03H21.83V13.14ZM23.46 11.07H24.59V13.57H23.46V11.07ZM25.75 11.07H26.89V13.57H25.75V11.07ZM22.4 8.99H23.86V8.57H21.96V7.82H24.87V9.75H22.4V8.99ZM22.1 8.99H23.09V9.96C23.09 10.17 23.13 10.21 23.39 10.21C23.5 10.21 24.01 10.21 24.16 10.21C24.36 10.21 24.4 10.15 24.44 9.82C24.62 9.95 25 10.08 25.27 10.13C25.17 10.81 24.9 11 24.29 11C24.1 11 23.43 11 23.24 11C22.35 11 22.1 10.77 22.1 9.97V8.99ZM25.69 8.99H27.16V8.57H25.21V7.82H28.18V9.75H25.69V8.99ZM25.39 8.99H26.38V9.96C26.38 10.17 26.43 10.21 26.69 10.21C26.81 10.21 27.34 10.21 27.49 10.21C27.7 10.21 27.74 10.15 27.78 9.81C27.96 9.94 28.34 10.06 28.61 10.12C28.51 10.81 28.24 11 27.62 11C27.43 11 26.73 11 26.54 11C25.64 11 25.39 10.77 25.39 9.96V8.99ZM25.58 14.45L26.46 13.96C27.18 14.29 28.06 14.77 28.56 15.11L27.32 15.56C26.95 15.24 26.24 14.79 25.58 14.45ZM23.83 13.96L24.88 14.33C24.36 14.81 23.52 15.27 22.83 15.55C22.64 15.35 22.21 14.99 21.96 14.83C22.66 14.62 23.4 14.3 23.83 13.96ZM33.48 8.06H34.68V11.48C34.68 13.13 34.46 15.51 33.09 16.91C32.9 16.67 32.41 16.24 32.16 16.09C33.38 14.83 33.48 12.94 33.48 11.47V8.06ZM36.55 12.01C36.87 13.74 37.55 15.22 38.87 15.87C38.59 16.11 38.22 16.6 38.04 16.93C36.51 16.06 35.81 14.38 35.4 12.2L36.55 12.01ZM33.92 8.06H38.37V12.4H33.92V11.27H37.17V9.19H33.92V8.06ZM29.39 9.43H33.08V10.55H29.39V9.43ZM30.72 7.51H31.87V15.59C31.87 16.19 31.75 16.49 31.4 16.67C31.05 16.86 30.55 16.89 29.78 16.89C29.74 16.58 29.58 16.09 29.44 15.79C29.89 15.81 30.36 15.8 30.51 15.8C30.66 15.79 30.72 15.74 30.72 15.59V7.51ZM29.24 12.58C30.22 12.42 31.69 12.13 33.06 11.85L33.16 12.95C31.9 13.23 30.54 13.51 29.5 13.73L29.24 12.58ZM39.87 9.25H48.14V14.27H46.88V10.43H41.08V14.32H39.87V9.25ZM40.5 12.58H47.58V13.76H40.5V12.58ZM43.34 7.51H44.61V16.9H43.34V7.51Z" fill="white"/>
<defs>
<linearGradient id="paint0_linear_156_748" x1="0" y1="12" x2="68" y2="12" gradientUnits="userSpaceOnUse">
<stop stop-color="#DC5DCB"/>
<stop offset="1" stop-color="#3148A7"/>
</linearGradient>
</defs>
</svg>
