<?xml version="1.0" encoding="UTF-8"?>
<!DOCTYPE svg PUBLIC "-//W3C//DTD SVG 1.1//EN" "http://www.w3.org/Graphics/SVG/1.1/DTD/svg11.dtd">
<svg xmlns="http://www.w3.org/2000/svg" version="1.1" width="351px" height="760px" style="shape-rendering:geometricPrecision; text-rendering:geometricPrecision; image-rendering:optimizeQuality; fill-rule:evenodd; clip-rule:evenodd" xmlns:xlink="http://www.w3.org/1999/xlink">
<g><path style="opacity:1" fill="#dfe2e7" d="M -0.5,-0.5 C 116.5,-0.5 233.5,-0.5 350.5,-0.5C 350.5,-0.166667 350.5,0.166667 350.5,0.5C 234.167,0.5 117.833,0.5 1.5,0.5C 1.5,4.83333 1.5,9.16667 1.5,13.5C 1.5,27.8333 1.5,42.1667 1.5,56.5C 1.5,62.8333 1.5,69.1667 1.5,75.5C 1.5,85.1667 1.5,94.8333 1.5,104.5C 1.5,119.833 1.5,135.167 1.5,150.5C 1.5,164.5 1.5,178.5 1.5,192.5C 1.5,199.5 1.5,206.5 1.5,213.5C 1.5,221.833 1.5,230.167 1.5,238.5C 1.5,253.167 1.5,267.833 1.5,282.5C 1.5,291.5 1.5,300.5 1.5,309.5C 1.5,322.167 1.5,334.833 1.5,347.5C 1.5,348.5 1.5,349.5 1.5,350.5C 5.5,351.167 5.5,351.833 1.5,352.5C 1.5,375.167 1.5,397.833 1.5,420.5C 1.5,435.167 1.5,449.833 1.5,464.5C 1.5,481.833 1.5,499.167 1.5,516.5C 1.5,530.5 1.5,544.5 1.5,558.5C 1.5,576.833 1.5,595.167 1.5,613.5C 1.5,622.5 1.5,631.5 1.5,640.5C 1.5,642.5 1.5,644.5 1.5,646.5C 1.5,663.833 1.5,681.167 1.5,698.5C 1.5,712.5 1.5,726.5 1.5,740.5C 1.5,746.833 1.5,753.167 1.5,759.5C 0.833333,759.5 0.166667,759.5 -0.5,759.5C -0.5,506.167 -0.5,252.833 -0.5,-0.5 Z"/></g>
<g><path style="opacity:1" fill="#db5dcb" d="M 350.5,0.5 C 350.5,4.83333 350.5,9.16667 350.5,13.5C 234.167,13.5 117.833,13.5 1.5,13.5C 1.5,9.16667 1.5,4.83333 1.5,0.5C 117.833,0.5 234.167,0.5 350.5,0.5 Z"/></g>
<g><path style="opacity:1" fill="#f6d4f3" d="M 42.5,2.5 C 44.4646,2.94835 44.7979,3.94835 43.5,5.5C 42.6143,4.67504 42.281,3.67504 42.5,2.5 Z"/></g>
<g><path style="opacity:1" fill="#d75fcc" d="M 350.5,13.5 C 350.5,27.8333 350.5,42.1667 350.5,56.5C 234.167,56.5 117.833,56.5 1.5,56.5C 1.5,42.1667 1.5,27.8333 1.5,13.5C 117.833,13.5 234.167,13.5 350.5,13.5 Z"/></g>
<g><path style="opacity:1" fill="#fecefd" d="M 161.5,34.5 C 163.337,34.6395 163.67,35.3061 162.5,36.5C 161.702,36.0431 161.369,35.3764 161.5,34.5 Z"/></g>
<g><path style="opacity:1" fill="#d361cd" d="M 1.5,56.5 C 117.833,56.5 234.167,56.5 350.5,56.5C 350.5,62.8333 350.5,69.1667 350.5,75.5C 234.167,75.5 117.833,75.5 1.5,75.5C 1.5,69.1667 1.5,62.8333 1.5,56.5 Z"/></g>
<g><path style="opacity:1" fill="#cf62cf" d="M 1.5,75.5 C 117.833,75.5 234.167,75.5 350.5,75.5C 350.5,85.5 350.5,95.5 350.5,105.5C 274.021,104.84 197.688,105.507 121.5,107.5C 120.328,107.081 119.328,106.415 118.5,105.5C 94.1758,104.5 69.8425,104.167 45.5,104.5C 45.5,105.5 45.5,106.5 45.5,107.5C 44.5,107.5 43.5,107.5 42.5,107.5C 42.5,106.5 42.5,105.5 42.5,104.5C 28.8333,104.5 15.1667,104.5 1.5,104.5C 1.5,94.8333 1.5,85.1667 1.5,75.5 Z"/></g>
<g><path style="opacity:1" fill="#fcc6fb" d="M 317.5,81.5 C 318.5,81.5 319.5,81.5 320.5,81.5C 320.5,82.5 320.5,83.5 320.5,84.5C 319.5,84.5 318.5,84.5 317.5,84.5C 317.5,83.5 317.5,82.5 317.5,81.5 Z"/></g>
<g><path style="opacity:1" fill="#ca65d0" d="M 1.5,104.5 C 15.1667,104.5 28.8333,104.5 42.5,104.5C 42.5,105.5 42.5,106.5 42.5,107.5C 43.5,107.5 44.5,107.5 45.5,107.5C 45.5,106.5 45.5,105.5 45.5,104.5C 69.8425,104.167 94.1758,104.5 118.5,105.5C 119.328,106.415 120.328,107.081 121.5,107.5C 197.688,105.507 274.021,104.84 350.5,105.5C 350.5,120.5 350.5,135.5 350.5,150.5C 234.167,150.5 117.833,150.5 1.5,150.5C 1.5,135.167 1.5,119.833 1.5,104.5 Z"/></g>
<g><path style="opacity:1" fill="#facbfa" d="M 19.5,132.5 C 21.337,132.639 21.6704,133.306 20.5,134.5C 19.7025,134.043 19.3691,133.376 19.5,132.5 Z"/></g>
<g><path style="opacity:1" fill="#fdc8fd" d="M 196.5,137.5 C 198.337,137.639 198.67,138.306 197.5,139.5C 196.702,139.043 196.369,138.376 196.5,137.5 Z"/></g>
<g><path style="opacity:1" fill="#fcc9fd" d="M 4.5,142.5 C 6.33702,142.639 6.67036,143.306 5.5,144.5C 4.70245,144.043 4.36912,143.376 4.5,142.5 Z"/></g>
<g><path style="opacity:1" fill="#c467d2" d="M 1.5,150.5 C 117.833,150.5 234.167,150.5 350.5,150.5C 350.5,164.5 350.5,178.5 350.5,192.5C 234.027,192.683 117.694,192.683 1.5,192.5C 1.5,178.5 1.5,164.5 1.5,150.5 Z"/></g>
<g><path style="opacity:1" fill="#c069d4" d="M 1.5,192.5 C 117.694,192.683 234.027,192.683 350.5,192.5C 350.5,198.833 350.5,205.167 350.5,211.5C 338.552,210.905 326.552,211.071 314.5,212C 316.833,212.333 319.167,212.667 321.5,213C 247.167,213.667 172.833,213.667 98.5,213C 100.833,212.667 103.167,212.333 105.5,212C 100.5,211.333 95.5,211.333 90.5,212C 92.1667,212.333 93.8333,212.667 95.5,213C 64.1684,213.5 32.8351,213.667 1.5,213.5C 1.5,206.5 1.5,199.5 1.5,192.5 Z"/></g>
<g><path style="opacity:1" fill="#bd6bd5" d="M 350.5,211.5 C 350.5,220.5 350.5,229.5 350.5,238.5C 291.118,237.84 231.951,238.506 173,240.5C 116.049,238.506 58.8824,237.84 1.5,238.5C 1.5,230.167 1.5,221.833 1.5,213.5C 32.8351,213.667 64.1684,213.5 95.5,213C 93.8333,212.667 92.1667,212.333 90.5,212C 95.5,211.333 100.5,211.333 105.5,212C 103.167,212.333 100.833,212.667 98.5,213C 172.833,213.667 247.167,213.667 321.5,213C 319.167,212.667 316.833,212.333 314.5,212C 326.552,211.071 338.552,210.905 350.5,211.5 Z"/></g>
<g><path style="opacity:1" fill="#b86dd6" d="M 1.5,238.5 C 58.8824,237.84 116.049,238.506 173,240.5C 231.951,238.506 291.118,237.84 350.5,238.5C 350.5,253.167 350.5,267.833 350.5,282.5C 342.5,283.06 334.667,282.394 327,280.5C 295.952,282.476 264.785,283.142 233.5,282.5C 231.022,281.117 228.355,280.117 225.5,279.5C 220.304,276.442 214.638,274.442 208.5,273.5C 196.885,270.046 184.885,268.38 172.5,268.5C 154.211,269.709 136.877,274.376 120.5,282.5C 80.8333,282.5 41.1667,282.5 1.5,282.5C 1.5,267.833 1.5,253.167 1.5,238.5 Z"/></g>
<g><path style="opacity:1" fill="#e4e0e4" d="M 225.5,279.5 C 228.355,280.117 231.022,281.117 233.5,282.5C 235.5,284.167 237.5,285.833 239.5,287.5C 236.252,287.099 233.085,286.432 230,285.5C 229.676,287.569 228.842,287.902 227.5,286.5C 224.086,287.286 221.253,288.953 219,291.5C 218.667,291.167 218.333,290.833 218,290.5C 215.172,293.662 212.339,296.828 209.5,300C 209.185,302.569 209.185,305.236 209.5,308C 208.978,308.95 208.311,309.784 207.5,310.5C 207.182,320.13 207.516,329.797 208.5,339.5C 201.128,334.684 196.795,336.684 195.5,345.5C 195.265,346.097 194.765,346.43 194,346.5C 192.079,344.997 189.912,344.331 187.5,344.5C 187.5,342.833 187.5,341.167 187.5,339.5C 186.5,339.5 185.5,339.5 184.5,339.5C 184.4,330.448 185.067,321.448 186.5,312.5C 184.694,306.273 186.027,300.606 190.5,295.5C 196.278,290.437 202.278,285.604 208.5,281C 214.172,278.932 219.839,278.432 225.5,279.5 Z"/></g>
<g><path style="opacity:1" fill="#b36fd8" d="M 1.5,282.5 C 41.1667,282.5 80.8333,282.5 120.5,282.5C 118.833,283.833 117.167,285.167 115.5,286.5C 112.527,287.81 110.193,289.81 108.5,292.5C 97.2038,297.146 86.5371,302.813 76.5,309.5C 51.5,309.5 26.5,309.5 1.5,309.5C 1.5,300.5 1.5,291.5 1.5,282.5 Z"/></g>
<g><path style="opacity:1" fill="#b36fd8" d="M 350.5,282.5 C 350.5,291.5 350.5,300.5 350.5,309.5C 326.167,309.5 301.833,309.5 277.5,309.5C 267.508,302.003 256.508,296.337 244.5,292.5C 243.5,290.167 241.833,288.5 239.5,287.5C 237.5,285.833 235.5,284.167 233.5,282.5C 264.785,283.142 295.952,282.476 327,280.5C 334.667,282.394 342.5,283.06 350.5,282.5 Z"/></g>
<g><path style="opacity:1" fill="#d5d5de" d="M 172.5,268.5 C 184.885,268.38 196.885,270.046 208.5,273.5C 201.641,273.039 194.974,273.872 188.5,276C 184.393,278.613 180.893,281.78 178,285.5C 176.878,287.42 176.044,289.42 175.5,291.5C 173.857,291.48 172.524,292.147 171.5,293.5C 169.148,300.288 167.815,307.288 167.5,314.5C 169.359,322.023 170.026,329.69 169.5,337.5C 173.244,337.98 173.077,338.646 169,339.5C 166.5,338.5 164,337.5 161.5,336.5C 161.709,335.914 162.043,335.414 162.5,335C 160.924,334.56 159.59,333.727 158.5,332.5C 157.232,334.304 156.565,336.304 156.5,338.5C 154.844,337.854 153.177,337.187 151.5,336.5C 149.7,336.902 148.033,337.569 146.5,338.5C 145.681,335.695 145.181,332.695 145,329.5C 144.346,330.696 143.846,330.696 143.5,329.5C 144.127,326.298 144.794,323.131 145.5,320C 144.5,319.667 143.5,319.333 142.5,319C 143.748,314.929 144.248,310.762 144,306.5C 143.346,307.696 142.846,307.696 142.5,306.5C 144.12,304.261 143.787,302.427 141.5,301C 142.399,298.462 142.066,295.962 140.5,293.5C 141.123,291.289 142.123,289.289 143.5,287.5C 143.291,286.914 142.957,286.414 142.5,286C 149.925,276.784 159.592,271.45 171.5,270C 172.056,269.617 172.389,269.117 172.5,268.5 Z"/></g>
<g><path style="opacity:1" fill="#c9cbd9" d="M 172.5,268.5 C 172.389,269.117 172.056,269.617 171.5,270C 159.592,271.45 149.925,276.784 142.5,286C 142.957,286.414 143.291,286.914 143.5,287.5C 142.123,289.289 141.123,291.289 140.5,293.5C 142.066,295.962 142.399,298.462 141.5,301C 143.787,302.427 144.12,304.261 142.5,306.5C 142.846,307.696 143.346,307.696 144,306.5C 144.248,310.762 143.748,314.929 142.5,319C 143.5,319.333 144.5,319.667 145.5,320C 144.794,323.131 144.127,326.298 143.5,329.5C 143.846,330.696 144.346,330.696 145,329.5C 145.181,332.695 145.681,335.695 146.5,338.5C 145.4,339.605 144.733,340.938 144.5,342.5C 144.167,342.5 143.833,342.5 143.5,342.5C 141.767,341.992 141.434,341.159 142.5,340C 139.527,338.871 136.527,338.037 133.5,337.5C 134.914,335.862 134.58,334.528 132.5,333.5C 129.584,331.457 126.584,329.624 123.5,328C 124.11,325.534 123.776,323.034 122.5,320.5C 120.204,317.541 117.871,314.041 115.5,310C 119.368,301.645 119.368,293.811 115.5,286.5C 117.167,285.167 118.833,283.833 120.5,282.5C 136.877,274.376 154.211,269.709 172.5,268.5 Z"/></g>
<g><path style="opacity:1" fill="#dbd8dd" d="M 208.5,273.5 C 214.638,274.442 220.304,276.442 225.5,279.5C 219.839,278.432 214.172,278.932 208.5,281C 202.278,285.604 196.278,290.437 190.5,295.5C 186.027,300.606 184.694,306.273 186.5,312.5C 185.067,321.448 184.4,330.448 184.5,339.5C 185.5,339.5 186.5,339.5 187.5,339.5C 187.5,341.167 187.5,342.833 187.5,344.5C 189.912,344.331 192.079,344.997 194,346.5C 194.765,346.43 195.265,346.097 195.5,345.5C 195.833,345.5 196.167,345.5 196.5,345.5C 197.002,348.669 198.669,351.002 201.5,352.5C 200.85,352.804 200.183,353.137 199.5,353.5C 197.347,351.958 195.347,350.292 193.5,348.5C 193.167,349.167 192.833,349.833 192.5,350.5C 194.514,352.707 195.514,355.373 195.5,358.5C 197.179,358.285 198.179,358.952 198.5,360.5C 188.237,357.122 177.903,356.122 167.5,357.5C 163.087,357.687 158.754,358.354 154.5,359.5C 152.631,357.365 151.964,354.698 152.5,351.5C 154.404,351.262 155.738,350.262 156.5,348.5C 157.533,347.088 158.199,345.422 158.5,343.5C 157.813,341.823 157.146,340.156 156.5,338.5C 156.565,336.304 157.232,334.304 158.5,332.5C 159.59,333.727 160.924,334.56 162.5,335C 162.043,335.414 161.709,335.914 161.5,336.5C 164,337.5 166.5,338.5 169,339.5C 173.077,338.646 173.244,337.98 169.5,337.5C 170.026,329.69 169.359,322.023 167.5,314.5C 167.815,307.288 169.148,300.288 171.5,293.5C 172.524,292.147 173.857,291.48 175.5,291.5C 176.044,289.42 176.878,287.42 178,285.5C 180.893,281.78 184.393,278.613 188.5,276C 194.974,273.872 201.641,273.039 208.5,273.5 Z"/></g>
<g><path style="opacity:1" fill="#7b432f" d="M 239.5,294.5 C 242.619,295.317 245.619,296.317 248.5,297.5C 250.51,300.027 253.177,301.861 256.5,303C 254.091,304.201 252.091,305.867 250.5,308C 252.212,314.802 256.212,320.469 262.5,325C 263.437,325.692 264.103,325.525 264.5,324.5C 268.272,330.027 272.939,334.694 278.5,338.5C 279.167,339.5 279.833,340.5 280.5,341.5C 279.761,341.369 279.094,341.536 278.5,342C 279.696,342.654 279.696,343.154 278.5,343.5C 276.016,341.517 273.683,339.35 271.5,337C 269.846,336.392 268.179,335.892 266.5,335.5C 262.123,330.077 256.456,326.577 249.5,325C 246.953,321.8 243.953,320.633 240.5,321.5C 235.654,313.778 234.154,305.445 236,296.5C 236.816,295.177 237.983,294.511 239.5,294.5 Z"/></g>
<g><path style="opacity:1" fill="#ebe3e2" d="M 239.5,287.5 C 241.833,288.5 243.5,290.167 244.5,292.5C 242.447,292.402 240.78,293.069 239.5,294.5C 237.983,294.511 236.816,295.177 236,296.5C 234.154,305.445 235.654,313.778 240.5,321.5C 241.41,324.992 243.076,327.992 245.5,330.5C 248.004,335.515 251.004,340.181 254.5,344.5C 259.533,351.856 264.533,359.19 269.5,366.5C 273.526,372.913 275.526,379.913 275.5,387.5C 274.883,392.584 273.883,397.584 272.5,402.5C 251.488,404.413 230.822,403.08 210.5,398.5C 211.167,397.167 211.833,395.833 212.5,394.5C 213.939,392.412 214.606,390.079 214.5,387.5C 216.394,376.621 212.394,368.621 202.5,363.5C 201.41,362.143 200.076,361.143 198.5,360.5C 198.179,358.952 197.179,358.285 195.5,358.5C 195.514,355.373 194.514,352.707 192.5,350.5C 192.833,349.833 193.167,349.167 193.5,348.5C 195.347,350.292 197.347,351.958 199.5,353.5C 200.183,353.137 200.85,352.804 201.5,352.5C 204.491,352.834 206.824,351.834 208.5,349.5C 209.931,348.22 210.598,346.553 210.5,344.5C 210.107,342.716 209.441,341.05 208.5,339.5C 207.516,329.797 207.182,320.13 207.5,310.5C 208.311,309.784 208.978,308.95 209.5,308C 209.185,305.236 209.185,302.569 209.5,300C 212.339,296.828 215.172,293.662 218,290.5C 218.333,290.833 218.667,291.167 219,291.5C 221.253,288.953 224.086,287.286 227.5,286.5C 228.842,287.902 229.676,287.569 230,285.5C 233.085,286.432 236.252,287.099 239.5,287.5 Z"/></g>
<g><path style="opacity:1" fill="#592f23" d="M 114.5,297.5 C 113.85,305.786 111.517,313.453 107.5,320.5C 107.209,319.351 106.376,318.684 105,318.5C 103.331,319.166 101.831,319.166 100.5,318.5C 99.1667,320.5 97.8333,322.5 96.5,324.5C 94.2706,325.577 91.9372,326.244 89.5,326.5C 89.2865,328.144 89.6198,329.644 90.5,331C 88.1667,332 85.8333,333 83.5,334C 83.0183,335.008 82.8516,336.175 83,337.5C 80.9419,338.229 79.1086,339.229 77.5,340.5C 75.139,340.674 72.8056,341.007 70.5,341.5C 70.0939,337.971 68.4272,336.971 65.5,338.5C 67.3383,334.82 70.1717,331.82 74,329.5C 75,327.5 76,325.5 77,323.5C 84.651,319.101 91.151,313.434 96.5,306.5C 98.7935,304.448 101.293,303.781 104,304.5C 106.862,301.125 110.362,298.792 114.5,297.5 Z"/></g>
<g><path style="opacity:1" fill="#4a2d29" d="M 113.5,295.5 C 113.833,296.167 114.167,296.833 114.5,297.5C 110.362,298.792 106.862,301.125 104,304.5C 101.293,303.781 98.7935,304.448 96.5,306.5C 91.151,313.434 84.651,319.101 77,323.5C 76,325.5 75,327.5 74,329.5C 70.1717,331.82 67.3383,334.82 65.5,338.5C 59.562,343.099 53.8953,348.099 48.5,353.5C 47.8333,353.833 47.1667,354.167 46.5,354.5C 48.1331,348.045 51.7998,343.211 57.5,340C 72.8672,320.776 91.5339,305.943 113.5,295.5 Z"/></g>
<g><path style="opacity:1" fill="#8a4e3b" d="M 248.5,297.5 C 250.993,298.797 253.66,299.797 256.5,300.5C 261.83,304.162 267.164,307.829 272.5,311.5C 273.167,313.167 273.833,314.833 274.5,316.5C 272.926,316.063 271.759,315.063 271,313.5C 270.333,314.833 269.667,316.167 269,317.5C 267.124,312.931 264.957,313.097 262.5,318C 263.799,320.311 264.466,322.477 264.5,324.5C 264.103,325.525 263.437,325.692 262.5,325C 256.212,320.469 252.212,314.802 250.5,308C 252.091,305.867 254.091,304.201 256.5,303C 253.177,301.861 250.51,300.027 248.5,297.5 Z"/></g>
<g><path style="opacity:1" fill="#4b3940" d="M 111.5,294.5 C 112.492,294.328 113.158,294.662 113.5,295.5C 91.5339,305.943 72.8672,320.776 57.5,340C 51.7998,343.211 48.1331,348.045 46.5,354.5C 46.5792,355.93 46.2458,357.264 45.5,358.5C 43.1322,359.577 41.4655,361.244 40.5,363.5C 40.5079,360.455 40.8413,357.455 41.5,354.5C 45.819,351.59 48.9856,347.59 51,342.5C 60.1195,332.547 69.6195,322.714 79.5,313C 89.0767,305.042 99.7434,298.875 111.5,294.5 Z"/></g>
<g><path style="opacity:1" fill="#af71d9" d="M 1.5,309.5 C 26.5,309.5 51.5,309.5 76.5,309.5C 63.289,320.369 52.289,333.035 43.5,347.5C 29.5,347.5 15.5,347.5 1.5,347.5C 1.5,334.833 1.5,322.167 1.5,309.5 Z"/></g>
<g><path style="opacity:1" fill="#906f7b" d="M 244.5,292.5 C 256.508,296.337 267.508,302.003 277.5,309.5C 281.5,313.167 285.5,316.833 289.5,320.5C 285.983,318.576 282.316,316.909 278.5,315.5C 276.228,314.559 274.228,313.226 272.5,311.5C 267.164,307.829 261.83,304.162 256.5,300.5C 253.66,299.797 250.993,298.797 248.5,297.5C 245.619,296.317 242.619,295.317 239.5,294.5C 240.78,293.069 242.447,292.402 244.5,292.5 Z"/></g>
<g><path style="opacity:1" fill="#af71d9" d="M 277.5,309.5 C 301.833,309.5 326.167,309.5 350.5,309.5C 350.5,322.167 350.5,334.833 350.5,347.5C 337.323,347.171 324.323,347.505 311.5,348.5C 305.614,338.078 298.28,328.744 289.5,320.5C 285.5,316.833 281.5,313.167 277.5,309.5 Z"/></g>
<g><path style="opacity:1" fill="#9d5a41" d="M 274.5,316.5 C 280.253,321.311 285.086,326.978 289,333.5C 297.296,342.438 304.963,351.772 312,361.5C 312.808,365.027 312.641,368.36 311.5,371.5C 311.737,370.209 311.404,369.209 310.5,368.5C 310.424,363.913 308.924,359.913 306,356.5C 300.161,349.481 293.327,343.815 285.5,339.5C 284.287,339.747 283.62,340.414 283.5,341.5C 282.078,340.075 280.411,339.075 278.5,338.5C 272.939,334.694 268.272,330.027 264.5,324.5C 264.466,322.477 263.799,320.311 262.5,318C 264.957,313.097 267.124,312.931 269,317.5C 269.667,316.167 270.333,314.833 271,313.5C 271.759,315.063 272.926,316.063 274.5,316.5 Z"/></g>
<g><path style="opacity:1" fill="#a37578" d="M 278.5,315.5 C 282.316,316.909 285.983,318.576 289.5,320.5C 298.28,328.744 305.614,338.078 311.5,348.5C 312.5,352.499 313.5,356.499 314.5,360.5C 311.597,355.016 308.763,349.35 306,343.5C 302.667,340.833 299.333,338.167 296,335.5C 290.623,328.299 284.789,321.632 278.5,315.5 Z"/></g>
<g><path style="opacity:1" fill="#58546a" d="M 108.5,292.5 C 109.5,293.167 110.5,293.833 111.5,294.5C 99.7434,298.875 89.0767,305.042 79.5,313C 69.6195,322.714 60.1195,332.547 51,342.5C 48.9856,347.59 45.819,351.59 41.5,354.5C 42.1667,352.167 42.8333,349.833 43.5,347.5C 52.289,333.035 63.289,320.369 76.5,309.5C 86.5371,302.813 97.2038,297.146 108.5,292.5 Z"/></g>
<g><path style="opacity:1" fill="#454554" d="M 208.5,339.5 C 209.441,341.05 210.107,342.716 210.5,344.5C 207.504,342.924 204.838,343.257 202.5,345.5C 200.5,345.5 198.5,345.5 196.5,345.5C 196.167,345.5 195.833,345.5 195.5,345.5C 196.795,336.684 201.128,334.684 208.5,339.5 Z"/></g>
<g><path style="opacity:1" fill="#3f404f" d="M 156.5,338.5 C 157.146,340.156 157.813,341.823 158.5,343.5C 158.199,345.422 157.533,347.088 156.5,348.5C 156.631,347.624 156.298,346.957 155.5,346.5C 151.459,345.907 147.792,344.573 144.5,342.5C 144.733,340.938 145.4,339.605 146.5,338.5C 148.033,337.569 149.7,336.902 151.5,336.5C 153.177,337.187 154.844,337.854 156.5,338.5 Z"/></g>
<g><path style="opacity:1" fill="#bebfcc" d="M 115.5,286.5 C 119.368,293.811 119.368,301.645 115.5,310C 117.871,314.041 120.204,317.541 122.5,320.5C 123.776,323.034 124.11,325.534 123.5,328C 126.584,329.624 129.584,331.457 132.5,333.5C 134.58,334.528 134.914,335.862 133.5,337.5C 134.343,341.593 135.343,345.593 136.5,349.5C 132.569,349.362 128.902,348.362 125.5,346.5C 120.423,347.224 120.423,348.391 125.5,350C 124.338,351.827 124.672,353.494 126.5,355C 126.266,358.013 125.099,360.513 123,362.5C 123.122,367.032 121.789,371.032 119,374.5C 118.503,376.81 118.337,379.143 118.5,381.5C 119.5,381.5 120.5,381.5 121.5,381.5C 121.5,384.167 121.5,386.833 121.5,389.5C 119.528,387.681 117.195,386.681 114.5,386.5C 114.5,385.5 114.5,384.5 114.5,383.5C 113.167,383.5 111.833,383.5 110.5,383.5C 110.5,382.5 110.5,381.5 110.5,380.5C 109.022,380.762 107.689,380.429 106.5,379.5C 105.911,376.724 104.578,374.39 102.5,372.5C 101.808,373.025 101.308,373.692 101,374.5C 99.9914,372.975 99.4914,371.308 99.5,369.5C 98.5,369.5 97.5,369.5 96.5,369.5C 96.6495,368.448 96.4828,367.448 96,366.5C 95.7266,368.101 95.2266,369.601 94.5,371C 95.4817,373.738 96.1484,376.572 96.5,379.5C 94.0582,379.881 93.3915,379.214 94.5,377.5C 94.0431,376.702 93.3764,376.369 92.5,376.5C 92.6399,374.876 91.9733,373.71 90.5,373C 90.6225,371.211 90.6225,369.378 90.5,367.5C 92.0936,359.056 94.0936,350.723 96.5,342.5C 100.167,335.167 103.833,327.833 107.5,320.5C 111.517,313.453 113.85,305.786 114.5,297.5C 114.167,296.833 113.833,296.167 113.5,295.5C 113.158,294.662 112.492,294.328 111.5,294.5C 110.5,293.833 109.5,293.167 108.5,292.5C 110.193,289.81 112.527,287.81 115.5,286.5 Z"/></g>
<g><path style="opacity:1" fill="#572310" d="M 107.5,320.5 C 103.833,327.833 100.167,335.167 96.5,342.5C 92.9969,347.502 89.9969,352.835 87.5,358.5C 80.7437,357.036 76.077,353.036 73.5,346.5C 75.5,345.5 77.5,344.5 79.5,343.5C 79.0576,342.261 78.3909,341.261 77.5,340.5C 79.1086,339.229 80.9419,338.229 83,337.5C 82.8516,336.175 83.0183,335.008 83.5,334C 85.8333,333 88.1667,332 90.5,331C 89.6198,329.644 89.2865,328.144 89.5,326.5C 91.9372,326.244 94.2706,325.577 96.5,324.5C 97.8333,322.5 99.1667,320.5 100.5,318.5C 101.831,319.166 103.331,319.166 105,318.5C 106.376,318.684 107.209,319.351 107.5,320.5 Z"/></g>
<g><path style="opacity:1" fill="#1c191b" d="M 143.5,342.5 C 143.833,342.5 144.167,342.5 144.5,342.5C 147.792,344.573 151.459,345.907 155.5,346.5C 156.298,346.957 156.631,347.624 156.5,348.5C 155.738,350.262 154.404,351.262 152.5,351.5C 145.903,352.236 142.903,349.236 143.5,342.5 Z"/></g>
<g><path style="opacity:1" fill="#c5c2cb" d="M 133.5,337.5 C 136.527,338.037 139.527,338.871 142.5,340C 141.434,341.159 141.767,341.992 143.5,342.5C 142.903,349.236 145.903,352.236 152.5,351.5C 151.964,354.698 152.631,357.365 154.5,359.5C 144.643,362.691 138.643,369.357 136.5,379.5C 135.139,383.93 135.473,388.263 137.5,392.5C 137.5,393.167 137.5,393.833 137.5,394.5C 134.5,394.5 131.5,394.5 128.5,394.5C 128.5,393.5 128.5,392.5 128.5,391.5C 125.924,391.532 123.591,390.865 121.5,389.5C 121.5,386.833 121.5,384.167 121.5,381.5C 120.5,381.5 119.5,381.5 118.5,381.5C 118.337,379.143 118.503,376.81 119,374.5C 121.789,371.032 123.122,367.032 123,362.5C 125.099,360.513 126.266,358.013 126.5,355C 124.672,353.494 124.338,351.827 125.5,350C 120.423,348.391 120.423,347.224 125.5,346.5C 128.902,348.362 132.569,349.362 136.5,349.5C 135.343,345.593 134.343,341.593 133.5,337.5 Z"/></g>
<g><path style="opacity:1" fill="#644f46" d="M 210.5,344.5 C 210.598,346.553 209.931,348.22 208.5,349.5C 206.19,348.675 204.19,347.342 202.5,345.5C 204.838,343.257 207.504,342.924 210.5,344.5 Z"/></g>
<g><path style="opacity:1" fill="#a66756" d="M 272.5,311.5 C 274.228,313.226 276.228,314.559 278.5,315.5C 284.789,321.632 290.623,328.299 296,335.5C 299.333,338.167 302.667,340.833 306,343.5C 308.763,349.35 311.597,355.016 314.5,360.5C 314.965,367.555 313.298,373.888 309.5,379.5C 309.833,378.167 310.167,376.833 310.5,375.5C 311.234,374.292 311.567,372.959 311.5,371.5C 312.641,368.36 312.808,365.027 312,361.5C 304.963,351.772 297.296,342.438 289,333.5C 285.086,326.978 280.253,321.311 274.5,316.5C 273.833,314.833 273.167,313.167 272.5,311.5 Z"/></g>
<g><path style="opacity:1" fill="#2d2626" d="M 196.5,345.5 C 198.5,345.5 200.5,345.5 202.5,345.5C 204.19,347.342 206.19,348.675 208.5,349.5C 206.824,351.834 204.491,352.834 201.5,352.5C 198.669,351.002 197.002,348.669 196.5,345.5 Z"/></g>
<g><path style="opacity:1" fill="#57230f" d="M 266.5,335.5 C 273.424,344.594 281.257,352.927 290,360.5C 292.667,364.167 295.333,367.833 298,371.5C 300.039,373.874 302.372,375.874 305,377.5C 305.785,379.249 306.618,380.916 307.5,382.5C 305.801,382.66 304.134,382.494 302.5,382C 285.73,362.894 267.397,345.56 247.5,330C 246.563,329.308 245.897,329.475 245.5,330.5C 243.076,327.992 241.41,324.992 240.5,321.5C 243.953,320.633 246.953,321.8 249.5,325C 256.456,326.577 262.123,330.077 266.5,335.5 Z"/></g>
<g><path style="opacity:1" fill="#a35633" d="M 310.5,368.5 C 307.195,364.363 303.362,360.697 299,357.5C 298.667,356.5 298.333,355.5 298,354.5C 293.27,349.931 288.437,345.597 283.5,341.5C 283.62,340.414 284.287,339.747 285.5,339.5C 293.327,343.815 300.161,349.481 306,356.5C 308.924,359.913 310.424,363.913 310.5,368.5 Z"/></g>
<g><path style="opacity:1" fill="#331307" d="M 303.5,386.5 C 303.167,386.5 302.833,386.5 302.5,386.5C 300.085,386.627 297.751,386.793 295.5,387C 286.718,379.853 278.218,372.353 270,364.5C 269.536,365.094 269.369,365.761 269.5,366.5C 264.533,359.19 259.533,351.856 254.5,344.5C 254.897,343.475 255.563,343.308 256.5,344C 271.053,357.889 285.553,371.722 300,385.5C 301.313,384.713 302.48,385.046 303.5,386.5 Z"/></g>
<g><path style="opacity:1" fill="#411808" d="M 307.5,382.5 C 306.5,384.167 305.167,385.5 303.5,386.5C 302.48,385.046 301.313,384.713 300,385.5C 285.553,371.722 271.053,357.889 256.5,344C 255.563,343.308 254.897,343.475 254.5,344.5C 251.004,340.181 248.004,335.515 245.5,330.5C 245.897,329.475 246.563,329.308 247.5,330C 267.397,345.56 285.73,362.894 302.5,382C 304.134,382.494 305.801,382.66 307.5,382.5 Z"/></g>
<g><path style="opacity:1" fill="#6c2d15" d="M 266.5,335.5 C 268.179,335.892 269.846,336.392 271.5,337C 273.683,339.35 276.016,341.517 278.5,343.5C 279.696,343.154 279.696,342.654 278.5,342C 279.094,341.536 279.761,341.369 280.5,341.5C 282.423,344.603 284.59,347.603 287,350.5C 291.11,354.257 294.61,358.591 297.5,363.5C 302.54,366.878 306.873,370.878 310.5,375.5C 310.167,376.833 309.833,378.167 309.5,379.5C 309.573,381.027 308.906,382.027 307.5,382.5C 306.618,380.916 305.785,379.249 305,377.5C 302.372,375.874 300.039,373.874 298,371.5C 295.333,367.833 292.667,364.167 290,360.5C 281.257,352.927 273.424,344.594 266.5,335.5 Z"/></g>
<g><path style="opacity:1" fill="#441909" d="M 77.5,340.5 C 78.3909,341.261 79.0576,342.261 79.5,343.5C 77.5,344.5 75.5,345.5 73.5,346.5C 76.077,353.036 80.7437,357.036 87.5,358.5C 86.0713,361.696 84.4046,364.696 82.5,367.5C 78.0609,366.614 74.0609,364.614 70.5,361.5C 67.2533,357.341 64.2533,353.008 61.5,348.5C 63.2873,347.684 64.9539,346.684 66.5,345.5C 65.0892,343.983 65.2559,342.649 67,341.5C 68.1455,342.684 69.3121,342.684 70.5,341.5C 72.8056,341.007 75.139,340.674 77.5,340.5 Z"/></g>
<g><path style="opacity:1" fill="#bfaa9a" d="M 167.5,357.5 C 177.903,356.122 188.237,357.122 198.5,360.5C 200.076,361.143 201.41,362.143 202.5,363.5C 198.554,362.473 194.554,362.306 190.5,363C 189.667,363.833 188.833,364.667 188,365.5C 186.039,365.825 184.206,365.158 182.5,363.5C 181.833,363.167 181.167,362.833 180.5,362.5C 180.027,361.094 179.027,360.427 177.5,360.5C 174.554,358.521 171.221,357.521 167.5,357.5 Z"/></g>
<g><path style="opacity:1" fill="#9d8e83" d="M 167.5,357.5 C 171.221,357.521 174.554,358.521 177.5,360.5C 172.78,359.413 169.78,361.08 168.5,365.5C 168.5,365.833 168.5,366.167 168.5,366.5C 167.883,366.611 167.383,366.944 167,367.5C 166.3,365.968 165.134,364.968 163.5,364.5C 162.455,366.401 161.122,368.067 159.5,369.5C 158.522,369.023 157.689,368.357 157,367.5C 156.02,369.059 155.187,370.726 154.5,372.5C 153.325,371.145 152.325,371.312 151.5,373C 152.38,374.356 152.714,375.856 152.5,377.5C 149.911,376.562 147.411,376.229 145,376.5C 144.536,377.094 144.369,377.761 144.5,378.5C 142.907,377.652 141.74,376.319 141,374.5C 139.951,376.618 138.451,378.284 136.5,379.5C 138.643,369.357 144.643,362.691 154.5,359.5C 158.754,358.354 163.087,357.687 167.5,357.5 Z"/></g>
<g><path style="opacity:1" fill="#333a4e" d="M 177.5,360.5 C 179.027,360.427 180.027,361.094 180.5,362.5C 179.375,364 178.041,365.333 176.5,366.5C 173.794,366.425 171.127,366.092 168.5,365.5C 169.78,361.08 172.78,359.413 177.5,360.5 Z"/></g>
<g><path style="opacity:1" fill="#766968" d="M 180.5,362.5 C 181.167,362.833 181.833,363.167 182.5,363.5C 182.784,365.415 182.451,367.081 181.5,368.5C 179.833,367.833 178.167,367.167 176.5,366.5C 178.041,365.333 179.375,364 180.5,362.5 Z"/></g>
<g><path style="opacity:1" fill="#2b110a" d="M 48.5,353.5 C 48.7529,355.827 48.0863,357.827 46.5,359.5C 53.264,365.089 59.9307,370.922 66.5,377C 70.3592,379.007 74.3592,380.507 78.5,381.5C 78.5,383.5 78.5,385.5 78.5,387.5C 71.5844,389.16 64.5844,389.66 57.5,389C 45.7448,384.678 40.0781,376.178 40.5,363.5C 41.4655,361.244 43.1322,359.577 45.5,358.5C 46.2458,357.264 46.5792,355.93 46.5,354.5C 47.1667,354.167 47.8333,353.833 48.5,353.5 Z"/></g>
<g><path style="opacity:1" fill="#371407" d="M 70.5,341.5 C 69.3121,342.684 68.1455,342.684 67,341.5C 65.2559,342.649 65.0892,343.983 66.5,345.5C 64.9539,346.684 63.2873,347.684 61.5,348.5C 64.2533,353.008 67.2533,357.341 70.5,361.5C 74.0609,364.614 78.0609,366.614 82.5,367.5C 81.2967,371.11 80.2967,374.777 79.5,378.5C 78.596,379.209 78.2627,380.209 78.5,381.5C 74.3592,380.507 70.3592,379.007 66.5,377C 59.9307,370.922 53.264,365.089 46.5,359.5C 48.0863,357.827 48.7529,355.827 48.5,353.5C 53.8953,348.099 59.562,343.099 65.5,338.5C 68.4272,336.971 70.0939,337.971 70.5,341.5 Z"/></g>
<g><path style="opacity:1" fill="#ceb095" d="M 202.5,363.5 C 212.394,368.621 216.394,376.621 214.5,387.5C 214.762,386.022 214.429,384.689 213.5,383.5C 210.752,382.187 207.919,381.187 205,380.5C 202.168,381.791 199.168,382.457 196,382.5C 191.908,381.253 187.742,380.253 183.5,379.5C 183.719,380.675 183.386,381.675 182.5,382.5C 181.571,381.45 180.905,381.45 180.5,382.5C 177.939,380.388 176.273,377.722 175.5,374.5C 175.667,373.167 175.833,371.833 176,370.5C 178.298,371.446 180.132,370.779 181.5,368.5C 182.451,367.081 182.784,365.415 182.5,363.5C 184.206,365.158 186.039,365.825 188,365.5C 188.833,364.667 189.667,363.833 190.5,363C 194.554,362.306 198.554,362.473 202.5,363.5 Z"/></g>
<g><path style="opacity:1" fill="#8f4323" d="M 278.5,338.5 C 280.411,339.075 282.078,340.075 283.5,341.5C 288.437,345.597 293.27,349.931 298,354.5C 298.333,355.5 298.667,356.5 299,357.5C 303.362,360.697 307.195,364.363 310.5,368.5C 311.404,369.209 311.737,370.209 311.5,371.5C 311.567,372.959 311.234,374.292 310.5,375.5C 306.873,370.878 302.54,366.878 297.5,363.5C 294.61,358.591 291.11,354.257 287,350.5C 284.59,347.603 282.423,344.603 280.5,341.5C 279.833,340.5 279.167,339.5 278.5,338.5 Z"/></g>
<g><path style="opacity:1" fill="#250f08" d="M 302.5,386.5 C 298.979,388.914 294.979,389.914 290.5,389.5C 285.424,389.313 280.424,388.646 275.5,387.5C 275.526,379.913 273.526,372.913 269.5,366.5C 269.369,365.761 269.536,365.094 270,364.5C 278.218,372.353 286.718,379.853 295.5,387C 297.751,386.793 300.085,386.627 302.5,386.5 Z"/></g>
<g><path style="opacity:1" fill="#ae937c" d="M 168.5,366.5 C 169.085,368.922 170.585,370.589 173,371.5C 174.407,376.401 173.24,380.401 169.5,383.5C 165.86,382.727 162.193,382.06 158.5,381.5C 156.609,379.984 154.609,378.65 152.5,377.5C 152.714,375.856 152.38,374.356 151.5,373C 152.325,371.312 153.325,371.145 154.5,372.5C 155.187,370.726 156.02,369.059 157,367.5C 157.689,368.357 158.522,369.023 159.5,369.5C 161.122,368.067 162.455,366.401 163.5,364.5C 165.134,364.968 166.3,365.968 167,367.5C 167.383,366.944 167.883,366.611 168.5,366.5 Z"/></g>
<g><path style="opacity:1" fill="#a675dc" d="M 1.5,347.5 C 15.5,347.5 29.5,347.5 43.5,347.5C 42.8333,349.833 42.1667,352.167 41.5,354.5C 40.8413,357.455 40.5079,360.455 40.5,363.5C 40.0781,376.178 45.7448,384.678 57.5,389C 64.5844,389.66 71.5844,389.16 78.5,387.5C 78.448,389.903 78.7814,392.236 79.5,394.5C 80.3337,400.673 82.3337,406.339 85.5,411.5C 87.1667,414.167 88.8333,416.833 90.5,419.5C 61.0047,420.498 31.338,420.831 1.5,420.5C 1.5,397.833 1.5,375.167 1.5,352.5C 5.5,351.833 5.5,351.167 1.5,350.5C 1.5,349.5 1.5,348.5 1.5,347.5 Z"/></g>
<g><path style="opacity:1" fill="#a675dc" d="M 350.5,347.5 C 350.5,371.833 350.5,396.167 350.5,420.5C 321.329,420.831 292.329,420.498 263.5,419.5C 267.279,414.277 270.279,408.61 272.5,402.5C 273.883,397.584 274.883,392.584 275.5,387.5C 280.424,388.646 285.424,389.313 290.5,389.5C 294.979,389.914 298.979,388.914 302.5,386.5C 302.833,386.5 303.167,386.5 303.5,386.5C 305.167,385.5 306.5,384.167 307.5,382.5C 308.906,382.027 309.573,381.027 309.5,379.5C 313.298,373.888 314.965,367.555 314.5,360.5C 313.5,356.499 312.5,352.499 311.5,348.5C 324.323,347.505 337.323,347.171 350.5,347.5 Z"/></g>
<g><path style="opacity:1" fill="#302b2f" d="M 168.5,365.5 C 171.127,366.092 173.794,366.425 176.5,366.5C 178.167,367.167 179.833,367.833 181.5,368.5C 180.132,370.779 178.298,371.446 176,370.5C 175.833,371.833 175.667,373.167 175.5,374.5C 176.273,377.722 177.939,380.388 180.5,382.5C 180.5,382.833 180.5,383.167 180.5,383.5C 180.565,383.938 180.399,384.272 180,384.5C 178.406,383.284 176.906,381.951 175.5,380.5C 174.019,381.48 172.685,382.647 171.5,384C 170.563,384.692 169.897,384.525 169.5,383.5C 173.24,380.401 174.407,376.401 173,371.5C 170.585,370.589 169.085,368.922 168.5,366.5C 168.5,366.167 168.5,365.833 168.5,365.5 Z"/></g>
<g><path style="opacity:1" fill="#a6a7b9" d="M 96.5,342.5 C 94.0936,350.723 92.0936,359.056 90.5,367.5C 90.6225,369.378 90.6225,371.211 90.5,373C 91.9733,373.71 92.6399,374.876 92.5,376.5C 92.3801,378.734 92.7135,380.901 93.5,383C 97.7088,387.454 100.709,392.62 102.5,398.5C 99.4121,398.361 96.7454,397.361 94.5,395.5C 93.6165,393.09 92.4498,390.757 91,388.5C 89.9887,389.337 88.8221,389.67 87.5,389.5C 86.1667,389.5 84.8333,389.5 83.5,389.5C 81.7788,386.005 80.4454,382.339 79.5,378.5C 80.2967,374.777 81.2967,371.11 82.5,367.5C 84.4046,364.696 86.0713,361.696 87.5,358.5C 89.9969,352.835 92.9969,347.502 96.5,342.5 Z"/></g>
<g><path style="opacity:1" fill="#b8b5bf" d="M 121.5,389.5 C 123.591,390.865 125.924,391.532 128.5,391.5C 128.5,392.5 128.5,393.5 128.5,394.5C 131.5,394.5 134.5,394.5 137.5,394.5C 139.462,398.064 142.129,401.064 145.5,403.5C 138.352,404.492 131.019,404.825 123.5,404.5C 117.297,404.497 111.631,402.663 106.5,399C 105.207,398.51 103.873,398.343 102.5,398.5C 100.709,392.62 97.7088,387.454 93.5,383C 92.7135,380.901 92.3801,378.734 92.5,376.5C 93.3764,376.369 94.0431,376.702 94.5,377.5C 93.3915,379.214 94.0582,379.881 96.5,379.5C 96.1484,376.572 95.4817,373.738 94.5,371C 95.2266,369.601 95.7266,368.101 96,366.5C 96.4828,367.448 96.6495,368.448 96.5,369.5C 97.5,369.5 98.5,369.5 99.5,369.5C 99.4914,371.308 99.9914,372.975 101,374.5C 101.308,373.692 101.808,373.025 102.5,372.5C 104.578,374.39 105.911,376.724 106.5,379.5C 107.689,380.429 109.022,380.762 110.5,380.5C 110.5,381.5 110.5,382.5 110.5,383.5C 111.833,383.5 113.167,383.5 114.5,383.5C 114.5,384.5 114.5,385.5 114.5,386.5C 117.195,386.681 119.528,387.681 121.5,389.5 Z"/></g>
<g><path style="opacity:1" fill="#cea47c" d="M 214.5,387.5 C 214.606,390.079 213.939,392.412 212.5,394.5C 209.813,394.664 207.146,394.497 204.5,394C 203.167,393.333 202.167,392.333 201.5,391C 199.888,390.28 198.388,390.446 197,391.5C 193.147,390.042 189.147,389.042 185,388.5C 182.975,387.191 181.475,385.525 180.5,383.5C 180.5,383.167 180.5,382.833 180.5,382.5C 180.905,381.45 181.571,381.45 182.5,382.5C 183.386,381.675 183.719,380.675 183.5,379.5C 187.742,380.253 191.908,381.253 196,382.5C 199.168,382.457 202.168,381.791 205,380.5C 207.919,381.187 210.752,382.187 213.5,383.5C 214.429,384.689 214.762,386.022 214.5,387.5 Z"/></g>
<g><path style="opacity:1" fill="#b08762" d="M 180.5,383.5 C 181.475,385.525 182.975,387.191 185,388.5C 189.147,389.042 193.147,390.042 197,391.5C 198.388,390.446 199.888,390.28 201.5,391C 202.167,392.333 203.167,393.333 204.5,394C 207.146,394.497 209.813,394.664 212.5,394.5C 211.833,395.833 211.167,397.167 210.5,398.5C 209.527,400.139 208.194,401.473 206.5,402.5C 196.994,401.597 187.327,400.763 177.5,400C 174.929,398.546 172.262,397.38 169.5,396.5C 169.918,395.778 170.584,395.278 171.5,395C 166.761,392.757 162.428,389.923 158.5,386.5C 157.167,385.5 157.167,384.5 158.5,383.5C 159.451,384.326 160.451,384.492 161.5,384C 160.429,383.148 159.429,382.315 158.5,381.5C 162.193,382.06 165.86,382.727 169.5,383.5C 169.897,384.525 170.563,384.692 171.5,384C 172.685,382.647 174.019,381.48 175.5,380.5C 176.906,381.951 178.406,383.284 180,384.5C 180.399,384.272 180.565,383.938 180.5,383.5 Z"/></g>
<g><path style="opacity:1" fill="#99785c" d="M 152.5,377.5 C 154.609,378.65 156.609,379.984 158.5,381.5C 159.429,382.315 160.429,383.148 161.5,384C 160.451,384.492 159.451,384.326 158.5,383.5C 157.167,384.5 157.167,385.5 158.5,386.5C 162.428,389.923 166.761,392.757 171.5,395C 170.584,395.278 169.918,395.778 169.5,396.5C 163.973,395.048 158.307,393.715 152.5,392.5C 151.24,391.618 150.074,390.618 149,389.5C 148.486,385.266 146.986,381.6 144.5,378.5C 144.369,377.761 144.536,377.094 145,376.5C 147.411,376.229 149.911,376.562 152.5,377.5 Z"/></g>
<g><path style="opacity:1" fill="#866347" d="M 144.5,378.5 C 146.986,381.6 148.486,385.266 149,389.5C 150.074,390.618 151.24,391.618 152.5,392.5C 158.307,393.715 163.973,395.048 169.5,396.5C 172.262,397.38 174.929,398.546 177.5,400C 187.327,400.763 196.994,401.597 206.5,402.5C 205.128,403.512 203.795,404.512 202.5,405.5C 201.609,406.11 200.609,406.443 199.5,406.5C 179.015,410.593 160.515,406.593 144,394.5C 142,389.166 139.5,384.166 136.5,379.5C 138.451,378.284 139.951,376.618 141,374.5C 141.74,376.319 142.907,377.652 144.5,378.5 Z"/></g>
<g><path style="opacity:1" fill="#a7a1aa" d="M 102.5,398.5 C 103.873,398.343 105.207,398.51 106.5,399C 111.631,402.663 117.297,404.497 123.5,404.5C 128.648,407.445 134.315,409.778 140.5,411.5C 141.773,412.257 141.773,412.923 140.5,413.5C 128.986,412.093 117.652,409.759 106.5,406.5C 103.573,404.382 100.24,403.382 96.5,403.5C 96.5792,402.07 96.2458,400.736 95.5,399.5C 93.3674,397.909 91.7007,395.909 90.5,393.5C 89.675,392.614 88.675,392.281 87.5,392.5C 87.5,391.5 87.5,390.5 87.5,389.5C 88.8221,389.67 89.9887,389.337 91,388.5C 92.4498,390.757 93.6165,393.09 94.5,395.5C 96.7454,397.361 99.4121,398.361 102.5,398.5 Z"/></g>
<g><path style="opacity:1" fill="#563f2e" d="M 184.5,411.5 C 170.437,413.421 157.437,410.755 145.5,403.5C 142.129,401.064 139.462,398.064 137.5,394.5C 137.5,393.833 137.5,393.167 137.5,392.5C 137.34,390.801 137.506,389.134 138,387.5C 140.215,392.1 143.048,396.266 146.5,400C 152.512,403.508 158.846,406.175 165.5,408C 172.084,408.539 178.417,409.706 184.5,411.5 Z"/></g>
<g><path style="opacity:1" fill="#694d37" d="M 136.5,379.5 C 139.5,384.166 142,389.166 144,394.5C 160.515,406.593 179.015,410.593 199.5,406.5C 197.351,407.736 195.018,408.736 192.5,409.5C 189.885,410.291 187.218,410.957 184.5,411.5C 178.417,409.706 172.084,408.539 165.5,408C 158.846,406.175 152.512,403.508 146.5,400C 143.048,396.266 140.215,392.1 138,387.5C 137.506,389.134 137.34,390.801 137.5,392.5C 135.473,388.263 135.139,383.93 136.5,379.5 Z"/></g>
<g><path style="opacity:1" fill="#dcccc6" d="M 210.5,398.5 C 230.822,403.08 251.488,404.413 272.5,402.5C 270.279,408.61 267.279,414.277 263.5,419.5C 263.167,419.5 262.833,419.5 262.5,419.5C 248.943,418.95 235.943,416.117 223.5,411C 218.123,409.556 212.123,408.389 205.5,407.5C 204.398,406.824 203.398,406.158 202.5,405.5C 203.795,404.512 205.128,403.512 206.5,402.5C 208.194,401.473 209.527,400.139 210.5,398.5 Z"/></g>
<g><path style="opacity:1" fill="#b4a6a5" d="M 145.5,403.5 C 157.437,410.755 170.437,413.421 184.5,411.5C 187.218,410.957 189.885,410.291 192.5,409.5C 192.5,410.5 192.5,411.5 192.5,412.5C 196.679,411.907 200.346,412.907 203.5,415.5C 212.441,417.654 221.441,419.487 230.5,421C 230.167,421.333 229.833,421.667 229.5,422C 237.599,424.942 245.932,426.775 254.5,427.5C 252.853,429.326 250.853,430.66 248.5,431.5C 236.494,427.482 223.827,424.315 210.5,422C 186.645,422.531 163.312,419.698 140.5,413.5C 141.773,412.923 141.773,412.257 140.5,411.5C 134.315,409.778 128.648,407.445 123.5,404.5C 131.019,404.825 138.352,404.492 145.5,403.5 Z"/></g>
<g><path style="opacity:1" fill="#958f98" d="M 79.5,378.5 C 80.4454,382.339 81.7788,386.005 83.5,389.5C 84.8333,389.5 86.1667,389.5 87.5,389.5C 87.5,390.5 87.5,391.5 87.5,392.5C 88.675,392.281 89.675,392.614 90.5,393.5C 91.7007,395.909 93.3674,397.909 95.5,399.5C 96.2458,400.736 96.5792,402.07 96.5,403.5C 100.24,403.382 103.573,404.382 106.5,406.5C 109.476,408.993 112.809,410.993 116.5,412.5C 126.11,415.32 135.777,417.986 145.5,420.5C 130.244,421.858 115.577,419.358 101.5,413C 99.0429,409.842 96.2095,407.009 93,404.5C 92.51,403.207 92.3433,401.873 92.5,400.5C 89.5697,398.774 86.5697,396.94 83.5,395C 82.2068,394.51 80.8734,394.343 79.5,394.5C 78.7814,392.236 78.448,389.903 78.5,387.5C 78.5,385.5 78.5,383.5 78.5,381.5C 78.2627,380.209 78.596,379.209 79.5,378.5 Z"/></g>
<g><path style="opacity:1" fill="#c9b6b1" d="M 202.5,405.5 C 203.398,406.158 204.398,406.824 205.5,407.5C 212.123,408.389 218.123,409.556 223.5,411C 235.943,416.117 248.943,418.95 262.5,419.5C 260.737,423.052 258.07,425.719 254.5,427.5C 245.932,426.775 237.599,424.942 229.5,422C 229.833,421.667 230.167,421.333 230.5,421C 221.441,419.487 212.441,417.654 203.5,415.5C 200.346,412.907 196.679,411.907 192.5,412.5C 192.5,411.5 192.5,410.5 192.5,409.5C 195.018,408.736 197.351,407.736 199.5,406.5C 200.609,406.443 201.609,406.11 202.5,405.5 Z"/></g>
<g><path style="opacity:1" fill="#9f79de" d="M 90.5,419.5 C 97.3773,427.95 106.044,433.95 116.5,437.5C 114.909,440.961 114.242,444.628 114.5,448.5C 111.107,452.619 108.774,457.286 107.5,462.5C 105.883,461.962 104.216,461.629 102.5,461.5C 102.5,462.5 102.5,463.5 102.5,464.5C 68.8668,463.871 35.2001,463.871 1.5,464.5C 1.5,449.833 1.5,435.167 1.5,420.5C 31.338,420.831 61.0047,420.498 90.5,419.5 Z"/></g>
<g><path style="opacity:1" fill="#9f79de" d="M 262.5,419.5 C 262.833,419.5 263.167,419.5 263.5,419.5C 292.329,420.498 321.329,420.831 350.5,420.5C 350.5,435.167 350.5,449.833 350.5,464.5C 314.498,464.667 278.498,464.5 242.5,464C 244.5,463.667 246.5,463.333 248.5,463C 246.19,462.503 243.857,462.337 241.5,462.5C 240.558,459.345 239.224,456.345 237.5,453.5C 238.301,451.958 238.634,450.292 238.5,448.5C 239.625,444.852 239.292,441.185 237.5,437.5C 241.642,436.242 245.308,434.242 248.5,431.5C 250.853,430.66 252.853,429.326 254.5,427.5C 258.07,425.719 260.737,423.052 262.5,419.5 Z"/></g>
<g><path style="opacity:1" fill="#a59595" d="M 106.5,406.5 C 117.652,409.759 128.986,412.093 140.5,413.5C 163.312,419.698 186.645,422.531 210.5,422C 223.827,424.315 236.494,427.482 248.5,431.5C 245.308,434.242 241.642,436.242 237.5,437.5C 236.391,437.557 235.391,437.89 234.5,438.5C 223.61,435.586 212.61,432.753 201.5,430C 182.722,427.159 164.055,423.993 145.5,420.5C 135.777,417.986 126.11,415.32 116.5,412.5C 112.809,410.993 109.476,408.993 106.5,406.5 Z"/></g>
<g><path style="opacity:1" fill="#82787d" d="M 210.5,442.5 C 208.78,443.308 207.113,444.308 205.5,445.5C 188.368,445.421 171.034,445.421 153.5,445.5C 151.777,444.193 149.943,444.193 148,445.5C 144.16,443.328 139.994,441.995 135.5,441.5C 129.41,441.015 123.41,440.015 117.5,438.5C 117.5,437.833 117.167,437.5 116.5,437.5C 106.044,433.95 97.3773,427.95 90.5,419.5C 88.8333,416.833 87.1667,414.167 85.5,411.5C 85.56,410.957 85.8933,410.624 86.5,410.5C 91.2221,413.677 96.2221,416.177 101.5,418C 105.86,421.511 110.527,424.511 115.5,427C 122.63,427.177 129.63,428.177 136.5,430C 144.959,433.223 153.626,435.89 162.5,438C 175.611,439.097 188.611,440.93 201.5,443.5C 204.449,442.698 207.449,442.364 210.5,442.5 Z"/></g>
<g><path style="opacity:1" fill="#8e8386" d="M 79.5,394.5 C 80.8734,394.343 82.2068,394.51 83.5,395C 86.5697,396.94 89.5697,398.774 92.5,400.5C 92.3433,401.873 92.51,403.207 93,404.5C 96.2095,407.009 99.0429,409.842 101.5,413C 115.577,419.358 130.244,421.858 145.5,420.5C 164.055,423.993 182.722,427.159 201.5,430C 212.61,432.753 223.61,435.586 234.5,438.5C 233.508,438.328 232.842,438.662 232.5,439.5C 231.041,439.433 229.708,439.766 228.5,440.5C 227.167,440.5 225.833,440.5 224.5,440.5C 221.67,440.963 219.003,441.629 216.5,442.5C 214.5,442.5 212.5,442.5 210.5,442.5C 207.449,442.364 204.449,442.698 201.5,443.5C 188.611,440.93 175.611,439.097 162.5,438C 153.626,435.89 144.959,433.223 136.5,430C 129.63,428.177 122.63,427.177 115.5,427C 110.527,424.511 105.86,421.511 101.5,418C 96.2221,416.177 91.2221,413.677 86.5,410.5C 85.8933,410.624 85.56,410.957 85.5,411.5C 82.3337,406.339 80.3337,400.673 79.5,394.5 Z"/></g>
<g><path style="opacity:1" fill="#8b5273" d="M 117.5,438.5 C 123.41,440.015 129.41,441.015 135.5,441.5C 135.908,442.643 136.575,443.643 137.5,444.5C 163.085,453.624 188.752,453.791 214.5,445C 215.381,444.292 216.047,443.458 216.5,442.5C 219.003,441.629 221.67,440.963 224.5,440.5C 224.063,442.074 223.063,443.241 221.5,444C 217.022,445.156 212.856,446.989 209,449.5C 193.055,453.317 176.889,454.484 160.5,453C 157.443,452.744 154.443,452.244 151.5,451.5C 150.5,452.167 149.5,452.833 148.5,453.5C 144.577,452.402 140.577,451.735 136.5,451.5C 136.5,452.5 136.5,453.5 136.5,454.5C 132.505,455.117 129.172,453.951 126.5,451C 121.892,451.226 119.225,449.059 118.5,444.5C 118.483,442.435 118.15,440.435 117.5,438.5 Z"/></g>
<g><path style="opacity:1" fill="#9e94ab" d="M 135.5,441.5 C 139.994,441.995 144.16,443.328 148,445.5C 149.943,444.193 151.777,444.193 153.5,445.5C 152.761,445.369 152.094,445.536 151.5,446C 169.553,452.03 187.553,451.863 205.5,445.5C 207.113,444.308 208.78,443.308 210.5,442.5C 212.5,442.5 214.5,442.5 216.5,442.5C 216.047,443.458 215.381,444.292 214.5,445C 188.752,453.791 163.085,453.624 137.5,444.5C 136.575,443.643 135.908,442.643 135.5,441.5 Z"/></g>
<g><path style="opacity:1" fill="#d1d1da" d="M 205.5,445.5 C 187.553,451.863 169.553,452.03 151.5,446C 152.094,445.536 152.761,445.369 153.5,445.5C 171.034,445.421 188.368,445.421 205.5,445.5 Z"/></g>
<g><path style="opacity:1" fill="#d27f89" d="M 237.5,437.5 C 239.292,441.185 239.625,444.852 238.5,448.5C 238.158,447.662 237.492,447.328 236.5,447.5C 233.667,449.478 230.667,451.311 227.5,453C 214.647,457.558 201.647,461.058 188.5,463.5C 186.833,463.5 185.167,463.5 183.5,463.5C 192.624,460.886 201.957,458.552 211.5,456.5C 216.63,453.723 221.963,451.557 227.5,450C 232.317,447.87 233.984,444.37 232.5,439.5C 232.842,438.662 233.508,438.328 234.5,438.5C 235.391,437.89 236.391,437.557 237.5,437.5 Z"/></g>
<g><path style="opacity:1" fill="#994a64" d="M 224.5,440.5 C 225.833,440.5 227.167,440.5 228.5,440.5C 225.763,444.203 222.096,446.37 217.5,447C 216.167,448 214.833,449 213.5,450C 200.923,453.096 188.257,455.763 175.5,458C 171.607,459.563 167.94,461.397 164.5,463.5C 161.482,463.665 158.482,463.498 155.5,463C 149.193,460.398 142.859,457.898 136.5,455.5C 136.5,455.167 136.5,454.833 136.5,454.5C 136.5,453.5 136.5,452.5 136.5,451.5C 140.577,451.735 144.577,452.402 148.5,453.5C 149.5,452.833 150.5,452.167 151.5,451.5C 154.443,452.244 157.443,452.744 160.5,453C 176.889,454.484 193.055,453.317 209,449.5C 212.856,446.989 217.022,445.156 221.5,444C 223.063,443.241 224.063,442.074 224.5,440.5 Z"/></g>
<g><path style="opacity:1" fill="#ba5e72" d="M 232.5,439.5 C 233.984,444.37 232.317,447.87 227.5,450C 221.963,451.557 216.63,453.723 211.5,456.5C 201.957,458.552 192.624,460.886 183.5,463.5C 181.265,463.205 179.265,463.539 177.5,464.5C 174.833,464.5 172.167,464.5 169.5,464.5C 167.585,464.784 165.919,464.451 164.5,463.5C 167.94,461.397 171.607,459.563 175.5,458C 188.257,455.763 200.923,453.096 213.5,450C 214.833,449 216.167,448 217.5,447C 222.096,446.37 225.763,444.203 228.5,440.5C 229.708,439.766 231.041,439.433 232.5,439.5 Z"/></g>
<g><path style="opacity:1" fill="#db8b84" d="M 236.5,447.5 C 232.927,452.506 228.261,456.006 222.5,458C 211.621,462.198 200.287,464.032 188.5,463.5C 201.647,461.058 214.647,457.558 227.5,453C 230.667,451.311 233.667,449.478 236.5,447.5 Z"/></g>
<g><path style="opacity:1" fill="#e6e1e4" d="M 237.5,453.5 C 239.224,456.345 240.558,459.345 241.5,462.5C 243.642,469.401 245.309,476.401 246.5,483.5C 252.488,486.414 257.655,490.414 262,495.5C 263.557,498.172 264.724,501.005 265.5,504C 265.141,506.296 264.141,508.129 262.5,509.5C 261.022,509.762 259.689,509.429 258.5,508.5C 256.151,504.472 253.317,500.806 250,497.5C 249.466,501.859 249.632,506.192 250.5,510.5C 250.5,511.5 250.5,512.5 250.5,513.5C 249.596,514.209 249.263,515.209 249.5,516.5C 238.833,515.037 228.499,512.703 218.5,509.5C 220.604,509.799 222.604,509.466 224.5,508.5C 226.091,505.744 228.424,503.911 231.5,503C 235.31,500.187 237.976,496.52 239.5,492C 236.565,486.796 233.898,481.462 231.5,476C 232.761,472.712 232.761,469.379 231.5,466C 234.843,464.142 236.177,461.309 235.5,457.5C 236.167,456.167 236.833,454.833 237.5,453.5 Z"/></g>
<g><path style="opacity:1" fill="#d16763" d="M 236.5,447.5 C 237.492,447.328 238.158,447.662 238.5,448.5C 238.634,450.292 238.301,451.958 237.5,453.5C 236.833,454.833 236.167,456.167 235.5,457.5C 234.728,458.694 233.728,459.694 232.5,460.5C 232.5,459.167 232.5,457.833 232.5,456.5C 214.969,464.125 196.635,466.792 177.5,464.5C 179.265,463.539 181.265,463.205 183.5,463.5C 185.167,463.5 186.833,463.5 188.5,463.5C 200.287,464.032 211.621,462.198 222.5,458C 228.261,456.006 232.927,452.506 236.5,447.5 Z"/></g>
<g><path style="opacity:1" fill="#ced3e1" d="M 119.5,458.5 C 124.474,464.314 130.474,468.648 137.5,471.5C 134.875,474.978 134.042,478.978 135,483.5C 138,485.833 141,488.167 144,490.5C 144.667,492.5 144.667,494.5 144,496.5C 142.357,498.977 140.524,501.31 138.5,503.5C 135.61,504.44 133.277,506.107 131.5,508.5C 130.199,507.522 129.032,507.855 128,509.5C 126.437,508.278 124.937,508.278 123.5,509.5C 122.234,508.91 120.901,508.41 119.5,508C 118.884,505.821 117.717,503.988 116,502.5C 115.779,505.943 114.779,506.276 113,503.5C 110.578,500.588 109.411,497.255 109.5,493.5C 110.943,485.658 111.943,477.658 112.5,469.5C 113.997,465.838 115.497,462.172 117,458.5C 117.77,459.598 118.603,459.598 119.5,458.5 Z"/></g>
<g><path style="opacity:1" fill="#9b7be0" d="M 241.5,462.5 C 243.857,462.337 246.19,462.503 248.5,463C 246.5,463.333 244.5,463.667 242.5,464C 278.498,464.5 314.498,464.667 350.5,464.5C 350.5,470.833 350.5,477.167 350.5,483.5C 315.833,483.5 281.167,483.5 246.5,483.5C 245.309,476.401 243.642,469.401 241.5,462.5 Z"/></g>
<g><path style="opacity:1" fill="#5d1e25" d="M 118.5,444.5 C 119.225,449.059 121.892,451.226 126.5,451C 129.172,453.951 132.505,455.117 136.5,454.5C 136.5,454.833 136.5,455.167 136.5,455.5C 135.325,455.281 134.325,455.614 133.5,456.5C 133.977,457.931 134.643,459.264 135.5,460.5C 140.368,462.44 145.368,463.94 150.5,465C 154.95,467.788 159.617,470.121 164.5,472C 179.836,474.901 195.17,475.068 210.5,472.5C 204.508,474.91 198.175,476.244 191.5,476.5C 177.327,477.16 163.327,475.994 149.5,473C 142.757,469.751 135.757,467.084 128.5,465C 124.123,460.291 120.123,455.291 116.5,450C 117.109,448.052 117.776,446.218 118.5,444.5 Z"/></g>
<g><path style="opacity:1" fill="#bb4b4b" d="M 232.5,460.5 C 226.923,463.749 220.923,465.915 214.5,467C 200.447,467.754 186.447,467.254 172.5,465.5C 171.209,465.737 170.209,465.404 169.5,464.5C 172.167,464.5 174.833,464.5 177.5,464.5C 196.635,466.792 214.969,464.125 232.5,456.5C 232.5,457.833 232.5,459.167 232.5,460.5 Z"/></g>
<g><path style="opacity:1" fill="#d7d9e3" d="M 235.5,457.5 C 236.177,461.309 234.843,464.142 231.5,466C 232.761,469.379 232.761,472.712 231.5,476C 233.898,481.462 236.565,486.796 239.5,492C 237.976,496.52 235.31,500.187 231.5,503C 228.424,503.911 226.091,505.744 224.5,508.5C 222.604,509.466 220.604,509.799 218.5,509.5C 218.167,509.5 217.833,509.5 217.5,509.5C 217.389,508.883 217.056,508.383 216.5,508C 220.131,503.541 223.131,498.707 225.5,493.5C 224.233,491.056 222.733,488.723 221,486.5C 220.512,480.415 221.012,474.415 222.5,468.5C 223.167,468.5 223.5,468.167 223.5,467.5C 227.082,465.88 230.082,463.547 232.5,460.5C 233.728,459.694 234.728,458.694 235.5,457.5 Z"/></g>
<g><path style="opacity:1" fill="#a13639" d="M 232.5,460.5 C 230.082,463.547 227.082,465.88 223.5,467.5C 208.375,471.393 193.042,472.226 177.5,470C 176.051,468.883 174.384,468.216 172.5,468C 171.402,467.23 171.402,466.397 172.5,465.5C 186.447,467.254 200.447,467.754 214.5,467C 220.923,465.915 226.923,463.749 232.5,460.5 Z"/></g>
<g><path style="opacity:1" fill="#e2cefc" d="M 263.5,468.5 C 265.337,468.639 265.67,469.306 264.5,470.5C 263.702,470.043 263.369,469.376 263.5,468.5 Z"/></g>
<g><path style="opacity:1" fill="#4f272c" d="M 116.5,437.5 C 117.167,437.5 117.5,437.833 117.5,438.5C 118.15,440.435 118.483,442.435 118.5,444.5C 117.776,446.218 117.109,448.052 116.5,450C 120.123,455.291 124.123,460.291 128.5,465C 135.757,467.084 142.757,469.751 149.5,473C 163.327,475.994 177.327,477.16 191.5,476.5C 189.052,477.473 186.385,477.806 183.5,477.5C 169.923,478.331 156.59,476.998 143.5,473.5C 141.579,472.637 139.579,471.971 137.5,471.5C 130.474,468.648 124.474,464.314 119.5,458.5C 117.442,455.303 115.775,451.97 114.5,448.5C 114.242,444.628 114.909,440.961 116.5,437.5 Z"/></g>
<g><path style="opacity:1" fill="#832b31" d="M 136.5,455.5 C 142.859,457.898 149.193,460.398 155.5,463C 158.482,463.498 161.482,463.665 164.5,463.5C 165.919,464.451 167.585,464.784 169.5,464.5C 170.209,465.404 171.209,465.737 172.5,465.5C 171.402,466.397 171.402,467.23 172.5,468C 174.384,468.216 176.051,468.883 177.5,470C 193.042,472.226 208.375,471.393 223.5,467.5C 223.5,468.167 223.167,468.5 222.5,468.5C 219.382,469.559 216.382,470.892 213.5,472.5C 212.5,472.5 211.5,472.5 210.5,472.5C 195.17,475.068 179.836,474.901 164.5,472C 159.617,470.121 154.95,467.788 150.5,465C 145.368,463.94 140.368,462.44 135.5,460.5C 134.643,459.264 133.977,457.931 133.5,456.5C 134.325,455.614 135.325,455.281 136.5,455.5 Z"/></g>
<g><path style="opacity:1" fill="#cdc6cb" d="M 143.5,473.5 C 156.59,476.998 169.923,478.331 183.5,477.5C 181.052,478.473 178.385,478.806 175.5,478.5C 175.62,481.48 176.287,484.313 177.5,487C 176.552,487.483 175.552,487.649 174.5,487.5C 174.197,490.588 175.53,492.254 178.5,492.5C 178.5,493.5 178.5,494.5 178.5,495.5C 185.969,497.873 193.635,498.873 201.5,498.5C 200.962,500.117 200.629,501.784 200.5,503.5C 184.871,502.14 169.205,501.474 153.5,501.5C 151.868,495.67 150.368,489.67 149,483.5C 147.408,479.979 145.575,476.646 143.5,473.5 Z"/></g>
<g><path style="opacity:1" fill="#d9d2d6" d="M 210.5,472.5 C 211.5,472.5 212.5,472.5 213.5,472.5C 211.239,478.784 209.072,485.117 207,491.5C 205.303,494.02 203.47,496.353 201.5,498.5C 193.635,498.873 185.969,497.873 178.5,495.5C 178.5,494.5 178.5,493.5 178.5,492.5C 175.53,492.254 174.197,490.588 174.5,487.5C 175.552,487.649 176.552,487.483 177.5,487C 176.287,484.313 175.62,481.48 175.5,478.5C 178.385,478.806 181.052,478.473 183.5,477.5C 186.385,477.806 189.052,477.473 191.5,476.5C 198.175,476.244 204.508,474.91 210.5,472.5 Z"/></g>
<g><path style="opacity:1" fill="#997ce1" d="M 107.5,462.5 C 103.511,469.976 101.678,477.976 102,486.5C 95.4287,489.565 91.2621,494.565 89.5,501.5C 87.7867,507.362 90.12,510.695 96.5,511.5C 99.1401,510.905 101.807,510.572 104.5,510.5C 104.5,512.5 104.5,514.5 104.5,516.5C 70.1667,516.5 35.8333,516.5 1.5,516.5C 1.5,499.167 1.5,481.833 1.5,464.5C 35.2001,463.871 68.8668,463.871 102.5,464.5C 102.5,463.5 102.5,462.5 102.5,461.5C 104.216,461.629 105.883,461.962 107.5,462.5 Z"/></g>
<g><path style="opacity:1" fill="#e8dcfd" d="M 49.5,478.5 C 51.337,478.639 51.6704,479.306 50.5,480.5C 49.7025,480.043 49.3691,479.376 49.5,478.5 Z"/></g>
<g><path style="opacity:1" fill="#e4d6f7" d="M 36.5,477.5 C 38.7602,478.238 38.9269,479.238 37,480.5C 35.2716,479.648 35.105,478.648 36.5,477.5 Z"/></g>
<g><path style="opacity:1" fill="#bbc6da" d="M 222.5,468.5 C 221.012,474.415 220.512,480.415 221,486.5C 222.733,488.723 224.233,491.056 225.5,493.5C 223.131,498.707 220.131,503.541 216.5,508C 217.056,508.383 217.389,508.883 217.5,509.5C 216.041,509.433 214.708,509.766 213.5,510.5C 210.927,509.445 208.261,509.278 205.5,510C 206.056,510.383 206.389,510.883 206.5,511.5C 204.5,511.5 202.5,511.5 200.5,511.5C 199.549,510.081 199.216,508.415 199.5,506.5C 200.11,505.609 200.443,504.609 200.5,503.5C 200.629,501.784 200.962,500.117 201.5,498.5C 203.47,496.353 205.303,494.02 207,491.5C 209.072,485.117 211.239,478.784 213.5,472.5C 216.382,470.892 219.382,469.559 222.5,468.5 Z"/></g>
<g><path style="opacity:1" fill="#dfd7d9" d="M 104.5,508.5 C 100.689,509.645 96.6888,509.812 92.5,509C 91.7476,508.329 91.4142,507.496 91.5,506.5C 93.254,502.697 95.4207,498.364 98,493.5C 102.966,488.189 105.466,489.522 105.5,497.5C 104.754,501.132 104.421,504.798 104.5,508.5 Z"/></g>
<g><path style="opacity:1" fill="#e8e2e3" d="M 137.5,471.5 C 139.579,471.971 141.579,472.637 143.5,473.5C 145.575,476.646 147.408,479.979 149,483.5C 150.368,489.67 151.868,495.67 153.5,501.5C 153.5,502.833 153.5,504.167 153.5,505.5C 153.5,507.833 153.5,510.167 153.5,512.5C 152.833,512.5 152.5,512.833 152.5,513.5C 152.5,514.167 152.167,514.5 151.5,514.5C 142.867,513.437 134.201,512.77 125.5,512.5C 124.737,511.732 123.737,511.232 122.5,511C 123.056,510.617 123.389,510.117 123.5,509.5C 124.937,508.278 126.437,508.278 128,509.5C 129.032,507.855 130.199,507.522 131.5,508.5C 133.277,506.107 135.61,504.44 138.5,503.5C 140.524,501.31 142.357,498.977 144,496.5C 144.667,494.5 144.667,492.5 144,490.5C 141,488.167 138,485.833 135,483.5C 134.042,478.978 134.875,474.978 137.5,471.5 Z"/></g>
<g><path style="opacity:1" fill="#977ce1" d="M 246.5,483.5 C 281.167,483.5 315.833,483.5 350.5,483.5C 350.5,494.5 350.5,505.5 350.5,516.5C 317.167,516.5 283.833,516.5 250.5,516.5C 250.5,515.5 250.5,514.5 250.5,513.5C 250.5,512.5 250.5,511.5 250.5,510.5C 252.646,510.878 254.813,511.212 257,511.5C 259.221,511.607 261.054,510.94 262.5,509.5C 264.141,508.129 265.141,506.296 265.5,504C 264.724,501.005 263.557,498.172 262,495.5C 257.655,490.414 252.488,486.414 246.5,483.5 Z"/></g>
<g><path style="opacity:1" fill="#aba6af" d="M 262.5,509.5 C 261.054,510.94 259.221,511.607 257,511.5C 254.813,511.212 252.646,510.878 250.5,510.5C 249.632,506.192 249.466,501.859 250,497.5C 253.317,500.806 256.151,504.472 258.5,508.5C 259.689,509.429 261.022,509.762 262.5,509.5 Z"/></g>
<g><path style="opacity:1" fill="#b6a9aa" d="M 153.5,501.5 C 169.205,501.474 184.871,502.14 200.5,503.5C 200.443,504.609 200.11,505.609 199.5,506.5C 185.998,505.591 172.498,504.591 159,503.5C 156.879,503.698 155.046,504.364 153.5,505.5C 153.5,504.167 153.5,502.833 153.5,501.5 Z"/></g>
<g><path style="opacity:1" fill="#adb5cb" d="M 114.5,448.5 C 115.775,451.97 117.442,455.303 119.5,458.5C 118.603,459.598 117.77,459.598 117,458.5C 115.497,462.172 113.997,465.838 112.5,469.5C 111.943,477.658 110.943,485.658 109.5,493.5C 109.411,497.255 110.578,500.588 113,503.5C 114.779,506.276 115.779,505.943 116,502.5C 117.717,503.988 118.884,505.821 119.5,508C 120.901,508.41 122.234,508.91 123.5,509.5C 123.389,510.117 123.056,510.617 122.5,511C 123.737,511.232 124.737,511.732 125.5,512.5C 117.997,513.192 110.997,511.859 104.5,508.5C 104.421,504.798 104.754,501.132 105.5,497.5C 105.466,489.522 102.966,488.189 98,493.5C 95.4207,498.364 93.254,502.697 91.5,506.5C 89.7868,505.365 89.1201,503.698 89.5,501.5C 91.2621,494.565 95.4287,489.565 102,486.5C 101.678,477.976 103.511,469.976 107.5,462.5C 108.774,457.286 111.107,452.619 114.5,448.5 Z"/></g>
<g><path style="opacity:1" fill="#94888a" d="M 199.5,506.5 C 199.216,508.415 199.549,510.081 200.5,511.5C 185.009,512.496 169.342,512.83 153.5,512.5C 153.5,510.167 153.5,507.833 153.5,505.5C 155.046,504.364 156.879,503.698 159,503.5C 172.498,504.591 185.998,505.591 199.5,506.5 Z"/></g>
<g><path style="opacity:1" fill="#887d86" d="M 200.5,511.5 C 202.5,511.5 204.5,511.5 206.5,511.5C 209.234,512.705 211.901,514.205 214.5,516C 222.602,516.991 230.602,518.491 238.5,520.5C 238.994,522.026 239.661,523.359 240.5,524.5C 237.848,525.262 235.182,524.762 232.5,523C 222.789,523.398 213.455,521.731 204.5,518C 203.167,516.667 201.833,515.333 200.5,514C 184.503,513.5 168.503,513.333 152.5,513.5C 152.5,512.833 152.833,512.5 153.5,512.5C 169.342,512.83 185.009,512.496 200.5,511.5 Z"/></g>
<g><path style="opacity:1" fill="#c9b8b4" d="M 217.5,509.5 C 217.833,509.5 218.167,509.5 218.5,509.5C 228.499,512.703 238.833,515.037 249.5,516.5C 248.557,519.109 246.89,521.109 244.5,522.5C 243.028,520.866 241.362,519.366 239.5,518C 230.115,517.327 221.448,514.827 213.5,510.5C 214.708,509.766 216.041,509.433 217.5,509.5 Z"/></g>
<g><path style="opacity:1" fill="#927ee2" d="M 152.5,513.5 C 168.503,513.333 184.503,513.5 200.5,514C 201.833,515.333 203.167,516.667 204.5,518C 213.455,521.731 222.789,523.398 232.5,523C 235.182,524.762 237.848,525.262 240.5,524.5C 242.38,524.771 243.713,524.104 244.5,522.5C 246.89,521.109 248.557,519.109 249.5,516.5C 249.263,515.209 249.596,514.209 250.5,513.5C 250.5,514.5 250.5,515.5 250.5,516.5C 283.833,516.5 317.167,516.5 350.5,516.5C 350.5,530.5 350.5,544.5 350.5,558.5C 327.498,558.667 304.498,558.5 281.5,558C 277.424,555.666 273.424,553.999 269.5,553C 262.833,552.667 256.167,552.333 249.5,552C 246.878,551.077 244.378,549.911 242,548.5C 240.333,548.833 238.667,549.167 237,549.5C 234.379,548 231.712,547.666 229,548.5C 226.903,547.009 224.57,546.009 222,545.5C 219.667,545.833 217.333,546.167 215,546.5C 210.704,545.315 206.37,544.315 202,543.5C 184.667,544.833 167.333,544.833 150,543.5C 145.63,544.315 141.296,545.315 137,546.5C 135.333,546.167 133.667,545.833 132,545.5C 126.288,546.626 120.622,547.959 115,549.5C 113.333,549.167 111.667,548.833 110,548.5C 108.411,550.026 106.577,551.193 104.5,552C 97.8333,552.333 91.1667,552.667 84.5,553C 79.8333,554.667 75.1667,556.333 70.5,558C 47.5024,558.5 24.5024,558.667 1.5,558.5C 1.5,544.5 1.5,530.5 1.5,516.5C 35.8333,516.5 70.1667,516.5 104.5,516.5C 104.833,516.5 105.167,516.5 105.5,516.5C 106.356,520.854 109.023,523.354 113.5,524C 122.947,525.278 131.947,524.111 140.5,520.5C 144.933,519.786 148.6,517.786 151.5,514.5C 152.167,514.5 152.5,514.167 152.5,513.5 Z"/></g>
<g><path style="opacity:1" fill="#8c8186" d="M 140.5,520.5 C 131.947,524.111 122.947,525.278 113.5,524C 109.023,523.354 106.356,520.854 105.5,516.5C 114.751,513.869 123.751,515.036 132.5,520C 135.146,520.497 137.813,520.664 140.5,520.5 Z"/></g>
<g><path style="opacity:1" fill="#a99c9f" d="M 89.5,501.5 C 89.1201,503.698 89.7868,505.365 91.5,506.5C 91.4142,507.496 91.7476,508.329 92.5,509C 96.6888,509.812 100.689,509.645 104.5,508.5C 110.997,511.859 117.997,513.192 125.5,512.5C 134.201,512.77 142.867,513.437 151.5,514.5C 148.6,517.786 144.933,519.786 140.5,520.5C 137.813,520.664 135.146,520.497 132.5,520C 123.751,515.036 114.751,513.869 105.5,516.5C 105.167,516.5 104.833,516.5 104.5,516.5C 104.5,514.5 104.5,512.5 104.5,510.5C 101.807,510.572 99.1401,510.905 96.5,511.5C 90.12,510.695 87.7867,507.362 89.5,501.5 Z"/></g>
<g><path style="opacity:1" fill="#a49697" d="M 213.5,510.5 C 221.448,514.827 230.115,517.327 239.5,518C 241.362,519.366 243.028,520.866 244.5,522.5C 243.713,524.104 242.38,524.771 240.5,524.5C 239.661,523.359 238.994,522.026 238.5,520.5C 230.602,518.491 222.602,516.991 214.5,516C 211.901,514.205 209.234,512.705 206.5,511.5C 206.389,510.883 206.056,510.383 205.5,510C 208.261,509.278 210.927,509.445 213.5,510.5 Z"/></g>
<g><path style="opacity:1" fill="#8b7ee0" d="M 350.5,558.5 C 350.5,577.833 350.5,597.167 350.5,616.5C 348.801,616.66 347.134,616.494 345.5,616C 347.009,614.326 347.676,612.66 347.5,611C 346.167,610.667 344.833,610.333 343.5,610C 343.854,608.374 343.854,606.541 343.5,604.5C 341.833,604.5 340.167,604.5 338.5,604.5C 338.657,603.127 338.49,601.793 338,600.5C 332.98,594.279 326.813,589.946 319.5,587.5C 320.872,585.65 320.372,584.317 318,583.5C 317.667,583.833 317.333,584.167 317,584.5C 311.986,581.809 306.986,579.143 302,576.5C 301.667,576.833 301.333,577.167 301,577.5C 281.376,570.955 262.376,563.955 244,556.5C 241.816,557.108 239.816,556.441 238,554.5C 234.241,554.692 230.575,554.692 227,554.5C 223.084,553.16 219.084,551.826 215,550.5C 214.228,550.645 213.561,550.978 213,551.5C 207.341,550.647 201.674,549.647 196,548.5C 182.997,548.523 169.997,548.523 157,548.5C 151.601,549.38 146.268,550.38 141,551.5C 140.439,550.978 139.772,550.645 139,550.5C 134.901,551.686 130.901,553.02 127,554.5C 126,553.833 125,553.167 124,552.5C 123.481,553.516 122.647,554.182 121.5,554.5C 112.748,556.662 103.748,559.162 94.5,562C 91.8998,563.427 89.3998,564.927 87,566.5C 86.6667,566.167 86.3333,565.833 86,565.5C 71.4113,571.018 56.578,576.184 41.5,581C 36.5392,584.427 31.5392,587.094 26.5,589C 27.056,589.383 27.3893,589.883 27.5,590.5C 26.5313,591.309 25.6979,592.309 25,593.5C 24.6667,593.167 24.3333,592.833 24,592.5C 22.9025,593.967 21.4025,594.801 19.5,595C 19.8333,595.333 20.1667,595.667 20.5,596C 17.3962,598.464 15.7296,601.298 15.5,604.5C 14.1667,604.5 12.8333,604.5 11.5,604.5C 11.7733,606.451 11.1066,607.951 9.5,609C 10.1667,609.333 10.8333,609.667 11.5,610C 9.83333,610.333 8.16667,610.667 6.5,611C 9.74231,611.283 10.0756,612.117 7.5,613.5C 7.97665,614.478 8.64332,615.311 9.5,616C 7.15458,616.17 4.82125,615.837 2.5,615C 6.22594,613.957 5.8926,613.457 1.5,613.5C 1.5,595.167 1.5,576.833 1.5,558.5C 24.5024,558.667 47.5024,558.5 70.5,558C 75.1667,556.333 79.8333,554.667 84.5,553C 91.1667,552.667 97.8333,552.333 104.5,552C 106.577,551.193 108.411,550.026 110,548.5C 111.667,548.833 113.333,549.167 115,549.5C 120.622,547.959 126.288,546.626 132,545.5C 133.667,545.833 135.333,546.167 137,546.5C 141.296,545.315 145.63,544.315 150,543.5C 167.333,544.833 184.667,544.833 202,543.5C 206.37,544.315 210.704,545.315 215,546.5C 217.333,546.167 219.667,545.833 222,545.5C 224.57,546.009 226.903,547.009 229,548.5C 231.712,547.666 234.379,548 237,549.5C 238.667,549.167 240.333,548.833 242,548.5C 244.378,549.911 246.878,551.077 249.5,552C 256.167,552.333 262.833,552.667 269.5,553C 273.424,553.999 277.424,555.666 281.5,558C 304.498,558.5 327.498,558.667 350.5,558.5 Z"/></g>
<g><path style="opacity:1" fill="#8477d3" d="M 319.5,587.5 C 316.286,586.311 313.12,584.977 310,583.5C 308.249,584.174 306.583,584.507 305,584.5C 302.236,581.743 299.07,580.743 295.5,581.5C 297.012,582.862 298.512,583.196 300,582.5C 300.5,583.667 301.333,584.5 302.5,585C 301.027,585.71 300.36,586.876 300.5,588.5C 296.852,586.018 293.352,583.351 290,580.5C 289.667,580.833 289.333,581.167 289,581.5C 270.316,574.076 251.816,567.076 233.5,560.5C 232.416,560.685 231.416,561.018 230.5,561.5C 229.596,560.791 229.263,559.791 229.5,558.5C 223.235,557.619 216.735,556.286 210,554.5C 208.715,554.95 207.548,555.617 206.5,556.5C 205.614,555.675 205.281,554.675 205.5,553.5C 172.608,549.015 140.608,552.515 109.5,564C 92.7461,570.208 76.0794,576.708 59.5,583.5C 56.6097,583.278 53.943,583.945 51.5,585.5C 50.6919,585.192 50.0253,584.692 49.5,584C 50.4506,583.282 50.6172,582.449 50,581.5C 49.3333,582.833 48.6667,582.833 48,581.5C 41.4573,585.222 34.624,588.222 27.5,590.5C 27.3893,589.883 27.056,589.383 26.5,589C 31.5392,587.094 36.5392,584.427 41.5,581C 56.578,576.184 71.4113,571.018 86,565.5C 86.3333,565.833 86.6667,566.167 87,566.5C 89.3998,564.927 91.8998,563.427 94.5,562C 103.748,559.162 112.748,556.662 121.5,554.5C 122.647,554.182 123.481,553.516 124,552.5C 125,553.167 126,553.833 127,554.5C 130.901,553.02 134.901,551.686 139,550.5C 139.772,550.645 140.439,550.978 141,551.5C 146.268,550.38 151.601,549.38 157,548.5C 169.997,548.523 182.997,548.523 196,548.5C 201.674,549.647 207.341,550.647 213,551.5C 213.561,550.978 214.228,550.645 215,550.5C 219.084,551.826 223.084,553.16 227,554.5C 230.575,554.692 234.241,554.692 238,554.5C 239.816,556.441 241.816,557.108 244,556.5C 262.376,563.955 281.376,570.955 301,577.5C 301.333,577.167 301.667,576.833 302,576.5C 306.986,579.143 311.986,581.809 317,584.5C 317.333,584.167 317.667,583.833 318,583.5C 320.372,584.317 320.872,585.65 319.5,587.5 Z"/></g>
<g><path style="opacity:1" fill="#7570c5" d="M 230.5,561.5 C 243.343,566.262 256.176,571.262 269,576.5C 269.333,576.167 269.667,575.833 270,575.5C 280.595,580.582 291.095,585.916 301.5,591.5C 303.024,593.858 305.024,595.691 307.5,597C 306.273,598.587 306.606,599.921 308.5,601C 306.745,606.036 303.411,609.536 298.5,611.5C 298.5,612.833 298.5,614.167 298.5,615.5C 295.418,617.086 291.418,617.919 286.5,618C 263.319,627.305 240.152,634.139 217,638.5C 208.337,640.292 199.337,641.959 190,643.5C 180,642.167 170,642.167 160,643.5C 124.129,637.82 89.2955,627.987 55.5,614C 50.9783,611.145 47.9783,607.145 46.5,602C 46.9031,600.527 47.5697,599.194 48.5,598C 48.1667,597.667 47.8333,597.333 47.5,597C 48.8333,596 50.1667,595 51.5,594C 51.1667,593.667 50.8333,593.333 50.5,593C 53.9888,591.28 56.9888,589.113 59.5,586.5C 59.5,585.5 59.5,584.5 59.5,583.5C 76.0794,576.708 92.7461,570.208 109.5,564C 140.608,552.515 172.608,549.015 205.5,553.5C 205.281,554.675 205.614,555.675 206.5,556.5C 207.548,555.617 208.715,554.95 210,554.5C 216.735,556.286 223.235,557.619 229.5,558.5C 229.263,559.791 229.596,560.791 230.5,561.5 Z"/></g>
<g><path style="opacity:1" fill="#6864af" d="M 267.5,584.5 C 269.922,586.268 272.588,587.768 275.5,589C 278.5,591.667 281.5,594.333 284.5,597C 282.772,603.594 278.438,608.26 271.5,611C 243.458,621.546 214.291,628.712 184,632.5C 178.667,632.5 173.333,632.5 168,632.5C 148.487,631.039 129.487,627.039 111,620.5C 98.3325,617.596 86.4991,613.096 75.5,607C 71.8489,603.113 70.5156,599.113 71.5,595C 80.7848,587.553 91.1181,582.053 102.5,578.5C 119.706,570.154 137.706,563.988 156.5,560C 180.612,556.892 203.779,559.392 226,567.5C 239.905,573.381 253.738,579.048 267.5,584.5 Z"/></g>
<g><path style="opacity:1" fill="#625da3" d="M 172.5,561.5 C 197.207,561.948 220.04,568.614 241,581.5C 241.333,581.167 241.667,580.833 242,580.5C 247.178,583.657 252.178,586.99 257,590.5C 258.073,589.72 259.24,589.887 260.5,591C 260.167,591.333 259.833,591.667 259.5,592C 260.5,592.333 261.5,592.667 262.5,593C 261.701,594.749 262.368,596.082 264.5,597C 261.628,602.287 257.294,605.953 251.5,608C 237.751,611.924 224.584,616.091 212,620.5C 211.667,620.167 211.333,619.833 211,619.5C 208.07,621.066 204.903,621.9 201.5,622C 200.579,623.756 199.412,623.923 198,622.5C 178.669,625.57 159.669,624.57 141,619.5C 140.667,619.833 140.333,620.167 140,620.5C 130.093,616.978 119.926,613.812 109.5,611C 104.295,609.046 99.2951,606.713 94.5,604C 92.5529,601.817 90.8862,599.484 89.5,597C 91.6324,596.082 92.299,594.749 91.5,593C 111.638,580.596 132.971,570.929 155.5,564C 161.331,563.29 166.998,562.457 172.5,561.5 Z"/></g>
<g><path style="opacity:1" fill="#746bbd" d="M 275.5,617.5 C 275.389,616.883 275.056,616.383 274.5,616C 280.692,613.742 286.026,610.242 290.5,605.5C 289.264,603.689 289.264,601.856 290.5,600C 288.281,595.111 284.948,591.111 280.5,588C 276.201,587.567 271.867,586.4 267.5,584.5C 253.738,579.048 239.905,573.381 226,567.5C 203.779,559.392 180.612,556.892 156.5,560C 137.706,563.988 119.706,570.154 102.5,578.5C 101.341,576.623 99.6742,576.123 97.5,577C 91.1385,579.787 84.9719,582.954 79,586.5C 76.6793,585.639 75.5126,586.639 75.5,589.5C 73.1691,589.498 71.1691,590.331 69.5,592C 67.3397,594.863 65.3397,597.196 63.5,599C 64.3266,600.893 64.3266,603.059 63.5,605.5C 66.4285,609.259 70.0952,612.092 74.5,614C 73.944,614.383 73.6107,614.883 73.5,615.5C 66.7311,613.122 61.0644,609.622 56.5,605C 56.8333,604.667 57.1667,604.333 57.5,604C 56.4216,603.326 55.7549,602.326 55.5,601C 56.1136,599.463 56.1136,598.13 55.5,597C 58.2136,594.623 60.5469,591.956 62.5,589C 84.8291,579.088 107.496,570.088 130.5,562C 150.814,555.777 171.814,553.943 193.5,556.5C 193.833,557.5 194.5,558.167 195.5,558.5C 196.328,557.585 197.328,556.919 198.5,556.5C 217.417,560.084 235.751,565.584 253.5,573C 264.604,577.818 275.771,582.652 287,587.5C 287.333,587.167 287.667,586.833 288,586.5C 291.521,589.533 294.854,592.866 298,596.5C 299.565,602.954 297.398,607.787 291.5,611C 286.248,613.462 280.915,615.629 275.5,617.5 Z"/></g>
<g><path style="opacity:1" fill="#5c5698" d="M 163.5,567.5 C 172.506,567.334 181.506,567.5 190.5,568C 192.269,569.019 193.936,569.186 195.5,568.5C 200.608,570.307 205.775,572.64 211,575.5C 219.019,580.138 227.185,585.305 235.5,591C 234.833,591.333 234.167,591.667 233.5,592C 238.833,592.667 238.833,593.333 233.5,594C 234.167,595.333 235.167,596.333 236.5,597C 233.78,597.723 231.613,599.223 230,601.5C 228.927,600.72 227.76,600.887 226.5,602C 227.5,602.333 228.5,602.667 229.5,603C 226.5,603.333 223.5,603.667 220.5,604C 221.167,604.333 221.833,604.667 222.5,605C 216.932,606.974 211.598,608.64 206.5,610C 206.833,610.333 207.167,610.667 207.5,611C 204.901,612.236 202.401,612.403 200,611.5C 197.784,612.601 195.784,613.934 194,615.5C 183.277,615.354 172.61,615.354 162,615.5C 158.336,614.545 154.836,613.211 151.5,611.5C 150.284,612.002 149.117,612.335 148,612.5C 146.601,611.773 145.101,611.273 143.5,611C 144.167,610.667 144.833,610.333 145.5,610C 143.223,609.027 141.057,608.86 139,609.5C 135.766,607.421 132.266,605.921 128.5,605C 129.167,604.667 129.833,604.333 130.5,604C 128.167,603.667 125.833,603.333 123.5,603C 124.167,602.667 124.833,602.333 125.5,602C 122.326,601.161 119.659,599.495 117.5,597C 117.833,596 118.167,595 118.5,594C 117.833,593.667 117.167,593.333 116.5,593C 117.833,592.667 119.167,592.333 120.5,592C 119.833,591.667 119.167,591.333 118.5,591C 120.714,589.727 123.047,588.727 125.5,588C 124.346,587.086 124.513,586.253 126,585.5C 126.333,585.833 126.667,586.167 127,586.5C 130.708,583.157 134.375,579.824 138,576.5C 139.566,577.061 140.899,576.394 142,574.5C 142.333,574.833 142.667,575.167 143,575.5C 149.53,571.677 156.364,569.01 163.5,567.5 Z"/></g>
<g><path style="opacity:1" fill="#7775cd" d="M 300.5,588.5 C 301.5,588.5 302.5,588.5 303.5,588.5C 303.332,585.316 304.666,584.816 307.5,587C 309.393,589.216 311.393,590.549 313.5,591C 312.446,592.388 312.28,593.888 313,595.5C 313.333,595.167 313.667,594.833 314,594.5C 315.786,596.099 317.953,596.933 320.5,597C 317.054,597.704 317.054,599.037 320.5,601C 320.306,602.43 320.306,603.93 320.5,605.5C 319.675,606.386 318.675,606.719 317.5,606.5C 317.5,607.833 317.5,609.167 317.5,610.5C 318.552,610.351 319.552,610.517 320.5,611C 318.842,612.624 317.175,614.291 315.5,616C 316.167,616.333 316.833,616.667 317.5,617C 315.5,617.333 313.5,617.667 311.5,618C 312.833,619.84 312.666,620.34 311,619.5C 306.09,623.411 300.423,626.744 294,629.5C 293.326,628.422 292.326,627.755 291,627.5C 267.669,635.666 243.835,642.5 219.5,648C 173.531,656.112 127.365,651.279 81,633.5C 79.2513,634.299 77.918,633.632 77,631.5C 76.6667,631.833 76.3333,632.167 76,632.5C 73.6494,631.286 71.1494,630.452 68.5,630C 64.7544,628.409 60.5878,626.909 56,625.5C 55.228,625.645 54.5613,625.978 54,626.5C 50.1445,624.465 45.9778,621.798 41.5,618.5C 39.9223,617.702 38.2556,617.202 36.5,617C 37.5,616.667 38.5,616.333 39.5,616C 37.1829,614.68 35.1829,613.014 33.5,611C 35.7885,610.178 38.1218,609.511 40.5,609C 36.9956,604.99 36.6622,601.324 39.5,598C 40.4862,595.672 42.4862,593.672 45.5,592C 45.1667,591.667 44.8333,591.333 44.5,591C 47.3148,589.782 49.9815,588.282 52.5,586.5C 54.7857,585.58 57.1191,585.58 59.5,586.5C 56.9888,589.113 53.9888,591.28 50.5,593C 50.8333,593.333 51.1667,593.667 51.5,594C 50.1667,595 48.8333,596 47.5,597C 47.8333,597.333 48.1667,597.667 48.5,598C 47.5697,599.194 46.9031,600.527 46.5,602C 47.9783,607.145 50.9783,611.145 55.5,614C 89.2955,627.987 124.129,637.82 160,643.5C 170,642.167 180,642.167 190,643.5C 199.337,641.959 208.337,640.292 217,638.5C 240.152,634.139 263.319,627.305 286.5,618C 291.418,617.919 295.418,617.086 298.5,615.5C 298.5,614.167 298.5,612.833 298.5,611.5C 303.411,609.536 306.745,606.036 308.5,601C 306.606,599.921 306.273,598.587 307.5,597C 305.024,595.691 303.024,593.858 301.5,591.5C 291.095,585.916 280.595,580.582 270,575.5C 269.667,575.833 269.333,576.167 269,576.5C 256.176,571.262 243.343,566.262 230.5,561.5C 231.416,561.018 232.416,560.685 233.5,560.5C 251.816,567.076 270.316,574.076 289,581.5C 289.333,581.167 289.667,580.833 290,580.5C 293.352,583.351 296.852,586.018 300.5,588.5 Z"/></g>
<g><path style="opacity:1" fill="#7f81df" d="M 15.5,604.5 C 15.1412,606.766 15.8078,608.599 17.5,610C 16.3659,611.016 16.6992,611.683 18.5,612C 18.1667,612.333 17.8333,612.667 17.5,613C 27.8233,620.763 40.6566,627.263 56,632.5C 57.1939,631.57 58.5272,630.903 60,630.5C 64.935,632.471 69.6017,634.137 74,635.5C 75.4397,634.852 76.9397,634.519 78.5,634.5C 78.5,635.5 78.5,636.5 78.5,637.5C 83.0514,638.564 88.0514,639.397 93.5,640C 92.5,640.333 91.5,640.667 90.5,641C 93.1667,641.333 95.8333,641.667 98.5,642C 99.2529,643.487 100.086,643.654 101,642.5C 103.112,643.223 105.112,644.223 107,645.5C 109.583,644.686 111.916,645.353 114,647.5C 114.561,646.978 115.228,646.645 116,646.5C 155.775,656.723 195.775,656.723 236,646.5C 236.772,646.645 237.439,646.978 238,647.5C 240.038,645.928 242.371,644.928 245,644.5C 246.049,645.517 247.216,645.684 248.5,645C 247.833,644.667 247.167,644.333 246.5,644C 250.724,642.79 255.391,641.79 260.5,641C 259.833,640.667 259.167,640.333 258.5,640C 261.5,639.667 264.5,639.333 267.5,639C 268.253,637.513 269.086,637.346 270,638.5C 273.667,636.833 277.333,635.167 281,633.5C 281.333,633.833 281.667,634.167 282,634.5C 283.067,633.809 284.234,633.309 285.5,633C 284.833,632.667 284.167,632.333 283.5,632C 284.766,631.691 285.933,631.191 287,630.5C 288.789,630.623 290.622,630.623 292.5,630.5C 293.748,631.04 294.915,631.707 296,632.5C 308.628,629.02 319.794,624.187 329.5,618C 330.833,617.667 332.167,617.333 333.5,617C 333.167,616.667 332.833,616.333 332.5,616C 334.167,615 335.833,614 337.5,613C 335.068,611.913 335.402,611.413 338.5,611.5C 338.5,609.167 338.5,606.833 338.5,604.5C 340.167,604.5 341.833,604.5 343.5,604.5C 343.854,606.541 343.854,608.374 343.5,610C 344.833,610.333 346.167,610.667 347.5,611C 347.676,612.66 347.009,614.326 345.5,616C 347.134,616.494 348.801,616.66 350.5,616.5C 350.5,624.5 350.5,632.5 350.5,640.5C 338.832,639.963 327.165,639.796 315.5,640C 320.167,640.333 324.833,640.667 329.5,641C 320.599,640.872 311.932,641.872 303.5,644C 303.833,644.333 304.167,644.667 304.5,645C 303.216,645.684 302.049,645.517 301,644.5C 290.464,648.219 280.631,651.719 271.5,655C 265.833,655.333 260.167,655.667 254.5,656C 257.833,656.333 261.167,656.667 264.5,657C 258.05,656.898 251.884,657.731 246,659.5C 243.388,658.327 240.721,658.994 238,661.5C 237.667,661.167 237.333,660.833 237,660.5C 217.024,665.883 196.358,667.883 175,666.5C 157.797,667.309 140.797,665.976 124,662.5C 123.228,662.645 122.561,662.978 122,663.5C 119,662.5 116,661.5 113,660.5C 112.667,660.833 112.333,661.167 112,661.5C 109.446,659.685 106.946,658.518 104.5,658C 98.1667,657.667 91.8333,657.333 85.5,657C 89.1667,656.667 92.8333,656.333 96.5,656C 90.3796,656.098 84.5463,655.264 79,653.5C 78.6667,653.833 78.3333,654.167 78,654.5C 66.2927,649.949 54.4594,645.782 42.5,642C 36.5,641.667 30.5,641.333 24.5,641C 29.1667,640.667 33.8333,640.333 38.5,640C 26.17,639.868 13.8366,640.035 1.5,640.5C 1.5,631.5 1.5,622.5 1.5,613.5C 5.8926,613.457 6.22594,613.957 2.5,615C 4.82125,615.837 7.15458,616.17 9.5,616C 8.64332,615.311 7.97665,614.478 7.5,613.5C 10.0756,612.117 9.74231,611.283 6.5,611C 8.16667,610.667 9.83333,610.333 11.5,610C 10.8333,609.667 10.1667,609.333 9.5,609C 11.1066,607.951 11.7733,606.451 11.5,604.5C 12.8333,604.5 14.1667,604.5 15.5,604.5 Z"/></g>
<g><path style="opacity:1" fill="#6c6aba" d="M 102.5,578.5 C 91.1181,582.053 80.7848,587.553 71.5,595C 70.5156,599.113 71.8489,603.113 75.5,607C 86.4991,613.096 98.3325,617.596 111,620.5C 129.487,627.039 148.487,631.039 168,632.5C 173.333,632.5 178.667,632.5 184,632.5C 214.291,628.712 243.458,621.546 271.5,611C 278.438,608.26 282.772,603.594 284.5,597C 281.5,594.333 278.5,591.667 275.5,589C 272.588,587.768 269.922,586.268 267.5,584.5C 271.867,586.4 276.201,587.567 280.5,588C 284.948,591.111 288.281,595.111 290.5,600C 289.264,601.856 289.264,603.689 290.5,605.5C 286.026,610.242 280.692,613.742 274.5,616C 275.056,616.383 275.389,616.883 275.5,617.5C 265.075,620.361 254.742,623.861 244.5,628C 234.719,630.355 225.719,632.688 217.5,635C 207.827,636.47 198.161,637.97 188.5,639.5C 179.485,639.115 170.652,639.115 162,639.5C 140.813,636.762 119.98,632.095 99.5,625.5C 95.1898,623.662 91.0231,621.662 87,619.5C 86.6667,619.833 86.3333,620.167 86,620.5C 83.9419,619.891 83.1086,618.891 83.5,617.5C 82.914,617.709 82.414,618.043 82,618.5C 78.9143,618.004 76.0809,617.004 73.5,615.5C 73.6107,614.883 73.944,614.383 74.5,614C 70.0952,612.092 66.4285,609.259 63.5,605.5C 64.3266,603.059 64.3266,600.893 63.5,599C 65.3397,597.196 67.3397,594.863 69.5,592C 71.1691,590.331 73.1691,589.498 75.5,589.5C 75.5126,586.639 76.6793,585.639 79,586.5C 84.9719,582.954 91.1385,579.787 97.5,577C 99.6742,576.123 101.341,576.623 102.5,578.5 Z"/></g>
<g><path style="opacity:1" fill="#7d7bd6" d="M 319.5,587.5 C 326.813,589.946 332.98,594.279 338,600.5C 338.49,601.793 338.657,603.127 338.5,604.5C 338.5,606.833 338.5,609.167 338.5,611.5C 335.402,611.413 335.068,611.913 337.5,613C 335.833,614 334.167,615 332.5,616C 332.833,616.333 333.167,616.667 333.5,617C 332.167,617.333 330.833,617.667 329.5,618C 319.794,624.187 308.628,629.02 296,632.5C 294.915,631.707 293.748,631.04 292.5,630.5C 290.622,630.623 288.789,630.623 287,630.5C 285.933,631.191 284.766,631.691 283.5,632C 284.167,632.333 284.833,632.667 285.5,633C 284.234,633.309 283.067,633.809 282,634.5C 281.667,634.167 281.333,633.833 281,633.5C 277.333,635.167 273.667,636.833 270,638.5C 269.086,637.346 268.253,637.513 267.5,639C 264.5,639.333 261.5,639.667 258.5,640C 259.167,640.333 259.833,640.667 260.5,641C 255.391,641.79 250.724,642.79 246.5,644C 247.167,644.333 247.833,644.667 248.5,645C 247.216,645.684 246.049,645.517 245,644.5C 242.371,644.928 240.038,645.928 238,647.5C 237.439,646.978 236.772,646.645 236,646.5C 195.775,656.723 155.775,656.723 116,646.5C 115.228,646.645 114.561,646.978 114,647.5C 111.916,645.353 109.583,644.686 107,645.5C 105.112,644.223 103.112,643.223 101,642.5C 100.086,643.654 99.2529,643.487 98.5,642C 95.8333,641.667 93.1667,641.333 90.5,641C 91.5,640.667 92.5,640.333 93.5,640C 88.0514,639.397 83.0514,638.564 78.5,637.5C 78.5,636.5 78.5,635.5 78.5,634.5C 76.9397,634.519 75.4397,634.852 74,635.5C 69.6017,634.137 64.935,632.471 60,630.5C 58.5272,630.903 57.1939,631.57 56,632.5C 40.6566,627.263 27.8233,620.763 17.5,613C 17.8333,612.667 18.1667,612.333 18.5,612C 16.6992,611.683 16.3659,611.016 17.5,610C 15.8078,608.599 15.1412,606.766 15.5,604.5C 15.7296,601.298 17.3962,598.464 20.5,596C 20.1667,595.667 19.8333,595.333 19.5,595C 21.4025,594.801 22.9025,593.967 24,592.5C 24.3333,592.833 24.6667,593.167 25,593.5C 25.6979,592.309 26.5313,591.309 27.5,590.5C 34.624,588.222 41.4573,585.222 48,581.5C 48.6667,582.833 49.3333,582.833 50,581.5C 50.6172,582.449 50.4506,583.282 49.5,584C 50.0253,584.692 50.6919,585.192 51.5,585.5C 53.943,583.945 56.6097,583.278 59.5,583.5C 59.5,584.5 59.5,585.5 59.5,586.5C 57.1191,585.58 54.7857,585.58 52.5,586.5C 49.9815,588.282 47.3148,589.782 44.5,591C 44.8333,591.333 45.1667,591.667 45.5,592C 42.4862,593.672 40.4862,595.672 39.5,598C 36.6622,601.324 36.9956,604.99 40.5,609C 38.1218,609.511 35.7885,610.178 33.5,611C 35.1829,613.014 37.1829,614.68 39.5,616C 38.5,616.333 37.5,616.667 36.5,617C 38.2556,617.202 39.9223,617.702 41.5,618.5C 45.9778,621.798 50.1445,624.465 54,626.5C 54.5613,625.978 55.228,625.645 56,625.5C 60.5878,626.909 64.7544,628.409 68.5,630C 71.1494,630.452 73.6494,631.286 76,632.5C 76.3333,632.167 76.6667,631.833 77,631.5C 77.918,633.632 79.2513,634.299 81,633.5C 127.365,651.279 173.531,656.112 219.5,648C 243.835,642.5 267.669,635.666 291,627.5C 292.326,627.755 293.326,628.422 294,629.5C 300.423,626.744 306.09,623.411 311,619.5C 312.666,620.34 312.833,619.84 311.5,618C 313.5,617.667 315.5,617.333 317.5,617C 316.833,616.667 316.167,616.333 315.5,616C 317.175,614.291 318.842,612.624 320.5,611C 319.552,610.517 318.552,610.351 317.5,610.5C 317.5,609.167 317.5,607.833 317.5,606.5C 318.675,606.719 319.675,606.386 320.5,605.5C 320.306,603.93 320.306,602.43 320.5,601C 317.054,599.037 317.054,597.704 320.5,597C 317.953,596.933 315.786,596.099 314,594.5C 313.667,594.833 313.333,595.167 313,595.5C 312.28,593.888 312.446,592.388 313.5,591C 311.393,590.549 309.393,589.216 307.5,587C 304.666,584.816 303.332,585.316 303.5,588.5C 302.5,588.5 301.5,588.5 300.5,588.5C 300.36,586.876 301.027,585.71 302.5,585C 301.333,584.5 300.5,583.667 300,582.5C 298.512,583.196 297.012,582.862 295.5,581.5C 299.07,580.743 302.236,581.743 305,584.5C 306.583,584.507 308.249,584.174 310,583.5C 313.12,584.977 316.286,586.311 319.5,587.5 Z"/></g>
<g><path style="opacity:1" fill="#8085e5" d="M 350.5,640.5 C 350.5,642.5 350.5,644.5 350.5,646.5C 349.316,648.41 347.816,648.743 346,647.5C 340.792,649.172 335.292,650.339 329.5,651C 328.747,652.487 327.914,652.654 327,651.5C 324.048,652.882 321.215,654.549 318.5,656.5C 309.102,659.027 299.436,660.194 289.5,660C 292.833,660.333 296.167,660.667 299.5,661C 293.38,660.902 287.546,661.736 282,663.5C 281.667,663.167 281.333,662.833 281,662.5C 280.667,663.5 280.333,664.5 280,665.5C 277.667,665.167 275.333,664.833 273,664.5C 269.666,666.492 266.166,667.992 262.5,669C 204.82,682.949 147.153,682.949 89.5,669C 89.8333,668.667 90.1667,668.333 90.5,668C 87.905,667.774 85.405,667.274 83,666.5C 82.6667,666.833 82.3333,667.167 82,667.5C 79.4303,666.991 77.0969,665.991 75,664.5C 74,664.833 73,665.167 72,665.5C 70.8989,663.606 69.5655,662.939 68,663.5C 62.4537,661.736 56.6204,660.902 50.5,661C 54.1667,660.667 57.8333,660.333 61.5,660C 52.71,659.921 44.0433,658.921 35.5,657C 36.1667,656.667 36.8333,656.333 37.5,656C 34.8333,655.667 32.1667,655.333 29.5,655C 30.1667,654.667 30.8333,654.333 31.5,654C 29.5975,653.801 28.0975,652.967 27,651.5C 25.3333,651.833 23.6667,652.167 22,652.5C 20.2137,650.901 18.047,650.067 15.5,650C 15.8333,649.667 16.1667,649.333 16.5,649C 11.778,648.058 7.11129,647.725 2.5,648C 4.93163,646.913 4.5983,646.413 1.5,646.5C 1.5,644.5 1.5,642.5 1.5,640.5C 13.8366,640.035 26.17,639.868 38.5,640C 33.8333,640.333 29.1667,640.667 24.5,641C 30.5,641.333 36.5,641.667 42.5,642C 54.4594,645.782 66.2927,649.949 78,654.5C 78.3333,654.167 78.6667,653.833 79,653.5C 84.5463,655.264 90.3796,656.098 96.5,656C 92.8333,656.333 89.1667,656.667 85.5,657C 91.8333,657.333 98.1667,657.667 104.5,658C 106.946,658.518 109.446,659.685 112,661.5C 112.333,661.167 112.667,660.833 113,660.5C 116,661.5 119,662.5 122,663.5C 122.561,662.978 123.228,662.645 124,662.5C 140.797,665.976 157.797,667.309 175,666.5C 196.358,667.883 217.024,665.883 237,660.5C 237.333,660.833 237.667,661.167 238,661.5C 240.721,658.994 243.388,658.327 246,659.5C 251.884,657.731 258.05,656.898 264.5,657C 261.167,656.667 257.833,656.333 254.5,656C 260.167,655.667 265.833,655.333 271.5,655C 280.631,651.719 290.464,648.219 301,644.5C 302.049,645.517 303.216,645.684 304.5,645C 304.167,644.667 303.833,644.333 303.5,644C 311.932,641.872 320.599,640.872 329.5,641C 324.833,640.667 320.167,640.333 315.5,640C 327.165,639.796 338.832,639.963 350.5,640.5 Z"/></g>
<g><path style="opacity:1" fill="#7e88e9" d="M 1.5,646.5 C 4.5983,646.413 4.93163,646.913 2.5,648C 7.11129,647.725 11.778,648.058 16.5,649C 16.1667,649.333 15.8333,649.667 15.5,650C 18.047,650.067 20.2137,650.901 22,652.5C 23.6667,652.167 25.3333,651.833 27,651.5C 28.0975,652.967 29.5975,653.801 31.5,654C 30.8333,654.333 30.1667,654.667 29.5,655C 32.1667,655.333 34.8333,655.667 37.5,656C 36.8333,656.333 36.1667,656.667 35.5,657C 44.0433,658.921 52.71,659.921 61.5,660C 57.8333,660.333 54.1667,660.667 50.5,661C 56.6204,660.902 62.4537,661.736 68,663.5C 69.5655,662.939 70.8989,663.606 72,665.5C 73,665.167 74,664.833 75,664.5C 77.0969,665.991 79.4303,666.991 82,667.5C 82.3333,667.167 82.6667,666.833 83,666.5C 85.405,667.274 87.905,667.774 90.5,668C 90.1667,668.333 89.8333,668.667 89.5,669C 147.153,682.949 204.82,682.949 262.5,669C 266.166,667.992 269.666,666.492 273,664.5C 275.333,664.833 277.667,665.167 280,665.5C 280.333,664.5 280.667,663.5 281,662.5C 281.333,662.833 281.667,663.167 282,663.5C 287.546,661.736 293.38,660.902 299.5,661C 296.167,660.667 292.833,660.333 289.5,660C 299.436,660.194 309.102,659.027 318.5,656.5C 321.215,654.549 324.048,652.882 327,651.5C 327.914,652.654 328.747,652.487 329.5,651C 335.292,650.339 340.792,649.172 346,647.5C 347.816,648.743 349.316,648.41 350.5,646.5C 350.5,663.833 350.5,681.167 350.5,698.5C 234.167,698.5 117.833,698.5 1.5,698.5C 1.5,681.167 1.5,663.833 1.5,646.5 Z"/></g>
<g><path style="opacity:1" fill="#d8d9fd" d="M 35.5,650.5 C 36.5,650.5 37.5,650.5 38.5,650.5C 38.5,651.5 38.5,652.5 38.5,653.5C 37.5,653.5 36.5,653.5 35.5,653.5C 35.5,652.5 35.5,651.5 35.5,650.5 Z"/></g>
<g><path style="opacity:1" fill="#d0d4fd" d="M 278.5,667.5 C 279.5,667.5 280.5,667.5 281.5,667.5C 281.5,668.5 281.5,669.5 281.5,670.5C 280.5,670.5 279.5,670.5 278.5,670.5C 278.5,669.5 278.5,668.5 278.5,667.5 Z"/></g>
<g><path style="opacity:1" fill="#d4d9ff" d="M 276.5,686.5 C 278.337,686.639 278.67,687.306 277.5,688.5C 276.702,688.043 276.369,687.376 276.5,686.5 Z"/></g>
<g><path style="opacity:1" fill="#798aeb" d="M 1.5,698.5 C 117.833,698.5 234.167,698.5 350.5,698.5C 350.5,712.5 350.5,726.5 350.5,740.5C 234.167,740.5 117.833,740.5 1.5,740.5C 1.5,726.5 1.5,712.5 1.5,698.5 Z"/></g>
<g><path style="opacity:1" fill="#d5dcfc" d="M 181.5,719.5 C 182.5,719.5 183.5,719.5 184.5,719.5C 184.5,720.5 184.5,721.5 184.5,722.5C 183.5,722.5 182.5,722.5 181.5,722.5C 181.5,721.5 181.5,720.5 181.5,719.5 Z"/></g>
<g><path style="opacity:1" fill="#c9d5fd" d="M 60.5,733.5 C 61.8333,733.5 63.1667,733.5 64.5,733.5C 64.5,734.5 64.5,735.5 64.5,736.5C 62.0274,736.912 60.6941,735.912 60.5,733.5 Z"/></g>
<g><path style="opacity:1" fill="#758cec" d="M 1.5,740.5 C 117.833,740.5 234.167,740.5 350.5,740.5C 350.5,746.833 350.5,753.167 350.5,759.5C 234.167,759.5 117.833,759.5 1.5,759.5C 1.5,753.167 1.5,746.833 1.5,740.5 Z"/></g>
</svg>
