<svg width="42" height="35" viewBox="0 0 42 35" fill="none" xmlns="http://www.w3.org/2000/svg">
<g filter="url(#filter0_d_290_284)">
<path d="M5 9.49862C5 16.5607 11.432 20.3233 16.1392 23.6924C17.8 24.8804 19.4 26 21 26C22.6 26 24.2 24.8818 25.8608 23.691C30.5696 20.3248 37 16.5607 37 9.50007C37 2.43946 28.2 -2.57209 21 4.21841C13.8 -2.57209 5 2.43656 5 9.49862Z" fill="white"/>
<path d="M15.8482 24.099L15.8483 24.0991L25.8608 23.691L26.1516 24.0977C26.1516 24.0977 26.1516 24.0977 26.1517 24.0977C26.5836 23.7889 27.0333 23.4747 27.4938 23.153C29.5108 21.7438 31.7327 20.1914 33.5536 18.3306C35.8069 16.0279 37.5 13.2031 37.5 9.50007C37.5 5.75499 35.1663 2.56242 31.8917 1.20327C28.696 -0.123096 24.6447 0.306397 21 3.54074C17.3554 0.306398 13.3041 -0.123844 10.1084 1.20197C6.83365 2.56058 4.5 5.75283 4.5 9.49862C4.5 13.2024 6.19353 16.0272 8.44703 18.3301C10.2648 20.1877 12.4823 21.7383 14.4961 23.1464C14.9601 23.4708 15.4132 23.7877 15.8482 24.099Z" stroke="white"/>
</g>
<path d="M6.5 4.85527C0.99998 12.9999 10.0812 19.422 15 22.9999C16.6608 24.208 19.7326 25.7801 21.3326 25.7801C22.9326 25.7801 25.3392 24.2109 27 22.9999C35 18 40.7819 11.5697 35 3.99996C29 -3.85535 22.0792 4.49996 21 4.5C19.9208 4.50003 12 -3.28937 6.5 4.85527Z" fill="url(#paint0_linear_290_284)"/>
<g filter="url(#filter1_d_290_284)">
<path d="M12.3569 9V17H10.6655V10.6055H10.6187L8.78662 11.7539V10.2539L10.7671 9H12.3569ZM17.395 17.1758C16.7231 17.1732 16.145 17.0078 15.6606 16.6797C15.1789 16.3516 14.8078 15.8763 14.5474 15.2539C14.2896 14.6315 14.1619 13.8828 14.1646 13.0078C14.1646 12.1354 14.2935 11.3919 14.5513 10.7773C14.8117 10.1628 15.1828 9.69531 15.6646 9.375C16.1489 9.05208 16.7257 8.89062 17.395 8.89062C18.0643 8.89062 18.6398 9.05208 19.1216 9.375C19.606 9.69792 19.9784 10.1667 20.2388 10.7812C20.4992 11.3932 20.6281 12.1354 20.6255 13.0078C20.6255 13.8854 20.4953 14.6354 20.2349 15.2578C19.9771 15.8802 19.6073 16.3555 19.1255 16.6836C18.6437 17.0117 18.0669 17.1758 17.395 17.1758ZM17.395 15.7734C17.8534 15.7734 18.2192 15.543 18.4927 15.082C18.7661 14.6211 18.9015 13.9297 18.8989 13.0078C18.8989 12.401 18.8364 11.8958 18.7114 11.4922C18.589 11.0885 18.4146 10.7852 18.188 10.582C17.964 10.3789 17.6997 10.2773 17.395 10.2773C16.9393 10.2773 16.5747 10.5052 16.3013 10.9609C16.0278 11.4167 15.8898 12.099 15.8872 13.0078C15.8872 13.6224 15.9484 14.1354 16.0708 14.5469C16.1958 14.9557 16.3716 15.263 16.5981 15.4687C16.8247 15.6719 17.0903 15.7734 17.395 15.7734ZM24.9683 17.1758C24.2964 17.1732 23.7183 17.0078 23.2339 16.6797C22.7521 16.3516 22.381 15.8763 22.1206 15.2539C21.8628 14.6315 21.7352 13.8828 21.7378 13.0078C21.7378 12.1354 21.8667 11.3919 22.1245 10.7773C22.3849 10.1628 22.756 9.69531 23.2378 9.375C23.7222 9.05208 24.299 8.89062 24.9683 8.89062C25.6375 8.89062 26.2131 9.05208 26.6948 9.375C27.1792 9.69792 27.5516 10.1667 27.812 10.7812C28.0724 11.3932 28.2013 12.1354 28.1987 13.0078C28.1987 13.8854 28.0685 14.6354 27.8081 15.2578C27.5503 15.8802 27.1805 16.3555 26.6987 16.6836C26.217 17.0117 25.6401 17.1758 24.9683 17.1758ZM24.9683 15.7734C25.4266 15.7734 25.7925 15.543 26.0659 15.082C26.3394 14.6211 26.4748 13.9297 26.4722 13.0078C26.4722 12.401 26.4097 11.8958 26.2847 11.4922C26.1623 11.0885 25.9878 10.7852 25.7612 10.582C25.5373 10.3789 25.2729 10.2773 24.9683 10.2773C24.5125 10.2773 24.1479 10.5052 23.8745 10.9609C23.6011 11.4167 23.4631 12.099 23.4604 13.0078C23.4604 13.6224 23.5216 14.1354 23.644 14.5469C23.769 14.9557 23.9448 15.263 24.1714 15.4687C24.3979 15.6719 24.6636 15.7734 24.9683 15.7734ZM31.9556 16.0455V15.777C31.9556 15.5732 31.9987 15.3859 32.0848 15.2152C32.1727 15.0429 32.2994 14.9053 32.4652 14.8026C32.6325 14.6982 32.8364 14.646 33.0767 14.646C33.3203 14.646 33.5249 14.6973 33.6907 14.8001C33.858 14.9028 33.984 15.0404 34.0685 15.2127C34.1547 15.3834 34.1978 15.5715 34.1978 15.777V16.0455C34.1978 16.2493 34.1547 16.4374 34.0685 16.6097C33.9823 16.7804 33.8555 16.9171 33.6882 17.0199C33.5208 17.1243 33.317 17.1765 33.0767 17.1765C32.8331 17.1765 32.6284 17.1243 32.4627 17.0199C32.2969 16.9171 32.171 16.7804 32.0848 16.6097C31.9987 16.4374 31.9556 16.2493 31.9556 16.0455ZM32.6789 15.777V16.0455C32.6789 16.1631 32.7071 16.2741 32.7634 16.3786C32.8215 16.483 32.9259 16.5352 33.0767 16.5352C33.2275 16.5352 33.3302 16.4838 33.3849 16.381C33.4412 16.2783 33.4694 16.1664 33.4694 16.0455V15.777C33.4694 15.656 33.4429 15.5433 33.3899 15.4389C33.3368 15.3345 33.2324 15.2823 33.0767 15.2823C32.9275 15.2823 32.8239 15.3345 32.7659 15.4389C32.7079 15.5433 32.6789 15.656 32.6789 15.777ZM29.343 13.1321V12.8636C29.343 12.6581 29.3869 12.4701 29.4747 12.2994C29.5626 12.127 29.6893 11.9895 29.8551 11.8867C30.0224 11.784 30.2246 11.7326 30.4616 11.7326C30.7069 11.7326 30.9124 11.784 31.0781 11.8867C31.2438 11.9895 31.3697 12.127 31.4559 12.2994C31.5421 12.4701 31.5852 12.6581 31.5852 12.8636V13.1321C31.5852 13.3376 31.5413 13.5257 31.4534 13.6964C31.3673 13.8671 31.2405 14.0038 31.0731 14.1065C30.9074 14.2076 30.7036 14.2582 30.4616 14.2582C30.2197 14.2582 30.015 14.2068 29.8476 14.104C29.6819 13.9996 29.5559 13.8629 29.4698 13.6939C29.3853 13.5232 29.343 13.3359 29.343 13.1321ZM30.0713 12.8636V13.1321C30.0713 13.2531 30.0995 13.3649 30.1559 13.4677C30.2139 13.5704 30.3158 13.6218 30.4616 13.6218C30.6141 13.6218 30.7176 13.5704 30.7723 13.4677C30.8287 13.3649 30.8568 13.2531 30.8568 13.1321V12.8636C30.8568 12.7427 30.8303 12.63 30.7773 12.5256C30.7243 12.4212 30.619 12.369 30.4616 12.369C30.3141 12.369 30.2122 12.422 30.1559 12.5281C30.0995 12.6341 30.0713 12.746 30.0713 12.8636ZM29.6711 17L33.1711 11.9091H33.8224L30.3224 17H29.6711Z" fill="#222547"/>
</g>
<defs>
<filter id="filter0_d_290_284" x="0" y="-0.000366211" width="42" height="35.0004" filterUnits="userSpaceOnUse" color-interpolation-filters="sRGB">
<feFlood flood-opacity="0" result="BackgroundImageFix"/>
<feColorMatrix in="SourceAlpha" type="matrix" values="0 0 0 0 0 0 0 0 0 0 0 0 0 0 0 0 0 0 127 0" result="hardAlpha"/>
<feOffset dy="4"/>
<feGaussianBlur stdDeviation="2"/>
<feComposite in2="hardAlpha" operator="out"/>
<feColorMatrix type="matrix" values="0 0 0 0 0 0 0 0 0 0 0 0 0 0 0 0 0 0 0.25 0"/>
<feBlend mode="normal" in2="BackgroundImageFix" result="effect1_dropShadow_290_284"/>
<feBlend mode="normal" in="SourceGraphic" in2="effect1_dropShadow_290_284" result="shape"/>
</filter>
<filter id="filter1_d_290_284" x="7.78662" y="8.89062" width="27.4111" height="10.2859" filterUnits="userSpaceOnUse" color-interpolation-filters="sRGB">
<feFlood flood-opacity="0" result="BackgroundImageFix"/>
<feColorMatrix in="SourceAlpha" type="matrix" values="0 0 0 0 0 0 0 0 0 0 0 0 0 0 0 0 0 0 127 0" result="hardAlpha"/>
<feOffset dy="1"/>
<feGaussianBlur stdDeviation="0.5"/>
<feComposite in2="hardAlpha" operator="out"/>
<feColorMatrix type="matrix" values="0 0 0 0 1 0 0 0 0 1 0 0 0 0 1 0 0 0 0.6 0"/>
<feBlend mode="normal" in2="BackgroundImageFix" result="effect1_dropShadow_290_284"/>
<feBlend mode="normal" in="SourceGraphic" in2="effect1_dropShadow_290_284" result="shape"/>
</filter>
<linearGradient id="paint0_linear_290_284" x1="21" y1="0.999954" x2="21" y2="26.4246" gradientUnits="userSpaceOnUse">
<stop stop-color="white"/>
<stop offset="0.115" stop-color="#F9F0D7"/>
<stop offset="0.2" stop-color="#F3E2CF"/>
<stop offset="0.34" stop-color="#FFDDDE"/>
<stop offset="0.485" stop-color="#FFD9FB"/>
<stop offset="0.635" stop-color="#D4D1FF"/>
<stop offset="0.82" stop-color="#AFCBEB"/>
<stop offset="1" stop-color="#D7FAFE"/>
</linearGradient>
</defs>
</svg>
