<svg width="42" height="35" viewBox="0 0 42 35" fill="none" xmlns="http://www.w3.org/2000/svg">
<g filter="url(#filter0_d_290_94)">
<path d="M5 9.49862C5 16.5607 11.432 20.3233 16.1392 23.6924C17.8 24.8804 19.4 26 21 26C22.6 26 24.2 24.8818 25.8608 23.691C30.5696 20.3248 37 16.5607 37 9.50007C37 2.43946 28.2 -2.57209 21 4.21841C13.8 -2.57209 5 2.43656 5 9.49862Z" fill="white"/>
<path d="M15.8482 24.099L15.8483 24.0991L25.8608 23.691L26.1516 24.0977C26.1516 24.0977 26.1516 24.0977 26.1517 24.0977C26.5836 23.7889 27.0333 23.4747 27.4938 23.153C29.5108 21.7438 31.7327 20.1914 33.5536 18.3306C35.8069 16.0279 37.5 13.2031 37.5 9.50007C37.5 5.75499 35.1663 2.56242 31.8917 1.20327C28.696 -0.123096 24.6447 0.306397 21 3.54074C17.3554 0.306398 13.3041 -0.123844 10.1084 1.20197C6.83365 2.56058 4.5 5.75283 4.5 9.49862C4.5 13.2024 6.19353 16.0272 8.44703 18.3301C10.2648 20.1877 12.4823 21.7383 14.4961 23.1464C14.9601 23.4708 15.4132 23.7877 15.8482 24.099Z" stroke="white"/>
</g>
<path d="M5 11.5001C5 15.5001 11.932 20.7144 16.6392 24.1408C18.3 25.3488 19.9 26.4875 21.5 26.4875C23.1 26.4875 27.4146 22.9094 29 21.5001C33.5 17.5 36.5 16.5 37 9.50001C37.2857 5.5 34.2769 7.50006 27.5 14.0001C20.7231 20.5001 5 7.50006 5 11.5001Z" fill="url(#paint0_linear_290_94)"/>
<g filter="url(#filter1_d_290_94)">
<path d="M11.5054 15.5938V14.2617L14.8452 9H15.9937V10.8437H15.314L13.2085 14.1758V14.2383H17.9546V15.5938H11.5054ZM15.3452 17V15.1875L15.3765 14.5977V9H16.9624V17H15.3452ZM22.2183 17.1758C21.5464 17.1732 20.9683 17.0078 20.4839 16.6797C20.0021 16.3516 19.631 15.8763 19.3706 15.2539C19.1128 14.6315 18.9852 13.8828 18.9878 13.0078C18.9878 12.1354 19.1167 11.3919 19.3745 10.7773C19.6349 10.1628 20.006 9.69531 20.4878 9.375C20.9722 9.05208 21.549 8.89062 22.2183 8.89062C22.8875 8.89062 23.4631 9.05208 23.9448 9.375C24.4292 9.69792 24.8016 10.1667 25.062 10.7812C25.3224 11.3932 25.4513 12.1354 25.4487 13.0078C25.4487 13.8854 25.3185 14.6354 25.0581 15.2578C24.8003 15.8802 24.4305 16.3555 23.9487 16.6836C23.467 17.0117 22.8901 17.1758 22.2183 17.1758ZM22.2183 15.7734C22.6766 15.7734 23.0425 15.543 23.3159 15.082C23.5894 14.6211 23.7248 13.9297 23.7222 13.0078C23.7222 12.401 23.6597 11.8958 23.5347 11.4922C23.4123 11.0885 23.2378 10.7852 23.0112 10.582C22.7873 10.3789 22.5229 10.2773 22.2183 10.2773C21.7625 10.2773 21.3979 10.5052 21.1245 10.9609C20.8511 11.4167 20.7131 12.099 20.7104 13.0078C20.7104 13.6224 20.7716 14.1354 20.894 14.5469C21.019 14.9557 21.1948 15.263 21.4214 15.4687C21.6479 15.6719 21.9136 15.7734 22.2183 15.7734ZM29.2056 16.0455V15.777C29.2056 15.5732 29.2487 15.3859 29.3348 15.2152C29.4227 15.0429 29.5494 14.9053 29.7152 14.8026C29.8825 14.6982 30.0864 14.646 30.3267 14.646C30.5703 14.646 30.7749 14.6973 30.9407 14.8001C31.108 14.9028 31.234 15.0404 31.3185 15.2127C31.4047 15.3834 31.4478 15.5715 31.4478 15.777V16.0455C31.4478 16.2493 31.4047 16.4374 31.3185 16.6097C31.2323 16.7804 31.1055 16.9171 30.9382 17.0199C30.7708 17.1243 30.567 17.1765 30.3267 17.1765C30.0831 17.1765 29.8784 17.1243 29.7127 17.0199C29.5469 16.9171 29.421 16.7804 29.3348 16.6097C29.2487 16.4374 29.2056 16.2493 29.2056 16.0455ZM29.9289 15.777V16.0455C29.9289 16.1631 29.9571 16.2741 30.0134 16.3786C30.0715 16.483 30.1759 16.5352 30.3267 16.5352C30.4775 16.5352 30.5802 16.4838 30.6349 16.381C30.6912 16.2783 30.7194 16.1664 30.7194 16.0455V15.777C30.7194 15.656 30.6929 15.5433 30.6399 15.4389C30.5868 15.3345 30.4824 15.2823 30.3267 15.2823C30.1775 15.2823 30.0739 15.3345 30.0159 15.4389C29.9579 15.5433 29.9289 15.656 29.9289 15.777ZM26.593 13.1321V12.8636C26.593 12.6581 26.6369 12.4701 26.7247 12.2994C26.8126 12.127 26.9393 11.9895 27.1051 11.8867C27.2724 11.784 27.4746 11.7326 27.7116 11.7326C27.9569 11.7326 28.1624 11.784 28.3281 11.8867C28.4938 11.9895 28.6197 12.127 28.7059 12.2994C28.7921 12.4701 28.8352 12.6581 28.8352 12.8636V13.1321C28.8352 13.3376 28.7913 13.5257 28.7034 13.6964C28.6173 13.8671 28.4905 14.0038 28.3231 14.1065C28.1574 14.2076 27.9536 14.2582 27.7116 14.2582C27.4697 14.2582 27.265 14.2068 27.0976 14.104C26.9319 13.9996 26.8059 13.8629 26.7198 13.6939C26.6353 13.5232 26.593 13.3359 26.593 13.1321ZM27.3213 12.8636V13.1321C27.3213 13.2531 27.3495 13.3649 27.4059 13.4677C27.4639 13.5704 27.5658 13.6218 27.7116 13.6218C27.8641 13.6218 27.9676 13.5704 28.0223 13.4677C28.0787 13.3649 28.1068 13.2531 28.1068 13.1321V12.8636C28.1068 12.7427 28.0803 12.63 28.0273 12.5256C27.9743 12.4212 27.869 12.369 27.7116 12.369C27.5641 12.369 27.4622 12.422 27.4059 12.5281C27.3495 12.6341 27.3213 12.746 27.3213 12.8636ZM26.9211 17L30.4211 11.9091H31.0724L27.5724 17H26.9211Z" fill="#222547"/>
</g>
<defs>
<filter id="filter0_d_290_94" x="0" y="-0.000366211" width="42" height="35.0004" filterUnits="userSpaceOnUse" color-interpolation-filters="sRGB">
<feFlood flood-opacity="0" result="BackgroundImageFix"/>
<feColorMatrix in="SourceAlpha" type="matrix" values="0 0 0 0 0 0 0 0 0 0 0 0 0 0 0 0 0 0 127 0" result="hardAlpha"/>
<feOffset dy="4"/>
<feGaussianBlur stdDeviation="2"/>
<feComposite in2="hardAlpha" operator="out"/>
<feColorMatrix type="matrix" values="0 0 0 0 0 0 0 0 0 0 0 0 0 0 0 0 0 0 0.25 0"/>
<feBlend mode="normal" in2="BackgroundImageFix" result="effect1_dropShadow_290_94"/>
<feBlend mode="normal" in="SourceGraphic" in2="effect1_dropShadow_290_94" result="shape"/>
</filter>
<filter id="filter1_d_290_94" x="10.5054" y="8.89062" width="21.9424" height="10.2859" filterUnits="userSpaceOnUse" color-interpolation-filters="sRGB">
<feFlood flood-opacity="0" result="BackgroundImageFix"/>
<feColorMatrix in="SourceAlpha" type="matrix" values="0 0 0 0 0 0 0 0 0 0 0 0 0 0 0 0 0 0 127 0" result="hardAlpha"/>
<feOffset dy="1"/>
<feGaussianBlur stdDeviation="0.5"/>
<feComposite in2="hardAlpha" operator="out"/>
<feColorMatrix type="matrix" values="0 0 0 0 1 0 0 0 0 1 0 0 0 0 1 0 0 0 0.6 0"/>
<feBlend mode="normal" in2="BackgroundImageFix" result="effect1_dropShadow_290_94"/>
<feBlend mode="normal" in="SourceGraphic" in2="effect1_dropShadow_290_94" result="shape"/>
</filter>
<linearGradient id="paint0_linear_290_94" x1="21.5" y1="1.0627" x2="21.5" y2="26.4874" gradientUnits="userSpaceOnUse">
<stop stop-color="white"/>
<stop offset="0.115" stop-color="#F9F0D7"/>
<stop offset="0.2" stop-color="#F3E2CF"/>
<stop offset="0.34" stop-color="#FFDDDE"/>
<stop offset="0.485" stop-color="#FFD9FB"/>
<stop offset="0.635" stop-color="#D4D1FF"/>
<stop offset="0.82" stop-color="#AFCBEB"/>
<stop offset="1" stop-color="#D7FAFE"/>
</linearGradient>
</defs>
</svg>
