<svg width="42" height="35" viewBox="0 0 42 35" fill="none" xmlns="http://www.w3.org/2000/svg">
<g filter="url(#filter0_d_290_65)">
<path d="M5 9.49862C5 16.5607 11.432 20.3233 16.1392 23.6924C17.8 24.8804 19.4 26 21 26C22.6 26 24.2 24.8818 25.8608 23.691C30.5696 20.3248 37 16.5607 37 9.50007C37 2.43946 28.2 -2.57209 21 4.21841C13.8 -2.57209 5 2.43656 5 9.49862Z" fill="white"/>
<path d="M15.8482 24.099L15.8483 24.0991L25.8608 23.691L26.1516 24.0977C26.1516 24.0977 26.1516 24.0977 26.1517 24.0977C26.5836 23.7889 27.0333 23.4747 27.4938 23.153C29.5108 21.7438 31.7327 20.1914 33.5536 18.3306C35.8069 16.0279 37.5 13.2031 37.5 9.50007C37.5 5.75499 35.1663 2.56242 31.8917 1.20327C28.696 -0.123096 24.6447 0.306397 21 3.54074C17.3554 0.306398 13.3041 -0.123844 10.1084 1.20197C6.83365 2.56058 4.5 5.75283 4.5 9.49862C4.5 13.2024 6.19353 16.0272 8.44703 18.3301C10.2648 20.1877 12.4823 21.7383 14.4961 23.1464C14.9601 23.4708 15.4132 23.7877 15.8482 24.099Z" stroke="white"/>
</g>
<path d="M5.07916 8C4.07915 16 11.2996 20 16.2184 23.578C17.8792 24.786 19.4792 25.9247 21.0792 25.9247C22.6792 25.9247 24.2792 24.7875 25.94 23.5765C30.6488 20.1531 37.0792 16.325 37.0792 9.1445C37.0792 4.50002 30.7792 -2.90578 23.5792 4.00006C16.3792 10.9059 6.07916 0 5.07916 8Z" fill="url(#paint0_linear_290_65)"/>
<g filter="url(#filter1_d_290_65)">
<path d="M14.7021 17.1094C14.1006 17.1094 13.5654 17.0117 13.0967 16.8164C12.6305 16.6185 12.2646 16.349 11.999 16.0078C11.7334 15.6667 11.6006 15.2799 11.6006 14.8477C11.6006 14.5143 11.6761 14.2083 11.8271 13.9297C11.9808 13.6484 12.1891 13.4154 12.4521 13.2305C12.7152 13.043 13.0094 12.9232 13.335 12.8711V12.8164C12.9079 12.7305 12.5615 12.5234 12.2959 12.1953C12.0303 11.8646 11.8975 11.4805 11.8975 11.043C11.8975 10.6289 12.0186 10.2604 12.2607 9.9375C12.5029 9.61198 12.835 9.35677 13.2568 9.17187C13.6813 8.98437 14.1631 8.89062 14.7021 8.89062C15.2412 8.89062 15.7217 8.98437 16.1436 9.17187C16.568 9.35937 16.9014 9.61589 17.1436 9.94141C17.3857 10.2643 17.5081 10.6315 17.5107 11.043C17.5081 11.4831 17.3727 11.8672 17.1045 12.1953C16.8363 12.5234 16.4925 12.7305 16.0732 12.8164V12.8711C16.3936 12.9232 16.6839 13.043 16.9443 13.2305C17.2074 13.4154 17.4157 13.6484 17.5693 13.9297C17.7256 14.2083 17.805 14.5143 17.8076 14.8477C17.805 15.2799 17.6709 15.6667 17.4053 16.0078C17.1396 16.349 16.7725 16.6185 16.3037 16.8164C15.8376 17.0117 15.3037 17.1094 14.7021 17.1094ZM14.7021 15.8672C14.9704 15.8672 15.2048 15.819 15.4053 15.7227C15.6058 15.6237 15.762 15.4883 15.874 15.3164C15.9886 15.1419 16.0459 14.9414 16.0459 14.7148C16.0459 14.4831 15.9873 14.2786 15.8701 14.1016C15.7529 13.9219 15.5941 13.7813 15.3936 13.6797C15.193 13.5755 14.9626 13.5234 14.7021 13.5234C14.4443 13.5234 14.2139 13.5755 14.0107 13.6797C13.8076 13.7813 13.6475 13.9219 13.5303 14.1016C13.4157 14.2786 13.3584 14.4831 13.3584 14.7148C13.3584 14.9414 13.4144 15.1419 13.5264 15.3164C13.6383 15.4883 13.7959 15.6237 13.999 15.7227C14.2021 15.819 14.4365 15.8672 14.7021 15.8672ZM14.7021 12.293C14.9261 12.293 15.1253 12.2474 15.2998 12.1562C15.4743 12.0651 15.611 11.9388 15.71 11.7773C15.8089 11.6159 15.8584 11.4297 15.8584 11.2187C15.8584 11.0104 15.8089 10.8281 15.71 10.6719C15.611 10.513 15.4756 10.3893 15.3037 10.3008C15.1318 10.2096 14.9313 10.1641 14.7021 10.1641C14.4756 10.1641 14.2751 10.2096 14.1006 10.3008C13.9261 10.3893 13.7894 10.513 13.6904 10.6719C13.5941 10.8281 13.5459 11.0104 13.5459 11.2187C13.5459 11.4297 13.5954 11.6159 13.6943 11.7773C13.7933 11.9388 13.93 12.0651 14.1045 12.1562C14.279 12.2474 14.4782 12.293 14.7021 12.293ZM22.127 17.1758C21.4551 17.1732 20.877 17.0078 20.3926 16.6797C19.9108 16.3516 19.5397 15.8763 19.2793 15.2539C19.0215 14.6315 18.8939 13.8828 18.8965 13.0078C18.8965 12.1354 19.0254 11.3919 19.2832 10.7773C19.5436 10.1628 19.9147 9.69531 20.3965 9.375C20.8809 9.05208 21.4577 8.89062 22.127 8.89062C22.7962 8.89062 23.3717 9.05208 23.8535 9.375C24.3379 9.69792 24.7103 10.1667 24.9707 10.7812C25.2311 11.3932 25.36 12.1354 25.3574 13.0078C25.3574 13.8854 25.2272 14.6354 24.9668 15.2578C24.709 15.8802 24.3392 16.3555 23.8574 16.6836C23.3757 17.0117 22.7988 17.1758 22.127 17.1758ZM22.127 15.7734C22.5853 15.7734 22.9512 15.543 23.2246 15.082C23.498 14.6211 23.6335 13.9297 23.6309 13.0078C23.6309 12.401 23.5684 11.8958 23.4434 11.4922C23.321 11.0885 23.1465 10.7852 22.9199 10.582C22.696 10.3789 22.4316 10.2773 22.127 10.2773C21.6712 10.2773 21.3066 10.5052 21.0332 10.9609C20.7598 11.4167 20.6217 12.099 20.6191 13.0078C20.6191 13.6224 20.6803 14.1354 20.8027 14.5469C20.9277 14.9557 21.1035 15.263 21.3301 15.4687C21.5566 15.6719 21.8223 15.7734 22.127 15.7734ZM29.1143 16.0455V15.777C29.1143 15.5732 29.1573 15.3859 29.2435 15.2152C29.3314 15.0429 29.4581 14.9053 29.6238 14.8026C29.7912 14.6982 29.9951 14.646 30.2354 14.646C30.479 14.646 30.6836 14.6973 30.8493 14.8001C31.0167 14.9028 31.1427 15.0404 31.2272 15.2127C31.3134 15.3834 31.3564 15.5715 31.3564 15.777V16.0455C31.3564 16.2493 31.3134 16.4374 31.2272 16.6097C31.141 16.7804 31.0142 16.9171 30.8469 17.0199C30.6795 17.1243 30.4756 17.1765 30.2354 17.1765C29.9917 17.1765 29.7871 17.1243 29.6214 17.0199C29.4556 16.9171 29.3297 16.7804 29.2435 16.6097C29.1573 16.4374 29.1143 16.2493 29.1143 16.0455ZM29.8376 15.777V16.0455C29.8376 16.1631 29.8658 16.2741 29.9221 16.3786C29.9801 16.483 30.0845 16.5352 30.2354 16.5352C30.3862 16.5352 30.4889 16.4838 30.5436 16.381C30.5999 16.2783 30.6281 16.1664 30.6281 16.0455V15.777C30.6281 15.656 30.6016 15.5433 30.5486 15.4389C30.4955 15.3345 30.3911 15.2823 30.2354 15.2823C30.0862 15.2823 29.9826 15.3345 29.9246 15.4389C29.8666 15.5433 29.8376 15.656 29.8376 15.777ZM26.5017 13.1321V12.8636C26.5017 12.6581 26.5456 12.4701 26.6334 12.2994C26.7213 12.127 26.848 11.9895 27.0138 11.8867C27.1811 11.784 27.3833 11.7326 27.6203 11.7326C27.8656 11.7326 28.0711 11.784 28.2368 11.8867C28.4025 11.9895 28.5284 12.127 28.6146 12.2994C28.7008 12.4701 28.7439 12.6581 28.7439 12.8636V13.1321C28.7439 13.3376 28.7 13.5257 28.6121 13.6964C28.526 13.8671 28.3992 14.0038 28.2318 14.1065C28.0661 14.2076 27.8622 14.2582 27.6203 14.2582C27.3783 14.2582 27.1737 14.2068 27.0063 14.104C26.8406 13.9996 26.7146 13.8629 26.6285 13.6939C26.5439 13.5232 26.5017 13.3359 26.5017 13.1321ZM27.23 12.8636V13.1321C27.23 13.2531 27.2582 13.3649 27.3145 13.4677C27.3725 13.5704 27.4745 13.6218 27.6203 13.6218C27.7728 13.6218 27.8763 13.5704 27.931 13.4677C27.9874 13.3649 28.0155 13.2531 28.0155 13.1321V12.8636C28.0155 12.7427 27.989 12.63 27.936 12.5256C27.883 12.4212 27.7777 12.369 27.6203 12.369C27.4728 12.369 27.3709 12.422 27.3145 12.5281C27.2582 12.6341 27.23 12.746 27.23 12.8636ZM26.8298 17L30.3298 11.9091H30.9811L27.4811 17H26.8298Z" fill="#222547"/>
</g>
<defs>
<filter id="filter0_d_290_65" x="0" y="-0.000366211" width="42" height="35.0004" filterUnits="userSpaceOnUse" color-interpolation-filters="sRGB">
<feFlood flood-opacity="0" result="BackgroundImageFix"/>
<feColorMatrix in="SourceAlpha" type="matrix" values="0 0 0 0 0 0 0 0 0 0 0 0 0 0 0 0 0 0 127 0" result="hardAlpha"/>
<feOffset dy="4"/>
<feGaussianBlur stdDeviation="2"/>
<feComposite in2="hardAlpha" operator="out"/>
<feColorMatrix type="matrix" values="0 0 0 0 0 0 0 0 0 0 0 0 0 0 0 0 0 0 0.25 0"/>
<feBlend mode="normal" in2="BackgroundImageFix" result="effect1_dropShadow_290_65"/>
<feBlend mode="normal" in="SourceGraphic" in2="effect1_dropShadow_290_65" result="shape"/>
</filter>
<filter id="filter1_d_290_65" x="10.6006" y="8.89062" width="21.7559" height="10.2859" filterUnits="userSpaceOnUse" color-interpolation-filters="sRGB">
<feFlood flood-opacity="0" result="BackgroundImageFix"/>
<feColorMatrix in="SourceAlpha" type="matrix" values="0 0 0 0 0 0 0 0 0 0 0 0 0 0 0 0 0 0 127 0" result="hardAlpha"/>
<feOffset dy="1"/>
<feGaussianBlur stdDeviation="0.5"/>
<feComposite in2="hardAlpha" operator="out"/>
<feColorMatrix type="matrix" values="0 0 0 0 1 0 0 0 0 1 0 0 0 0 1 0 0 0 0.6 0"/>
<feBlend mode="normal" in2="BackgroundImageFix" result="effect1_dropShadow_290_65"/>
<feBlend mode="normal" in="SourceGraphic" in2="effect1_dropShadow_290_65" result="shape"/>
</filter>
<linearGradient id="paint0_linear_290_65" x1="21" y1="0.999954" x2="21" y2="26.4246" gradientUnits="userSpaceOnUse">
<stop stop-color="white"/>
<stop offset="0.115" stop-color="#F9F0D7"/>
<stop offset="0.2" stop-color="#F3E2CF"/>
<stop offset="0.34" stop-color="#FFDDDE"/>
<stop offset="0.485" stop-color="#FFD9FB"/>
<stop offset="0.635" stop-color="#D4D1FF"/>
<stop offset="0.82" stop-color="#AFCBEB"/>
<stop offset="1" stop-color="#D7FAFE"/>
</linearGradient>
</defs>
</svg>
