<svg width="42" height="35" viewBox="0 0 42 35" fill="none" xmlns="http://www.w3.org/2000/svg">
<g filter="url(#filter0_d_290_123)">
<path d="M5 9.49862C5 16.5607 11.432 20.3233 16.1392 23.6924C17.8 24.8804 19.4 26 21 26C22.6 26 24.2 24.8818 25.8608 23.691C30.5696 20.3248 37 16.5607 37 9.50007C37 2.43946 28.2 -2.57209 21 4.21841C13.8 -2.57209 5 2.43656 5 9.49862Z" fill="white"/>
<path d="M15.8482 24.099L15.8483 24.0991L25.8608 23.691L26.1516 24.0977C26.1516 24.0977 26.1516 24.0977 26.1517 24.0977C26.5836 23.7889 27.0333 23.4747 27.4938 23.153C29.5108 21.7438 31.7327 20.1914 33.5536 18.3306C35.8069 16.0279 37.5 13.2031 37.5 9.50007C37.5 5.75499 35.1663 2.56242 31.8917 1.20327C28.696 -0.123096 24.6447 0.306397 21 3.54074C17.3554 0.306398 13.3041 -0.123844 10.1084 1.20197C6.83365 2.56058 4.5 5.75283 4.5 9.49862C4.5 13.2024 6.19353 16.0272 8.44703 18.3301C10.2648 20.1877 12.4823 21.7383 14.4961 23.1464C14.9601 23.4708 15.4132 23.7877 15.8482 24.099Z" stroke="white"/>
</g>
<path d="M7.49999 16C6.5 18 10.7928 20.0737 15.5 23.5C17.1608 24.7081 19.4 26.5 21 26.5C22.6 26.5 27.1245 23 28.5 22C33.2088 18.5766 36 16.0001 35 14.5001C33 11.5001 27.5 17.2501 20.5 19.0001C13.5 20.7501 8.49998 14 7.49999 16Z" fill="url(#paint0_linear_290_123)"/>
<g filter="url(#filter1_d_290_123)">
<path d="M11.8896 17V15.7812L14.7373 13.1445C14.9795 12.9102 15.1826 12.6992 15.3467 12.5117C15.5133 12.3242 15.6396 12.1406 15.7256 11.9609C15.8115 11.7786 15.8545 11.582 15.8545 11.3711C15.8545 11.1367 15.8011 10.9349 15.6943 10.7656C15.5876 10.5937 15.4417 10.4622 15.2568 10.3711C15.0719 10.2773 14.8623 10.2305 14.6279 10.2305C14.3831 10.2305 14.1696 10.2799 13.9873 10.3789C13.805 10.4779 13.6644 10.6198 13.5654 10.8047C13.4665 10.9896 13.417 11.2096 13.417 11.4648H11.8115C11.8115 10.9414 11.93 10.487 12.167 10.1016C12.404 9.71615 12.736 9.41797 13.1631 9.20703C13.5902 8.99609 14.0824 8.89062 14.6396 8.89062C15.2126 8.89062 15.7113 8.99219 16.1357 9.19531C16.5628 9.39583 16.8949 9.67448 17.1318 10.0312C17.3688 10.388 17.4873 10.7969 17.4873 11.2578C17.4873 11.5599 17.4274 11.8581 17.3076 12.1523C17.1904 12.4466 16.9808 12.7734 16.6787 13.1328C16.3766 13.4896 15.9508 13.918 15.4014 14.418L14.2334 15.5625V15.6172H17.5928V17H11.8896ZM21.9551 17.1758C21.2832 17.1732 20.7051 17.0078 20.2207 16.6797C19.7389 16.3516 19.3678 15.8763 19.1074 15.2539C18.8496 14.6315 18.722 13.8828 18.7246 13.0078C18.7246 12.1354 18.8535 11.3919 19.1113 10.7773C19.3717 10.1628 19.7428 9.69531 20.2246 9.375C20.709 9.05208 21.2858 8.89062 21.9551 8.89062C22.6243 8.89062 23.1999 9.05208 23.6816 9.375C24.166 9.69792 24.5384 10.1667 24.7988 10.7812C25.0592 11.3932 25.1882 12.1354 25.1855 13.0078C25.1855 13.8854 25.0553 14.6354 24.7949 15.2578C24.5371 15.8802 24.1673 16.3555 23.6855 16.6836C23.2038 17.0117 22.627 17.1758 21.9551 17.1758ZM21.9551 15.7734C22.4134 15.7734 22.7793 15.543 23.0527 15.082C23.3262 14.6211 23.4616 13.9297 23.459 13.0078C23.459 12.401 23.3965 11.8958 23.2715 11.4922C23.1491 11.0885 22.9746 10.7852 22.748 10.582C22.5241 10.3789 22.2598 10.2773 21.9551 10.2773C21.4993 10.2773 21.1348 10.5052 20.8613 10.9609C20.5879 11.4167 20.4499 12.099 20.4473 13.0078C20.4473 13.6224 20.5085 14.1354 20.6309 14.5469C20.7559 14.9557 20.9316 15.263 21.1582 15.4687C21.3848 15.6719 21.6504 15.7734 21.9551 15.7734ZM28.9424 16.0455V15.777C28.9424 15.5732 28.9855 15.3859 29.0716 15.2152C29.1595 15.0429 29.2863 14.9053 29.452 14.8026C29.6193 14.6982 29.8232 14.646 30.0635 14.646C30.3071 14.646 30.5117 14.6973 30.6775 14.8001C30.8448 14.9028 30.9708 15.0404 31.0553 15.2127C31.1415 15.3834 31.1846 15.5715 31.1846 15.777V16.0455C31.1846 16.2493 31.1415 16.4374 31.0553 16.6097C30.9691 16.7804 30.8424 16.9171 30.675 17.0199C30.5076 17.1243 30.3038 17.1765 30.0635 17.1765C29.8199 17.1765 29.6152 17.1243 29.4495 17.0199C29.2838 16.9171 29.1578 16.7804 29.0716 16.6097C28.9855 16.4374 28.9424 16.2493 28.9424 16.0455ZM29.6657 15.777V16.0455C29.6657 16.1631 29.6939 16.2741 29.7503 16.3786C29.8083 16.483 29.9127 16.5352 30.0635 16.5352C30.2143 16.5352 30.317 16.4838 30.3717 16.381C30.4281 16.2783 30.4562 16.1664 30.4562 16.0455V15.777C30.4562 15.656 30.4297 15.5433 30.3767 15.4389C30.3237 15.3345 30.2193 15.2823 30.0635 15.2823C29.9143 15.2823 29.8108 15.3345 29.7528 15.4389C29.6948 15.5433 29.6657 15.656 29.6657 15.777ZM26.3298 13.1321V12.8636C26.3298 12.6581 26.3737 12.4701 26.4616 12.2994C26.5494 12.127 26.6762 11.9895 26.8419 11.8867C27.0093 11.784 27.2114 11.7326 27.4484 11.7326C27.6937 11.7326 27.8992 11.784 28.0649 11.8867C28.2306 11.9895 28.3566 12.127 28.4427 12.2994C28.5289 12.4701 28.572 12.6581 28.572 12.8636V13.1321C28.572 13.3376 28.5281 13.5257 28.4403 13.6964C28.3541 13.8671 28.2273 14.0038 28.0599 14.1065C27.8942 14.2076 27.6904 14.2582 27.4484 14.2582C27.2065 14.2582 27.0018 14.2068 26.8344 14.104C26.6687 13.9996 26.5428 13.8629 26.4566 13.6939C26.3721 13.5232 26.3298 13.3359 26.3298 13.1321ZM27.0581 12.8636V13.1321C27.0581 13.2531 27.0863 13.3649 27.1427 13.4677C27.2007 13.5704 27.3026 13.6218 27.4484 13.6218C27.6009 13.6218 27.7045 13.5704 27.7591 13.4677C27.8155 13.3649 27.8437 13.2531 27.8437 13.1321V12.8636C27.8437 12.7427 27.8171 12.63 27.7641 12.5256C27.7111 12.4212 27.6059 12.369 27.4484 12.369C27.3009 12.369 27.199 12.422 27.1427 12.5281C27.0863 12.6341 27.0581 12.746 27.0581 12.8636ZM26.6579 17L30.1579 11.9091H30.8092L27.3092 17H26.6579Z" fill="#222547"/>
</g>
<defs>
<filter id="filter0_d_290_123" x="0" y="-0.000366211" width="42" height="35.0004" filterUnits="userSpaceOnUse" color-interpolation-filters="sRGB">
<feFlood flood-opacity="0" result="BackgroundImageFix"/>
<feColorMatrix in="SourceAlpha" type="matrix" values="0 0 0 0 0 0 0 0 0 0 0 0 0 0 0 0 0 0 127 0" result="hardAlpha"/>
<feOffset dy="4"/>
<feGaussianBlur stdDeviation="2"/>
<feComposite in2="hardAlpha" operator="out"/>
<feColorMatrix type="matrix" values="0 0 0 0 0 0 0 0 0 0 0 0 0 0 0 0 0 0 0.25 0"/>
<feBlend mode="normal" in2="BackgroundImageFix" result="effect1_dropShadow_290_123"/>
<feBlend mode="normal" in="SourceGraphic" in2="effect1_dropShadow_290_123" result="shape"/>
</filter>
<filter id="filter1_d_290_123" x="10.8115" y="8.89062" width="21.373" height="10.2859" filterUnits="userSpaceOnUse" color-interpolation-filters="sRGB">
<feFlood flood-opacity="0" result="BackgroundImageFix"/>
<feColorMatrix in="SourceAlpha" type="matrix" values="0 0 0 0 0 0 0 0 0 0 0 0 0 0 0 0 0 0 127 0" result="hardAlpha"/>
<feOffset dy="1"/>
<feGaussianBlur stdDeviation="0.5"/>
<feComposite in2="hardAlpha" operator="out"/>
<feColorMatrix type="matrix" values="0 0 0 0 1 0 0 0 0 1 0 0 0 0 1 0 0 0 0.6 0"/>
<feBlend mode="normal" in2="BackgroundImageFix" result="effect1_dropShadow_290_123"/>
<feBlend mode="normal" in="SourceGraphic" in2="effect1_dropShadow_290_123" result="shape"/>
</filter>
<linearGradient id="paint0_linear_290_123" x1="20.3856" y1="-0.187916" x2="20.3856" y2="25.2368" gradientUnits="userSpaceOnUse">
<stop stop-color="white"/>
<stop offset="0.115" stop-color="#F9F0D7"/>
<stop offset="0.2" stop-color="#F3E2CF"/>
<stop offset="0.34" stop-color="#FFDDDE"/>
<stop offset="0.485" stop-color="#FFD9FB"/>
<stop offset="0.635" stop-color="#D4D1FF"/>
<stop offset="0.82" stop-color="#AFCBEB"/>
<stop offset="1" stop-color="#D7FAFE"/>
</linearGradient>
</defs>
</svg>
