<svg width="42" height="35" viewBox="0 0 42 35" fill="none" xmlns="http://www.w3.org/2000/svg">
<g filter="url(#filter0_d_135_48)">
<path d="M5 9.49862C5 16.5607 11.432 20.3233 16.1392 23.6924C17.8 24.8804 19.4 26 21 26C22.6 26 24.2 24.8818 25.8608 23.691C30.5696 20.3248 37 16.5607 37 9.50007C37 2.43946 28.2 -2.57209 21 4.21841C13.8 -2.57209 5 2.43656 5 9.49862Z" fill="white"/>
<path d="M15.8482 24.099L15.8483 24.0991L25.8608 23.691L26.1516 24.0978C26.1518 24.0976 26.152 24.0975 26.1522 24.0973C26.5839 23.7887 27.0335 23.4746 27.4938 23.153C29.5108 21.7438 31.7327 20.1914 33.5536 18.3306C35.8069 16.0279 37.5 13.2031 37.5 9.50007C37.5 5.75499 35.1663 2.56242 31.8917 1.20327C28.696 -0.123096 24.6447 0.306397 21 3.54074C17.3554 0.306398 13.3041 -0.123844 10.1084 1.20197C6.83365 2.56058 4.5 5.75283 4.5 9.49862C4.5 13.2024 6.19353 16.0272 8.44703 18.3301C10.2648 20.1877 12.4823 21.7383 14.4961 23.1464C14.9601 23.4708 15.4132 23.7877 15.8482 24.099Z" stroke="white"/>
</g>
<path d="M5 9.64299C5 17.8476 11.432 20.6516 16.1392 24.0779C17.8 25.286 19.4 26.4247 21 26.4247C22.6 26.4247 24.2 25.2875 25.8608 24.0764C30.5696 20.6531 37 16.825 37 9.64447C34.589 4.72604 28.2 2.73715 21 9.64299C13.8 16.5488 5 1.43837 5 9.64299Z" fill="url(#paint0_linear_135_48)"/>
<g filter="url(#filter1_d_135_48)">
<path d="M14.7935 17.1094C14.382 17.1068 13.9849 17.0378 13.6021 16.9023C13.2218 16.7669 12.8807 16.5469 12.5786 16.2422C12.2765 15.9375 12.0369 15.5339 11.8599 15.0312C11.6854 14.5286 11.5981 13.9115 11.5981 13.1797C11.6007 12.5078 11.6776 11.9076 11.8286 11.3789C11.9823 10.8477 12.201 10.3971 12.4849 10.0273C12.7713 9.65755 13.1138 9.3763 13.5122 9.18359C13.9106 8.98828 14.3573 8.89062 14.8521 8.89062C15.3859 8.89062 15.8573 8.99479 16.2661 9.20313C16.675 9.40885 17.0031 9.6888 17.2505 10.043C17.5005 10.3971 17.6515 10.7943 17.7036 11.2344H16.0356C15.9705 10.9557 15.8338 10.737 15.6255 10.5781C15.4172 10.4193 15.1593 10.3398 14.8521 10.3398C14.3312 10.3398 13.9354 10.5664 13.6646 11.0195C13.3963 11.4727 13.2596 12.0885 13.2544 12.8672H13.3091C13.4289 12.6302 13.5903 12.4284 13.7935 12.2617C13.9992 12.0924 14.2323 11.9635 14.4927 11.875C14.7557 11.7839 15.033 11.7383 15.3247 11.7383C15.7987 11.7383 16.2205 11.8503 16.5903 12.0742C16.9601 12.2956 17.2518 12.6003 17.4653 12.9883C17.6789 13.3763 17.7856 13.8203 17.7856 14.3203C17.7856 14.862 17.6593 15.3437 17.4067 15.7656C17.1567 16.1875 16.8065 16.5182 16.356 16.7578C15.908 16.9948 15.3872 17.112 14.7935 17.1094ZM14.7856 15.7812C15.0461 15.7812 15.2791 15.7187 15.4849 15.5938C15.6906 15.4687 15.8521 15.2995 15.9692 15.0859C16.0864 14.8724 16.145 14.6328 16.145 14.3672C16.145 14.1016 16.0864 13.8633 15.9692 13.6523C15.8547 13.4414 15.6958 13.2734 15.4927 13.1484C15.2896 13.0234 15.0578 12.9609 14.7974 12.9609C14.6021 12.9609 14.4211 12.9974 14.2544 13.0703C14.0903 13.1432 13.9458 13.2448 13.8208 13.375C13.6984 13.5052 13.6021 13.6562 13.5317 13.8281C13.4614 13.9974 13.4263 14.1784 13.4263 14.3711C13.4263 14.6289 13.4849 14.8646 13.6021 15.0781C13.7218 15.2917 13.8833 15.4622 14.0864 15.5898C14.2922 15.7174 14.5252 15.7812 14.7856 15.7812ZM22.1216 17.1758C21.4497 17.1732 20.8716 17.0078 20.3872 16.6797C19.9054 16.3516 19.5343 15.8763 19.2739 15.2539C19.0161 14.6315 18.8885 13.8828 18.8911 13.0078C18.8911 12.1354 19.02 11.3919 19.2778 10.7773C19.5382 10.1628 19.9093 9.69531 20.3911 9.375C20.8755 9.05208 21.4523 8.89062 22.1216 8.89062C22.7909 8.89062 23.3664 9.05208 23.8481 9.375C24.3325 9.69792 24.7049 10.1667 24.9653 10.7812C25.2257 11.3932 25.3547 12.1354 25.3521 13.0078C25.3521 13.8854 25.2218 14.6354 24.9614 15.2578C24.7036 15.8802 24.3338 16.3555 23.8521 16.6836C23.3703 17.0117 22.7935 17.1758 22.1216 17.1758ZM22.1216 15.7734C22.5799 15.7734 22.9458 15.543 23.2192 15.082C23.4927 14.6211 23.6281 13.9297 23.6255 13.0078C23.6255 12.401 23.563 11.8958 23.438 11.4922C23.3156 11.0885 23.1411 10.7852 22.9146 10.582C22.6906 10.3789 22.4263 10.2773 22.1216 10.2773C21.6659 10.2773 21.3013 10.5052 21.0278 10.9609C20.7544 11.4167 20.6164 12.099 20.6138 13.0078C20.6138 13.6224 20.675 14.1354 20.7974 14.5469C20.9224 14.9557 21.0981 15.263 21.3247 15.4687C21.5513 15.6719 21.8169 15.7734 22.1216 15.7734ZM29.1089 16.0455V15.777C29.1089 15.5732 29.152 15.3859 29.2381 15.2152C29.326 15.0429 29.4528 14.9053 29.6185 14.8026C29.7859 14.6982 29.9897 14.646 30.23 14.646C30.4736 14.646 30.6783 14.6973 30.844 14.8001C31.0113 14.9028 31.1373 15.0404 31.2218 15.2127C31.308 15.3834 31.3511 15.5715 31.3511 15.777V16.0455C31.3511 16.2493 31.308 16.4374 31.2218 16.6097C31.1356 16.7804 31.0089 16.9171 30.8415 17.0199C30.6741 17.1243 30.4703 17.1765 30.23 17.1765C29.9864 17.1765 29.7817 17.1243 29.616 17.0199C29.4503 16.9171 29.3243 16.7804 29.2381 16.6097C29.152 16.4374 29.1089 16.2493 29.1089 16.0455ZM29.8323 15.777V16.0455C29.8323 16.1631 29.8604 16.2741 29.9168 16.3786C29.9748 16.483 30.0792 16.5352 30.23 16.5352C30.3808 16.5352 30.4835 16.4838 30.5382 16.381C30.5946 16.2783 30.6227 16.1664 30.6227 16.0455V15.777C30.6227 15.656 30.5962 15.5433 30.5432 15.4389C30.4902 15.3345 30.3858 15.2823 30.23 15.2823C30.0808 15.2823 29.9773 15.3345 29.9193 15.4389C29.8613 15.5433 29.8323 15.656 29.8323 15.777ZM26.4963 13.1321V12.8636C26.4963 12.6581 26.5402 12.4701 26.6281 12.2994C26.7159 12.127 26.8427 11.9895 27.0084 11.8867C27.1758 11.784 27.3779 11.7326 27.6149 11.7326C27.8602 11.7326 28.0657 11.784 28.2314 11.8867C28.3971 11.9895 28.5231 12.127 28.6092 12.2994C28.6954 12.4701 28.7385 12.6581 28.7385 12.8636V13.1321C28.7385 13.3376 28.6946 13.5257 28.6068 13.6964C28.5206 13.8671 28.3938 14.0038 28.2264 14.1065C28.0607 14.2076 27.8569 14.2582 27.6149 14.2582C27.373 14.2582 27.1683 14.2068 27.0009 14.104C26.8352 13.9996 26.7093 13.8629 26.6231 13.6939C26.5386 13.5232 26.4963 13.3359 26.4963 13.1321ZM27.2247 12.8636V13.1321C27.2247 13.2531 27.2528 13.3649 27.3092 13.4677C27.3672 13.5704 27.4691 13.6218 27.6149 13.6218C27.7674 13.6218 27.871 13.5704 27.9256 13.4677C27.982 13.3649 28.0102 13.2531 28.0102 13.1321V12.8636C28.0102 12.7427 27.9837 12.63 27.9306 12.5256C27.8776 12.4212 27.7724 12.369 27.6149 12.369C27.4674 12.369 27.3655 12.422 27.3092 12.5281C27.2528 12.6341 27.2247 12.746 27.2247 12.8636ZM26.8244 17L30.3244 11.9091H30.9757L27.4757 17H26.8244Z" fill="#222547"/>
</g>
<defs>
<filter id="filter0_d_135_48" x="0" y="-0.000427246" width="42" height="35.0004" filterUnits="userSpaceOnUse" color-interpolation-filters="sRGB">
<feFlood flood-opacity="0" result="BackgroundImageFix"/>
<feColorMatrix in="SourceAlpha" type="matrix" values="0 0 0 0 0 0 0 0 0 0 0 0 0 0 0 0 0 0 127 0" result="hardAlpha"/>
<feOffset dy="4"/>
<feGaussianBlur stdDeviation="2"/>
<feComposite in2="hardAlpha" operator="out"/>
<feColorMatrix type="matrix" values="0 0 0 0 0 0 0 0 0 0 0 0 0 0 0 0 0 0 0.25 0"/>
<feBlend mode="normal" in2="BackgroundImageFix" result="effect1_dropShadow_135_48"/>
<feBlend mode="normal" in="SourceGraphic" in2="effect1_dropShadow_135_48" result="shape"/>
</filter>
<filter id="filter1_d_135_48" x="10.5981" y="8.89062" width="21.7529" height="10.2859" filterUnits="userSpaceOnUse" color-interpolation-filters="sRGB">
<feFlood flood-opacity="0" result="BackgroundImageFix"/>
<feColorMatrix in="SourceAlpha" type="matrix" values="0 0 0 0 0 0 0 0 0 0 0 0 0 0 0 0 0 0 127 0" result="hardAlpha"/>
<feOffset dy="1"/>
<feGaussianBlur stdDeviation="0.5"/>
<feComposite in2="hardAlpha" operator="out"/>
<feColorMatrix type="matrix" values="0 0 0 0 1 0 0 0 0 1 0 0 0 0 1 0 0 0 0.6 0"/>
<feBlend mode="normal" in2="BackgroundImageFix" result="effect1_dropShadow_135_48"/>
<feBlend mode="normal" in="SourceGraphic" in2="effect1_dropShadow_135_48" result="shape"/>
</filter>
<linearGradient id="paint0_linear_135_48" x1="21" y1="1.00001" x2="21" y2="26.4247" gradientUnits="userSpaceOnUse">
<stop stop-color="white"/>
<stop offset="0.115" stop-color="#F9F0D7"/>
<stop offset="0.2" stop-color="#F3E2CF"/>
<stop offset="0.34" stop-color="#FFDDDE"/>
<stop offset="0.485" stop-color="#FFD9FB"/>
<stop offset="0.635" stop-color="#D4D1FF"/>
<stop offset="0.82" stop-color="#AFCBEB"/>
<stop offset="1" stop-color="#D7FAFE"/>
</linearGradient>
</defs>
</svg>
