<svg width="28" height="28" viewBox="0 0 28 28" fill="none" xmlns="http://www.w3.org/2000/svg">
<path d="M19.39 3.48833C19.2545 3.35253 19.0936 3.24478 18.9164 3.17126C18.7393 3.09774 18.5493 3.05989 18.3575 3.05989C18.1657 3.05989 17.9757 3.09774 17.7986 3.17126C17.6214 3.24478 17.4605 3.35253 17.325 3.48833L7.63 13.1833C7.52185 13.2913 7.43604 13.4195 7.3775 13.5606C7.31895 13.7017 7.28882 13.853 7.28882 14.0058C7.28882 14.1586 7.31895 14.3099 7.3775 14.4511C7.43604 14.5922 7.52185 14.7204 7.63 14.8283L17.325 24.5233C17.8967 25.095 18.8183 25.095 19.39 24.5233C19.9617 23.9517 19.9617 23.03 19.39 22.4583L10.9433 14L19.4017 5.54167C19.9617 4.98167 19.9617 4.04833 19.39 3.48833Z" fill="url(#paint0_linear_59_52)"/>
<defs>
<linearGradient id="paint0_linear_59_52" x1="7.28882" y1="14.006" x2="19.8202" y2="14.006" gradientUnits="userSpaceOnUse">
<stop stop-color="#222547"/>
<stop offset="1" stop-color="#748DED"/>
</linearGradient>
</defs>
</svg>
