<svg width="24" height="24" viewBox="0 0 24 24" fill="none" xmlns="http://www.w3.org/2000/svg">
<path d="M17.5171 7.95699C17.8171 8.24299 17.8291 8.717 17.5431 9.017L10.8761 16.017C10.806 16.0905 10.7218 16.149 10.6284 16.189C10.5351 16.229 10.4346 16.2496 10.3331 16.2496C10.2315 16.2496 10.131 16.229 10.0377 16.189C9.94435 16.149 9.8601 16.0905 9.79006 16.017L6.45706 12.517C6.38622 12.4463 6.33026 12.3621 6.29246 12.2694C6.25467 12.1767 6.23581 12.0774 6.23699 11.9773C6.23818 11.8773 6.25938 11.7784 6.29936 11.6867C6.33934 11.5949 6.39728 11.5121 6.46977 11.443C6.54226 11.374 6.62783 11.3202 6.72145 11.2848C6.81506 11.2493 6.91482 11.233 7.01484 11.2367C7.11486 11.2405 7.21313 11.2642 7.30385 11.3065C7.39457 11.3488 7.4759 11.4088 7.54306 11.483L10.3331 14.413L16.4571 7.98299C16.5942 7.83904 16.7829 7.75544 16.9817 7.75056C17.1804 7.74569 17.373 7.81994 17.5171 7.95699Z" fill="white"/>
</svg>
