<svg width="116" height="165" viewBox="0 0 116 165" fill="none" xmlns="http://www.w3.org/2000/svg">
<g filter="url(#filter0_d_135_524)">
<rect x="1" y="1" width="114" height="150" rx="31" fill="url(#paint0_linear_135_524)"/>
<rect x="1" y="1" width="114" height="150" rx="31" stroke="white" stroke-width="2"/>
<path d="M67 70.6666H65.5V69.3333C65.5 65.6573 62.1355 62.6666 58 62.6666C53.8645 62.6666 50.5 65.6573 50.5 69.3333V70.6666H49C48.2044 70.6666 47.4413 70.9476 46.8787 71.4477C46.3161 71.9478 46 72.626 46 73.3333V86.6666C46 87.3739 46.3161 88.0521 46.8787 88.5522C47.4413 89.0523 48.2044 89.3333 49 89.3333H67C67.7957 89.3333 68.5587 89.0523 69.1213 88.5522C69.6839 88.0521 70 87.3739 70 86.6666V73.3333C70 72.626 69.6839 71.9478 69.1213 71.4477C68.5587 70.9476 67.7957 70.6666 67 70.6666ZM53.5 69.3333C53.5 67.128 55.519 65.3333 58 65.3333C60.481 65.3333 62.5 67.128 62.5 69.3333V70.6666H53.5V69.3333ZM59.5 80.964V84H56.5V80.964C55.6075 80.5026 55 79.652 55 78.6666C55 77.9594 55.3161 77.2811 55.8787 76.781C56.4413 76.2809 57.2044 76 58 76C58.7957 76 59.5587 76.2809 60.1213 76.781C60.6839 77.2811 61 77.9594 61 78.6666C61 79.6506 60.3925 80.5013 59.5 80.964Z" fill="white"/>
<g clip-path="url(#clip0_135_524)">
<path d="M86 139C92.6274 139 98 144.373 98 151C98 157.627 92.6274 163 86 163H30C23.3726 163 18 157.627 18 151C18 144.373 23.3726 139 30 139H86Z" fill="white"/>
<path d="M47.73 152.43C47.52 150.86 49.65 150.51 49.65 149.54C49.65 148.93 49.17 148.59 48.38 148.59C47.77 148.59 47.27 148.87 46.78 149.38L45.96 148.63C46.6 147.89 47.48 147.4 48.55 147.4C50 147.4 51.06 148.08 51.06 149.41C51.06 150.87 48.87 151.05 49.03 152.43H47.73ZM48.39 155.1C47.87 155.1 47.5 154.73 47.5 154.21C47.5 153.69 47.88 153.33 48.39 153.33C48.89 153.33 49.27 153.69 49.27 154.21C49.27 154.73 48.89 155.1 48.39 155.1ZM57.73 152.43C57.52 150.86 59.65 150.51 59.65 149.54C59.65 148.93 59.17 148.59 58.38 148.59C57.77 148.59 57.27 148.87 56.78 149.38L55.96 148.63C56.6 147.89 57.48 147.4 58.55 147.4C60 147.4 61.06 148.08 61.06 149.41C61.06 150.87 58.87 151.05 59.03 152.43H57.73ZM58.39 155.1C57.87 155.1 57.5 154.73 57.5 154.21C57.5 153.69 57.88 153.33 58.39 153.33C58.89 153.33 59.27 153.69 59.27 154.21C59.27 154.73 58.89 155.1 58.39 155.1ZM67.73 152.43C67.52 150.86 69.65 150.51 69.65 149.54C69.65 148.93 69.17 148.59 68.38 148.59C67.77 148.59 67.27 148.87 66.78 149.38L65.96 148.63C66.6 147.89 67.48 147.4 68.55 147.4C70 147.4 71.06 148.08 71.06 149.41C71.06 150.87 68.87 151.05 69.03 152.43H67.73ZM68.39 155.1C67.87 155.1 67.5 154.73 67.5 154.21C67.5 153.69 67.88 153.33 68.39 153.33C68.89 153.33 69.27 153.69 69.27 154.21C69.27 154.73 68.89 155.1 68.39 155.1Z" fill="#222547"/>
</g>
</g>
<defs>
<filter id="filter0_d_135_524" x="0" y="0" width="116" height="165" filterUnits="userSpaceOnUse" color-interpolation-filters="sRGB">
<feFlood flood-opacity="0" result="BackgroundImageFix"/>
<feColorMatrix in="SourceAlpha" type="matrix" values="0 0 0 0 0 0 0 0 0 0 0 0 0 0 0 0 0 0 127 0" result="hardAlpha"/>
<feOffset dy="2"/>
<feComposite in2="hardAlpha" operator="out"/>
<feColorMatrix type="matrix" values="0 0 0 0 0 0 0 0 0 0 0 0 0 0 0 0 0 0 0.25 0"/>
<feBlend mode="normal" in2="BackgroundImageFix" result="effect1_dropShadow_135_524"/>
<feBlend mode="normal" in="SourceGraphic" in2="effect1_dropShadow_135_524" result="shape"/>
</filter>
<linearGradient id="paint0_linear_135_524" x1="58" y1="0" x2="58" y2="152" gradientUnits="userSpaceOnUse">
<stop stop-color="#171C56"/>
<stop offset="1" stop-color="#748DED"/>
</linearGradient>
<clipPath id="clip0_135_524">
<path d="M86 139C92.6274 139 98 144.373 98 151C98 157.627 92.6274 163 86 163H30C23.3726 163 18 157.627 18 151C18 144.373 23.3726 139 30 139H86Z" fill="white"/>
</clipPath>
</defs>
</svg>
