<svg width="161" height="50" viewBox="0 0 161 50" fill="none" xmlns="http://www.w3.org/2000/svg">
<g filter="url(#filter0_d_135_655)">
<path d="M0 1H150C155.523 1 160 5.47715 160 11V35C160 40.5228 155.523 45 150 45H0V1Z" fill="url(#paint0_linear_135_655)"/>
<path d="M0 0.5H-0.5V1V45V45.5H0H150C155.799 45.5 160.5 40.799 160.5 35V11C160.5 5.20101 155.799 0.5 150 0.5H0Z" stroke="white"/>
<path d="M55.122 17.262C55.5 17.318 56.102 17.346 56.578 17.346C57.46 17.346 61.142 17.346 61.954 17.346C62.402 17.346 63.088 17.318 63.466 17.262V19.082C63.102 19.054 62.444 19.026 61.926 19.026C61.156 19.026 57.404 19.026 56.578 19.026C56.116 19.026 55.528 19.04 55.122 19.082V17.262ZM64.656 21.336C64.558 21.518 64.432 21.77 64.39 21.91C63.956 23.268 63.354 24.64 62.318 25.788C60.904 27.37 59.112 28.308 57.32 28.826L55.92 27.244C58.034 26.796 59.7 25.886 60.778 24.78C61.52 24.024 61.968 23.142 62.206 22.372C61.506 22.372 56.704 22.372 55.458 22.372C55.108 22.372 54.408 22.386 53.82 22.428V20.608C54.422 20.664 55.01 20.706 55.458 20.706C56.41 20.706 61.422 20.706 62.374 20.706C62.836 20.706 63.214 20.65 63.41 20.552L64.656 21.336ZM75.912 18.298C76.318 18.886 76.92 19.894 77.242 20.538L75.982 21.084C75.576 20.202 75.212 19.53 74.694 18.802L75.912 18.298ZM77.788 17.528C78.208 18.088 78.838 19.082 79.16 19.712L77.928 20.3C77.48 19.418 77.102 18.788 76.584 18.088L77.788 17.528ZM66.49 24.024C66.896 23.674 67.204 23.38 67.638 22.946C68.268 22.316 69.36 20.944 70.326 19.796C71.166 18.802 71.992 18.648 73.07 19.67C74.022 20.566 75.086 21.672 75.926 22.582C76.864 23.59 78.306 25.13 79.384 26.278L77.83 27.944C76.892 26.782 75.716 25.326 74.89 24.36C74.064 23.394 72.832 22.036 72.328 21.518C71.866 21.07 71.572 21.098 71.18 21.602C70.62 22.316 69.64 23.688 69.066 24.458C68.744 24.892 68.422 25.396 68.17 25.76L66.49 24.024ZM91.228 17.136C91.2 17.528 91.186 17.976 91.186 18.55C91.186 19.264 91.186 20.622 91.186 21.308C91.186 24.332 90.598 25.62 89.548 26.768C88.624 27.79 87.182 28.462 86.16 28.798L84.69 27.244C86.09 26.922 87.21 26.39 88.064 25.48C89.016 24.43 89.212 23.38 89.212 21.196C89.212 20.496 89.212 19.152 89.212 18.55C89.212 17.976 89.17 17.528 89.114 17.136H91.228ZM84.746 17.262C84.718 17.584 84.69 17.892 84.69 18.326C84.69 18.942 84.69 22.274 84.69 23.058C84.69 23.408 84.718 23.954 84.746 24.276H82.702C82.73 24.024 82.772 23.478 82.772 23.044C82.772 22.246 82.772 18.942 82.772 18.326C82.772 18.074 82.758 17.584 82.716 17.262H84.746ZM95.484 24.024C97.318 23.618 99.39 22.68 100.496 22.008C101.868 21.182 103.268 19.936 103.996 19.026L105.382 20.384C104.542 21.294 102.848 22.61 101.322 23.506C100.062 24.248 97.906 25.186 96.31 25.662L95.484 24.024ZM100.342 23.114L102.246 22.75V27.72C102.246 28.224 102.26 28.966 102.344 29.246H100.258C100.3 28.966 100.342 28.224 100.342 27.72V23.114Z" fill="white"/>
<path d="M27 17C28.1046 17 29 16.1046 29 15C29 13.8954 28.1046 13 27 13C25.8954 13 25 13.8954 25 15C25 16.1046 25.8954 17 27 17Z" stroke="white" stroke-width="1.5" stroke-linecap="round" stroke-linejoin="round"/>
<path d="M34 21C35.1046 21 36 20.1046 36 19C36 17.8954 35.1046 17 34 17C32.8954 17 32 17.8954 32 19C32 20.1046 32.8954 21 34 21Z" stroke="white" stroke-width="1.5" stroke-linecap="round" stroke-linejoin="round"/>
<path d="M36 29C37.1046 29 38 28.1046 38 27C38 25.8954 37.1046 25 36 25C34.8954 25 34 25.8954 34 27C34 28.1046 34.8954 29 36 29Z" stroke="white" stroke-width="1.5" stroke-linecap="round" stroke-linejoin="round"/>
<path d="M25 21C25.6566 21 26.3068 21.1293 26.9134 21.3806C27.52 21.6319 28.0712 22.0002 28.5355 22.4645C28.9998 22.9288 29.3681 23.48 29.6194 24.0866C29.8707 24.6932 30 25.3434 30 26V29.5C29.9997 30.3365 29.6999 31.1452 29.1548 31.7796C28.6097 32.4141 27.8554 32.8324 27.0286 32.9587C26.2017 33.085 25.3569 32.9111 24.6473 32.4683C23.9376 32.0255 23.41 31.3432 23.16 30.545C22.7333 29.1683 21.8333 28.2667 20.46 27.84C19.6622 27.5901 18.9802 27.0629 18.5374 26.3538C18.0945 25.6446 17.9202 24.8004 18.0459 23.9739C18.1716 23.1473 18.5889 22.3931 19.2225 21.8476C19.8561 21.3021 20.664 21.0015 21.5 21H25Z" stroke="white" stroke-width="1.5" stroke-linecap="round" stroke-linejoin="round"/>
</g>
<defs>
<filter id="filter0_d_135_655" x="-1" y="0" width="162" height="50" filterUnits="userSpaceOnUse" color-interpolation-filters="sRGB">
<feFlood flood-opacity="0" result="BackgroundImageFix"/>
<feColorMatrix in="SourceAlpha" type="matrix" values="0 0 0 0 0 0 0 0 0 0 0 0 0 0 0 0 0 0 127 0" result="hardAlpha"/>
<feOffset dy="4"/>
<feComposite in2="hardAlpha" operator="out"/>
<feColorMatrix type="matrix" values="0 0 0 0 0 0 0 0 0 0 0 0 0 0 0 0 0 0 0.2 0"/>
<feBlend mode="normal" in2="BackgroundImageFix" result="effect1_dropShadow_135_655"/>
<feBlend mode="normal" in="SourceGraphic" in2="effect1_dropShadow_135_655" result="shape"/>
</filter>
<linearGradient id="paint0_linear_135_655" x1="0" y1="23" x2="160" y2="23" gradientUnits="userSpaceOnUse">
<stop stop-color="#DC5DCB"/>
<stop offset="1" stop-color="#3148A7"/>
</linearGradient>
</defs>
</svg>
