<svg width="24" height="24" viewBox="0 0 24 24" fill="none" xmlns="http://www.w3.org/2000/svg">
<path d="M9.60982 5.85999C8.24482 6.40499 7.56282 6.67799 7.47982 7.24299C7.39682 7.80799 7.96982 8.29199 9.11482 9.25899L9.41082 9.50899C9.73582 9.78399 9.89782 9.92199 9.99082 10.109C10.0848 10.296 10.0978 10.512 10.1248 10.944L10.1488 11.337C10.2418 12.857 10.2888 13.617 10.7828 13.879C11.2768 14.141 11.8908 13.732 13.1188 12.913L13.4368 12.701C13.7858 12.468 13.9598 12.351 14.1598 12.32C14.3598 12.289 14.5618 12.344 14.9658 12.456L15.3338 12.558C16.7558 12.952 17.4668 13.149 17.8538 12.746C18.2418 12.343 18.0488 11.606 17.6638 10.133M17.9998 7.83499C18.7858 6.55899 19.1778 5.92099 18.9238 5.40899C18.6698 4.89899 17.9358 4.85199 16.4698 4.76099L16.0898 4.73699C15.6738 4.71099 15.4658 4.69799 15.2848 4.60199C15.1038 4.50599 14.9708 4.33799 14.7048 4.00199L14.4618 3.69599C13.5258 2.51299 13.0568 1.92099 12.5118 2.00799C11.9678 2.09599 11.7068 2.80399 11.1858 4.22099" stroke="white" stroke-width="1.5" stroke-linecap="round"/>
<path d="M7.44593 7.241C5.11093 8.949 3.32393 12.216 4.24793 18.001C5.06693 15.589 7.53393 13.658 10.2909 12.728" stroke="white" stroke-width="1.5" stroke-linecap="round" stroke-linejoin="round"/>
<path d="M10.28 16C10.28 16 10.914 17.39 11.694 17.87C12.474 18.347 14 18.28 14 18.28C14 18.28 12.61 18.913 12.13 19.693C11.652 20.473 11.72 22 11.72 22C11.72 22 11.086 20.61 10.306 20.13C9.527 19.654 8 19.72 8 19.72C8 19.72 9.39 19.087 9.87 18.307C10.348 17.527 10.28 16 10.28 16ZM18.48 15C18.48 15 18.058 15.927 17.538 16.246C17.018 16.565 16 16.52 16 16.52C16 16.52 16.927 16.942 17.246 17.462C17.565 17.982 17.52 19 17.52 19C17.52 19 17.942 18.073 18.462 17.754C18.982 17.435 20 17.48 20 17.48C20 17.48 19.073 17.058 18.754 16.538C18.435 16.018 18.48 15 18.48 15Z" stroke="white" stroke-width="1.5" stroke-linejoin="round"/>
</svg>
