<svg width="116" height="131" viewBox="0 0 116 131" fill="none" xmlns="http://www.w3.org/2000/svg">
<g filter="url(#filter0_d_335_387)">
<rect x="1" y="1" width="114" height="114" rx="57" fill="url(#paint0_linear_335_387)"/>
<rect x="1" y="1" width="114" height="114" rx="57" stroke="white" stroke-width="2"/>
<path d="M31.9054 34.3169C32.04 31.5461 32.6716 30.0226 34.141 28.1044L30.311 28.1257L30.3042 26.8957L35.7341 26.8656L35.7392 27.7756C33.9315 30.0056 33.4404 31.6084 33.4454 34.3084L31.9054 34.3169ZM41.6556 27.1227C41.5941 26.8431 41.5228 26.6035 41.4415 26.3739L42.8602 26.136C42.8812 26.3259 42.9231 26.6657 42.9645 26.9055C43.0681 27.5649 44.0862 32.6193 44.3018 33.6382C44.3734 33.9278 44.4654 34.2873 44.5573 34.6168L43.1187 34.8747C43.0666 34.505 43.0447 34.1651 42.9731 33.8655C42.8181 32.9664 41.8201 27.9318 41.6556 27.1227ZM38.9328 28.4179C39.2427 28.3961 39.5425 28.3745 39.8623 28.3327C40.7118 28.228 44.2087 27.6686 45.1077 27.4836C45.4174 27.4319 45.7969 27.3398 46.0365 27.2684L46.2938 28.587C46.0739 28.5983 45.6642 28.6605 45.3645 28.7022C44.3054 28.8781 40.8685 29.4471 40.1193 29.5813C39.8096 29.643 39.5499 29.7045 39.2104 29.7963L38.9328 28.4179ZM38.959 31.3478C39.219 31.3363 39.6787 31.2838 39.9884 31.2321C41.0576 31.0761 44.7042 30.4659 45.853 30.2395C46.2426 30.1673 46.6121 30.0753 46.8817 30.0038L47.149 31.3223C46.8791 31.3438 46.4695 31.4161 46.0999 31.4782C44.8309 31.6752 41.2343 32.2852 40.2453 32.4807C39.8158 32.563 39.4661 32.625 39.2465 32.6862L38.959 31.3478ZM52.0199 27.8553C52.0512 28.0951 52.1226 28.3547 52.1841 28.6144C52.5307 29.8125 53.4898 33.2472 53.7444 34.0758C53.7954 34.2555 53.9378 34.6947 54.0089 34.8943L52.6608 35.2418C52.6193 34.9721 52.5575 34.6424 52.476 34.3628C52.2211 33.4942 51.2914 29.9293 50.9656 28.8911C50.8942 28.6415 50.7828 28.3921 50.6717 28.1828L52.0199 27.8553ZM56.8284 29.3786C56.4032 30.251 55.4116 31.7665 54.7157 32.5104L53.6027 31.9666C54.1201 31.5037 54.8055 30.6599 55.0727 30.1684C54.5532 30.2613 50.488 31.1338 49.669 31.3184L49.3524 30.1301C49.6623 30.0984 49.9421 30.0668 50.2718 30.005C50.8113 29.922 54.807 29.1398 55.5161 28.9759C55.6859 28.9349 55.8856 28.8738 56.0152 28.8131L56.8284 29.3786ZM60.2424 26.4896C60.5126 26.5281 60.9427 26.5458 61.2827 26.5439C61.9127 26.5404 64.5427 26.5258 65.1227 26.5226C65.4427 26.5208 65.9325 26.4981 66.2023 26.4566L66.2095 27.7566C65.9494 27.738 65.4793 27.7206 65.1093 27.7227C64.5593 27.7257 61.8794 27.7406 61.2894 27.7438C60.9594 27.7457 60.5395 27.758 60.2496 27.7896L60.2424 26.4896ZM67.0684 29.3618C66.9992 29.4922 66.9102 29.6727 66.8807 29.7729C66.5761 30.7446 66.1516 31.7269 65.4161 32.551C64.4124 33.6866 63.1361 34.3637 61.8582 34.7408L60.852 33.6164C62.3602 33.288 63.5465 32.6314 64.3121 31.8371C64.8391 31.2942 65.1556 30.6624 65.3226 30.1115C64.8226 30.1143 61.3926 30.1333 60.5027 30.1383C60.2527 30.1396 59.7527 30.1524 59.3329 30.1847L59.3257 28.8848C59.7559 28.9224 60.1761 28.95 60.4961 28.9483C61.176 28.9445 64.756 28.9246 65.436 28.9209C65.766 28.919 66.0357 28.8775 66.1754 28.8068L67.0684 29.3618ZM69.442 28.1886L72.2119 28.1733L72.2168 29.0533L69.4469 29.0686L69.442 28.1886ZM69.4511 29.8286L72.221 29.8132L72.2257 30.6632L69.4558 30.6786L69.4511 29.8286ZM69.4603 31.4986L72.2303 31.4832L72.2352 32.3732L69.4653 32.3886L69.4603 31.4986ZM73.784 30.3446L77.5539 30.3237L77.5595 31.3337L73.7896 31.3546L73.784 30.3446ZM69.9229 26.5459L71.5029 26.5372L71.5078 27.4372L69.9279 27.4459L69.9229 26.5459ZM73.0105 26.1088L76.7204 26.0882L76.7259 27.0682L73.0159 27.0888L73.0105 26.1088ZM73.0446 32.2587L77.7545 32.2326L77.7603 33.2726L73.0504 33.2987L73.0446 32.2587ZM74.899 29.4384L76.039 29.4321L76.0695 34.942L74.9296 34.9483L74.899 29.4384ZM70.5245 28.6426L71.3245 28.6382L71.3421 31.8182L70.5422 31.8226L70.5245 28.6426ZM76.4004 26.09L77.4704 26.0841C77.4704 26.0841 77.4618 26.3341 77.4525 26.4642C77.4115 28.0744 77.3253 28.7649 77.1067 29.0261C76.9479 29.237 76.7584 29.3181 76.4986 29.3595C76.2788 29.3907 75.8888 29.4029 75.4887 29.3851C75.467 29.0852 75.3648 28.6858 75.2134 28.4266C75.5335 28.4549 75.7936 28.4634 75.9236 28.4627C76.0536 28.462 76.1335 28.4415 76.203 28.3511C76.3123 28.2205 76.3693 27.6802 76.4012 26.23L76.4004 26.09ZM73.5794 29.5157L74.5604 29.7003C74.3855 30.6213 74.0607 31.5431 73.6739 32.1352C73.4732 31.9963 73.0319 31.7788 72.7913 31.6701C73.1784 31.138 73.4438 30.3165 73.5794 29.5157ZM69.6777 25.6073L70.7489 25.8314C70.3966 27.2133 69.7841 28.5667 69.0688 29.4207C68.8878 29.2317 68.4558 28.8741 68.2149 28.7155C68.8908 27.9717 69.4143 26.7988 69.6777 25.6073ZM69.002 28.1911L69.962 28.1858L69.9767 30.8357C69.9838 32.1157 69.8636 33.8964 69.1399 35.0304C68.959 34.8714 68.5275 34.6038 68.297 34.5051C68.9712 33.4613 69.023 31.971 69.0167 30.841L69.002 28.1911ZM71.8919 28.175L72.8719 28.1696L72.9034 33.8395C72.906 34.3095 72.8176 34.61 72.5187 34.7917C72.2096 34.9634 71.7997 34.9857 71.1897 34.989C71.1482 34.7093 70.9856 34.2502 70.8441 33.9809C71.2342 33.9988 71.6342 33.9966 71.7542 33.9859C71.8742 33.9852 71.9239 33.945 71.9233 33.825L71.8919 28.175ZM74.2123 26.4321L75.2823 26.4262C75.1704 27.8869 74.8366 29.0087 73.3503 29.677C73.2289 29.4276 72.9568 29.0392 72.7158 28.8605C73.913 28.3638 74.1183 27.5127 74.2123 26.4321ZM71.2229 26.5387L71.4529 26.5375L71.6026 26.4866L72.2849 26.9128C72.0684 27.5441 71.6828 28.3362 71.3756 28.8379C71.1848 28.699 70.8537 28.5008 70.6431 28.392C70.8606 27.9308 71.1065 27.1894 71.2239 26.7187L71.2229 26.5387ZM78.396 27.089L82.8259 27.0644L82.8321 28.1744L78.4022 28.1989L78.396 27.089ZM80.0976 29.1795L81.7676 29.1703L81.7737 30.2603L80.1037 30.2695L80.0976 29.1795ZM79.9676 25.5602L81.1575 25.5536L81.1687 27.5736L79.9788 27.5802L79.9676 25.5602ZM81.3876 29.1724L82.5176 29.1661C82.5176 29.1661 82.5194 29.4961 82.5102 29.6362C82.4781 32.8564 82.4347 34.0567 82.1668 34.4281C81.9783 34.7092 81.7889 34.8103 81.4992 34.8719C81.2495 34.9132 80.8395 34.9255 80.4195 34.9178C80.3976 34.588 80.2751 34.1286 80.1034 33.8296C80.4335 33.8478 80.7136 33.8562 80.8736 33.8553C81.0036 33.8546 81.0834 33.8241 81.1628 33.7037C81.3115 33.4729 81.3557 32.4326 81.3889 29.4024L81.3876 29.1724ZM83.7976 27.359L87.7275 27.3372L87.7337 28.4472L83.8038 28.469L83.7976 27.359ZM83.8874 25.5285L85.1284 25.7016C84.8096 27.7134 84.2101 29.6167 83.3167 30.8017C83.1155 30.5928 82.5932 30.1757 82.3122 29.9973C83.1466 28.9826 83.6472 27.2898 83.8874 25.5285ZM85.8513 28.0176L87.0319 28.1311C86.5707 31.5137 85.5127 33.6796 83.0198 34.9634C82.9083 34.694 82.5653 34.1559 82.3439 33.9072C84.5983 32.8846 85.5177 30.9695 85.8513 28.0176ZM84.3925 28.2457C84.8567 30.8032 85.8484 32.9077 87.8735 33.8165C87.6048 34.058 87.2275 34.5401 87.0593 34.861C84.883 33.7331 83.9102 31.4384 83.3435 28.4315L84.3925 28.2457ZM79.3893 27.6735L80.5193 27.6672L80.533 30.1471C80.5421 31.7771 80.3416 33.4983 79.0894 34.9052C78.878 34.6564 78.4862 34.3286 78.1951 34.1302C79.2681 32.8742 79.4101 31.4234 79.403 30.1434L79.3893 27.6735Z" fill="white"/>
<g clip-path="url(#clip0_335_387)">
<path d="M83.2657 104.765C89.8927 104.839 95.2045 110.272 95.1299 116.899V116.899C95.0554 123.526 89.6227 128.838 82.9957 128.763L26.9993 128.133C20.3723 128.059 15.0605 122.626 15.135 115.999V115.999C15.2095 109.372 20.6422 104.06 27.2692 104.135L83.2657 104.765Z" fill="white"/>
<path d="M36.2139 114.436L45.1134 114.536L45.0994 115.776L36.2 115.676L36.2139 114.436ZM41.338 114.994C41.9122 117.291 43.1608 119.205 45.2712 120.068C44.9682 120.335 44.5623 120.851 44.3584 121.198C42.0806 120.103 40.854 118.019 40.1249 115.26L41.338 114.994ZM39.994 111.789L41.3139 111.803C41.2296 114.853 41.1619 119.092 36.8489 121.114C36.6626 120.782 36.2975 120.348 35.9504 120.084C40.0707 118.3 39.9335 114.498 39.994 111.789ZM53.9937 113.666C53.9125 113.775 53.7291 114.073 53.6368 114.282C53.2161 115.228 52.4609 116.579 51.5897 117.569C50.4552 118.847 48.9314 120.07 47.3733 120.782L46.3455 119.691C47.9721 119.109 49.5258 117.906 50.4774 116.877C51.1458 116.134 51.7669 115.151 52.0049 114.444C51.5849 114.439 49.035 114.41 48.6051 114.406C48.1951 114.401 47.6446 114.445 47.4244 114.462L47.4404 113.032C47.71 113.075 48.3296 113.112 48.6196 113.116C49.1496 113.122 51.7094 113.15 52.1494 113.155C52.5893 113.16 52.9799 113.115 53.1906 113.047L53.9937 113.666ZM51.729 116.741C52.7495 117.592 54.1527 119.098 54.7936 119.906L53.6426 120.883C52.9142 119.844 51.8376 118.642 50.7786 117.66L51.729 116.741ZM59.9199 115.823C61.1418 116.547 62.9773 117.847 63.8989 118.598L62.9261 119.727C62.0654 118.897 60.1813 117.476 59.0197 116.723L59.9199 115.823ZM64.6487 114.176C64.5265 114.365 64.3934 114.643 64.3006 114.892C63.9903 115.809 63.3659 117.082 62.4535 118.182C61.5004 119.341 60.2079 120.446 58.2899 121.145L57.1412 120.132C59.2384 119.506 60.4401 118.469 61.3113 117.479C61.9902 116.696 62.6231 115.553 62.8218 114.776L59.442 114.738L59.9147 113.613L62.7645 113.645C63.0745 113.648 63.4051 113.602 63.6358 113.535L64.6487 114.176ZM61.3562 112.599C61.1123 112.946 60.8471 113.403 60.7248 113.612C60.0412 114.814 58.7441 116.33 57.293 117.304L56.2324 116.462C57.9945 115.401 58.9298 114.042 59.4496 113.177C59.6023 112.939 59.8174 112.482 59.9114 112.133L61.3562 112.599ZM66.5489 115.948C66.9185 115.982 67.638 116.03 68.158 116.036C69.3379 116.049 72.6377 116.086 73.5276 116.096C73.9976 116.101 74.4381 116.056 74.7084 116.039L74.6906 117.619C74.4507 117.606 73.9413 117.551 73.5213 117.546C72.6114 117.536 69.3216 117.499 68.1417 117.486C67.5817 117.479 66.9114 117.502 66.5311 117.527L66.5489 115.948Z" fill="#222547"/>
</g>
</g>
<path d="M71.2083 66.5C74.1262 63.945 77.0833 60.8825 77.0833 56.875C77.0833 54.3223 75.9485 51.8741 73.9286 50.0691C71.9087 48.2641 69.1691 47.25 66.3125 47.25C62.8658 47.25 60.4375 48.125 57.5 50.75C54.5625 48.125 52.1341 47.25 48.6875 47.25C45.8309 47.25 43.0913 48.2641 41.0713 50.0691C39.0514 51.8741 37.9166 54.3223 37.9166 56.875C37.9166 60.9 40.8541 63.9625 43.7916 66.5L57.5 78.75L71.2083 66.5Z" stroke="white" stroke-width="2" stroke-linecap="round" stroke-linejoin="round"/>
<path d="M40.3058 63H52.6041L53.5833 61.25L57.5 69.125L61.4166 56.875L64.3541 63H74.6745" stroke="white" stroke-width="2" stroke-linecap="round" stroke-linejoin="round"/>
<defs>
<filter id="filter0_d_335_387" x="0" y="0" width="116" height="130.898" filterUnits="userSpaceOnUse" color-interpolation-filters="sRGB">
<feFlood flood-opacity="0" result="BackgroundImageFix"/>
<feColorMatrix in="SourceAlpha" type="matrix" values="0 0 0 0 0 0 0 0 0 0 0 0 0 0 0 0 0 0 127 0" result="hardAlpha"/>
<feOffset dy="2"/>
<feComposite in2="hardAlpha" operator="out"/>
<feColorMatrix type="matrix" values="0 0 0 0 0 0 0 0 0 0 0 0 0 0 0 0 0 0 0.25 0"/>
<feBlend mode="normal" in2="BackgroundImageFix" result="effect1_dropShadow_335_387"/>
<feBlend mode="normal" in="SourceGraphic" in2="effect1_dropShadow_335_387" result="shape"/>
</filter>
<linearGradient id="paint0_linear_335_387" x1="58" y1="0" x2="58" y2="116" gradientUnits="userSpaceOnUse">
<stop stop-color="#DC5DCB"/>
<stop offset="1" stop-color="#748DED"/>
</linearGradient>
<clipPath id="clip0_335_387">
<path d="M83.2657 104.765C89.8927 104.839 95.2045 110.272 95.1299 116.899V116.899C95.0554 123.526 89.6227 128.838 82.9957 128.763L26.9993 128.133C20.3723 128.059 15.0605 122.626 15.135 115.999V115.999C15.2095 109.372 20.6422 104.06 27.2692 104.135L83.2657 104.765Z" fill="white"/>
</clipPath>
</defs>
</svg>
