<svg width="116" height="131" viewBox="0 0 116 131" fill="none" xmlns="http://www.w3.org/2000/svg">
<g filter="url(#filter0_d_335_385)">
<rect x="1" y="1" width="114" height="114" rx="57" fill="url(#paint0_linear_335_385)"/>
<rect x="1" y="1" width="114" height="114" rx="57" stroke="white" stroke-width="2"/>
<path d="M30.2754 34.326L30.2688 33.136L32.4588 33.1239L32.4327 28.4239L30.7027 28.4335L30.6977 27.5235C31.6167 27.3484 32.2663 27.2648 32.8142 26.8818L33.8941 26.8758L33.9288 33.1157L35.9387 33.1045L35.9453 34.2945L30.2754 34.326ZM41.6556 27.1227C41.5941 26.8431 41.5228 26.6035 41.4415 26.3739L42.8602 26.136C42.8812 26.3259 42.9231 26.6657 42.9645 26.9055C43.0681 27.5649 44.0862 32.6193 44.3018 33.6382C44.3734 33.9278 44.4654 34.2873 44.5573 34.6168L43.1187 34.8747C43.0666 34.505 43.0447 34.1651 42.9731 33.8655C42.8181 32.9664 41.8201 27.9318 41.6556 27.1227ZM38.9328 28.4179C39.2427 28.3961 39.5425 28.3745 39.8623 28.3327C40.7118 28.228 44.2087 27.6686 45.1077 27.4836C45.4174 27.4319 45.7969 27.3398 46.0365 27.2684L46.2938 28.587C46.0739 28.5983 45.6642 28.6605 45.3645 28.7022C44.3054 28.8781 40.8685 29.4471 40.1193 29.5813C39.8096 29.643 39.5499 29.7045 39.2104 29.7963L38.9328 28.4179ZM38.959 31.3478C39.219 31.3363 39.6787 31.2838 39.9884 31.2321C41.0576 31.0761 44.7042 30.4659 45.853 30.2395C46.2426 30.1673 46.6121 30.0753 46.8817 30.0038L47.149 31.3223C46.8791 31.3438 46.4695 31.4161 46.0999 31.4782C44.8309 31.6752 41.2343 32.2852 40.2453 32.4807C39.8158 32.563 39.4661 32.625 39.2465 32.6862L38.959 31.3478ZM52.0199 27.8553C52.0512 28.0951 52.1226 28.3547 52.1841 28.6144C52.5307 29.8125 53.4898 33.2472 53.7444 34.0758C53.7954 34.2555 53.9378 34.6947 54.0089 34.8943L52.6608 35.2418C52.6193 34.9721 52.5575 34.6424 52.476 34.3628C52.2211 33.4942 51.2914 29.9293 50.9656 28.8911C50.8942 28.6415 50.7828 28.3921 50.6717 28.1828L52.0199 27.8553ZM56.8284 29.3786C56.4032 30.251 55.4116 31.7665 54.7157 32.5104L53.6027 31.9666C54.1201 31.5037 54.8055 30.6599 55.0727 30.1684C54.5532 30.2613 50.488 31.1338 49.669 31.3184L49.3524 30.1301C49.6623 30.0984 49.9421 30.0668 50.2718 30.005C50.8113 29.922 54.807 29.1398 55.5161 28.9759C55.6859 28.9349 55.8856 28.8738 56.0152 28.8131L56.8284 29.3786ZM60.2424 26.4896C60.5126 26.5281 60.9427 26.5458 61.2827 26.5439C61.9127 26.5404 64.5427 26.5258 65.1227 26.5226C65.4427 26.5208 65.9325 26.4981 66.2023 26.4566L66.2095 27.7566C65.9494 27.738 65.4793 27.7206 65.1093 27.7227C64.5593 27.7257 61.8794 27.7406 61.2894 27.7438C60.9594 27.7457 60.5395 27.758 60.2496 27.7896L60.2424 26.4896ZM67.0684 29.3618C66.9992 29.4922 66.9102 29.6727 66.8807 29.7729C66.5761 30.7446 66.1516 31.7269 65.4161 32.551C64.4124 33.6866 63.1361 34.3637 61.8582 34.7408L60.852 33.6164C62.3602 33.288 63.5465 32.6314 64.3121 31.8371C64.8391 31.2942 65.1556 30.6624 65.3226 30.1115C64.8226 30.1143 61.3926 30.1333 60.5027 30.1383C60.2527 30.1396 59.7527 30.1524 59.3329 30.1847L59.3257 28.8848C59.7559 28.9224 60.1761 28.95 60.4961 28.9483C61.176 28.9445 64.756 28.9246 65.436 28.9209C65.766 28.919 66.0357 28.8775 66.1754 28.8068L67.0684 29.3618ZM69.442 28.1886L72.2119 28.1733L72.2168 29.0533L69.4469 29.0686L69.442 28.1886ZM69.4511 29.8286L72.221 29.8132L72.2257 30.6632L69.4558 30.6786L69.4511 29.8286ZM69.4603 31.4986L72.2303 31.4832L72.2352 32.3732L69.4653 32.3886L69.4603 31.4986ZM73.784 30.3446L77.5539 30.3237L77.5595 31.3337L73.7896 31.3546L73.784 30.3446ZM69.9229 26.5459L71.5029 26.5372L71.5078 27.4372L69.9279 27.4459L69.9229 26.5459ZM73.0105 26.1088L76.7204 26.0882L76.7259 27.0682L73.0159 27.0888L73.0105 26.1088ZM73.0446 32.2587L77.7545 32.2326L77.7603 33.2726L73.0504 33.2987L73.0446 32.2587ZM74.899 29.4384L76.039 29.4321L76.0695 34.942L74.9296 34.9483L74.899 29.4384ZM70.5245 28.6426L71.3245 28.6382L71.3421 31.8182L70.5422 31.8226L70.5245 28.6426ZM76.4004 26.09L77.4704 26.0841C77.4704 26.0841 77.4618 26.3341 77.4525 26.4642C77.4115 28.0744 77.3253 28.7649 77.1067 29.0261C76.9479 29.237 76.7584 29.3181 76.4986 29.3595C76.2788 29.3907 75.8888 29.4029 75.4887 29.3851C75.467 29.0852 75.3648 28.6858 75.2134 28.4266C75.5335 28.4549 75.7936 28.4634 75.9236 28.4627C76.0536 28.462 76.1335 28.4415 76.203 28.3511C76.3123 28.2205 76.3693 27.6802 76.4012 26.23L76.4004 26.09ZM73.5794 29.5157L74.5604 29.7003C74.3855 30.6213 74.0607 31.5431 73.6739 32.1352C73.4732 31.9963 73.0319 31.7788 72.7913 31.6701C73.1784 31.138 73.4438 30.3165 73.5794 29.5157ZM69.6777 25.6073L70.7489 25.8314C70.3966 27.2133 69.7841 28.5667 69.0688 29.4207C68.8878 29.2317 68.4558 28.8741 68.2149 28.7155C68.8908 27.9717 69.4143 26.7988 69.6777 25.6073ZM69.002 28.1911L69.962 28.1858L69.9767 30.8357C69.9838 32.1157 69.8636 33.8964 69.1399 35.0304C68.959 34.8714 68.5275 34.6038 68.297 34.5051C68.9712 33.4613 69.023 31.971 69.0167 30.841L69.002 28.1911ZM71.8919 28.175L72.8719 28.1696L72.9034 33.8395C72.906 34.3095 72.8176 34.61 72.5187 34.7917C72.2096 34.9634 71.7997 34.9857 71.1897 34.989C71.1482 34.7093 70.9856 34.2502 70.8441 33.9809C71.2342 33.9988 71.6342 33.9966 71.7542 33.9859C71.8742 33.9852 71.9239 33.945 71.9233 33.825L71.8919 28.175ZM74.2123 26.4321L75.2823 26.4262C75.1704 27.8869 74.8366 29.0087 73.3503 29.677C73.2289 29.4276 72.9568 29.0392 72.7158 28.8605C73.913 28.3638 74.1183 27.5127 74.2123 26.4321ZM71.2229 26.5387L71.4529 26.5375L71.6026 26.4866L72.2849 26.9128C72.0684 27.5441 71.6828 28.3362 71.3756 28.8379C71.1848 28.699 70.8537 28.5008 70.6431 28.392C70.8606 27.9308 71.1065 27.1894 71.2239 26.7187L71.2229 26.5387ZM78.396 27.089L82.8259 27.0644L82.8321 28.1744L78.4022 28.1989L78.396 27.089ZM80.0976 29.1795L81.7676 29.1703L81.7737 30.2603L80.1037 30.2695L80.0976 29.1795ZM79.9676 25.5602L81.1575 25.5536L81.1687 27.5736L79.9788 27.5802L79.9676 25.5602ZM81.3876 29.1724L82.5176 29.1661C82.5176 29.1661 82.5194 29.4961 82.5102 29.6362C82.4781 32.8564 82.4347 34.0567 82.1668 34.4281C81.9783 34.7092 81.7889 34.8103 81.4992 34.8719C81.2495 34.9132 80.8395 34.9255 80.4195 34.9178C80.3976 34.588 80.2751 34.1286 80.1034 33.8296C80.4335 33.8478 80.7136 33.8562 80.8736 33.8553C81.0036 33.8546 81.0834 33.8241 81.1628 33.7037C81.3115 33.4729 81.3557 32.4326 81.3889 29.4024L81.3876 29.1724ZM83.7976 27.359L87.7275 27.3372L87.7337 28.4472L83.8038 28.469L83.7976 27.359ZM83.8874 25.5285L85.1284 25.7016C84.8096 27.7134 84.2101 29.6167 83.3167 30.8017C83.1155 30.5928 82.5932 30.1757 82.3122 29.9973C83.1466 28.9826 83.6472 27.2898 83.8874 25.5285ZM85.8513 28.0176L87.0319 28.1311C86.5707 31.5137 85.5127 33.6796 83.0198 34.9634C82.9083 34.694 82.5653 34.1559 82.3439 33.9072C84.5983 32.8846 85.5177 30.9695 85.8513 28.0176ZM84.3925 28.2457C84.8567 30.8032 85.8484 32.9077 87.8735 33.8165C87.6048 34.058 87.2275 34.5401 87.0593 34.861C84.883 33.7331 83.9102 31.4384 83.3435 28.4315L84.3925 28.2457ZM79.3893 27.6735L80.5193 27.6672L80.533 30.1471C80.5421 31.7771 80.3416 33.4983 79.0894 34.9052C78.878 34.6564 78.4862 34.3286 78.1951 34.1302C79.2681 32.8742 79.4101 31.4234 79.403 30.1434L79.3893 27.6735Z" fill="white"/>
<g clip-path="url(#clip0_335_385)">
<path d="M83.2657 104.765C89.8927 104.839 95.2045 110.272 95.1299 116.899V116.899C95.0554 123.526 89.6227 128.838 82.9957 128.763L26.9993 128.133C20.3723 128.059 15.0605 122.626 15.135 115.999V115.999C15.2095 109.372 20.6422 104.06 27.2692 104.135L83.2657 104.765Z" fill="white"/>
<path d="M39.8413 112.027L41.2112 112.042C41.1023 113.721 40.9174 118.599 36.7995 121.063C36.593 120.751 36.2071 120.377 35.8003 120.092C39.8451 117.907 39.7565 113.336 39.8413 112.027ZM41.1683 112.302C41.1885 113.172 41.3423 118.164 45.4205 120.13C45.0373 120.416 44.6728 120.812 44.4891 121.14C40.2034 118.951 40.0754 113.44 40.007 112.409L41.1683 112.302ZM48.5502 114.835L48.5433 115.455L52.743 115.502L52.75 114.882L48.5502 114.835ZM48.5322 116.435L48.5253 117.055L52.725 117.102L52.732 116.482L48.5322 116.435ZM48.5681 113.245L48.5612 113.865L52.7609 113.912L52.7679 113.292L48.5681 113.245ZM47.42 112.182L53.9996 112.256L53.9331 118.166L47.3535 118.092L47.42 112.182ZM51.0824 117.324L52.3023 117.337L52.2753 119.737C52.2717 120.057 52.3412 120.108 52.7012 120.112C52.8711 120.114 53.5411 120.121 53.7511 120.124C54.1011 120.128 54.163 119.958 54.2262 118.779C54.464 118.982 54.9917 119.188 55.3208 119.271C55.1729 120.86 54.8483 121.266 53.8484 121.255C53.5984 121.252 52.7584 121.243 52.5285 121.24C51.3285 121.227 51.0426 120.863 51.0554 119.724L51.0824 117.324ZM48.628 117.706L49.9179 117.721C49.7274 119.539 49.2442 120.713 46.5375 121.293C46.4411 120.972 46.1266 120.478 45.8796 120.215C48.2043 119.811 48.4829 119.045 48.628 117.706ZM61.4911 119.281L64.2309 119.312L64.2183 120.432L61.4785 120.401L61.4911 119.281ZM61.023 112.885L64.8627 112.928L64.7716 121.028L63.5517 121.014L63.6301 114.045L62.1702 114.028L62.0902 121.138L60.9303 121.125L61.023 112.885ZM57.8926 113.79L59.1025 113.804L59.0808 115.734C59.0617 117.433 58.6739 119.899 56.6476 121.336C56.5005 121.085 56.0459 120.6 55.8078 120.427C57.6525 119.128 57.8546 117.17 57.8711 115.7L57.8926 113.79ZM57.0786 113.251L60.5084 113.289L60.4959 114.399L57.0661 114.361L57.0786 113.251ZM56.0084 115.929L60.7281 115.982L60.7153 117.122L55.9956 117.069L56.0084 115.929ZM58.7624 117.37C59.1683 117.735 60.4712 119.259 60.7771 119.633L59.9558 120.634C59.4941 119.888 58.5281 118.637 58.0248 118.042L58.7624 117.37ZM56.9829 111.98L58.1302 112.223C57.8554 113.54 57.3606 114.854 56.7812 115.688C56.5733 115.495 56.0872 115.15 55.829 114.987C56.3771 114.273 56.77 113.127 56.9829 111.98ZM69.2869 112.578C69.1414 113.066 68.9199 114.094 68.8536 114.653C69.3422 113.889 70.2317 113.049 71.3516 113.061C72.7415 113.077 73.8061 114.459 73.7813 116.659C73.7495 119.489 72.0045 120.809 69.3492 121.269L68.6023 120.101C70.836 119.786 72.4042 119.064 72.4314 116.644C72.4487 115.104 71.9384 114.238 71.1085 114.229C69.9286 114.215 68.8686 115.984 68.8139 117.293C68.7907 117.573 68.7971 117.893 68.842 118.353L67.611 118.43C67.5554 118.039 67.5023 117.428 67.5098 116.758C67.5204 115.818 67.6642 114.59 67.8259 113.552C67.8701 113.182 67.9045 112.783 67.9176 112.513L69.2869 112.578Z" fill="#222547"/>
</g>
</g>
<path d="M57.25 75.0416L60.75 78.4583C61.0947 78.7948 61.504 79.0617 61.9544 79.2438C62.4048 79.4259 62.8875 79.5197 63.375 79.5197C63.8625 79.5197 64.3452 79.4259 64.7956 79.2438C65.246 79.0617 65.6553 78.7948 66 78.4583C66.3447 78.1217 66.6182 77.7222 66.8047 77.2826C66.9913 76.8429 67.0873 76.3717 67.0873 75.8958C67.0873 75.4199 66.9913 74.9486 66.8047 74.5089C66.6182 74.0693 66.3447 73.6698 66 73.3333" stroke="white" stroke-width="2" stroke-linecap="round" stroke-linejoin="round"/>
<path d="M62.5 69.9165L66.875 74.1874C67.5712 74.867 68.5155 75.2488 69.5 75.2488C70.4846 75.2488 71.4288 74.867 72.125 74.1874C72.8212 73.5078 73.2123 72.586 73.2123 71.6249C73.2123 70.6638 72.8212 69.742 72.125 69.0624L65.335 62.434C64.3507 61.4743 63.0163 60.9352 61.625 60.9352C60.2338 60.9352 58.8994 61.4743 57.915 62.434L56.375 63.9374C55.6788 64.617 54.7346 64.9988 53.75 64.9988C52.7655 64.9988 51.8212 64.617 51.125 63.9374C50.4288 63.2578 50.0377 62.336 50.0377 61.3749C50.0377 60.4138 50.4288 59.492 51.125 58.8124L56.0425 54.012C57.639 52.4576 59.7208 51.4675 61.9587 51.1983C64.1965 50.9291 66.4623 51.3962 68.3975 52.5257L69.22 53.0041C69.9652 53.4431 70.8511 53.5953 71.705 53.4311L74.75 52.8332" stroke="white" stroke-width="2" stroke-linecap="round" stroke-linejoin="round"/>
<path d="M74.75 51.1248L76.5 69.9164H73M43.25 51.1248L41.5 69.9164L52.875 81.0206C53.5712 81.7002 54.5154 82.082 55.5 82.082C56.4846 82.082 57.4288 81.7002 58.125 81.0206C58.8212 80.341 59.2123 79.4192 59.2123 78.4581C59.2123 77.497 58.8212 76.5752 58.125 75.8956M43.25 52.8331H57.25" stroke="white" stroke-width="2" stroke-linecap="round" stroke-linejoin="round"/>
<defs>
<filter id="filter0_d_335_385" x="0" y="0" width="116" height="130.898" filterUnits="userSpaceOnUse" color-interpolation-filters="sRGB">
<feFlood flood-opacity="0" result="BackgroundImageFix"/>
<feColorMatrix in="SourceAlpha" type="matrix" values="0 0 0 0 0 0 0 0 0 0 0 0 0 0 0 0 0 0 127 0" result="hardAlpha"/>
<feOffset dy="2"/>
<feComposite in2="hardAlpha" operator="out"/>
<feColorMatrix type="matrix" values="0 0 0 0 0 0 0 0 0 0 0 0 0 0 0 0 0 0 0.25 0"/>
<feBlend mode="normal" in2="BackgroundImageFix" result="effect1_dropShadow_335_385"/>
<feBlend mode="normal" in="SourceGraphic" in2="effect1_dropShadow_335_385" result="shape"/>
</filter>
<linearGradient id="paint0_linear_335_385" x1="58" y1="0" x2="58" y2="116" gradientUnits="userSpaceOnUse">
<stop stop-color="#DC5DCB"/>
<stop offset="1" stop-color="#748DED"/>
</linearGradient>
<clipPath id="clip0_335_385">
<path d="M83.2657 104.765C89.8927 104.839 95.2045 110.272 95.1299 116.899V116.899C95.0554 123.526 89.6227 128.838 82.9957 128.763L26.9993 128.133C20.3723 128.059 15.0605 122.626 15.135 115.999V115.999C15.2095 109.372 20.6422 104.06 27.2692 104.135L83.2657 104.765Z" fill="white"/>
</clipPath>
</defs>
</svg>
