<svg width="116" height="131" viewBox="0 0 116 131" fill="none" xmlns="http://www.w3.org/2000/svg">
<g filter="url(#filter0_d_335_386)">
<rect x="1" y="1" width="114" height="114" rx="57" fill="url(#paint0_linear_335_386)"/>
<rect x="1" y="1" width="114" height="114" rx="57" stroke="white" stroke-width="2"/>
<path d="M33.0377 34.4101C32.5074 34.413 32.0346 34.3245 31.6193 34.1445C31.2064 33.9621 30.8795 33.7106 30.6386 33.39C30.4 33.067 30.276 32.6936 30.2666 32.2699L31.8149 32.2613C31.8253 32.4388 31.8842 32.5947 31.9915 32.7291C32.1011 32.861 32.2461 32.9632 32.4264 33.0356C32.6067 33.108 32.8093 33.1436 33.0342 33.1423C33.2686 33.141 33.4755 33.0985 33.655 33.0146C33.8345 32.9307 33.9747 32.8151 34.0757 32.6678C34.1766 32.5205 34.2266 32.3509 34.2255 32.1591C34.2245 31.965 34.1691 31.7937 34.0593 31.6451C33.952 31.4942 33.7974 31.3767 33.5957 31.2926C33.3964 31.2085 33.1594 31.1672 32.8848 31.1687L32.2065 31.1725L32.2003 30.0432L32.8785 30.0395C33.1105 30.0382 33.3151 29.9968 33.4922 29.9153C33.6717 29.8338 33.8107 29.7218 33.9094 29.5792C34.008 29.4342 34.0568 29.2659 34.0557 29.0741C34.0547 28.8918 34.01 28.7323 33.9217 28.5954C33.8357 28.4562 33.7143 28.348 33.5577 28.2707C33.4033 28.1935 33.2232 28.1554 33.0172 28.1566C32.8089 28.1577 32.6186 28.1966 32.4462 28.2734C32.2737 28.3477 32.1358 28.4538 32.0324 28.5917C31.929 28.7296 31.8743 28.8909 31.8682 29.0756L30.3945 29.0838C30.3993 28.6647 30.5168 28.2947 30.747 27.9738C30.9773 27.6529 31.2884 27.4015 31.6803 27.2194C32.0747 27.0349 32.5204 26.9413 33.0176 26.9385C33.5195 26.9357 33.9591 27.0244 34.3366 27.2046C34.714 27.3848 35.0077 27.6294 35.2178 27.9384C35.4302 28.245 35.5363 28.59 35.536 28.9736C35.5406 29.3807 35.4159 29.7212 35.1617 29.9948C34.9099 30.2685 34.5806 30.4431 34.1738 30.5188L34.1741 30.5756C34.7096 30.6413 35.1178 30.8249 35.3988 31.1263C35.6822 31.4254 35.824 31.8011 35.8241 32.2533C35.8288 32.6675 35.7113 33.0363 35.4716 33.3596C35.2342 33.6829 34.9054 33.9381 34.485 34.1251C34.0647 34.3121 33.5822 34.4071 33.0377 34.4101ZM39.9516 27.1322C39.89 26.8525 39.8187 26.6129 39.7374 26.3834L41.1561 26.1455C41.1772 26.3354 41.219 26.6752 41.2604 26.9149C41.364 27.5744 42.3821 32.6288 42.5977 33.6476C42.6694 33.9372 42.7613 34.2967 42.8532 34.6262L41.4146 34.8842C41.3625 34.5145 41.3406 34.1746 41.269 33.875C41.114 32.9758 40.1161 27.9413 39.9516 27.1322ZM37.2287 28.4273C37.5386 28.4056 37.8385 28.3839 38.1582 28.3422C39.0077 28.2374 42.5046 27.678 43.4036 27.4931C43.7133 27.4413 44.0928 27.3492 44.3324 27.2779L44.5898 28.5965C44.3698 28.6077 43.9602 28.67 43.6604 28.7116C42.6013 28.8875 39.1644 29.4566 38.4152 29.5908C38.1055 29.6525 37.8459 29.7139 37.5064 29.8058L37.2287 28.4273ZM37.255 31.3572C37.5149 31.3458 37.9746 31.2932 38.2843 31.2415C39.3535 31.0856 43.0002 30.4753 44.1489 30.249C44.5385 30.1768 44.908 30.0848 45.1776 30.0133L45.4449 31.3318C45.1751 31.3533 44.7655 31.4256 44.3958 31.4876C43.1269 31.6847 39.5302 32.2946 38.5413 32.4901C38.1117 32.5725 37.762 32.6344 37.5424 32.6956L37.255 31.3572ZM50.3158 27.8647C50.3471 28.1046 50.4186 28.3642 50.48 28.6238C50.8267 29.8219 51.7857 33.2566 52.0403 34.0853C52.0913 34.265 52.2338 34.7042 52.3049 34.9038L50.9568 35.2513C50.9153 34.9815 50.8534 34.6518 50.7719 34.3723C50.5171 33.5037 49.5873 29.9388 49.2615 28.9006C49.1901 28.651 49.0787 28.4016 48.9676 28.1922L50.3158 27.8647ZM55.1243 29.3881C54.6991 30.2604 53.7075 31.776 53.0116 32.5198L51.8986 31.976C52.4161 31.5131 53.1014 30.6693 53.3687 30.1778C52.8492 30.2707 48.7839 31.1433 47.965 31.3278L47.6484 30.1396C47.9582 30.1078 48.238 30.0763 48.5677 30.0144C49.1072 29.9315 53.103 29.1493 53.8121 28.9853C53.9818 28.9444 54.1815 28.8833 54.3112 28.8226L55.1243 29.3881ZM58.5383 26.4991C58.8086 26.5376 59.2387 26.5552 59.5787 26.5533C60.2086 26.5498 62.8386 26.5352 63.4186 26.532C63.7386 26.5302 64.2285 26.5075 64.4982 26.466L64.5055 27.766C64.2454 27.7475 63.7752 27.7301 63.4053 27.7321C62.8553 27.7352 60.1753 27.75 59.5853 27.7533C59.2553 27.7551 58.8354 27.7675 58.5455 27.7991L58.5383 26.4991ZM65.3644 29.3713C65.2951 29.5017 65.2061 29.6822 65.1767 29.7823C64.872 30.754 64.4475 31.7364 63.712 32.5605C62.7083 33.6961 61.4321 34.3732 60.1541 34.7503L59.1479 33.6258C60.6561 33.2974 61.8425 32.6409 62.6081 31.8466C63.1351 31.3037 63.4516 30.6719 63.6185 30.121C63.1185 30.1237 59.6886 30.1428 58.7986 30.1477C58.5486 30.1491 58.0486 30.1619 57.6288 30.1942L57.6216 28.8942C58.0518 28.9318 58.472 28.9595 58.792 28.9577C59.472 28.9539 63.0519 28.9341 63.7319 28.9303C64.0619 28.9285 64.3317 28.887 64.4713 28.8162L65.3644 29.3713ZM67.7379 28.1981L70.5079 28.1827L70.5127 29.0627L67.7428 29.0781L67.7379 28.1981ZM67.747 29.8381L70.517 29.8227L70.5217 30.6727L67.7517 30.688L67.747 29.8381ZM67.7563 31.508L70.5262 31.4927L70.5312 32.3827L67.7612 32.398L67.7563 31.508ZM72.0799 30.354L75.8499 30.3331L75.8555 31.3431L72.0855 31.364L72.0799 30.354ZM68.2188 26.5554L69.7988 26.5466L69.8038 27.4466L68.2238 27.4554L68.2188 26.5554ZM71.3064 26.1183L75.0164 26.0977L75.0218 27.0777L71.3119 27.0982L71.3064 26.1183ZM71.3405 32.2682L76.0505 32.242L76.0562 33.282L71.3463 33.3082L71.3405 32.2682ZM73.1949 29.4478L74.3349 29.4415L74.3655 34.9514L73.2255 34.9578L73.1949 29.4478ZM68.8204 28.6521L69.6204 28.6477L69.6381 31.8276L68.8381 31.832L68.8204 28.6521ZM74.6964 26.0995L75.7664 26.0935C75.7664 26.0935 75.7577 26.3436 75.7485 26.4736C75.7074 28.0839 75.6212 28.7744 75.4027 29.0356C75.2438 29.2465 75.0543 29.3275 74.7945 29.369C74.5747 29.4002 74.1847 29.4123 73.7846 29.3946C73.763 29.0947 73.6608 28.6952 73.5093 28.4361C73.8295 28.4643 74.0895 28.4729 74.2195 28.4721C74.3495 28.4714 74.4294 28.451 74.4989 28.3606C74.6082 28.23 74.6652 27.6897 74.6971 26.2395L74.6964 26.0995ZM71.8753 29.5252L72.8564 29.7097C72.6815 30.6307 72.3566 31.5525 71.9699 32.1447C71.7691 32.0058 71.3279 31.7882 71.0873 31.6796C71.4743 31.1474 71.7398 30.3259 71.8753 29.5252ZM67.9736 25.6167L69.0448 25.8408C68.6925 27.2228 68.08 28.5762 67.3647 29.4302C67.1837 29.2412 66.7517 28.8836 66.5108 28.7249C67.1867 27.9811 67.7102 26.8082 67.9736 25.6167ZM67.2979 28.2005L68.2579 28.1952L68.2726 30.8452C68.2797 32.1251 68.1596 33.9058 67.4358 35.0399C67.255 34.8809 66.8235 34.6133 66.5929 34.5145C67.2671 33.4708 67.3189 31.9805 67.3126 30.8505L67.2979 28.2005ZM70.1879 28.1845L71.1679 28.1791L71.1993 33.849C71.2019 34.319 71.1136 34.6195 70.8146 34.8011C70.5055 34.9728 70.0956 34.9951 69.4857 34.9985C69.4441 34.7187 69.2815 34.2596 69.1401 33.9904C69.5302 34.0082 69.9302 34.006 70.0501 33.9954C70.1701 33.9947 70.2199 33.9544 70.2192 33.8344L70.1879 28.1845ZM72.5082 26.4416L73.5782 26.4357C73.4663 27.8963 73.1325 29.0182 71.6462 29.6864C71.5248 29.4371 71.2527 29.0486 71.0117 28.8699C72.2089 28.3733 72.4142 27.5221 72.5082 26.4416ZM69.5188 26.5482L69.7488 26.5469L69.8985 26.4961L70.5809 26.9223C70.3644 27.5535 69.9788 28.3457 69.6715 28.8474C69.4808 28.7084 69.1497 28.5103 68.939 28.4014C69.1565 27.9402 69.4024 27.1988 69.5198 26.7282L69.5188 26.5482ZM76.6919 27.0984L81.1219 27.0738L81.128 28.1838L76.6981 28.2084L76.6919 27.0984ZM78.3936 29.189L80.0635 29.1797L80.0696 30.2697L78.3996 30.279L78.3936 29.189ZM78.2635 25.5697L79.4535 25.5631L79.4647 27.583L78.2747 27.5896L78.2635 25.5697ZM79.6835 29.1818L80.8135 29.1756C80.8135 29.1756 80.8154 29.5056 80.8061 29.6456C80.774 32.8659 80.7307 34.0661 80.4627 34.4376C80.2743 34.7187 80.0848 34.8197 79.7952 34.8813C79.5454 34.9227 79.1354 34.935 78.7154 34.9273C78.6936 34.5974 78.571 34.1381 78.3994 33.839C78.7295 33.8572 79.0095 33.8657 79.1695 33.8648C79.2995 33.864 79.3793 33.8336 79.4587 33.7132C79.6074 33.4823 79.6516 32.4421 79.6848 29.4118L79.6835 29.1818ZM82.0935 27.3684L86.0235 27.3466L86.0296 28.4566L82.0997 28.4784L82.0935 27.3684ZM82.1834 25.5379L83.4243 25.711C83.1055 27.7228 82.5061 29.6262 81.6126 30.8112C81.4114 30.6023 80.8891 30.1852 80.6081 30.0067C81.4425 28.9921 81.9431 27.2993 82.1834 25.5379ZM84.1472 28.0271L85.3279 28.1405C84.8666 31.5231 83.8086 33.689 81.3157 34.9729C81.2042 34.7035 80.8612 34.1654 80.6398 33.9166C82.8942 32.8941 83.8136 30.979 84.1472 28.0271ZM82.6885 28.2552C83.1526 30.8126 84.1443 32.9172 86.1694 33.8259C85.9007 34.0674 85.5234 34.5495 85.3552 34.8705C83.1789 33.7425 82.2062 31.4479 81.6395 28.441L82.6885 28.2552ZM77.6852 27.6829L78.8152 27.6766L78.8289 30.1566C78.838 31.7866 78.6375 33.5077 77.3853 34.9147C77.1739 34.6658 76.7821 34.338 76.491 34.1396C77.564 32.8837 77.706 31.4328 77.6989 30.1529L77.6852 27.6829Z" fill="white"/>
<g clip-path="url(#clip0_335_386)">
<path d="M83.2657 104.765C89.8927 104.839 95.2045 110.272 95.1299 116.899V116.899C95.0554 123.526 89.6227 128.838 82.9957 128.763L26.9993 128.133C20.3723 128.059 15.0605 122.626 15.135 115.999V115.999C15.2095 109.372 20.6422 104.06 27.2692 104.135L83.2657 104.765Z" fill="white"/>
<path d="M44.841 112.083L46.2109 112.099C46.102 113.777 45.9171 118.656 41.7991 121.119C41.5926 120.807 41.2068 120.433 40.8 120.148C44.8448 117.964 44.7562 113.392 44.841 112.083ZM46.1679 112.358C46.1882 113.228 46.342 118.22 50.4202 120.186C50.0369 120.472 49.6725 120.868 49.4888 121.196C45.2031 119.008 45.0751 113.496 45.0067 112.465L46.1679 112.358ZM53.1523 112.897L59.9719 112.973L59.9607 113.973L53.1411 113.897L53.1523 112.897ZM53.2458 114.368L59.0454 114.433L59.0345 115.403L53.2349 115.338L53.2458 114.368ZM52.0393 115.824L57.819 115.889L57.8076 116.899L52.028 116.834L52.0393 115.824ZM53.0437 111.885L54.3005 112.18C53.8025 113.774 52.9364 115.204 51.9564 116.083C51.7188 115.871 51.1731 115.485 50.865 115.311C51.8735 114.562 52.648 113.281 53.0437 111.885ZM55.4672 116.923L56.6329 117.316C55.5918 119.184 53.8756 120.615 52.0358 121.475C51.8586 121.223 51.4239 120.748 51.1563 120.535C53.0044 119.825 54.5989 118.543 55.4672 116.923ZM57.419 115.885L58.6589 115.899C58.6018 118.308 58.7104 120.21 59.2904 120.216C59.4504 120.218 59.4965 119.678 59.5156 118.869C59.7524 119.151 60.049 119.455 60.297 119.637C60.1929 120.886 59.967 121.414 59.1969 121.415C57.5471 121.387 57.4046 118.945 57.419 115.885ZM52.0349 117.994L52.9038 117.214C54.3352 117.98 56.2114 119.221 57.121 120.152L56.1507 121.061C55.3311 120.132 53.5056 118.831 52.0349 117.994ZM61.1385 115.057L70.138 115.158L70.1261 116.218L61.1266 116.117L61.1385 115.057ZM62.0304 113.117L67.7501 113.181L67.7384 114.221L62.0187 114.156L62.0304 113.117ZM63.7291 118.576L68.1988 118.626L68.1887 119.526L63.719 119.476L63.7291 118.576ZM63.7115 120.146L68.1812 120.196L68.1698 121.206L63.7001 121.156L63.7115 120.146ZM64.4024 112.063L65.5823 112.076L65.5416 115.696L64.3617 115.683L64.4024 112.063ZM68.7989 112.403L69.8229 112.944C67.8323 115.652 64.7599 117.627 61.5067 118.781C61.3696 118.519 61.0153 118.015 60.798 117.773C64.0595 116.77 67.0208 114.893 68.7989 112.403ZM63.0775 116.939L68.9771 117.005L68.9269 121.475L67.6769 121.461L67.7162 117.971L64.2664 117.932L64.2267 121.462L63.0268 121.448L63.0775 116.939Z" fill="#222547"/>
</g>
</g>
<path fill-rule="evenodd" clip-rule="evenodd" d="M59 43.2917C59.3646 43.2917 59.7144 43.4366 59.9722 43.6945C60.2301 43.9523 60.375 44.3021 60.375 44.6667V48.3334C60.375 48.6981 60.2301 49.0478 59.9722 49.3057C59.7144 49.5635 59.3646 49.7084 59 49.7084C58.6353 49.7084 58.2856 49.5635 58.0277 49.3057C57.7698 49.0478 57.625 48.6981 57.625 48.3334V44.6667C57.625 44.3021 57.7698 43.9523 58.0277 43.6945C58.2856 43.4366 58.6353 43.2917 59 43.2917ZM70.9716 51.0284C71.2291 51.2862 71.3738 51.6357 71.3738 52.0001C71.3738 52.3645 71.2291 52.7139 70.9716 52.9717L70.3428 53.6006C70.0821 53.8435 69.7374 53.9757 69.3812 53.9694C69.0249 53.9631 68.6851 53.8188 68.4332 53.5669C68.1812 53.315 68.0369 52.9751 68.0306 52.6189C68.0244 52.2627 68.1566 51.9179 68.3995 51.6572L69.0283 51.0284C69.2861 50.7709 69.6356 50.6263 70 50.6263C70.3643 50.6263 70.7138 50.7709 70.9716 51.0284ZM47.0283 51.0284C47.2861 50.7709 47.6356 50.6263 48 50.6263C48.3643 50.6263 48.7138 50.7709 48.9716 51.0284L49.6023 51.6572C49.8526 51.9167 49.9911 52.2641 49.9878 52.6246C49.9845 52.9851 49.8397 53.3299 49.5846 53.5847C49.3296 53.8396 48.9846 53.984 48.6241 53.987C48.2636 53.9899 47.9163 53.8512 47.6571 53.6006L47.0283 52.9717C46.7708 52.7139 46.6262 52.3645 46.6262 52.0001C46.6262 51.6357 46.7708 51.2862 47.0283 51.0284ZM58.8973 55.4504C58.5728 55.8721 58.1951 56.5449 57.592 57.6266L57.2913 58.1656L57.2235 58.2884C56.9668 58.7504 56.6661 59.2967 56.1693 59.6744C55.6651 60.0594 55.0546 60.1932 54.5541 60.3051L54.4221 60.3344L53.8391 60.4664C52.6658 60.7304 51.9453 60.8991 51.4705 61.0861C51.369 61.1252 51.2945 61.1588 51.2468 61.1869C51.2712 61.2456 51.3195 61.333 51.3916 61.4491C51.6758 61.9001 52.1708 62.4849 52.9683 63.4162L53.3661 63.8819L53.4541 63.9846C53.7988 64.3861 54.2021 64.8517 54.3891 65.4512C54.5725 66.0416 54.5101 66.6557 54.4551 67.1929L54.4423 67.3286L54.3818 67.9482C54.2608 69.1931 54.1893 69.9741 54.2131 70.5204C54.2192 70.6243 54.2266 70.7068 54.2351 70.7679C54.2779 70.7594 54.3311 70.7459 54.3946 70.7276C54.8841 70.5864 55.5606 70.2784 56.6606 69.7742L57.207 69.5212L57.3298 69.4644C57.7955 69.2481 58.3675 68.9804 59 68.9804C59.6325 68.9804 60.2045 69.2481 60.6683 69.4644L60.793 69.5212L61.3393 69.7724C62.4393 70.2784 63.1158 70.5864 63.6053 70.7257C63.6688 70.7441 63.722 70.7581 63.7648 70.7679C63.7746 70.7068 63.7819 70.6243 63.7868 70.5204C63.8106 69.9741 63.7373 69.1931 63.6181 67.9501L63.5576 67.3286L63.5448 67.1911C63.4898 66.6557 63.4293 66.0416 63.6126 65.4494C63.7978 64.8536 64.1993 64.3861 64.5458 63.9846L64.6338 63.8819L65.0316 63.4162C65.8291 62.4849 66.3241 61.9001 66.6083 61.4491C66.6804 61.333 66.7293 61.2456 66.755 61.1869C66.6821 61.1483 66.6068 61.1146 66.5295 61.0861C66.0528 60.8991 65.3341 60.7304 64.1608 60.4664L63.576 60.3344L63.4476 60.3051C62.9453 60.1932 62.3348 60.0576 61.8306 59.6744C61.3356 59.2986 61.0313 58.7504 60.7765 58.2884L60.7086 58.1656L60.408 57.6266C59.8048 56.5449 59.4253 55.8721 59.1026 55.4504L59 55.3221L58.8973 55.4504ZM66.8558 61.2547L66.843 61.2419C66.854 61.2492 66.8582 61.2535 66.8558 61.2547ZM66.7898 61.0897C66.7898 61.0775 66.791 61.0714 66.7935 61.0714L66.7898 61.0897ZM63.9298 70.7936C63.9396 70.7899 63.9451 70.7893 63.9463 70.7917L63.9298 70.7936ZM56.712 53.7802C57.1886 53.1606 57.9073 52.4602 59 52.4602C60.0926 52.4602 60.8113 53.1606 61.2861 53.7802C61.7463 54.3816 62.223 55.2359 62.7601 56.2002L63.1103 56.8291C63.2311 57.0504 63.3595 57.2674 63.4953 57.4799L63.5411 57.4946C63.6658 57.5349 63.8418 57.5752 64.1828 57.6541L64.8685 57.8081C65.908 58.0427 66.8411 58.2536 67.5378 58.5286C68.284 58.8219 69.109 59.3224 69.4261 60.3454C69.7396 61.3537 69.362 62.2374 68.9366 62.9157C68.5315 63.5574 67.899 64.2962 67.1876 65.1304L66.7238 65.6712C66.5729 65.8433 66.4274 66.02 66.2875 66.2011L66.2398 66.2707V66.3624C66.2416 66.5091 66.2581 66.7052 66.2948 67.0646L66.3645 67.7851C66.4726 68.8979 66.5661 69.8806 66.5331 70.6451C66.4983 71.4334 66.3131 72.3977 65.4643 73.0431C64.5916 73.7067 63.6071 73.5894 62.8481 73.3731C62.1295 73.1659 61.2568 72.7644 60.2851 72.3171L60.188 72.2731L59.6435 72.0219C59.4326 71.9202 59.218 71.8267 59 71.7414L58.967 71.7542C58.7603 71.836 58.5566 71.9253 58.3565 72.0219L57.7148 72.3152C56.7431 72.7644 55.8705 73.1678 55.1518 73.3731C54.3928 73.5894 53.4101 73.7067 52.5356 73.0431C51.685 72.3977 51.5016 71.4334 51.4668 70.6451C51.432 69.8787 51.5273 68.8979 51.6355 67.7851L51.7051 67.0646C51.7418 66.7052 51.7583 66.5091 51.7601 66.3642V66.2707L51.7125 66.2011C51.5737 66.0191 51.4281 65.8424 51.2761 65.6712L50.8123 65.1304C50.101 64.2962 49.4685 63.5592 49.0633 62.9157C48.638 62.2374 48.2603 61.3537 48.5738 60.3454C48.891 59.3224 49.716 58.8237 50.4621 58.5304C51.1588 58.2554 52.092 58.0427 53.1315 57.8081L53.2323 57.7861L53.8153 57.6541C54.0472 57.605 54.2772 57.5469 54.5046 57.4799L54.5413 57.4267C54.6201 57.3094 54.7136 57.1426 54.8896 56.8291L55.1885 56.2901L55.2398 56.2002C55.777 55.2359 56.2536 54.3816 56.7138 53.7802M39.2916 63.0001C39.2916 62.6354 39.4365 62.2857 39.6944 62.0278C39.9522 61.7699 40.302 61.6251 40.6666 61.6251H44.3333C44.698 61.6251 45.0477 61.7699 45.3056 62.0278C45.5634 62.2857 45.7083 62.6354 45.7083 63.0001C45.7083 63.3648 45.5634 63.7145 45.3056 63.9724C45.0477 64.2302 44.698 64.3751 44.3333 64.3751H40.6666C40.302 64.3751 39.9522 64.2302 39.6944 63.9724C39.4365 63.7145 39.2916 63.3648 39.2916 63.0001ZM72.2916 63.0001C72.2916 62.6354 72.4365 62.2857 72.6944 62.0278C72.9522 61.7699 73.302 61.6251 73.6666 61.6251H77.3333C77.698 61.6251 78.0477 61.7699 78.3056 62.0278C78.5634 62.2857 78.7083 62.6354 78.7083 63.0001C78.7083 63.3648 78.5634 63.7145 78.3056 63.9724C78.0477 64.2302 77.698 64.3751 77.3333 64.3751H73.6666C73.302 64.3751 72.9522 64.2302 72.6944 63.9724C72.4365 63.7145 72.2916 63.3648 72.2916 63.0001ZM49.6005 72.3996C49.858 72.6574 50.0026 73.0069 50.0026 73.3712C50.0026 73.7356 49.858 74.0851 49.6005 74.3429L48.9716 74.9717C48.711 75.2146 48.3662 75.3469 48.01 75.3406C47.6538 75.3343 47.3139 75.19 47.062 74.9381C46.8101 74.6861 46.6658 74.3463 46.6595 73.99C46.6532 73.6338 46.7854 73.2891 47.0283 73.0284L47.6571 72.3996C47.9149 72.1421 48.2644 71.9975 48.6288 71.9975C48.9932 71.9975 49.3426 72.1421 49.6005 72.3996ZM68.3976 72.3996C68.5253 72.2718 68.6769 72.1704 68.8438 72.1013C69.0107 72.0321 69.1896 71.9965 69.3702 71.9965C69.5509 71.9965 69.7297 72.0321 69.8966 72.1013C70.0635 72.1704 70.2151 72.2718 70.3428 72.3996L70.9716 73.0284C71.2145 73.2891 71.3467 73.6338 71.3404 73.99C71.3342 74.3463 71.1899 74.6861 70.9379 74.9381C70.686 75.19 70.3461 75.3343 69.9899 75.3406C69.6337 75.3469 69.2889 75.2146 69.0283 74.9717L68.3995 74.3429C68.142 74.0851 67.9973 73.7356 67.9973 73.3712C67.9973 73.0069 68.142 72.6574 68.3995 72.3996M59 76.2917C59.3646 76.2917 59.7144 76.4366 59.9722 76.6945C60.2301 76.9523 60.375 77.3021 60.375 77.6667V81.3334C60.375 81.6981 60.2301 82.0478 59.9722 82.3057C59.7144 82.5636 59.3646 82.7084 59 82.7084C58.6353 82.7084 58.2856 82.5636 58.0277 82.3057C57.7698 82.0478 57.625 81.6981 57.625 81.3334V77.6667C57.625 77.3021 57.7698 76.9523 58.0277 76.6945C58.2856 76.4366 58.6353 76.2917 59 76.2917Z" fill="#FFF8F8"/>
<defs>
<filter id="filter0_d_335_386" x="0" y="0" width="116" height="130.898" filterUnits="userSpaceOnUse" color-interpolation-filters="sRGB">
<feFlood flood-opacity="0" result="BackgroundImageFix"/>
<feColorMatrix in="SourceAlpha" type="matrix" values="0 0 0 0 0 0 0 0 0 0 0 0 0 0 0 0 0 0 127 0" result="hardAlpha"/>
<feOffset dy="2"/>
<feComposite in2="hardAlpha" operator="out"/>
<feColorMatrix type="matrix" values="0 0 0 0 0 0 0 0 0 0 0 0 0 0 0 0 0 0 0.25 0"/>
<feBlend mode="normal" in2="BackgroundImageFix" result="effect1_dropShadow_335_386"/>
<feBlend mode="normal" in="SourceGraphic" in2="effect1_dropShadow_335_386" result="shape"/>
</filter>
<linearGradient id="paint0_linear_335_386" x1="58" y1="0" x2="58" y2="116" gradientUnits="userSpaceOnUse">
<stop stop-color="#DC5DCB"/>
<stop offset="1" stop-color="#748DED"/>
</linearGradient>
<clipPath id="clip0_335_386">
<path d="M83.2657 104.765C89.8927 104.839 95.2045 110.272 95.1299 116.899V116.899C95.0554 123.526 89.6227 128.838 82.9957 128.763L26.9993 128.133C20.3723 128.059 15.0605 122.626 15.135 115.999V115.999C15.2095 109.372 20.6422 104.06 27.2692 104.135L83.2657 104.765Z" fill="white"/>
</clipPath>
</defs>
</svg>
