<svg width="68" height="26" viewBox="0 0 68 26" fill="none" xmlns="http://www.w3.org/2000/svg">
<rect x="1" y="1" width="66" height="24" rx="7" fill="url(#paint0_linear_311_845)"/>
<rect x="1" y="1" width="66" height="24" rx="7" stroke="white" stroke-width="2"/>
<path d="M17.64 9.86C17.58 9.58 17.51 9.34 17.43 9.11L18.85 8.88C18.87 9.07 18.91 9.41 18.95 9.65C19.05 10.31 20.04 15.37 20.25 16.39C20.32 16.68 20.41 17.04 20.5 17.37L19.06 17.62C19.01 17.25 18.99 16.91 18.92 16.61C18.77 15.71 17.8 10.67 17.64 9.86ZM14.91 11.14C15.22 11.12 15.52 11.1 15.84 11.06C16.69 10.96 20.19 10.42 21.09 10.24C21.4 10.19 21.78 10.1 22.02 10.03L22.27 11.35C22.05 11.36 21.64 11.42 21.34 11.46C20.28 11.63 16.84 12.18 16.09 12.31C15.78 12.37 15.52 12.43 15.18 12.52L14.91 11.14ZM14.92 14.07C15.18 14.06 15.64 14.01 15.95 13.96C17.02 13.81 20.67 13.22 21.82 13C22.21 12.93 22.58 12.84 22.85 12.77L23.11 14.09C22.84 14.11 22.43 14.18 22.06 14.24C20.79 14.43 17.19 15.02 16.2 15.21C15.77 15.29 15.42 15.35 15.2 15.41L14.92 14.07ZM28 10.65C28.03 10.89 28.1 11.15 28.16 11.41C28.5 12.61 29.44 16.05 29.69 16.88C29.74 17.06 29.88 17.5 29.95 17.7L28.6 18.04C28.56 17.77 28.5 17.44 28.42 17.16C28.17 16.29 27.26 12.72 26.94 11.68C26.87 11.43 26.76 11.18 26.65 10.97L28 10.65ZM32.8 12.2C32.37 13.07 31.37 14.58 30.67 15.32L29.56 14.77C30.08 14.31 30.77 13.47 31.04 12.98C30.52 13.07 26.45 13.92 25.63 14.1L25.32 12.91C25.63 12.88 25.91 12.85 26.24 12.79C26.78 12.71 30.78 11.95 31.49 11.79C31.66 11.75 31.86 11.69 31.99 11.63L32.8 12.2ZM36.23 9.33C36.5 9.37 36.93 9.39 37.27 9.39C37.9 9.39 40.53 9.39 41.11 9.39C41.43 9.39 41.92 9.37 42.19 9.33V10.63C41.93 10.61 41.46 10.59 41.09 10.59C40.54 10.59 37.86 10.59 37.27 10.59C36.94 10.59 36.52 10.6 36.23 10.63V9.33ZM43.04 12.24C42.97 12.37 42.88 12.55 42.85 12.65C42.54 13.62 42.11 14.6 41.37 15.42C40.36 16.55 39.08 17.22 37.8 17.59L36.8 16.46C38.31 16.14 39.5 15.49 40.27 14.7C40.8 14.16 41.12 13.53 41.29 12.98C40.79 12.98 37.36 12.98 36.47 12.98C36.22 12.98 35.72 12.99 35.3 13.02V11.72C35.73 11.76 36.15 11.79 36.47 11.79C37.15 11.79 40.73 11.79 41.41 11.79C41.74 11.79 42.01 11.75 42.15 11.68L43.04 12.24ZM44.29 13.73H49.35V14.69H44.29V13.73ZM44.41 10.2H49.32V11.14H44.41V10.2ZM46.09 13.01L47.2 13.25C46.71 14.28 46.06 15.5 45.58 16.3L44.53 15.98C45 15.21 45.66 13.96 46.09 13.01ZM47.51 14.4L48.61 14.49C48.25 16.59 47.2 17.43 44.82 17.91C44.75 17.58 44.53 17.16 44.33 16.92C46.32 16.67 47.19 16.04 47.51 14.4ZM48.22 8.63L49.23 9.03C48.9 9.48 48.58 9.94 48.32 10.25L47.55 9.9C47.78 9.55 48.06 9.01 48.22 8.63ZM46.31 8.5H47.41V13.15H46.31V8.5ZM44.65 9.03L45.51 8.67C45.78 9.05 46.03 9.56 46.12 9.92L45.2 10.32C45.13 9.97 44.9 9.44 44.65 9.03ZM46.34 10.67L47.12 11.14C46.62 11.93 45.66 12.8 44.82 13.27C44.68 13.01 44.42 12.61 44.2 12.39C45.01 12.06 45.91 11.35 46.34 10.67ZM47.31 10.96C47.67 11.13 48.81 11.8 49.09 11.99L48.45 12.82C48.08 12.45 47.19 11.74 46.75 11.43L47.31 10.96ZM50.01 10.32H53.68V11.43H50.01V10.32ZM50.12 8.5L51.33 8.67C51.02 10.74 50.42 12.66 49.5 13.88C49.31 13.66 48.82 13.23 48.55 13.03C49.39 12.01 49.88 10.29 50.12 8.5ZM51.93 11L53.16 11.11C52.73 14.53 51.7 16.67 49.17 17.94C49.05 17.65 48.7 17.1 48.48 16.84C50.76 15.84 51.63 13.96 51.93 11ZM50.69 11.21C51.09 13.74 51.97 15.9 53.81 16.84C53.53 17.08 53.15 17.56 52.97 17.89C50.96 16.69 50.09 14.37 49.6 11.38L50.69 11.21ZM45.41 15.99L46.05 15.17C47.23 15.62 48.48 16.32 49.16 16.86L48.33 17.71C47.69 17.15 46.53 16.45 45.41 15.99Z" fill="white"/>
<defs>
<linearGradient id="paint0_linear_311_845" x1="0" y1="13" x2="68" y2="13" gradientUnits="userSpaceOnUse">
<stop stop-color="#DC5DCB"/>
<stop offset="1" stop-color="#3148A7"/>
</linearGradient>
</defs>
</svg>
