<svg width="68" height="26" viewBox="0 0 68 26" fill="none" xmlns="http://www.w3.org/2000/svg">
<rect x="1" y="1" width="66" height="24" rx="7" fill="url(#paint0_linear_306_320)"/>
<rect x="1" y="1" width="66" height="24" rx="7" stroke="white" stroke-width="2"/>
<path d="M25.94 12.18H31.35V13.35H25.94V12.18ZM30.96 12.18H32.22C32.22 12.18 32.21 12.55 32.2 12.7C32.09 15.74 31.97 16.93 31.62 17.34C31.37 17.68 31.09 17.77 30.71 17.83C30.36 17.88 29.78 17.87 29.19 17.85C29.17 17.5 29.01 16.98 28.79 16.64C29.35 16.69 29.87 16.7 30.12 16.7C30.3 16.7 30.41 16.67 30.52 16.56C30.76 16.3 30.87 15.18 30.96 12.4V12.18ZM27.07 8.64L28.37 9.02C27.62 10.76 26.4 12.37 25.14 13.36C24.91 13.1 24.39 12.62 24.1 12.39C25.36 11.56 26.47 10.16 27.07 8.64ZM30.88 8.62C31.51 9.89 32.77 11.35 33.87 12.19C33.54 12.45 33.08 12.94 32.85 13.28C31.72 12.24 30.49 10.62 29.7 9.09L30.88 8.62ZM27.73 12.52H29.03C28.84 14.77 28.41 16.86 25.43 17.97C25.28 17.64 24.93 17.13 24.65 16.87C27.33 15.99 27.57 14.3 27.73 12.52ZM39.72 9.73H40.89V15.39H39.72V9.73ZM42.08 8.71H43.27V16.45C43.27 17.15 43.13 17.48 42.72 17.68C42.3 17.87 41.64 17.91 40.72 17.91C40.66 17.57 40.47 17.01 40.3 16.67C40.96 16.7 41.6 16.7 41.81 16.69C42 16.69 42.08 16.63 42.08 16.44V8.71ZM36.18 13.29H38.48V14.34H36.18V13.29ZM37.95 13.29H39.06C39.06 13.29 39.05 13.59 39.04 13.73C38.94 16.15 38.84 17.11 38.56 17.45C38.36 17.71 38.13 17.79 37.81 17.84C37.54 17.88 37.08 17.88 36.6 17.87C36.58 17.55 36.46 17.11 36.28 16.83C36.7 16.87 37.09 16.87 37.27 16.87C37.42 16.87 37.52 16.85 37.61 16.75C37.78 16.55 37.87 15.7 37.95 13.47V13.29ZM35.92 10.03V11.4H37.81V10.03H35.92ZM34.84 8.98H38.96V12.47H34.84V8.98ZM35.85 12.14H37.03C36.92 14.26 36.66 16.53 35.04 17.91C34.86 17.61 34.52 17.23 34.23 17.04C35.64 15.88 35.78 13.9 35.85 12.14Z" fill="white"/>
<defs>
<linearGradient id="paint0_linear_306_320" x1="0" y1="13" x2="68" y2="13" gradientUnits="userSpaceOnUse">
<stop stop-color="#DC5DCB"/>
<stop offset="1" stop-color="#3148A7"/>
</linearGradient>
</defs>
</svg>
