<svg width="116" height="131" viewBox="0 0 116 131" fill="none" xmlns="http://www.w3.org/2000/svg">
<g filter="url(#filter0_d_313_350)">
<rect x="1" y="1" width="114" height="114" rx="57" fill="url(#paint0_linear_313_350)"/>
<rect x="1" y="1" width="114" height="114" rx="57" stroke="white" stroke-width="2"/>
<path fill-rule="evenodd" clip-rule="evenodd" d="M66.986 44.2021C66.847 44.4234 66.7182 44.6514 66.6 44.8854L65.954 46.1L60.3 48.9958L59.964 49.1688C56.712 50.9083 54.42 54.175 53.732 57.9875C53.712 58.0917 53.694 58.2021 53.664 58.3833L53.662 58.3979L53.602 58.7583C53.0647 61.8761 51.5987 64.7385 49.412 66.9396L47.804 68.5854C46.796 69.6188 45.984 70.4521 45.376 71.1688C44.756 71.8979 44.256 72.6146 43.956 73.4354C43.5609 74.52 43.4206 75.6872 43.5469 76.8397C43.6732 77.9922 44.0624 79.0965 44.682 80.0604C45.154 80.7896 45.798 81.3646 46.56 81.9229C47.306 82.4688 48.278 83.0792 49.48 83.8333L50.906 84.7292C52.108 85.4833 53.08 86.0917 53.89 86.5208C54.714 86.9583 55.502 87.2854 56.34 87.3667C57.4395 87.4707 58.5463 87.2794 59.5547 86.8111C60.563 86.3428 61.4394 85.6131 62.1 84.6917C62.608 83.9938 62.926 83.1667 63.196 82.225C63.462 81.2979 63.718 80.1208 64.036 78.6521L64.546 76.3167L64.624 75.9604C65.3172 72.8848 66.9249 70.1157 69.218 68.0479L69.23 68.0375L69.512 67.775C72.228 65.1979 73.664 61.4125 73.428 57.5375L73.398 57.1375L72.874 50.3313L73.584 48.9938C73.7 48.7792 73.824 48.5438 73.916 48.3313C74.022 48.0896 74.138 47.7604 74.156 47.3583C74.1793 46.8223 74.0431 46.2919 73.766 45.8396C73.5861 45.5591 73.3575 45.316 73.092 45.1229C72.8959 44.9795 72.6937 44.8454 72.486 44.7208L70.856 43.6979C70.6408 43.5587 70.4207 43.4281 70.196 43.3063C69.8915 43.1436 69.5591 43.0452 69.218 43.0167C68.6786 42.9828 68.1432 43.1319 67.692 43.4417C67.4102 43.6441 67.1696 43.9025 66.984 44.2021M66.964 49.0625L69.908 50.9104L70.404 57.3708C70.414 57.5042 70.422 57.5854 70.424 57.65L68.314 58.3813C67.6953 58.5967 67.0346 58.647 66.3924 58.5277C65.7502 58.4083 65.147 58.123 64.638 57.6979C63.6078 56.8381 62.3626 56.3042 61.0498 56.1594C59.7371 56.0147 58.4121 56.2652 57.232 56.8813L57.112 56.9438C57.9136 54.6759 59.5372 52.8261 61.634 51.7917L66.964 49.0625Z" fill="#FFF9F9"/>
<path d="M34.3223 27.0306L34.3626 34.3032L32.825 34.3117L32.7928 28.4986L32.7501 28.4988L31.0905 29.5521L31.0829 28.1885L32.877 27.0386L34.3223 27.0306ZM36.0453 27.7438L44.8952 27.6947L44.9019 28.9146L36.0521 28.9637L36.0453 27.7438ZM38.1304 32.2723L42.7704 32.2465L42.7771 33.4665L38.1372 33.4922L38.1304 32.2723ZM39.8045 25.7829L41.0844 25.7758L41.1365 35.1656L39.8566 35.1727L39.8045 25.7829ZM39.4577 28.1648L40.5596 28.5087C39.7117 30.6935 38.3023 32.6113 36.5584 33.721C36.3568 33.4221 35.9542 32.9643 35.6829 32.7258C37.3179 31.8168 38.7579 30.0087 39.4577 28.1648ZM41.4578 28.1837C42.1977 29.9597 43.6673 31.6915 45.3521 32.5522C45.0535 32.8039 44.6263 33.3062 44.4282 33.6473C42.6622 32.5771 41.2516 30.6749 40.3698 28.5498L41.4578 28.1837ZM47.4147 29.4107L52.8246 29.3807L52.8311 30.5507L47.4212 30.5807L47.4147 29.4107ZM52.4346 29.3829L53.6946 29.3759C53.6946 29.3759 53.6867 29.7459 53.6775 29.896C53.5844 32.9365 53.471 34.1272 53.1232 34.5391C52.8751 34.8805 52.5956 34.9721 52.216 35.0342C51.8663 35.0861 51.2862 35.0793 50.6961 35.0626C50.6742 34.7127 50.5113 34.1936 50.2894 33.8548C50.8497 33.9017 51.3697 33.9088 51.6197 33.9075C51.7997 33.9065 51.9095 33.8759 52.0189 33.7652C52.2575 33.5039 52.3613 32.3833 52.4359 29.6029L52.4346 29.3829ZM48.5251 25.8645L49.8271 26.2373C49.0868 27.9814 47.8758 29.5982 46.6213 30.5951C46.3898 30.3364 45.8672 29.8593 45.5759 29.6309C46.8313 28.7939 47.9335 27.3878 48.5251 25.8645ZM52.3349 25.8234C52.9719 27.0899 54.24 28.5428 55.3446 29.3767C55.0161 29.6386 54.5588 30.1311 54.3307 30.4724C53.195 29.4387 51.956 27.8255 51.1575 26.2999L52.3349 25.8234ZM49.2066 29.7408L50.5065 29.7336C50.329 31.9846 49.9106 34.0769 46.9368 35.2035C46.785 34.8743 46.4322 34.3662 46.1507 34.1078C48.8258 33.2129 49.0564 31.5216 49.2066 29.7408ZM61.1809 26.8843L62.3509 26.8778L62.3823 32.5377L61.2123 32.5442L61.1809 26.8843ZM63.5352 25.8512L64.7252 25.8446L64.7681 33.5845C64.772 34.2845 64.6338 34.6153 64.225 34.8176C63.806 35.0099 63.1463 35.0535 62.2263 35.0586C62.1644 34.719 61.9713 34.16 61.7994 33.821C62.4595 33.8473 63.0995 33.8438 63.3095 33.8326C63.4995 33.8316 63.5791 33.7711 63.5781 33.5811L63.5352 25.8512ZM57.6607 30.4639L59.9607 30.4511L59.9665 31.5011L57.6665 31.5139L57.6607 30.4639ZM59.4307 30.4541L60.5407 30.4479C60.5407 30.4479 60.5323 30.748 60.5231 30.888C60.4365 33.3085 60.3419 34.2691 60.0637 34.6106C59.8652 34.8717 59.6356 34.953 59.3159 35.0048C59.0461 35.0463 58.5862 35.0488 58.1061 35.0415C58.0843 34.7216 57.9619 34.2823 57.7803 34.0033C58.2006 34.041 58.5906 34.0388 58.7705 34.0378C58.9205 34.037 59.0204 34.0164 59.1099 33.9159C59.2788 33.715 59.364 32.8645 59.4317 30.6341L59.4307 30.4541ZM57.3826 27.2054L57.3902 28.5754L59.2802 28.5649L59.2726 27.1949L57.3826 27.2054ZM56.2968 26.1614L60.4168 26.1385L60.4361 29.6285L56.3162 29.6513L56.2968 26.1614ZM57.3243 29.3157L58.5043 29.3092C58.4061 31.4298 58.1587 33.7012 56.5464 35.0901C56.3647 34.7912 56.0226 34.413 55.7315 34.2247C57.1351 33.0569 57.2641 31.0761 57.3243 29.3157ZM69.1671 26.18C69.1095 26.6003 69.0623 27.1206 69.0446 27.5207C69.0005 28.601 68.9429 30.8313 68.9498 32.0713C68.9554 33.0813 69.5572 33.408 70.3372 33.4036C71.9872 33.3945 73.0219 32.4387 73.7458 31.3447L74.662 32.4496C74.0173 33.4132 72.6047 34.7511 70.3248 34.7637C68.6848 34.7728 67.6308 34.0587 67.6213 32.3487C67.6139 31.0087 67.6893 28.3882 67.6846 27.5283C67.6819 27.0483 67.6393 26.5685 67.5571 26.1789L69.1671 26.18ZM80.1867 26.0689C80.1182 26.3493 80.0307 26.7998 79.9819 27.02C79.8457 27.7008 79.6025 28.9222 79.3382 29.9436C78.9859 31.3456 78.3273 33.3893 77.7839 34.5823L76.3913 34.1201C76.9757 33.1068 77.7241 31.0126 78.0963 29.6105C78.3411 28.6692 78.565 27.5679 78.6317 26.9775C78.6796 26.6072 78.6874 26.1972 78.656 25.9574L80.1867 26.0689ZM77.645 27.583C78.865 27.5762 80.2739 27.3784 81.5722 27.0612L81.5791 28.3112C80.3408 28.6081 78.7717 28.7868 77.6417 28.793C77.1518 28.7958 76.7816 28.7778 76.4315 28.7598L76.3846 27.51C76.9049 27.5671 77.235 27.5853 77.645 27.583ZM80.7935 29.0956C81.3531 29.0325 82.0729 28.9885 82.7229 28.9849C83.2929 28.9817 83.893 29.0084 84.4734 29.0652L84.46 30.2652C83.9497 30.2081 83.3393 30.1415 82.7393 30.1448C82.0493 30.1486 81.4295 30.1821 80.8 30.2655L80.7935 29.0956ZM81.3474 31.6025C81.279 31.8929 81.2208 32.2132 81.222 32.4332C81.2244 32.8732 81.5163 33.2016 82.5962 33.1956C83.2662 33.1919 83.9558 33.1181 84.6651 32.9841L84.6221 34.2544C84.0626 34.3375 83.3929 34.4012 82.593 34.4057C80.903 34.415 79.9998 33.85 79.9942 32.8401C79.9916 32.3701 80.079 31.8896 80.1568 31.4991L81.3474 31.6025Z" fill="white"/>
<g clip-path="url(#clip0_313_350)">
<path d="M83.2656 104.765C89.8926 104.839 95.2044 110.272 95.1299 116.899C95.0553 123.526 89.6227 128.838 82.9957 128.763L26.9992 128.133C20.3722 128.059 15.0604 122.626 15.1349 115.999C15.2095 109.372 20.6421 104.06 27.2691 104.135L83.2656 104.765Z" fill="white"/>
<path d="M34.8055 112.5L39.3752 112.552L39.3625 113.682L34.7928 113.63L34.8055 112.5ZM38.9452 112.547L40.1752 112.561C40.1752 112.561 40.1701 113.011 40.1583 113.171C40.0019 118.189 39.8821 119.948 39.496 120.484C39.2315 120.881 38.9701 121.008 38.5992 121.084C38.2285 121.149 37.6786 121.133 37.1389 121.107C37.1227 120.767 36.9788 120.225 36.7728 119.863C37.3022 119.919 37.7622 119.924 38.0022 119.927C38.1722 119.929 38.2727 119.88 38.3844 119.731C38.6883 119.384 38.8088 117.566 38.942 112.837L38.9452 112.547ZM36.2596 113.037L37.4895 113.051C37.3846 116.15 37.2088 119.338 34.7884 121.131C34.5821 120.808 34.2166 120.404 33.8991 120.181C36.1466 118.636 36.1785 115.796 36.2596 113.037ZM32.3763 116.863L33.5721 115.467L33.5086 121.106L32.3287 121.093L32.3763 116.863ZM31.1144 113.469L34.1042 113.502L34.0922 114.572L31.1023 114.539L31.1144 113.469ZM32.4342 111.714L33.6141 111.727L33.5877 114.077L32.4078 114.063L32.4342 111.714ZM33.4448 116.115C33.7718 116.379 34.8501 117.431 35.1071 117.694L34.3868 118.606C34.0328 118.072 33.2238 117.093 32.8086 116.658L33.4448 116.115ZM33.7742 113.499L34.0042 113.501L34.2149 113.444L34.8798 113.901C34.1381 115.823 32.717 117.687 31.3955 118.702C31.2889 118.401 30.9756 117.808 30.788 117.595C32.0073 116.769 33.2454 115.173 33.7716 113.729L33.7742 113.499ZM34.6228 115.408L35.3855 116.057C34.9511 116.452 34.5859 116.908 34.2727 117.195L33.7281 116.708C34.0119 116.372 34.4184 115.796 34.6228 115.408ZM47.666 112.525C47.5729 112.804 47.4774 113.293 47.4147 113.532C46.9748 115.297 46.3015 117.37 45.3279 118.569C44.3949 119.719 43.7491 120.231 42.8292 120.221C41.9992 120.212 41.2472 119.503 41.2617 118.213C41.2767 116.873 42.0628 115.452 43.2411 114.715C44.3188 114.037 45.3316 113.799 46.4015 113.811C48.4614 113.834 49.9256 115.241 49.9023 117.32C49.8784 119.44 48.3548 120.643 46.2613 120.94L45.5144 119.771C47.7164 119.606 48.589 118.496 48.603 117.246C48.6183 115.886 47.6989 114.935 46.259 114.919C45.2191 114.908 44.4049 115.278 43.6992 115.781C42.913 116.322 42.4421 117.296 42.4328 118.116C42.4273 118.606 42.6338 118.919 42.9838 118.923C43.5038 118.929 44.0609 118.295 44.5898 117.511C45.3724 116.389 45.9731 114.556 46.1969 113.328C46.2502 113.039 46.2849 112.619 46.2776 112.379L47.666 112.525ZM43.4426 112.807C43.4888 113.148 43.5651 113.479 43.6418 113.77C43.9392 114.893 44.4519 116.429 44.9038 117.154C45.2377 117.698 45.7006 118.333 46.1656 118.778L45.1366 119.577C44.7515 119.133 44.4558 118.749 44.1416 118.236C43.5416 117.339 42.9597 115.732 42.5164 114.247C42.4103 113.896 42.2939 113.575 42.118 113.213L43.4426 112.807ZM56.5743 113.615C56.4229 114.634 56.2097 115.801 55.8465 116.977C55.2238 118.99 54.3499 120.221 53.26 120.208C52.1401 120.196 51.234 118.955 51.253 117.266C51.2788 114.966 53.311 113.008 55.9008 113.038C58.3706 113.065 59.9212 114.803 59.8966 116.993C59.873 119.093 58.5663 120.568 56.0421 120.93L55.2954 119.741C55.6859 119.696 55.9665 119.649 56.2371 119.592C57.5105 119.296 58.5207 118.397 58.5372 116.927C58.5549 115.358 57.5875 114.227 55.8576 114.207C53.7378 114.183 52.5584 115.9 52.5442 117.16C52.5329 118.17 52.9273 118.664 53.3073 118.669C53.7373 118.674 54.1245 118.038 54.5596 116.693C54.8602 115.756 55.0931 114.609 55.2049 113.56L56.5743 113.615ZM61.0182 115.965L70.2776 116.069L70.2629 117.379L61.0035 117.275L61.0182 115.965ZM75.057 116.153L76.2669 116.167L76.2446 118.147C76.2386 118.687 76.1252 118.985 75.7133 119.151C75.3115 119.306 74.7814 119.31 74.0615 119.302C74.0152 118.972 73.8504 118.51 73.7038 118.208C74.1535 118.233 74.6935 118.239 74.8435 118.241C74.9835 118.243 75.0338 118.213 75.0352 118.093L75.057 116.153ZM72.9645 116.36L74.2101 116.764C73.6901 117.648 72.8598 118.559 72.1535 119.111C71.896 118.888 71.3802 118.512 71.0723 118.329C71.8075 117.867 72.5361 117.105 72.9645 116.36ZM77.2578 116.978L78.2446 116.379C78.9477 116.997 79.8177 117.897 80.2004 118.541L79.1329 119.209C78.7899 118.585 77.9604 117.646 77.2578 116.978ZM77.3783 117.829L78.6143 118.193C77.6183 120.492 75.6195 121.27 72.4152 121.634C72.3194 121.253 72.085 120.76 71.8484 120.457C74.7307 120.27 76.5372 119.7 77.3783 117.829ZM71.1387 115.089L80.1681 115.191L80.1553 116.331L71.1259 116.229L71.1387 115.089ZM75.8109 113.141L79.2107 113.18L79.1985 114.26L75.7987 114.221L75.8109 113.141ZM75.0916 112.183L76.3315 112.197L76.2913 115.777L75.0514 115.763L75.0916 112.183ZM72.5241 112.835L73.7441 112.848L73.7136 115.558L72.4937 115.544L72.5241 112.835Z" fill="#222547"/>
</g>
</g>
<defs>
<filter id="filter0_d_313_350" x="0" y="0" width="116" height="130.898" filterUnits="userSpaceOnUse" color-interpolation-filters="sRGB">
<feFlood flood-opacity="0" result="BackgroundImageFix"/>
<feColorMatrix in="SourceAlpha" type="matrix" values="0 0 0 0 0 0 0 0 0 0 0 0 0 0 0 0 0 0 127 0" result="hardAlpha"/>
<feOffset dy="2"/>
<feComposite in2="hardAlpha" operator="out"/>
<feColorMatrix type="matrix" values="0 0 0 0 0 0 0 0 0 0 0 0 0 0 0 0 0 0 0.25 0"/>
<feBlend mode="normal" in2="BackgroundImageFix" result="effect1_dropShadow_313_350"/>
<feBlend mode="normal" in="SourceGraphic" in2="effect1_dropShadow_313_350" result="shape"/>
</filter>
<linearGradient id="paint0_linear_313_350" x1="58" y1="0" x2="58" y2="116" gradientUnits="userSpaceOnUse">
<stop stop-color="#DC5DCB"/>
<stop offset="1" stop-color="#748DED"/>
</linearGradient>
<clipPath id="clip0_313_350">
<path d="M83.2656 104.765C89.8926 104.839 95.2044 110.272 95.1299 116.899C95.0553 123.526 89.6227 128.838 82.9957 128.763L26.9992 128.133C20.3722 128.059 15.0604 122.626 15.1349 115.999C15.2095 109.372 20.6421 104.06 27.2691 104.135L83.2656 104.765Z" fill="white"/>
</clipPath>
</defs>
</svg>
