<svg width="116" height="131" viewBox="0 0 116 131" fill="none" xmlns="http://www.w3.org/2000/svg">
<g filter="url(#filter0_d_335_555)">
<rect x="1" y="1" width="114" height="114" rx="57" fill="url(#paint0_linear_335_555)"/>
<rect x="1" y="1" width="114" height="114" rx="57" stroke="white" stroke-width="2"/>
<path d="M30.8799 27.0498L30.9203 34.3224L29.3827 34.3309L29.3504 28.5178L29.3078 28.518L27.6481 29.5713L27.6406 28.2077L29.4347 27.0578L30.8799 27.0498ZM35.5012 34.4568C34.8904 34.4578 34.364 34.3104 33.922 34.0146C33.4824 33.7187 33.1426 33.2885 32.9028 32.724C32.6652 32.1595 32.5455 31.4795 32.5434 30.6841C32.539 29.891 32.6525 29.2145 32.8837 28.6545C33.1174 28.0944 33.4524 27.6676 33.8887 27.374C34.3274 27.078 34.851 26.9283 35.4594 26.925C36.0678 26.9216 36.5918 27.0655 37.0314 27.3566C37.4734 27.6477 37.8143 28.0719 38.0541 28.6293C38.2939 29.1844 38.4149 29.8584 38.4169 30.6515C38.4213 31.4493 38.3067 32.1318 38.0731 32.6989C37.8419 33.266 37.5081 33.6999 37.0718 34.0006C36.6355 34.3014 36.112 34.4534 35.5012 34.4568ZM35.4941 33.182C35.9108 33.1796 36.2422 32.9683 36.4885 32.5479C36.7347 32.1275 36.8543 31.4983 36.8473 30.6602C36.8443 30.1086 36.7849 29.6496 36.6692 29.2833C36.5559 28.917 36.3958 28.6421 36.1888 28.4586C35.9842 28.275 35.7434 28.184 35.4664 28.1856C35.0521 28.1879 34.7218 28.3969 34.4755 28.8125C34.2293 29.2282 34.1072 29.8492 34.1094 30.6754C34.1125 31.2341 34.1708 31.7002 34.2841 32.0736C34.3998 32.4446 34.5612 32.7231 34.7682 32.909C34.9751 33.0925 35.2171 33.1835 35.4941 33.182ZM39.4876 27.7248L48.3375 27.6757L48.3442 28.8957L39.4944 28.9448L39.4876 27.7248ZM41.5728 32.2533L46.2127 32.2275L46.2195 33.4475L41.5795 33.4733L41.5728 32.2533ZM43.2468 25.7639L44.5268 25.7568L44.5789 35.1467L43.2989 35.1538L43.2468 25.7639ZM42.9 28.1459L44.0019 28.4898C43.154 30.6745 41.7447 32.5923 40.0008 33.702C39.7991 33.4031 39.3966 32.9454 39.1252 32.7069C40.7602 31.7978 42.2002 29.9898 42.9 28.1459ZM44.9001 28.1648C45.64 29.9407 47.1096 31.6726 48.7944 32.5332C48.4958 32.7849 48.0686 33.2873 47.8705 33.6284C46.1045 32.5582 44.694 30.6559 43.8122 28.5308L44.9001 28.1648ZM50.857 29.3917L56.267 29.3617L56.2734 30.5317L50.8635 30.5617L50.857 29.3917ZM55.877 29.3639L57.1369 29.3569C57.1369 29.3569 57.129 29.727 57.1198 29.877C57.0267 32.9176 56.9133 34.1082 56.5656 34.5202C56.3175 34.8615 56.038 34.9531 55.6583 35.0152C55.3086 35.0671 54.7285 35.0604 54.1384 35.0436C54.1165 34.6937 53.9536 34.1746 53.7317 33.8359C54.292 33.8828 54.812 33.8899 55.062 33.8885C55.242 33.8875 55.3519 33.8569 55.4613 33.7463C55.6998 33.4849 55.8036 32.3643 55.8782 29.5839L55.877 29.3639ZM51.9674 25.8455L53.2695 26.2183C52.5291 27.9624 51.3181 29.5792 50.0636 30.5762C49.8322 30.3174 49.3095 29.8403 49.0182 29.6119C50.2736 28.775 51.3758 27.3688 51.9674 25.8455ZM55.7772 25.8044C56.4143 27.0709 57.6823 28.5239 58.787 29.3578C58.4584 29.6196 58.0011 30.1121 57.773 30.4534C56.6373 29.4197 55.3983 27.8065 54.5998 26.2809L55.7772 25.8044ZM52.6489 29.7218L53.9489 29.7146C53.7714 31.9656 53.353 34.058 50.3792 35.1845C50.2273 34.8553 49.8745 34.3473 49.5931 34.0888C52.2681 33.194 52.4988 31.5027 52.6489 29.7218ZM64.6232 26.8653L65.7932 26.8589L65.8246 32.5188L64.6546 32.5253L64.6232 26.8653ZM66.9775 25.8323L68.1675 25.8257L68.2105 33.5655C68.2143 34.2655 68.0762 34.5963 67.6673 34.7986C67.2483 34.9909 66.5886 35.0346 65.6686 35.0397C65.6067 34.7 65.4136 34.1411 65.2417 33.802C65.9019 33.8284 66.5419 33.8248 66.7518 33.8136C66.9418 33.8126 67.0215 33.7521 67.0204 33.5622L66.9775 25.8323ZM61.103 30.4449L63.403 30.4322L63.4088 31.4822L61.1089 31.4949L61.103 30.4449ZM62.873 30.4351L63.983 30.429C63.983 30.429 63.9747 30.729 63.9654 30.8691C63.8789 33.2896 63.7842 34.2501 63.5061 34.5917C63.3075 34.8528 63.078 34.934 62.7583 34.9858C62.4885 35.0273 62.0285 35.0299 61.5484 35.0225C61.5267 34.7026 61.4042 34.2633 61.2227 33.9843C61.6429 34.022 62.0329 34.0198 62.2129 34.0188C62.3629 34.018 62.4628 33.9974 62.5522 33.8969C62.7211 33.696 62.8064 32.8455 62.874 30.6151L62.873 30.4351ZM60.825 27.1864L60.8326 28.5564L62.7225 28.5459L62.7149 27.1759L60.825 27.1864ZM59.7392 26.1424L63.8591 26.1196L63.8784 29.6095L59.7585 29.6324L59.7392 26.1424ZM60.7667 29.2968L61.9466 29.2902C61.8484 31.4108 61.601 33.6822 59.9887 35.0712C59.807 34.7722 59.4649 34.3941 59.1739 34.2057C60.5774 33.0379 60.7064 31.0571 60.7667 29.2968ZM72.6095 26.161C72.5518 26.5814 72.5047 27.1016 72.4869 27.5017C72.4429 28.582 72.3852 30.8124 72.3921 32.0523C72.3977 33.0623 72.9996 33.389 73.7795 33.3847C75.4295 33.3755 76.4642 32.4197 77.1882 31.3257L78.1043 32.4307C77.4596 33.3942 76.047 34.7321 73.7671 34.7447C72.1271 34.7538 71.0731 34.0397 71.0636 32.3297C71.0562 30.9897 71.1317 28.3693 71.1269 27.5093C71.1242 27.0293 71.0816 26.5495 70.9994 26.16L72.6095 26.161ZM83.629 26.0499C83.5606 26.3303 83.4731 26.7808 83.4243 27.0011C83.2881 27.6818 83.0448 28.9032 82.7805 29.9247C82.4283 31.3267 81.7696 33.3703 81.2262 34.5634L79.8336 34.1011C80.418 33.0878 81.1664 30.9936 81.5386 29.5916C81.7834 28.6502 82.0073 27.5489 82.074 26.9585C82.122 26.5883 82.1297 26.1782 82.0984 25.9384L83.629 26.0499ZM81.0874 27.564C82.3073 27.5573 83.7163 27.3594 85.0145 27.0422L85.0215 28.2922C83.7831 28.5891 82.2141 28.7678 81.0841 28.7741C80.5941 28.7768 80.224 28.7588 79.8739 28.7408L79.8269 27.491C80.3473 27.5481 80.6774 27.5663 81.0874 27.564ZM84.2358 29.0766C84.7955 29.0135 85.5152 28.9695 86.1652 28.9659C86.7352 28.9627 87.3354 28.9894 87.9157 29.0462L87.9023 30.2463C87.392 30.1891 86.7816 30.1225 86.1817 30.1258C85.4917 30.1296 84.8718 30.1631 84.2423 30.2466L84.2358 29.0766ZM84.7897 31.5836C84.7213 31.8739 84.6631 32.1943 84.6643 32.4143C84.6668 32.8543 84.9586 33.1826 86.0386 33.1767C86.7086 33.1729 87.3982 33.0991 88.1074 32.9652L88.0645 34.2354C87.5049 34.3185 86.8353 34.3823 86.0353 34.3867C84.3453 34.3961 83.4422 33.8311 83.4366 32.8211C83.434 32.3511 83.5213 31.8706 83.5991 31.4802L84.7897 31.5836Z" fill="white"/>
<g clip-path="url(#clip0_335_555)">
<path d="M83.2657 104.765C89.8927 104.839 95.2045 110.272 95.1299 116.899V116.899C95.0554 123.526 89.6227 128.838 82.9957 128.763L26.9993 128.133C20.3723 128.059 15.0605 122.626 15.135 115.999V115.999C15.2095 109.372 20.6422 104.06 27.2692 104.135L83.2657 104.765Z" fill="white"/>
<path d="M31.5933 118.025L38.9728 118.108L38.9618 119.087L31.5823 119.004L31.5933 118.025ZM38.4429 118.102L39.6728 118.115C39.6728 118.115 39.6493 118.425 39.6176 118.575C39.4427 119.903 39.2455 120.541 38.9425 120.807C38.6998 121.045 38.409 121.111 38.0388 121.127C37.7185 121.154 37.1485 121.147 36.5588 121.121C36.5424 120.8 36.4072 120.369 36.2304 120.087C36.7598 120.143 37.3197 120.159 37.5496 120.162C37.7396 120.164 37.8497 120.155 37.9507 120.066C38.1423 119.928 38.3084 119.39 38.4313 118.241L38.4429 118.102ZM34.9608 117.372L36.1708 117.386C35.8978 119.423 35.2244 120.616 31.6285 121.115C31.5518 120.824 31.297 120.361 31.0898 120.109C34.314 119.755 34.7433 118.93 34.9608 117.372ZM31.8908 112.027L38.4104 112.101L38.4005 112.981L31.8809 112.907L31.8908 112.027ZM38.0704 112.097L38.3904 112.101L38.661 112.044L39.433 112.762C38.4566 113.321 37.22 113.908 36.0356 114.284C35.8979 114.083 35.6116 113.749 35.4534 113.588C36.3968 113.298 37.5533 112.721 38.0677 112.337L38.0704 112.097ZM33.2727 113.643L34.1395 113.043C35.2164 113.325 36.7407 113.842 37.5762 114.242L36.6385 114.921C35.9128 114.533 34.3991 113.966 33.2727 113.643ZM33.2337 116.223L33.2282 116.713L38.1178 116.768L38.1234 116.278L33.2337 116.223ZM33.2478 114.963L33.2424 115.443L38.1321 115.498L38.1375 115.018L33.2478 114.963ZM32.1071 114.13L39.3567 114.212L39.3185 117.601L32.069 117.52L32.1071 114.13ZM35.044 114.423L36.1939 114.436L36.1635 117.146L35.0135 117.133L35.044 114.423ZM41.1398 114.832L50.1392 114.933L50.1273 115.993L41.1279 115.892L41.1398 114.832ZM42.0317 112.892L47.7513 112.956L47.7396 113.996L42.02 113.932L42.0317 112.892ZM43.7304 118.351L48.2001 118.401L48.19 119.301L43.7203 119.251L43.7304 118.351ZM43.7127 119.921L48.1825 119.971L48.1711 120.981L43.7014 120.931L43.7127 119.921ZM44.4037 111.838L45.5836 111.851L45.5429 115.471L44.363 115.458L44.4037 111.838ZM48.8001 112.178L49.8241 112.719C47.8335 115.427 44.7611 117.403 41.5079 118.556C41.3709 118.294 41.0165 117.79 40.7992 117.548C44.0607 116.545 47.022 114.668 48.8001 112.178ZM43.0788 116.714L48.9784 116.78L48.9281 121.25L47.6782 121.236L47.7175 117.746L44.2677 117.707L44.228 121.237L43.028 121.223L43.0788 116.714ZM50.9912 117.433C51.2939 117.196 51.5364 116.969 51.8399 116.662C52.3153 116.187 53.0868 115.166 53.7249 114.453C54.4338 113.661 55.0746 113.598 55.7965 114.316C56.4791 114.984 57.2574 116.023 57.8401 116.68C58.4722 117.387 59.3221 118.286 60.2625 119.147L59.2091 120.335C58.5068 119.647 57.6676 118.678 57.0361 117.921C56.4243 117.184 55.6852 116.215 55.2312 115.68C54.8755 115.296 54.6849 115.344 54.3909 115.701C53.9852 116.206 53.2741 117.188 52.8377 117.753C52.6041 118.071 52.3701 118.428 52.1872 118.686L50.9912 117.433ZM66.5738 113.728C66.4224 114.746 66.2092 115.914 65.846 117.09C65.2233 119.103 64.3494 120.333 63.2595 120.321C62.1395 120.308 61.2334 119.068 61.2524 117.378C61.2783 115.078 63.3105 113.121 65.9003 113.15C68.3701 113.178 69.9207 114.915 69.8961 117.105C69.8724 119.205 68.5658 120.68 66.0415 121.042L65.2949 119.854C65.6854 119.808 65.9659 119.761 66.2366 119.704C67.51 119.409 68.5202 118.51 68.5367 117.04C68.5544 115.47 67.587 114.339 65.8571 114.32C63.7373 114.296 62.5579 116.013 62.5437 117.273C62.5324 118.282 62.9268 118.777 63.3068 118.781C63.7368 118.786 64.1239 118.15 64.5591 116.805C64.8597 115.869 65.0926 114.721 65.2044 113.672L66.5738 113.728ZM73.7896 113.259L80.1992 113.331L80.1883 114.301L73.7787 114.229L73.7896 113.259ZM76.2841 113.757L77.6631 113.852C77.4571 114.39 77.181 114.927 76.987 115.285L76.019 115.104C76.1234 114.705 76.2397 114.146 76.2841 113.757ZM77.9917 112.206L79.1987 112.48C78.9137 112.916 78.639 113.333 78.4158 113.621L77.4187 113.36C77.6124 113.032 77.8679 112.545 77.9917 112.206ZM74.7277 112.539L75.6716 112.2C75.9482 112.503 76.2233 112.936 76.32 113.237L75.3256 113.616C75.2389 113.325 74.9841 112.862 74.7277 112.539ZM73.408 116.065L73.3666 119.744L72.1967 119.731L72.2256 117.161L71.0557 117.148L71.0681 116.038L73.408 116.065ZM73.3724 119.224C73.765 119.889 74.5217 120.187 75.5612 120.239C76.7305 120.302 79.0007 120.298 80.3519 120.203C80.2187 120.482 80.0122 121.059 79.9582 121.419C78.7476 121.465 76.7275 121.462 75.5281 121.399C74.2988 121.335 73.4721 121.036 72.8309 120.248C72.3865 120.633 71.9323 121.008 71.3874 121.442L70.8115 120.186C71.2646 119.911 71.8085 119.567 72.2725 119.212L73.3724 119.224ZM71.1213 113.089L72.0194 112.379C72.6146 112.806 73.3375 113.444 73.6822 113.918L72.7133 114.697C72.4186 114.223 71.7062 113.545 71.1213 113.089ZM75.558 116.969L75.5521 117.489L78.2819 117.52L78.2878 117L75.558 116.969ZM75.5431 118.289L75.5371 118.819L78.267 118.849L78.2729 118.32L75.5431 118.289ZM75.5728 115.649L75.567 116.169L78.2968 116.2L78.3026 115.68L75.5728 115.649ZM74.4527 114.766L79.4923 114.823L79.4371 119.733L74.3974 119.676L74.4527 114.766Z" fill="#222547"/>
</g>
</g>
<path d="M38.6667 62.9166C40.0967 56.0796 45.3951 50.6078 52.2444 48.7445C52.8201 48.5886 53.1061 48.5098 53.2619 48.6764C53.4177 48.8448 53.3022 49.1208 53.0749 49.6762L51.5001 53.0624M60.6667 48.5833C67.6627 49.9808 73.2617 55.1587 75.1684 61.8523C75.3279 62.4149 75.4086 62.6944 75.2381 62.8467C75.0657 62.999 74.7834 62.8861 74.2151 62.664L70.7501 61.1249M75.3334 70.0833C73.9034 76.9203 68.6051 82.392 61.7557 84.2553C61.1801 84.4112 60.8941 84.49 60.7382 84.3234C60.5824 84.155 60.6979 83.8791 60.9252 83.3237L62.5001 79.9374M53.3334 84.4166C46.3374 83.0191 40.7384 77.8412 38.8317 71.1475C38.6722 70.5849 38.5916 70.3054 38.7621 70.1531C38.9344 70.0008 39.2167 70.1137 39.7851 70.3359L43.2501 71.8749M57.0001 64.8856C54.5929 66.4981 51.6816 69.6873 50.5834 74.5624M52.1876 70.2696C48.3889 61.6803 56.0522 58.7832 61.8841 58.4607C62.5881 58.4213 62.9401 58.4016 63.1912 58.6524C63.4442 58.9033 63.4296 59.2616 63.4002 59.9747C63.1601 65.9158 60.7364 74.0894 52.1876 70.2696Z" stroke="white" stroke-width="1.5" stroke-linecap="round" stroke-linejoin="round"/>
<defs>
<filter id="filter0_d_335_555" x="0" y="0" width="116" height="130.898" filterUnits="userSpaceOnUse" color-interpolation-filters="sRGB">
<feFlood flood-opacity="0" result="BackgroundImageFix"/>
<feColorMatrix in="SourceAlpha" type="matrix" values="0 0 0 0 0 0 0 0 0 0 0 0 0 0 0 0 0 0 127 0" result="hardAlpha"/>
<feOffset dy="2"/>
<feComposite in2="hardAlpha" operator="out"/>
<feColorMatrix type="matrix" values="0 0 0 0 0 0 0 0 0 0 0 0 0 0 0 0 0 0 0.25 0"/>
<feBlend mode="normal" in2="BackgroundImageFix" result="effect1_dropShadow_335_555"/>
<feBlend mode="normal" in="SourceGraphic" in2="effect1_dropShadow_335_555" result="shape"/>
</filter>
<linearGradient id="paint0_linear_335_555" x1="58" y1="0" x2="58" y2="116" gradientUnits="userSpaceOnUse">
<stop stop-color="#DC5DCB"/>
<stop offset="1" stop-color="#748DED"/>
</linearGradient>
<clipPath id="clip0_335_555">
<path d="M83.2657 104.765C89.8927 104.839 95.2045 110.272 95.1299 116.899V116.899C95.0554 123.526 89.6227 128.838 82.9957 128.763L26.9993 128.133C20.3723 128.059 15.0605 122.626 15.135 115.999V115.999C15.2095 109.372 20.6422 104.06 27.2692 104.135L83.2657 104.765Z" fill="white"/>
</clipPath>
</defs>
</svg>
