<svg width="116" height="131" viewBox="0 0 116 131" fill="none" xmlns="http://www.w3.org/2000/svg">
<g filter="url(#filter0_d_335_381)">
<rect x="1" y="1" width="114" height="114" rx="57" fill="url(#paint0_linear_335_381)"/>
<rect x="1" y="1" width="114" height="114" rx="57" stroke="white" stroke-width="2"/>
<path d="M34.6033 28.4012C34.1014 28.404 33.6534 28.3142 33.2594 28.1317C32.8678 27.9492 32.5562 27.6964 32.3248 27.3734C32.0934 27.0503 31.9718 26.6793 31.96 26.2603L33.4514 26.252C33.4696 26.5337 33.5892 26.7615 33.8103 26.9354C34.0315 27.1094 34.2936 27.1955 34.5966 27.1939C34.8381 27.1925 35.0508 27.1381 35.2349 27.0305C35.4213 26.9206 35.5661 26.7694 35.6692 26.5771C35.7746 26.3824 35.8267 26.1596 35.8253 25.9086C35.8238 25.6529 35.7682 25.4283 35.6582 25.2348C35.5506 25.0413 35.4018 24.8906 35.2118 24.7827C35.0218 24.6749 34.8048 24.6205 34.561 24.6194C34.3479 24.6206 34.141 24.6656 33.9403 24.7543C33.7419 24.843 33.5875 24.9634 33.4771 25.1155L32.1086 24.8781L32.4317 21.041L36.8777 21.0163L36.8847 22.2734L33.7064 22.291L33.5283 24.1138L33.571 24.1136C33.6978 23.9329 33.8899 23.7827 34.1473 23.6629C34.4047 23.5431 34.6932 23.4823 35.0128 23.4806C35.4507 23.4781 35.8419 23.5789 36.1864 23.783C36.5308 23.9871 36.8034 24.2685 37.0043 24.6272C37.2051 24.9836 37.3056 25.3949 37.3059 25.8613C37.3109 26.3514 37.1997 26.7876 36.9722 27.17C36.747 27.5501 36.4303 27.8501 36.0219 28.0702C35.6159 28.2879 35.143 28.3982 34.6033 28.4012ZM41.2441 28.4248C40.6333 28.4258 40.1069 28.2784 39.665 27.9825C39.2253 27.6867 38.8856 27.2565 38.6457 26.692C38.4082 26.1275 38.2884 25.4475 38.2864 24.652C38.282 23.859 38.3954 23.1824 38.6267 22.6224C38.8603 22.0624 39.1953 21.6356 39.6317 21.342C40.0704 21.046 40.5939 20.8963 41.2024 20.8929C41.8108 20.8895 42.3348 21.0334 42.7744 21.3245C43.2163 21.6157 43.5572 22.0399 43.7971 22.5973C44.0369 23.1523 44.1578 23.8264 44.1599 24.6195C44.1643 25.4173 44.0497 26.0997 43.8161 26.6669C43.5849 27.234 43.2511 27.6679 42.8148 27.9686C42.3785 28.2693 41.8549 28.4214 41.2441 28.4248ZM41.2371 27.1499C41.6537 27.1476 41.9852 26.9362 42.2314 26.5158C42.4777 26.0954 42.5973 25.4662 42.5903 24.6282C42.5872 24.0766 42.5279 23.6176 42.4122 23.2513C42.2989 22.885 42.1387 22.61 41.9318 22.4265C41.7271 22.243 41.4863 22.152 41.2093 22.1535C40.7951 22.1558 40.4648 22.3648 40.2185 22.7805C39.9722 23.1962 39.8502 23.8171 39.8524 24.6434C39.8555 25.2021 39.9137 25.6681 40.0271 26.0416C40.1428 26.4126 40.3041 26.6911 40.5111 26.877C40.7181 27.0605 40.9601 27.1515 41.2371 27.1499ZM45.2306 21.6927L54.0804 21.6436L54.0872 22.8636L45.2373 22.9127L45.2306 21.6927ZM47.3157 26.2212L51.9556 26.1955L51.9624 27.4155L47.3225 27.4412L47.3157 26.2212ZM48.9898 19.7319L50.2697 19.7248L50.3218 29.1146L49.0418 29.1217L48.9898 19.7319ZM48.643 22.1138L49.7449 22.4577C48.897 24.6424 47.4876 26.5603 45.7437 27.67C45.5421 27.3711 45.1395 26.9133 44.8682 26.6748C46.5032 25.7657 47.9432 23.9577 48.643 22.1138ZM50.6431 22.1327C51.383 23.9086 52.8526 25.6405 54.5374 26.5012C54.2388 26.7529 53.8116 27.2552 53.6134 27.5963C51.8475 26.5261 50.4369 24.6239 49.5551 22.4988L50.6431 22.1327ZM56.6 23.3597L62.0099 23.3297L62.0164 24.4997L56.6065 24.5297L56.6 23.3597ZM61.6199 23.3319L62.8799 23.3249C62.8799 23.3249 62.8719 23.6949 62.8628 23.845C62.7696 26.8855 62.6562 28.0762 62.3085 28.4881C62.0604 28.8295 61.7809 28.921 61.4013 28.9832C61.0515 29.0351 60.4715 29.0283 59.8814 29.0116C59.8595 28.6617 59.6966 28.1426 59.4747 27.8038C60.035 27.8507 60.555 27.8578 60.805 27.8564C60.985 27.8554 61.0948 27.8248 61.2042 27.7142C61.4428 27.4529 61.5466 26.3323 61.6211 23.5519L61.6199 23.3319ZM57.7103 19.8135L59.0124 20.1863C58.2721 21.9304 57.061 23.5471 55.8065 24.5441C55.5751 24.2854 55.0525 23.8083 54.7612 23.5799C56.0166 22.7429 57.1188 21.3368 57.7103 19.8135ZM61.5202 19.7724C62.1572 21.0388 63.4253 22.4918 64.5299 23.3257C64.2014 23.5875 63.7441 24.0801 63.516 24.4214C62.3802 23.3876 61.1413 21.7745 60.3428 20.2489L61.5202 19.7724ZM58.3918 23.6898L59.6918 23.6826C59.5143 25.9336 59.0959 28.0259 56.1221 29.1524C55.9703 28.8233 55.6175 28.3152 55.336 28.0568C58.0111 27.1619 58.2417 25.4706 58.3918 23.6898ZM70.3662 20.8333L71.5362 20.8268L71.5676 26.4867L70.3976 26.4932L70.3662 20.8333ZM72.7205 19.8002L73.9105 19.7936L73.9534 27.5335C73.9573 28.2335 73.8191 28.5643 73.4102 28.7665C72.9913 28.9589 72.3315 29.0025 71.4115 29.0076C71.3497 28.668 71.1566 28.109 70.9847 27.77C71.6448 27.7963 72.2848 27.7928 72.4948 27.7816C72.6848 27.7806 72.7644 27.7201 72.7634 27.5301L72.7205 19.8002ZM66.846 24.4129L69.146 24.4001L69.1518 25.4501L66.8518 25.4629L66.846 24.4129ZM68.616 24.4031L69.7259 24.3969C69.7259 24.3969 69.7176 24.697 69.7084 24.837C69.6218 27.2575 69.5271 28.2181 69.249 28.5596C69.0505 28.8207 68.8209 28.902 68.5012 28.9538C68.2314 28.9953 67.7714 28.9978 67.2914 28.9905C67.2696 28.6706 67.1472 28.2313 66.9656 27.9523C67.3858 27.9899 67.7758 27.9878 67.9558 27.9868C68.1058 27.986 68.2057 27.9654 68.2952 27.8649C68.464 27.664 68.5493 26.8135 68.617 24.5831L68.616 24.4031ZM66.5679 21.1544L66.5755 22.5244L68.4655 22.5139L68.4579 21.1439L66.5679 21.1544ZM65.4821 20.1104L69.602 20.0875L69.6214 23.5775L65.5015 23.6003L65.4821 20.1104ZM66.5096 23.2647L67.6896 23.2582C67.5914 25.3788 67.344 27.6502 65.7316 29.0391C65.55 28.7401 65.2079 28.362 64.9168 28.1736C66.3204 27.0058 66.4494 25.0251 66.5096 23.2647ZM78.3524 20.129C78.2947 20.5493 78.2476 21.0696 78.2298 21.4697C78.1858 22.55 78.1282 24.7803 78.1351 26.0203C78.1407 27.0303 78.7425 27.3569 79.5225 27.3526C81.1725 27.3435 82.2072 26.3877 82.9311 25.2937L83.8473 26.3986C83.2026 27.3622 81.79 28.7001 79.51 28.7127C77.8701 28.7218 76.8161 28.0076 76.8066 26.2977C76.7992 24.9577 76.8746 22.3372 76.8699 21.4772C76.8672 20.9972 76.8245 20.5175 76.7424 20.1279L78.3524 20.129ZM57.774 32.1933C57.7055 32.4737 57.618 32.9242 57.5692 33.1445C57.433 33.8252 57.1898 35.0466 56.9254 36.0681C56.5732 37.4701 55.9145 39.5138 55.3712 40.7068L53.9786 40.2445C54.563 39.2312 55.3114 37.1371 55.6836 35.735C55.9284 34.7936 56.1523 33.6923 56.219 33.102C56.2669 32.7317 56.2747 32.3216 56.2433 32.0818L57.774 32.1933ZM55.2323 33.7074C56.4523 33.7007 57.8612 33.5029 59.1595 33.1857L59.1664 34.4356C57.9281 34.7325 56.359 34.9112 55.229 34.9175C54.739 34.9202 54.3689 34.9023 54.0188 34.8842L53.9719 33.6344C54.4922 33.6916 54.8223 33.7097 55.2323 33.7074ZM58.3808 35.22C58.9404 35.1569 59.6602 35.1129 60.3102 35.1093C60.8802 35.1061 61.4803 35.1328 62.0607 35.1896L62.0473 36.3897C61.537 36.3325 60.9266 36.2659 60.3266 36.2692C59.6366 36.2731 59.0168 36.3065 58.3873 36.39L58.3808 35.22ZM58.9347 37.727C58.8663 38.0174 58.8081 38.3377 58.8093 38.5577C58.8117 38.9977 59.1036 39.3261 60.1835 39.3201C60.8535 39.3164 61.5431 39.2425 62.2524 39.1086L62.2094 40.3788C61.6499 40.462 60.9802 40.5257 60.1802 40.5301C58.4903 40.5395 57.5871 39.9745 57.5815 38.9645C57.5789 38.4945 57.6663 38.014 57.7441 37.6236L58.9347 37.727Z" fill="white"/>
<g clip-path="url(#clip0_335_381)">
<path d="M83.2657 104.765C89.8927 104.839 95.2045 110.272 95.1299 116.899V116.899C95.0554 123.526 89.6227 128.838 82.9957 128.763L26.9993 128.133C20.3723 128.059 15.0605 122.626 15.135 115.999V115.999C15.2095 109.372 20.6422 104.06 27.2692 104.135L83.2657 104.765Z" fill="white"/>
<path d="M39.0123 106.507C38.9892 106.787 38.9756 107.107 38.971 107.517C38.9652 108.027 38.9543 108.997 38.9488 109.487C38.9245 111.647 38.4942 112.562 37.735 113.373C37.0669 114.096 36.0315 114.564 35.2989 114.796L34.2614 113.674C35.2639 113.456 36.0682 113.085 36.6854 112.441C37.3738 111.699 37.5223 110.951 37.5398 109.391C37.5454 108.891 37.5562 107.931 37.5611 107.501C37.5657 107.091 37.5393 106.771 37.5024 106.49L39.0123 106.507ZM34.3816 106.545C34.359 106.775 34.3365 106.995 34.3331 107.305C34.3281 107.745 34.3013 110.124 34.295 110.684C34.2922 110.934 34.3078 111.325 34.3253 111.555L32.8653 111.538C32.8874 111.359 32.9218 110.969 32.9252 110.659C32.9317 110.089 32.9582 107.729 32.9631 107.289C32.9652 107.109 32.9591 106.759 32.9317 106.529L34.3816 106.545ZM48.434 109.963C48.4063 112.433 47.7893 113.936 45.3574 114.979L44.2989 113.957C46.2463 113.309 47.096 112.449 47.1237 109.989L47.1536 107.329C47.1581 106.929 47.1418 106.599 47.1039 106.408L48.5339 106.424C48.5116 106.624 48.468 106.944 48.4635 107.344L48.434 109.963ZM44.8532 106.463C44.8311 106.653 44.7875 106.972 44.783 107.372L44.7428 110.942C44.7377 111.392 44.7631 111.802 44.781 111.992L43.3811 111.977C43.4032 111.787 43.4378 111.377 43.4429 110.927L43.4832 107.348C43.4863 107.068 43.4698 106.757 43.4333 106.447L44.8532 106.463ZM41.5432 108.226C41.7228 108.258 42.132 108.332 42.622 108.338L49.1815 108.412C49.7115 108.418 50.0118 108.391 50.2923 108.354L50.2773 109.684C50.0577 109.652 49.6977 109.648 49.1777 109.642L42.6081 109.568C42.1082 109.562 41.758 109.578 41.5279 109.586L41.5432 108.226ZM51.5679 110.529C53.3629 110.089 54.8302 109.455 55.9579 108.778C56.9849 108.159 58.1361 107.172 58.7949 106.39L59.8634 107.422C58.9431 108.331 57.7126 109.258 56.5247 109.954C55.3872 110.612 53.7589 111.343 52.1737 111.796L51.5679 110.529ZM55.7406 109.426L57.1643 109.102L57.1136 113.611C57.1086 114.051 57.1216 114.671 57.1888 114.922L55.5989 114.904C55.6416 114.665 55.6887 114.035 55.6937 113.595L55.7406 109.426ZM69.7676 108.403C69.6555 108.592 69.5125 108.86 69.4297 109.109C69.1496 110.006 68.5646 111.33 67.6422 112.43C66.6792 113.579 65.469 114.485 63.5808 115.204L62.4126 114.141C64.4595 113.544 65.5792 112.686 66.4703 111.706C67.159 110.934 67.7525 109.741 67.9208 109.002L64.551 108.965L65.0238 107.83C65.4638 107.835 67.5636 107.858 67.8736 107.862C68.1836 107.865 68.524 107.829 68.7449 107.752L69.7676 108.403ZM66.5257 106.777C66.2818 107.124 66.0166 107.581 65.9043 107.79C65.2107 108.992 64.0049 110.389 62.554 111.352L61.4434 110.51C63.2053 109.459 64.0998 108.179 64.5994 107.325C64.7521 107.087 64.9673 106.629 65.0612 106.28L66.5257 106.777ZM75.4272 114.457C75.4793 114.268 75.5123 113.998 75.5154 113.728C75.5213 113.198 75.5718 108.709 75.5809 107.899C75.586 107.449 75.5204 107.058 75.5206 107.038L77.0005 107.054C77.0003 107.074 76.9258 107.474 76.9207 107.924C76.9117 108.724 76.8689 112.533 76.862 113.143C77.6859 112.803 78.6747 112.024 79.3656 111.061L80.1131 112.18C79.271 113.25 77.8289 114.314 76.6926 114.872C76.4814 114.979 76.3601 115.088 76.2594 115.157L75.4272 114.457ZM70.799 114.265C71.696 113.655 72.2463 112.741 72.5259 111.884C72.8255 111.038 72.8568 109.138 72.8703 107.938C72.8749 107.528 72.8379 107.268 72.7807 107.017L74.2506 107.034C74.2501 107.074 74.1751 107.523 74.1705 107.933C74.1571 109.123 74.1034 111.232 73.832 112.239C73.5094 113.356 72.8783 114.339 72.0098 115.089L70.799 114.265ZM46.5076 119.502C46.3562 120.521 46.143 121.688 45.7798 122.864C45.1571 124.877 44.2832 126.108 43.1933 126.095C42.0733 126.083 41.1672 124.843 41.1862 123.153C41.2121 120.853 43.2442 118.896 45.8341 118.925C48.3039 118.953 49.8545 120.69 49.8298 122.88C49.8062 124.98 48.4996 126.455 45.9753 126.817L45.2286 125.628C45.6192 125.583 45.8997 125.536 46.1704 125.479C47.4438 125.183 48.454 124.285 48.4705 122.815C48.4882 121.245 47.5208 120.114 45.7909 120.094C43.6711 120.07 42.4917 121.787 42.4775 123.047C42.4661 124.057 42.8606 124.552 43.2406 124.556C43.6706 124.561 44.0577 123.925 44.4929 122.58C44.7934 121.643 45.0264 120.496 45.1382 119.447L46.5076 119.502ZM51.5246 124.249L58.9041 124.332L58.8931 125.312L51.5135 125.229L51.5246 124.249ZM58.3741 124.326L59.604 124.34C59.604 124.34 59.5806 124.65 59.5489 124.799C59.3739 126.127 59.1767 126.765 58.8737 127.032C58.631 127.269 58.3403 127.336 57.9701 127.352C57.6498 127.378 57.0798 127.372 56.4901 127.345C56.4737 127.025 56.3385 126.593 56.1617 126.311C56.6911 126.367 57.2509 126.384 57.4809 126.386C57.6709 126.388 57.781 126.38 57.882 126.291C58.0736 126.153 58.2396 125.615 58.3626 124.466L58.3741 124.326ZM54.8921 123.597L56.102 123.611C55.8291 125.648 55.1556 126.84 51.5598 127.34C51.4831 127.049 51.2283 126.586 51.0211 126.334C54.2453 125.98 54.6746 125.155 54.8921 123.597ZM51.822 118.252L58.3416 118.325L58.3317 119.205L51.8121 119.132L51.822 118.252ZM58.0016 118.322L58.3216 118.325L58.5923 118.268L59.3642 118.987C58.3879 119.546 57.1512 120.132 55.9669 120.509C55.8292 120.307 55.5429 119.974 55.3847 119.812C56.328 119.523 57.4846 118.946 57.9989 118.562L58.0016 118.322ZM53.2039 119.868L54.0707 119.267C55.1476 119.55 56.6719 120.067 57.5075 120.466L56.5698 121.146C55.8441 120.757 54.3304 120.19 53.2039 119.868ZM53.1649 122.447L53.1594 122.937L58.0491 122.992L58.0546 122.502L53.1649 122.447ZM53.1791 121.187L53.1737 121.667L58.0634 121.722L58.0688 121.242L53.1791 121.187ZM52.0384 120.355L59.2879 120.436L59.2498 123.826L52.0003 123.744L52.0384 120.355ZM54.9753 120.648L56.1252 120.661L56.0947 123.37L54.9448 123.357L54.9753 120.648ZM61.0711 121.056L70.0705 121.157L70.0586 122.217L61.0591 122.116L61.0711 121.056ZM61.9629 119.116L67.6826 119.18L67.6709 120.22L61.9512 120.156L61.9629 119.116ZM63.6617 124.576L68.1314 124.626L68.1212 125.526L63.6515 125.476L63.6617 124.576ZM63.644 126.145L68.1137 126.196L68.1024 127.206L63.6326 127.155L63.644 126.145ZM64.3349 118.063L65.5149 118.076L65.4742 121.696L64.2942 121.683L64.3349 118.063ZM68.7314 118.402L69.7554 118.944C67.7648 121.652 64.6924 123.627 61.4392 124.781C61.3021 124.519 60.9478 124.015 60.7305 123.773C63.992 122.769 66.9533 120.892 68.7314 118.402ZM63.01 122.938L68.9097 123.005L68.8594 127.474L67.6095 127.46L67.6487 123.97L64.1989 123.932L64.1592 127.461L62.9593 127.448L63.01 122.938Z" fill="#222547"/>
</g>
</g>
<path d="M72.5425 65.3976L75.415 69.9264C75.9911 70.8356 76.2944 71.8669 76.2942 72.9168C76.294 73.9666 75.9905 74.9979 75.4141 75.9069C74.8377 76.816 74.0088 77.5707 73.0106 78.0953C72.0125 78.6198 70.8804 78.8957 69.7281 78.8951H65.8656V82.3118L56.4906 76.3326L65.8656 70.3534V73.7701H69.7319C69.8821 73.7701 70.0301 73.7373 70.1635 73.6743C70.2968 73.6113 70.4116 73.52 70.4982 73.4082C70.5848 73.2963 70.6406 73.1671 70.6609 73.0315C70.6812 72.8959 70.6655 72.7579 70.615 72.6289L70.5437 72.4889L67.675 67.9584L72.5425 65.3976ZM50.3706 60.7594L51.3662 71.1461L48.1206 69.4378L46.1856 72.4889C46.1105 72.6074 46.0677 72.7406 46.0608 72.8774C46.054 73.0141 46.0833 73.1504 46.1464 73.2746C46.2094 73.3989 46.3043 73.5075 46.4231 73.5914C46.5418 73.6752 46.681 73.7318 46.8287 73.7564L46.9975 73.7701H52.7406V78.8951H46.9975C45.8456 78.8951 44.7139 78.6188 43.7163 78.094C42.7187 77.5692 41.8903 76.8144 41.3143 75.9055C40.7384 74.9965 40.4352 73.9655 40.4352 72.9159C40.4352 71.8664 40.7384 70.8353 41.3144 69.9264L43.2494 66.8753L40 65.1669L50.3706 60.7594ZM61.6469 49.8022C62.6435 50.3267 63.4712 51.0808 64.0469 51.9889L65.98 55.0399L69.2294 53.3316L68.2319 63.7183L57.8631 59.3108L61.1069 57.6024L59.1756 54.5514C59.1006 54.4328 58.9953 54.3324 58.8688 54.2587C58.7422 54.1849 58.5981 54.14 58.4485 54.1276C58.2989 54.1152 58.1482 54.1357 58.0091 54.1875C57.8701 54.2392 57.7467 54.3207 57.6494 54.4249L57.5519 54.5514L54.6831 59.0819L49.8119 56.5194L52.6806 51.9889C53.1117 51.3088 53.6856 50.7128 54.3695 50.2348C55.0534 49.7569 55.834 49.4064 56.6666 49.2033C57.4992 49.0003 58.3676 48.9486 59.2221 49.0514C60.0766 49.1542 60.9006 49.4093 61.6469 49.8022Z" fill="#FFF5F5"/>
<defs>
<filter id="filter0_d_335_381" x="0" y="0" width="116" height="130.898" filterUnits="userSpaceOnUse" color-interpolation-filters="sRGB">
<feFlood flood-opacity="0" result="BackgroundImageFix"/>
<feColorMatrix in="SourceAlpha" type="matrix" values="0 0 0 0 0 0 0 0 0 0 0 0 0 0 0 0 0 0 127 0" result="hardAlpha"/>
<feOffset dy="2"/>
<feComposite in2="hardAlpha" operator="out"/>
<feColorMatrix type="matrix" values="0 0 0 0 0 0 0 0 0 0 0 0 0 0 0 0 0 0 0.25 0"/>
<feBlend mode="normal" in2="BackgroundImageFix" result="effect1_dropShadow_335_381"/>
<feBlend mode="normal" in="SourceGraphic" in2="effect1_dropShadow_335_381" result="shape"/>
</filter>
<linearGradient id="paint0_linear_335_381" x1="58" y1="0" x2="58" y2="116" gradientUnits="userSpaceOnUse">
<stop stop-color="#DC5DCB"/>
<stop offset="1" stop-color="#748DED"/>
</linearGradient>
<clipPath id="clip0_335_381">
<path d="M83.2657 104.765C89.8927 104.839 95.2045 110.272 95.1299 116.899V116.899C95.0554 123.526 89.6227 128.838 82.9957 128.763L26.9993 128.133C20.3723 128.059 15.0605 122.626 15.135 115.999V115.999C15.2095 109.372 20.6422 104.06 27.2692 104.135L83.2657 104.765Z" fill="white"/>
</clipPath>
</defs>
</svg>
