<svg width="162" height="50" viewBox="0 0 162 50" fill="none" xmlns="http://www.w3.org/2000/svg">
<g filter="url(#filter0_d_423_284)">
<path d="M1 1H151C156.523 1 161 5.47715 161 11V35C161 40.5228 156.523 45 151 45H1V1Z" fill="url(#paint0_linear_423_284)"/>
<path d="M1 0.5H0.5V1V45V45.5H1H151C156.799 45.5 161.5 40.799 161.5 35V11C161.5 5.20101 156.799 0.5 151 0.5H1Z" stroke="white"/>
<path d="M55.576 17.416H57.214V29.246H55.576V17.416ZM53.56 20.048H58.698V21.616H53.56V20.048ZM55.674 20.678L56.654 21.112C56.122 23.114 55.128 25.606 54.05 26.992C53.896 26.502 53.532 25.802 53.266 25.382C54.246 24.262 55.226 22.232 55.674 20.678ZM57.76 16.254L58.88 17.556C57.452 18.102 55.506 18.48 53.868 18.69C53.798 18.326 53.588 17.766 53.392 17.416C54.946 17.15 56.682 16.744 57.76 16.254ZM57.172 21.994C57.522 22.288 58.74 23.548 59.006 23.87L58.054 25.186C57.718 24.514 56.878 23.24 56.444 22.652L57.172 21.994ZM60.126 16.156L61.764 16.478C61.246 18.62 60.364 20.678 59.356 21.994C59.048 21.742 58.32 21.28 57.928 21.084C58.95 19.922 59.734 18.046 60.126 16.156ZM59.888 21.728L61.47 22.036C61.106 23.898 60.448 25.774 59.65 26.95C59.342 26.698 58.642 26.278 58.264 26.082C59.034 25.046 59.594 23.366 59.888 21.728ZM60.392 18.41H66.398V19.964H59.902L60.392 18.41ZM61.932 19.096H63.584V27.356C63.584 28.154 63.43 28.63 62.94 28.91C62.45 29.176 61.778 29.246 60.882 29.246C60.798 28.77 60.546 28.014 60.308 27.566C60.896 27.58 61.484 27.58 61.68 27.58C61.862 27.58 61.932 27.538 61.932 27.342V19.096ZM63.92 22.064L65.376 21.616C65.964 23.142 66.496 25.06 66.678 26.362L65.124 26.852C64.984 25.564 64.452 23.562 63.92 22.064ZM71.102 18.06V19.586H76.898V18.06H71.102ZM69.464 16.604H78.648V21.042H69.464V16.604ZM67.658 21.77H80.272V23.296H67.658V21.77ZM70.64 24.108H77.5V25.634H70.64V24.108ZM76.884 24.108H78.704C78.704 24.108 78.662 24.584 78.62 24.808C78.326 27.104 77.99 28.21 77.472 28.686C77.052 29.092 76.59 29.19 75.932 29.232C75.4 29.274 74.476 29.26 73.51 29.232C73.482 28.742 73.244 28.07 72.922 27.622C73.86 27.706 74.896 27.72 75.316 27.72C75.638 27.72 75.82 27.706 76.002 27.58C76.38 27.3 76.66 26.306 76.87 24.332L76.884 24.108ZM70.64 22.19L72.446 22.442C72.054 23.772 71.536 25.354 71.13 26.376L69.31 26.096C69.744 25.074 70.29 23.464 70.64 22.19Z" fill="white"/>
<path d="M30.0555 15.079C30.0555 15.079 30.16 17.049 31.74 18.786C33.32 20.524 35.11 20.64 35.11 20.64L35.9528 19.713C36.6232 18.9755 36.9998 17.9754 36.9998 16.9325C36.9998 15.8896 36.6232 14.8894 35.9528 14.152C35.2824 13.4145 34.3731 13.0002 33.425 13.0002C32.477 13.0002 31.5677 13.4145 30.8973 14.152L30.0546 15.079L27.9091 17.439M35.11 20.639L30.3282 25.901L27.5091 29L27.3637 29.161C26.8382 29.738 26.5755 30.027 26.2864 30.275C25.9451 30.5676 25.5759 30.8187 25.1855 31.024C24.8546 31.197 24.5028 31.326 23.7982 31.584L20.8155 32.678M20.8155 32.678L20.0864 32.946C19.9165 33.0087 19.734 33.018 19.5595 32.9728C19.385 32.9277 19.2254 32.8299 19.0986 32.6905C18.9719 32.5511 18.883 32.3755 18.842 32.1836C18.801 31.9916 18.8094 31.7909 18.8664 31.604L19.11 30.802M20.8155 32.678L19.11 30.802M19.11 30.802L20.1046 27.521C20.3391 26.746 20.4564 26.359 20.6137 25.995C20.8009 25.5636 21.0279 25.16 21.2946 24.784C21.52 24.466 21.7828 24.177 22.3073 23.6L24.7273 20.939" stroke="white" stroke-linecap="round"/>
</g>
<defs>
<filter id="filter0_d_423_284" x="0" y="0" width="162" height="50" filterUnits="userSpaceOnUse" color-interpolation-filters="sRGB">
<feFlood flood-opacity="0" result="BackgroundImageFix"/>
<feColorMatrix in="SourceAlpha" type="matrix" values="0 0 0 0 0 0 0 0 0 0 0 0 0 0 0 0 0 0 127 0" result="hardAlpha"/>
<feOffset dy="4"/>
<feComposite in2="hardAlpha" operator="out"/>
<feColorMatrix type="matrix" values="0 0 0 0 0 0 0 0 0 0 0 0 0 0 0 0 0 0 0.2 0"/>
<feBlend mode="normal" in2="BackgroundImageFix" result="effect1_dropShadow_423_284"/>
<feBlend mode="normal" in="SourceGraphic" in2="effect1_dropShadow_423_284" result="shape"/>
</filter>
<linearGradient id="paint0_linear_423_284" x1="1" y1="23" x2="161" y2="23" gradientUnits="userSpaceOnUse">
<stop stop-color="#DC5DCB"/>
<stop offset="1" stop-color="#3148A7"/>
</linearGradient>
</defs>
</svg>
