<svg width="161" height="50" viewBox="0 0 161 50" fill="none" xmlns="http://www.w3.org/2000/svg">
<g filter="url(#filter0_d_306_235)">
<path d="M0 1H150C155.523 1 160 5.47715 160 11V35C160 40.5228 155.523 45 150 45H0V1Z" fill="url(#paint0_linear_306_235)"/>
<path d="M0 0.5H-0.5V1V45V45.5H0H150C155.799 45.5 160.5 40.799 160.5 35V11C160.5 5.20101 155.799 0.5 150 0.5H0Z" stroke="white"/>
<path d="M53.764 18.074C54.324 18.088 54.856 18.102 55.234 18.102C56.256 18.102 61.94 18.102 62.948 18.102C63.298 18.102 63.816 18.102 64.334 18.088C64.306 18.508 64.306 19.012 64.306 19.446C64.306 20.3 64.306 25.452 64.306 26.306C64.306 26.852 64.32 28.196 64.334 28.252H62.388C62.388 28.196 62.43 27.104 62.43 26.334C62.43 25.522 62.43 19.894 62.43 19.894H55.654C55.654 19.894 55.654 25.508 55.654 26.334C55.654 27.006 55.668 28.182 55.668 28.252H53.75C53.75 28.182 53.778 26.95 53.778 26.278C53.778 25.438 53.778 20.258 53.778 19.446C53.778 19.04 53.778 18.48 53.764 18.074ZM63.116 25.704V27.482H54.702V25.704H63.116ZM76.906 16.534C77.256 17.052 77.746 17.934 78.012 18.452L76.892 18.942C76.598 18.368 76.164 17.528 75.786 16.996L76.906 16.534ZM78.558 15.904C78.922 16.436 79.44 17.318 79.692 17.808L78.572 18.284C78.278 17.71 77.83 16.884 77.452 16.366L78.558 15.904ZM78.152 19.614C77.998 19.894 77.802 20.272 77.69 20.622C77.312 21.868 76.514 23.744 75.254 25.298C73.924 26.922 72.23 28.21 69.598 29.246L67.946 27.776C70.816 26.908 72.37 25.69 73.588 24.304C74.54 23.212 75.352 21.532 75.576 20.496H70.858L71.502 18.9C72.132 18.9 75.058 18.9 75.506 18.9C75.94 18.9 76.402 18.844 76.724 18.732L78.152 19.614ZM73.588 17.402C73.266 17.892 72.902 18.536 72.734 18.83C71.796 20.524 70.116 22.498 68.114 23.87L66.532 22.708C68.996 21.21 70.214 19.404 70.914 18.2C71.124 17.864 71.418 17.206 71.544 16.73L73.588 17.402Z" fill="white"/>
<path d="M29.0554 15.079C29.0554 15.079 29.16 17.049 30.74 18.786C32.32 20.524 34.11 20.64 34.11 20.64L34.9527 19.713C35.6231 18.9755 35.9997 17.9754 35.9997 16.9325C35.9997 15.8896 35.6231 14.8894 34.9527 14.152C34.2823 13.4145 33.3731 13.0002 32.425 13.0002C31.4769 13.0002 30.5676 13.4145 29.8973 14.152L29.0545 15.079L26.9091 17.439M34.11 20.639L29.3282 25.901L26.5091 29L26.3636 29.161C25.8382 29.738 25.5754 30.027 25.2863 30.275C24.945 30.5676 24.5759 30.8187 24.1854 31.024C23.8545 31.197 23.5027 31.326 22.7982 31.584L19.8154 32.678M19.8154 32.678L19.0863 32.946C18.9164 33.0087 18.7339 33.018 18.5594 32.9728C18.3849 32.9277 18.2253 32.8299 18.0986 32.6905C17.9718 32.5511 17.883 32.3755 17.8419 32.1836C17.8009 31.9916 17.8094 31.7909 17.8663 31.604L18.11 30.802M19.8154 32.678L18.11 30.802M18.11 30.802L19.1045 27.521C19.3391 26.746 19.4563 26.359 19.6136 25.995C19.8009 25.5636 20.0279 25.16 20.2945 24.784C20.52 24.466 20.7827 24.177 21.3073 23.6L23.7273 20.939" stroke="white" stroke-linecap="round"/>
</g>
<defs>
<filter id="filter0_d_306_235" x="-1" y="0" width="162" height="50" filterUnits="userSpaceOnUse" color-interpolation-filters="sRGB">
<feFlood flood-opacity="0" result="BackgroundImageFix"/>
<feColorMatrix in="SourceAlpha" type="matrix" values="0 0 0 0 0 0 0 0 0 0 0 0 0 0 0 0 0 0 127 0" result="hardAlpha"/>
<feOffset dy="4"/>
<feComposite in2="hardAlpha" operator="out"/>
<feColorMatrix type="matrix" values="0 0 0 0 0 0 0 0 0 0 0 0 0 0 0 0 0 0 0.2 0"/>
<feBlend mode="normal" in2="BackgroundImageFix" result="effect1_dropShadow_306_235"/>
<feBlend mode="normal" in="SourceGraphic" in2="effect1_dropShadow_306_235" result="shape"/>
</filter>
<linearGradient id="paint0_linear_306_235" x1="0" y1="23" x2="160" y2="23" gradientUnits="userSpaceOnUse">
<stop stop-color="#DC5DCB"/>
<stop offset="1" stop-color="#3148A7"/>
</linearGradient>
</defs>
</svg>
