<svg width="116" height="131" viewBox="0 0 116 131" fill="none" xmlns="http://www.w3.org/2000/svg">
<g filter="url(#filter0_d_335_223)">
<rect x="1" y="1" width="114" height="114" rx="57" fill="url(#paint0_linear_335_223)"/>
<rect x="1" y="1" width="114" height="114" rx="57" stroke="white" stroke-width="2"/>
<path d="M47.2709 31.6617C47.0522 30.0929 49.1802 29.731 49.1748 28.7611C49.1715 28.1511 48.6896 27.8137 47.8996 27.8181C47.2896 27.8215 46.7912 28.1043 46.304 28.617L45.4799 27.8715C46.1157 27.128 46.993 26.6331 48.063 26.6272C49.513 26.6192 50.5767 27.2933 50.5841 28.6232C50.5922 30.0832 48.4032 30.2754 48.5709 31.6545L47.2709 31.6617ZM47.9457 34.328C47.4257 34.3309 47.0537 33.9629 47.0508 33.4429C47.0479 32.9229 47.4259 32.5608 47.9359 32.558C48.4359 32.5552 48.8179 32.9131 48.8208 33.4331C48.8236 33.9531 48.4457 34.3252 47.9457 34.328ZM57.2707 31.6062C57.052 30.0374 59.1801 29.6756 59.1747 28.7056C59.1713 28.0956 58.6894 27.7583 57.8994 27.7627C57.2894 27.766 56.791 28.0488 56.3038 28.5615L55.4797 27.8161C56.1156 27.0725 56.9929 26.5777 58.0628 26.5717C59.5128 26.5637 60.5766 27.2378 60.5839 28.5678C60.592 30.0278 58.4031 30.2199 58.5707 31.599L57.2707 31.6062ZM57.9455 34.2725C57.4256 34.2754 57.0535 33.9074 57.0506 33.3874C57.0477 32.8675 57.4257 32.5054 57.9357 32.5025C58.4357 32.4998 58.8177 32.8576 58.8206 33.3776C58.8235 33.8976 58.4455 34.2697 57.9455 34.2725ZM67.2706 31.5507C67.0519 29.9819 69.1799 29.6201 69.1745 28.6501C69.1712 28.0401 68.6893 27.7028 67.8993 27.7072C67.2893 27.7106 66.7909 27.9933 66.3037 28.506L65.4795 27.7606C66.1154 27.0171 66.9927 26.5222 68.0627 26.5163C69.5127 26.5082 70.5764 27.1823 70.5838 28.5123C70.5919 29.9723 68.4029 30.1644 68.5706 31.5435L67.2706 31.5507ZM67.9454 34.217C67.4254 34.2199 67.0534 33.852 67.0505 33.332C67.0476 32.812 67.4256 32.4499 67.9356 32.4471C68.4356 32.4443 68.8176 32.8022 68.8204 33.3222C68.8233 33.8422 68.4454 34.2143 67.9454 34.217Z" fill="white"/>
<g clip-path="url(#clip0_335_223)">
<path d="M83.2656 104.765C89.8926 104.839 95.2044 110.272 95.1299 116.899C95.0553 123.526 89.6227 128.838 82.9957 128.763L26.9992 128.133C20.3722 128.059 15.0604 122.626 15.1349 115.999C15.2095 109.372 20.6421 104.06 27.2691 104.135L83.2656 104.765Z" fill="white"/>
<path d="M41.928 113.21C42.3278 113.225 42.7077 113.239 42.9777 113.242C43.7076 113.25 47.7674 113.296 48.4873 113.304C48.7373 113.307 49.1073 113.311 49.4774 113.305C49.454 113.605 49.45 113.965 49.4465 114.275C49.4396 114.885 49.3982 118.565 49.3914 119.175C49.387 119.565 49.3862 120.525 49.3957 120.565L48.0058 120.549C48.0063 120.509 48.045 119.73 48.0512 119.18C48.0578 118.6 48.103 114.58 48.103 114.58L43.2633 114.526C43.2633 114.526 43.2182 118.535 43.2115 119.125C43.2061 119.605 43.2067 120.445 43.2061 120.495L41.8362 120.48C41.8368 120.43 41.8667 119.55 41.8721 119.07C41.8788 118.47 41.9204 114.77 41.927 114.19C41.9302 113.901 41.9347 113.501 41.928 113.21ZM48.5463 118.735L48.532 120.005L42.5224 119.938L42.5366 118.668L48.5463 118.735ZM55.6941 114.525C55.8793 114.947 56.3546 116.263 56.4894 116.724L55.2948 117.121C55.1702 116.64 54.7439 115.425 54.5097 114.902L55.6941 114.525ZM59.3757 115.287C59.262 115.616 59.1997 115.825 59.1374 116.024C58.8661 117.031 58.4244 118.066 57.7347 118.929C56.7911 120.128 55.5419 120.944 54.3669 121.381L53.329 120.299C54.4223 120.011 55.8307 119.267 56.6624 118.236C57.3518 117.404 57.8567 116.08 57.9809 114.821L59.3757 115.287ZM53.3684 115.019C53.6126 115.532 54.0889 116.757 54.2725 117.32L53.0476 117.756C52.8935 117.224 52.3986 115.878 52.1635 115.446L53.3684 115.019ZM69.6463 114.402C69.5342 114.591 69.3912 114.859 69.3084 115.108C69.0283 116.005 68.4433 117.329 67.5209 118.429C66.5579 119.578 65.3477 120.484 63.4594 121.203L62.2913 120.14C64.3382 119.543 65.4579 118.685 66.349 117.705C67.0377 116.933 67.6312 115.74 67.7995 115.002L64.4297 114.964L64.9025 113.829C65.3424 113.834 67.4423 113.857 67.7523 113.861C68.0623 113.864 68.4027 113.828 68.6236 113.751L69.6463 114.402ZM66.4044 112.776C66.1605 113.123 65.8953 113.58 65.783 113.789C65.0894 114.991 63.8836 116.388 62.4327 117.351L61.3221 116.509C63.084 115.459 63.9785 114.178 64.4781 113.324C64.6308 113.086 64.846 112.628 64.9399 112.279L66.4044 112.776Z" fill="#222547"/>
</g>
</g>
<path d="M67 53H65.5V51.6667C65.5 47.9907 62.1355 45 58 45C53.8645 45 50.5 47.9907 50.5 51.6667V53H49C48.2044 53 47.4413 53.281 46.8787 53.781C46.3161 54.2811 46 54.9594 46 55.6667V69C46 69.7072 46.3161 70.3855 46.8787 70.8856C47.4413 71.3857 48.2044 71.6667 49 71.6667H67C67.7957 71.6667 68.5587 71.3857 69.1213 70.8856C69.6839 70.3855 70 69.7072 70 69V55.6667C70 54.9594 69.6839 54.2811 69.1213 53.781C68.5587 53.281 67.7957 53 67 53ZM53.5 51.6667C53.5 49.4613 55.519 47.6667 58 47.6667C60.481 47.6667 62.5 49.4613 62.5 51.6667V53H53.5V51.6667ZM59.5 63.2973V66.3333H56.5V63.2973C55.6075 62.836 55 61.9853 55 61C55 60.2928 55.3161 59.6145 55.8787 59.1144C56.4413 58.6143 57.2044 58.3333 58 58.3333C58.7957 58.3333 59.5587 58.6143 60.1213 59.1144C60.6839 59.6145 61 60.2928 61 61C61 61.984 60.3925 62.8347 59.5 63.2973Z" fill="white"/>
<defs>
<filter id="filter0_d_335_223" x="0" y="0" width="116" height="130.898" filterUnits="userSpaceOnUse" color-interpolation-filters="sRGB">
<feFlood flood-opacity="0" result="BackgroundImageFix"/>
<feColorMatrix in="SourceAlpha" type="matrix" values="0 0 0 0 0 0 0 0 0 0 0 0 0 0 0 0 0 0 127 0" result="hardAlpha"/>
<feOffset dy="2"/>
<feComposite in2="hardAlpha" operator="out"/>
<feColorMatrix type="matrix" values="0 0 0 0 0 0 0 0 0 0 0 0 0 0 0 0 0 0 0.25 0"/>
<feBlend mode="normal" in2="BackgroundImageFix" result="effect1_dropShadow_335_223"/>
<feBlend mode="normal" in="SourceGraphic" in2="effect1_dropShadow_335_223" result="shape"/>
</filter>
<linearGradient id="paint0_linear_335_223" x1="58" y1="0" x2="58" y2="116" gradientUnits="userSpaceOnUse">
<stop stop-color="#222547"/>
<stop offset="1" stop-color="#748DED"/>
</linearGradient>
<clipPath id="clip0_335_223">
<path d="M83.2656 104.765C89.8926 104.839 95.2044 110.272 95.1299 116.899C95.0553 123.526 89.6227 128.838 82.9957 128.763L26.9992 128.133C20.3722 128.059 15.0604 122.626 15.1349 115.999C15.2095 109.372 20.6421 104.06 27.2691 104.135L83.2656 104.765Z" fill="white"/>
</clipPath>
</defs>
</svg>
