<svg width="68" height="26" viewBox="0 0 68 26" fill="none" xmlns="http://www.w3.org/2000/svg">
<rect x="1" y="1" width="66" height="24" rx="7" fill="url(#paint0_linear_311_818)"/>
<rect x="1" y="1" width="66" height="24" rx="7" stroke="white" stroke-width="2"/>
<path d="M17.33 10.23C17.25 10.34 17.07 10.64 16.98 10.85C16.57 11.8 15.83 13.16 14.97 14.16C13.85 15.45 12.34 16.69 10.79 17.42L9.75 16.34C11.37 15.74 12.91 14.52 13.85 13.48C14.51 12.73 15.12 11.74 15.35 11.03C14.93 11.03 12.38 11.03 11.95 11.03C11.54 11.03 10.99 11.08 10.77 11.1V9.67C11.04 9.71 11.66 9.74 11.95 9.74C12.48 9.74 15.04 9.74 15.48 9.74C15.92 9.74 16.31 9.69 16.52 9.62L17.33 10.23ZM15.1 13.33C16.13 14.17 17.55 15.66 18.2 16.46L17.06 17.45C16.32 16.42 15.23 15.23 14.16 14.26L15.1 13.33ZM22.13 16.05C22.13 15.28 22.13 11.14 22.13 10.3C22.13 9.94 22.1 9.45 22.03 9.09H23.59C23.55 9.45 23.5 9.88 23.5 10.3C23.5 11.4 23.51 15.31 23.51 16.05C23.51 16.33 23.55 17.03 23.6 17.44H22.03C22.1 17.05 22.13 16.44 22.13 16.05ZM23.21 11.68C24.54 12.05 26.7 12.84 27.68 13.32L27.12 14.71C25.98 14.12 24.3 13.48 23.21 13.12V11.68ZM29.91 12.37C30.28 12.4 31 12.44 31.52 12.44C32.7 12.44 36 12.44 36.89 12.44C37.36 12.44 37.8 12.39 38.07 12.37V13.95C37.83 13.94 37.32 13.89 36.9 13.89C35.99 13.89 32.7 13.89 31.52 13.89C30.96 13.89 30.29 13.92 29.91 13.95V12.37ZM47.02 9.24C47 9.52 46.99 9.84 46.99 10.25C46.99 10.76 46.99 11.73 46.99 12.22C46.99 14.38 46.57 15.3 45.82 16.12C45.16 16.85 44.13 17.33 43.4 17.57L42.35 16.46C43.35 16.23 44.15 15.85 44.76 15.2C45.44 14.45 45.58 13.7 45.58 12.14C45.58 11.64 45.58 10.68 45.58 10.25C45.58 9.84 45.55 9.52 45.51 9.24H47.02ZM42.39 9.33C42.37 9.56 42.35 9.78 42.35 10.09C42.35 10.53 42.35 12.91 42.35 13.47C42.35 13.72 42.37 14.11 42.39 14.34H40.93C40.95 14.16 40.98 13.77 40.98 13.46C40.98 12.89 40.98 10.53 40.98 10.09C40.98 9.91 40.97 9.56 40.94 9.33H42.39ZM49.91 12.37C50.28 12.4 51 12.44 51.52 12.44C52.7 12.44 56 12.44 56.89 12.44C57.36 12.44 57.8 12.39 58.07 12.37V13.95C57.83 13.94 57.32 13.89 56.9 13.89C55.99 13.89 52.7 13.89 51.52 13.89C50.96 13.89 50.29 13.92 49.91 13.95V12.37Z" fill="white"/>
<defs>
<linearGradient id="paint0_linear_311_818" x1="0" y1="13" x2="68" y2="13" gradientUnits="userSpaceOnUse">
<stop stop-color="#DC5DCB"/>
<stop offset="1" stop-color="#3148A7"/>
</linearGradient>
</defs>
</svg>
