<svg width="116" height="131" viewBox="0 0 116 131" fill="none" xmlns="http://www.w3.org/2000/svg">
<g filter="url(#filter0_d_335_382)">
<rect x="1" y="1" width="114" height="114" rx="57" fill="url(#paint0_linear_335_382)"/>
<rect x="1" y="1" width="114" height="114" rx="57" stroke="white" stroke-width="2"/>
<path d="M39.3222 27.003L39.3625 34.2756L37.8249 34.2841L37.7927 28.471L37.7501 28.4712L36.0904 29.5245L36.0828 28.1609L37.8769 27.011L39.3222 27.003ZM45.2041 31.1031L49.814 31.0776L49.8362 35.0775L48.6362 35.0841L48.62 32.1642L46.34 32.1768L46.3565 35.1468L45.2265 35.1531L45.2041 31.1031ZM49.0849 25.8315L49.9304 26.8268C48.5727 27.2344 46.734 27.4746 45.1546 27.5933C45.113 27.3036 44.9505 26.8545 44.809 26.5852C46.3283 26.4468 48.0268 26.1774 49.0849 25.8315ZM46.8101 26.7841L48.0401 26.7773L48.067 31.6273L46.837 31.6341L46.8101 26.7841ZM44.6605 28.6561L50.2104 28.6253L50.2167 29.7553L44.6667 29.7861L44.6605 28.6561ZM45.9778 33.5789L49.1978 33.561L49.2037 34.641L45.9838 34.6589L45.9778 33.5789ZM41.2519 28.915L44.2718 28.8983L44.2768 29.7982L41.2569 29.815L41.2519 28.915ZM41.2962 26.0847L44.2561 26.0683L44.2612 26.9783L41.3012 26.9947L41.2962 26.0847ZM41.2596 30.315L44.2796 30.2982L44.2846 31.1982L41.2646 31.215L41.2596 30.315ZM40.7539 27.4778L44.5838 27.4565L44.589 28.3965L40.7591 28.4177L40.7539 27.4778ZM41.8574 31.7217L44.3374 31.7079L44.3543 34.7479L41.8743 34.7616L41.8691 33.8217L43.3191 33.8136L43.3127 32.6636L41.8627 32.6717L41.8574 31.7217ZM41.2374 31.7251L42.2474 31.7195L42.2665 35.1595L41.2565 35.1651L41.2374 31.7251ZM59.4568 27.954C59.3479 28.1446 59.2094 28.4154 59.1308 28.6658C58.8658 29.5673 58.3031 30.9005 57.3993 32.0155C56.4558 33.1807 55.2609 34.1074 53.385 34.8578L52.1992 33.8144C54.2357 33.1831 55.3409 32.3069 56.2154 31.312C56.8911 30.5283 57.4644 29.3251 57.6203 28.5842L54.2503 28.6029L54.704 27.4604C55.144 27.4579 57.244 27.4463 57.554 27.4446C57.864 27.4428 58.2037 27.401 58.4233 27.3197L59.4568 27.954ZM56.188 26.3821C55.95 26.7335 55.6925 27.1949 55.5837 27.4055C54.9104 28.6192 53.7283 30.0358 52.2937 31.0238L51.1691 30.2C52.9132 29.1203 53.786 27.8255 54.2712 26.9628C54.4199 26.7219 54.6273 26.2608 54.7154 25.9103L56.188 26.3821ZM68.4781 26.354C68.4596 26.6341 68.4514 26.9541 68.4537 27.3641C68.4565 27.8741 68.4619 28.8441 68.4646 29.3341C68.4766 31.494 68.0617 32.4164 67.3163 33.2405C66.6603 33.9742 65.633 34.4599 64.9043 34.7039L63.8482 33.5997C64.8469 33.3642 65.6448 32.9798 66.2512 32.3264C66.927 31.5726 67.0628 30.8219 67.0542 29.2619C67.0514 28.7619 67.0461 27.8019 67.0437 27.3719C67.0414 26.9619 67.0097 26.6421 66.9681 26.3623L68.4781 26.354ZM63.8486 26.4696C63.8299 26.6997 63.8111 26.9198 63.8129 27.2298C63.8153 27.6698 63.8285 30.0498 63.8316 30.6098C63.833 30.8598 63.8552 31.2497 63.8764 31.4796L62.4165 31.4877C62.4355 31.3075 62.4633 30.9174 62.4616 30.6074C62.4584 30.0374 62.4453 27.6774 62.4429 27.2374C62.4419 27.0574 62.4299 26.7075 62.3987 26.4777L63.8486 26.4696ZM80.0034 27.29C79.9042 27.4206 79.7155 27.6616 79.6263 27.8021C79.1606 28.5847 78.2177 29.86 77.2316 30.5655L76.187 29.7412C76.9943 29.2468 77.7694 28.3624 78.0266 27.871C77.4166 27.8744 73.4367 27.8965 72.8067 27.9C72.3967 27.9022 72.0568 27.9241 71.5871 27.9767L71.5794 26.5768C71.9697 26.6346 72.39 26.6823 72.8 26.68C73.4299 26.6765 77.6699 26.653 78.1899 26.6501C78.4699 26.6485 79.0196 26.6055 79.2094 26.5544L80.0034 27.29ZM75.9409 28.6526C75.9547 31.1326 75.906 33.1729 73.1942 34.6579L72.019 33.7144C72.3483 33.6026 72.7074 33.4306 73.0758 33.1486C74.3309 32.2616 74.5651 31.2103 74.556 29.5703C74.5542 29.2503 74.5428 28.9904 74.491 28.6606L75.9409 28.6526Z" fill="white"/>
<g clip-path="url(#clip0_335_382)">
<path d="M83.2657 104.765C89.8927 104.839 95.2045 110.272 95.1299 116.899V116.899C95.0554 123.526 89.6227 128.838 82.9957 128.763L26.9993 128.133C20.3723 128.059 15.0605 122.626 15.135 115.999V115.999C15.2095 109.372 20.6422 104.06 27.2692 104.135L83.2657 104.765Z" fill="white"/>
<path d="M34.8928 115.421L40.3824 115.483L40.37 116.593L34.8803 116.531L34.8928 115.421ZM38.1872 115.939C38.497 117.732 39.1688 119.36 40.3999 120.154C40.1272 120.391 39.722 120.856 39.5283 121.184C38.1997 120.159 37.5405 118.311 37.1851 116.117L38.1872 115.939ZM39.2939 111.791L40.1829 112.771C38.8068 113.305 36.8739 113.554 35.2028 113.645C35.166 113.354 35.0012 112.893 34.8544 112.611C36.4559 112.489 38.229 112.219 39.2939 111.791ZM31.0421 113.678L34.2819 113.714L34.2695 114.824L31.0297 114.788L31.0421 113.678ZM32.4046 111.693L33.5331 111.826C33.1292 113.952 32.5191 116.625 32.0289 118.419L31.0548 117.888C31.5024 116.323 32.0722 113.68 32.4046 111.693ZM31.5665 117.744L32.2259 116.912C33.199 117.523 34.4088 118.436 34.9511 119.132L34.2203 120.084C33.7082 119.378 32.5392 118.395 31.5665 117.744ZM33.852 113.71L34.052 113.712L34.2623 113.684L34.9708 113.822C34.6969 117.719 33.7021 119.918 31.6984 121.126C31.5418 120.824 31.2367 120.391 30.9893 120.158C32.6992 119.287 33.624 117.087 33.8495 113.93L33.852 113.71ZM36.9719 112.845L38.1718 112.858L38.1434 115.388C38.1211 117.368 37.6955 119.643 35.1382 121.165C34.9214 120.882 34.5154 120.518 34.2081 120.284C36.6039 118.891 36.9257 116.954 36.9436 115.365L36.9719 112.845ZM42.2934 111.854L43.3633 111.866L43.2585 121.186L42.1886 121.174L42.2934 111.854ZM40.9864 115.13L44.2862 115.167L44.2736 116.287L40.9739 116.25L40.9864 115.13ZM42.2396 115.744L42.9059 116.082C42.5809 117.408 41.9813 119.151 41.3205 120.104C41.2247 119.733 40.9608 119.19 40.7846 118.848C41.3729 118.115 41.9785 116.731 42.2396 115.744ZM43.3328 116.356C43.5897 116.629 44.4463 117.829 44.6329 118.131L43.8626 119.043C43.6493 118.45 43.0819 117.324 42.7777 116.81L43.3328 116.356ZM41.0047 112.62L41.7869 112.429C42.0488 113.152 42.2283 114.084 42.2713 114.704L41.4391 114.895C41.416 114.285 41.2367 113.333 41.0047 112.62ZM43.7873 112.401L44.735 112.612C44.4862 113.389 44.1957 114.326 43.9592 114.903L43.2515 114.695C43.4484 114.078 43.6794 113.1 43.7873 112.401ZM44.8554 112.573L50.0651 112.632L50.0554 113.492L44.8458 113.433L44.8554 112.573ZM45.0814 113.826L49.8411 113.879L49.832 114.689L45.0723 114.636L45.0814 113.826ZM44.5475 115.06L50.2971 115.125L50.2873 115.995L44.5377 115.93L44.5475 115.06ZM46.8034 111.875L47.9433 111.888L47.9017 115.588L46.7618 115.575L46.8034 111.875ZM45.053 116.346L48.8528 116.389L48.8432 117.238L46.1634 117.208L46.1179 121.258L44.9979 121.245L45.053 116.346ZM48.5828 116.385L49.7027 116.398L49.6599 120.208C49.6543 120.708 49.5613 120.967 49.2096 121.123C48.8679 121.269 48.3978 121.274 47.7579 121.267C47.7111 120.976 47.5856 120.575 47.4587 120.303C47.8284 120.327 48.2484 120.332 48.3684 120.333C48.4984 120.335 48.5388 120.295 48.5401 120.185L48.5828 116.385ZM45.668 117.683L48.9578 117.72L48.9491 118.5L45.6593 118.463L45.668 117.683ZM45.6539 118.943L48.9437 118.98L48.9349 119.76L45.6451 119.723L45.6539 118.943ZM56.5745 113.615C56.423 114.634 56.2099 115.801 55.8466 116.977C55.2239 118.99 54.35 120.221 53.2601 120.208C52.1402 120.196 51.2341 118.955 51.2531 117.266C51.2789 114.966 53.3111 113.008 55.9009 113.038C58.3708 113.065 59.9213 114.803 59.8967 116.993C59.8731 119.093 58.5664 120.568 56.0422 120.93L55.2955 119.741C55.686 119.696 55.9666 119.649 56.2372 119.592C57.5106 119.296 58.5208 118.397 58.5373 116.927C58.555 115.358 57.5877 114.227 55.8578 114.207C53.7379 114.183 52.5585 115.9 52.5443 117.16C52.533 118.17 52.9275 118.664 53.3074 118.669C53.7374 118.674 54.1246 118.038 54.5597 116.693C54.8603 115.756 55.0932 114.609 55.205 113.56L56.5745 113.615ZM64.2842 113.682L70.1938 113.748L70.1826 114.748L64.273 114.682L64.2842 113.682ZM65.0252 117.15L66.3552 117.165L66.3454 118.035L65.0155 118.02L65.0252 117.15ZM67.0046 117.223L70.2044 117.259L70.1941 118.169L66.9943 118.133L67.0046 117.223ZM66.5913 119.288L70.3011 119.33L70.2908 120.24L66.5811 120.198L66.5913 119.288ZM66.6423 112.088L67.7422 112.101L67.6908 116.67L66.5909 116.658L66.6423 112.088ZM67.2504 117.596L68.0803 117.605L68.0567 119.705L67.2268 119.695L67.2504 117.596ZM68.6127 116.511L69.6426 116.522L69.5865 121.512L68.5565 121.5L68.6127 116.511ZM68.9002 112.284L69.926 112.665C69.5907 113.132 69.2457 113.578 68.9821 113.895L68.1759 113.556C68.4299 113.198 68.736 112.662 68.9002 112.284ZM67.9479 114.263C68.4407 114.909 69.4239 115.52 70.3808 115.801C70.1485 115.998 69.8343 116.374 69.6814 116.633C68.6758 116.231 67.6849 115.42 67.1145 114.564L67.9479 114.263ZM64.3453 118.923L64.8519 118.339C65.1793 118.572 65.5954 118.917 65.8128 119.149L65.2854 119.804C65.0882 119.551 64.6723 119.187 64.3453 118.923ZM64.586 112.635L65.4703 112.255C65.7761 112.629 66.0904 113.142 66.2063 113.504L65.2716 113.923C65.1755 113.572 64.8815 113.039 64.586 112.635ZM65.0637 116.401L65.9915 116.601C65.6586 117.748 65.0471 118.761 64.3199 119.403C64.1517 119.241 63.7953 118.917 63.5869 118.774C64.283 118.232 64.8028 117.368 65.0637 116.401ZM66.3881 114.236L67.2643 114.575C66.6645 115.449 65.6354 116.247 64.6009 116.646C64.4437 116.394 64.148 116.011 63.9203 115.808C64.8836 115.519 65.8806 114.9 66.3881 114.236ZM66.1852 117.163L66.3752 117.166L66.5455 117.138L67.1231 117.354C66.6781 119.569 65.6438 120.838 64.2365 121.482C64.0985 121.3 63.7325 120.946 63.5141 120.804C64.8804 120.249 65.8328 119.15 66.1835 117.313L66.1852 117.163ZM61.3778 112.459L63.4776 112.483L63.4656 113.553L62.3757 113.54L62.2868 121.44L61.2769 121.429L61.3778 112.459ZM63.2377 112.48L63.4176 112.482L63.5681 112.444L64.3134 112.862C64.0838 113.72 63.7813 114.826 63.5222 115.633C64.0435 116.409 64.1358 117.1 64.1293 117.67C64.1223 118.3 63.9975 118.719 63.705 118.946C63.5639 119.044 63.3831 119.112 63.1828 119.14C63.0225 119.158 62.8024 119.166 62.5926 119.153C62.5857 118.873 62.5204 118.452 62.3636 118.171C62.5234 118.192 62.6334 118.194 62.7335 118.185C62.8335 118.186 62.9237 118.167 62.9844 118.108C63.0854 118.019 63.1278 117.799 63.1311 117.509C63.1363 117.049 63.0534 116.418 62.591 115.733C62.8313 114.826 63.1069 113.439 63.2339 112.81L63.2377 112.48ZM74.8391 112.421L76.209 112.436C76.1001 114.115 75.9152 118.993 71.7972 121.457C71.5907 121.145 71.2049 120.77 70.7981 120.486C74.8429 118.301 74.7543 113.73 74.8391 112.421ZM76.1661 112.695C76.1863 113.566 76.3401 118.558 80.4183 120.524C80.035 120.809 79.6706 121.205 79.4869 121.533C75.2012 119.345 75.0732 113.833 75.0048 112.802L76.1661 112.695Z" fill="#222547"/>
</g>
</g>
<path d="M58 54C58 54 54.85 50 47.5 50C40.15 50 37 54 37 54V82C37 82 40.15 80 47.5 80C54.85 80 58 82 58 82M58 54V82M58 54C58 54 61.15 50 68.5 50C75.85 50 79 54 79 54V82C79 82 75.85 80 68.5 80C61.15 80 58 82 58 82" stroke="#FFFCFC" stroke-width="2" stroke-linecap="round" stroke-linejoin="round"/>
<defs>
<filter id="filter0_d_335_382" x="0" y="0" width="116" height="130.898" filterUnits="userSpaceOnUse" color-interpolation-filters="sRGB">
<feFlood flood-opacity="0" result="BackgroundImageFix"/>
<feColorMatrix in="SourceAlpha" type="matrix" values="0 0 0 0 0 0 0 0 0 0 0 0 0 0 0 0 0 0 127 0" result="hardAlpha"/>
<feOffset dy="2"/>
<feComposite in2="hardAlpha" operator="out"/>
<feColorMatrix type="matrix" values="0 0 0 0 0 0 0 0 0 0 0 0 0 0 0 0 0 0 0.25 0"/>
<feBlend mode="normal" in2="BackgroundImageFix" result="effect1_dropShadow_335_382"/>
<feBlend mode="normal" in="SourceGraphic" in2="effect1_dropShadow_335_382" result="shape"/>
</filter>
<linearGradient id="paint0_linear_335_382" x1="58" y1="0" x2="58" y2="116" gradientUnits="userSpaceOnUse">
<stop stop-color="#DC5DCB"/>
<stop offset="1" stop-color="#748DED"/>
</linearGradient>
<clipPath id="clip0_335_382">
<path d="M83.2657 104.765C89.8927 104.839 95.2045 110.272 95.1299 116.899V116.899C95.0554 123.526 89.6227 128.838 82.9957 128.763L26.9993 128.133C20.3723 128.059 15.0605 122.626 15.135 115.999V115.999C15.2095 109.372 20.6422 104.06 27.2692 104.135L83.2657 104.765Z" fill="white"/>
</clipPath>
</defs>
</svg>
