<svg width="116" height="131" viewBox="0 0 116 131" fill="none" xmlns="http://www.w3.org/2000/svg">
<g filter="url(#filter0_d_335_383)">
<rect x="1" y="1" width="114" height="114" rx="57" fill="url(#paint0_linear_335_383)"/>
<rect x="1" y="1" width="114" height="114" rx="57" stroke="white" stroke-width="2"/>
<path d="M37.906 34.4137C36.646 34.4206 35.8136 33.9753 35.14 33.329L35.8248 32.4052C36.3576 32.8922 36.9294 33.2191 37.7294 33.2146C38.5794 33.2099 39.2468 32.7462 39.2419 31.8562C39.237 30.9762 38.5744 30.5199 37.7444 30.5245C37.2045 30.5275 36.785 30.6298 36.3067 30.9425L35.6244 30.5163L35.8141 26.8651L40.3841 26.8398L40.391 28.0898L37.081 28.1081L36.9599 29.6988C37.319 29.5368 37.7085 29.4547 38.1585 29.4522C39.4985 29.4447 40.7126 30.188 40.7216 31.808C40.7309 33.488 39.406 34.4053 37.906 34.4137ZM47.7577 31.089L52.3677 31.0634L52.3898 35.0633L51.1899 35.07L51.1737 32.15L48.8937 32.1627L48.9102 35.1326L47.7802 35.1389L47.7577 31.089ZM51.6386 25.8174L52.4841 26.8127C51.1263 27.2202 49.2876 27.4604 47.7083 27.5792C47.6667 27.2894 47.5042 26.8403 47.3627 26.5711C48.8819 26.4327 50.5805 26.1632 51.6386 25.8174ZM49.3638 26.77L50.5938 26.7632L50.6207 31.6131L49.3907 31.6199L49.3638 26.77ZM47.2142 28.6419L52.7641 28.6112L52.7703 29.7411L47.2204 29.7719L47.2142 28.6419ZM48.5315 33.5647L51.7514 33.5468L51.7574 34.6268L48.5375 34.6447L48.5315 33.5647ZM43.8055 28.9008L46.8255 28.8841L46.8305 29.7841L43.8105 29.8008L43.8055 28.9008ZM43.8498 26.0706L46.8098 26.0541L46.8148 26.9641L43.8549 26.9805L43.8498 26.0706ZM43.8133 30.3008L46.8333 30.2841L46.8382 31.1841L43.8183 31.2008L43.8133 30.3008ZM43.3076 27.4636L47.1375 27.4423L47.1427 28.3823L43.3128 28.4036L43.3076 27.4636ZM44.4111 31.7075L46.8911 31.6938L46.9079 34.7337L44.428 34.7475L44.4228 33.8075L45.8727 33.7995L45.8664 32.6495L44.4164 32.6575L44.4111 31.7075ZM43.7911 31.711L44.8011 31.7054L44.8202 35.1453L43.8102 35.1509L43.7911 31.711ZM62.0105 27.9399C61.9015 28.1305 61.763 28.4012 61.6844 28.6517C61.4194 29.5532 60.8568 30.8863 59.953 32.0013C59.0094 33.1666 57.8146 34.0932 55.9387 34.8436L54.7529 33.8002C56.7894 33.1689 57.8946 32.2928 58.7691 31.2979C59.4447 30.5141 60.0181 29.3109 60.174 28.57L56.804 28.5887L57.2577 27.4462C57.6977 27.4438 59.7976 27.4321 60.1076 27.4304C60.4176 27.4287 60.7574 27.3868 60.977 27.3056L62.0105 27.9399ZM58.7417 26.368C58.5037 26.7193 58.2462 27.1807 58.1374 27.3913C57.4641 28.6051 56.2819 30.0217 54.8474 31.0096L53.7228 30.1859C55.4669 29.1062 56.3397 27.8113 56.8249 26.9486C56.9736 26.7078 57.181 26.2466 57.2691 25.8961L58.7417 26.368ZM71.0317 26.3398C71.0133 26.6199 71.0051 26.9399 71.0074 27.3499C71.0102 27.8599 71.0156 28.8299 71.0183 29.3199C71.0303 31.4799 70.6154 32.4022 69.8699 33.2263C69.214 33.96 68.1867 34.4457 67.458 34.6897L66.4019 33.5856C67.4006 33.35 68.1985 32.9656 68.8048 32.3122C69.4807 31.5585 69.6165 30.8077 69.6079 29.2477C69.6051 28.7477 69.5998 27.7878 69.5974 27.3578C69.5951 26.9478 69.5633 26.6279 69.5218 26.3482L71.0317 26.3398ZM66.4023 26.4555C66.3836 26.6856 66.3648 26.9057 66.3665 27.2157C66.369 27.6557 66.3822 30.0356 66.3853 30.5956C66.3867 30.8456 66.4088 31.2355 66.4301 31.4654L64.9701 31.4735C64.9891 31.2934 65.017 30.9032 65.0152 30.5932C65.0121 30.0232 64.999 27.6633 64.9966 27.2233C64.9956 27.0433 64.9836 26.6933 64.9523 26.4635L66.4023 26.4555ZM82.5571 27.2759C82.4578 27.4064 82.2692 27.6475 82.18 27.788C81.7143 28.5706 80.7713 29.8458 79.7852 30.5513L78.7407 29.7271C79.5479 29.2326 80.323 28.3483 80.5803 27.8568C79.9703 27.8602 75.9904 27.8823 75.3604 27.8858C74.9504 27.8881 74.6105 27.91 74.1408 27.9626L74.133 26.5626C74.5234 26.6204 74.9436 26.6681 75.3536 26.6658C75.9836 26.6623 80.2235 26.6388 80.7435 26.6359C81.0235 26.6344 81.5733 26.5913 81.763 26.5403L82.5571 27.2759ZM78.4946 28.6384C78.5084 31.1184 78.4597 33.1587 75.7479 34.6438L74.5726 33.7003C74.902 33.5884 75.2611 33.4164 75.6295 33.1344C76.8846 32.2474 77.1188 31.1961 77.1097 29.5561C77.1079 29.2361 77.0965 28.9762 77.0446 28.6465L78.4946 28.6384Z" fill="white"/>
<g clip-path="url(#clip0_335_383)">
<path d="M83.2657 104.765C89.8927 104.839 95.2045 110.272 95.1299 116.899V116.899C95.0554 123.526 89.6227 128.838 82.9957 128.763L26.9993 128.133C20.3723 128.059 15.0605 122.626 15.135 115.999V115.999C15.2095 109.372 20.6422 104.06 27.2692 104.135L83.2657 104.765Z" fill="white"/>
<path d="M34.8928 115.421L40.3824 115.483L40.37 116.593L34.8803 116.531L34.8928 115.421ZM38.1872 115.939C38.497 117.732 39.1688 119.36 40.3999 120.154C40.1272 120.391 39.722 120.856 39.5283 121.184C38.1997 120.159 37.5405 118.311 37.1851 116.117L38.1872 115.939ZM39.2939 111.791L40.1829 112.771C38.8068 113.305 36.8739 113.554 35.2028 113.645C35.166 113.354 35.0012 112.893 34.8544 112.611C36.4559 112.489 38.229 112.219 39.2939 111.791ZM31.0421 113.678L34.2819 113.714L34.2695 114.824L31.0297 114.788L31.0421 113.678ZM32.4046 111.693L33.5331 111.826C33.1292 113.952 32.5191 116.625 32.0289 118.419L31.0548 117.888C31.5024 116.323 32.0722 113.68 32.4046 111.693ZM31.5665 117.744L32.2259 116.912C33.199 117.523 34.4088 118.436 34.9511 119.132L34.2203 120.084C33.7082 119.378 32.5392 118.395 31.5665 117.744ZM33.852 113.71L34.052 113.712L34.2623 113.684L34.9708 113.822C34.6969 117.719 33.7021 119.918 31.6984 121.126C31.5418 120.824 31.2367 120.391 30.9893 120.158C32.6992 119.287 33.624 117.087 33.8495 113.93L33.852 113.71ZM36.9719 112.845L38.1718 112.858L38.1434 115.388C38.1211 117.368 37.6955 119.643 35.1382 121.165C34.9214 120.882 34.5154 120.518 34.2081 120.284C36.6039 118.891 36.9257 116.954 36.9436 115.365L36.9719 112.845ZM42.2934 111.854L43.3633 111.866L43.2585 121.186L42.1886 121.174L42.2934 111.854ZM40.9864 115.13L44.2862 115.167L44.2736 116.287L40.9739 116.25L40.9864 115.13ZM42.2396 115.744L42.9059 116.082C42.5809 117.408 41.9813 119.151 41.3205 120.104C41.2247 119.733 40.9608 119.19 40.7846 118.848C41.3729 118.115 41.9785 116.731 42.2396 115.744ZM43.3328 116.356C43.5897 116.629 44.4463 117.829 44.6329 118.131L43.8626 119.043C43.6493 118.45 43.0819 117.324 42.7777 116.81L43.3328 116.356ZM41.0047 112.62L41.7869 112.429C42.0488 113.152 42.2283 114.084 42.2713 114.704L41.4391 114.895C41.416 114.285 41.2367 113.333 41.0047 112.62ZM43.7873 112.401L44.735 112.612C44.4862 113.389 44.1957 114.326 43.9592 114.903L43.2515 114.695C43.4484 114.078 43.6794 113.1 43.7873 112.401ZM44.8554 112.573L50.0651 112.632L50.0554 113.492L44.8458 113.433L44.8554 112.573ZM45.0814 113.826L49.8411 113.879L49.832 114.689L45.0723 114.636L45.0814 113.826ZM44.5475 115.06L50.2971 115.125L50.2873 115.995L44.5377 115.93L44.5475 115.06ZM46.8034 111.875L47.9433 111.888L47.9017 115.588L46.7618 115.575L46.8034 111.875ZM45.053 116.346L48.8528 116.389L48.8432 117.238L46.1634 117.208L46.1179 121.258L44.9979 121.245L45.053 116.346ZM48.5828 116.385L49.7027 116.398L49.6599 120.208C49.6543 120.708 49.5613 120.967 49.2096 121.123C48.8679 121.269 48.3978 121.274 47.7579 121.267C47.7111 120.976 47.5856 120.575 47.4587 120.303C47.8284 120.327 48.2484 120.332 48.3684 120.333C48.4984 120.335 48.5388 120.295 48.5401 120.185L48.5828 116.385ZM45.668 117.683L48.9578 117.72L48.9491 118.5L45.6593 118.463L45.668 117.683ZM45.6539 118.943L48.9437 118.98L48.9349 119.76L45.6451 119.723L45.6539 118.943ZM56.5745 113.615C56.423 114.634 56.2099 115.801 55.8466 116.977C55.2239 118.99 54.35 120.221 53.2601 120.208C52.1402 120.196 51.2341 118.955 51.2531 117.266C51.2789 114.966 53.3111 113.008 55.9009 113.038C58.3708 113.065 59.9213 114.803 59.8967 116.993C59.8731 119.093 58.5664 120.568 56.0422 120.93L55.2955 119.741C55.686 119.696 55.9666 119.649 56.2372 119.592C57.5106 119.296 58.5208 118.397 58.5373 116.927C58.555 115.358 57.5877 114.227 55.8578 114.207C53.7379 114.183 52.5585 115.9 52.5443 117.16C52.533 118.17 52.9275 118.664 53.3074 118.669C53.7374 118.674 54.1246 118.038 54.5597 116.693C54.8603 115.756 55.0932 114.609 55.205 113.56L56.5745 113.615ZM64.8141 116.358C65.6305 118.467 67.405 119.857 70.2192 120.389C69.9464 120.636 69.6005 121.152 69.4268 121.48C66.4943 120.797 64.7721 119.208 63.7607 116.656L64.8141 116.358ZM67.8807 115.792L68.1107 115.795L68.3312 115.748L69.1472 116.107C68.3137 119.088 66.316 120.645 63.707 121.436C63.5605 121.124 63.2757 120.661 63.0385 120.408C65.3651 119.834 67.2318 118.355 67.8783 116.002L67.8807 115.792ZM61.2959 113.518L70.0253 113.616L70.0123 114.776L61.2828 114.678L61.2959 113.518ZM64.1009 115.75L68.0007 115.794L67.9876 116.954L63.7479 116.906L64.1009 115.75ZM63.8125 112.056L65.0624 112.071C64.9647 113.64 64.7603 118.478 61.851 121.065C61.6046 120.742 61.228 120.438 60.8208 120.193C63.7068 117.896 63.7387 113.276 63.8125 112.056ZM74.8391 112.421L76.209 112.436C76.1001 114.115 75.9152 118.993 71.7972 121.457C71.5907 121.145 71.2049 120.77 70.7981 120.486C74.8429 118.301 74.7543 113.73 74.8391 112.421ZM76.1661 112.695C76.1863 113.566 76.3401 118.558 80.4183 120.524C80.035 120.809 79.6706 121.205 79.4869 121.533C75.2012 119.345 75.0732 113.833 75.0048 112.802L76.1661 112.695Z" fill="#222547"/>
</g>
</g>
<path d="M59 48.212L57.8993 49.316C58.1992 49.5704 58.5916 49.7116 58.9989 49.7116C59.4062 49.7116 59.7986 49.5704 60.0985 49.316L59 48.212ZM55.9493 58.392C54.4543 57.386 52.8575 56.162 51.6528 54.872C50.4091 53.542 49.7916 52.364 49.7916 51.43H46.5416C46.5416 53.464 47.794 55.338 49.1915 56.832C50.628 58.368 52.4436 59.746 54.034 60.816L55.9493 58.392ZM49.7916 51.43C49.7916 49.312 50.9183 48.104 52.2746 47.684C53.6873 47.244 55.7933 47.528 57.8993 49.316L60.0985 47.108C57.3316 44.76 54.0253 43.976 51.239 44.84C48.3941 45.724 46.5416 48.192 46.5416 51.43H49.7916ZM63.966 60.816C65.5563 59.748 67.372 58.368 68.8085 56.832C70.206 55.338 71.4583 53.464 71.4583 51.43H68.2083C68.2083 52.364 67.593 53.542 66.3471 54.872C65.1425 56.162 63.5478 57.386 62.0528 58.392L63.966 60.816ZM71.4583 51.43C71.4583 48.192 69.6058 45.724 66.7631 44.84C63.9768 43.976 60.6683 44.76 57.9015 47.108L60.1006 49.316C62.2066 47.528 64.3148 47.244 65.7275 47.684C67.0816 48.104 68.2083 49.312 68.2083 51.43H71.4583ZM54.034 60.816C55.6698 61.916 56.9676 62.852 59 62.852V59.852C58.2091 59.852 57.7758 59.622 55.9493 58.392L54.034 60.816ZM62.0506 58.392C60.2241 59.622 59.7908 59.852 59 59.852V62.852C61.0323 62.852 62.3301 61.918 63.966 60.816L62.0506 58.392Z" fill="#FFFEFE"/>
<path d="M41.6666 84.7759H46.5633C48.7516 84.7759 50.9681 84.9879 53.098 85.3919C56.9007 86.1108 60.8128 86.1908 64.6463 85.6279M62.6313 79.0339C62.8913 79.0059 63.1405 78.9746 63.3788 78.9399C65.3526 78.6499 67.0101 77.6739 68.5268 76.6159L72.4441 73.8859C73.1434 73.4176 73.9852 73.1653 74.8491 73.1653C75.7131 73.1653 76.5549 73.4176 77.2541 73.8859C78.4956 74.7519 78.877 76.1779 78.0905 77.3419C77.174 78.6979 75.8826 80.4319 74.6433 81.4919M62.6313 79.0339L62.393 79.0579M62.6313 79.0339C62.978 78.9472 63.2959 78.7823 63.5565 78.5539C63.8835 78.2935 64.1506 77.9752 64.3419 77.6178C64.5332 77.2604 64.6449 76.8712 64.6704 76.4732C64.6958 76.0752 64.6345 75.6766 64.4901 75.3009C64.3456 74.9252 64.121 74.5801 63.8295 74.2859C63.5471 73.9966 63.2183 73.749 62.8545 73.5519C56.7943 70.2139 47.3628 72.7559 41.6666 76.4859M62.6313 79.0339C62.5531 79.05 62.4731 79.0581 62.393 79.0579M62.393 79.0579C61.0863 79.1788 59.7699 79.1815 58.4626 79.0659" stroke="#FFFEFE" stroke-width="1.5" stroke-linecap="round"/>
<defs>
<filter id="filter0_d_335_383" x="0" y="0" width="116" height="130.898" filterUnits="userSpaceOnUse" color-interpolation-filters="sRGB">
<feFlood flood-opacity="0" result="BackgroundImageFix"/>
<feColorMatrix in="SourceAlpha" type="matrix" values="0 0 0 0 0 0 0 0 0 0 0 0 0 0 0 0 0 0 127 0" result="hardAlpha"/>
<feOffset dy="2"/>
<feComposite in2="hardAlpha" operator="out"/>
<feColorMatrix type="matrix" values="0 0 0 0 0 0 0 0 0 0 0 0 0 0 0 0 0 0 0.25 0"/>
<feBlend mode="normal" in2="BackgroundImageFix" result="effect1_dropShadow_335_383"/>
<feBlend mode="normal" in="SourceGraphic" in2="effect1_dropShadow_335_383" result="shape"/>
</filter>
<linearGradient id="paint0_linear_335_383" x1="58" y1="0" x2="58" y2="116" gradientUnits="userSpaceOnUse">
<stop stop-color="#DC5DCB"/>
<stop offset="1" stop-color="#748DED"/>
</linearGradient>
<clipPath id="clip0_335_383">
<path d="M83.2657 104.765C89.8927 104.839 95.2045 110.272 95.1299 116.899V116.899C95.0554 123.526 89.6227 128.838 82.9957 128.763L26.9993 128.133C20.3723 128.059 15.0605 122.626 15.135 115.999V115.999C15.2095 109.372 20.6422 104.06 27.2692 104.135L83.2657 104.765Z" fill="white"/>
</clipPath>
</defs>
</svg>
