<svg width="116" height="131" viewBox="0 0 116 131" fill="none" xmlns="http://www.w3.org/2000/svg">
<g filter="url(#filter0_d_335_384)">
<rect x="1" y="1" width="114" height="114" rx="57" fill="url(#paint0_linear_335_384)"/>
<rect x="1" y="1" width="114" height="114" rx="57" stroke="white" stroke-width="2"/>
<path d="M37.9745 26.9332C37.1511 28.1177 35.6286 29.4762 33.9937 30.3953C33.8321 30.1162 33.4897 29.6781 33.2283 29.4295C34.9435 28.55 36.5549 27.001 37.288 25.7569L38.538 25.75C39.6165 27.2841 41.2537 28.585 42.8475 29.2562C42.5492 29.5678 42.2814 29.9693 42.0635 30.3405C40.5188 29.4991 38.8311 28.1184 37.9745 26.9332ZM34.6006 31.6419L41.4405 31.604L41.4463 32.644L34.6064 32.6819L34.6006 31.6419ZM35.0983 29.4292L40.9682 29.3966L40.9741 30.4466L35.1042 30.4791L35.0983 29.4292ZM33.8131 33.8964L42.353 33.849L42.3589 34.919L33.819 34.9663L33.8131 33.8964ZM37.3609 29.8866L38.6309 29.8796L38.6563 34.4695L37.3864 34.4765L37.3609 29.8866ZM47.7577 31.089L52.3677 31.0634L52.3898 35.0633L51.1899 35.07L51.1737 32.15L48.8937 32.1627L48.9102 35.1326L47.7802 35.1389L47.7577 31.089ZM51.6386 25.8174L52.4841 26.8127C51.1263 27.2202 49.2876 27.4604 47.7083 27.5792C47.6667 27.2894 47.5042 26.8403 47.3627 26.5711C48.8819 26.4327 50.5805 26.1632 51.6386 25.8174ZM49.3638 26.77L50.5938 26.7632L50.6207 31.6131L49.3907 31.6199L49.3638 26.77ZM47.2142 28.6419L52.7641 28.6112L52.7703 29.7411L47.2204 29.7719L47.2142 28.6419ZM48.5315 33.5647L51.7514 33.5468L51.7574 34.6268L48.5375 34.6447L48.5315 33.5647ZM43.8055 28.9008L46.8255 28.8841L46.8305 29.7841L43.8105 29.8008L43.8055 28.9008ZM43.8498 26.0706L46.8098 26.0541L46.8148 26.9641L43.8549 26.9805L43.8498 26.0706ZM43.8133 30.3008L46.8333 30.2841L46.8382 31.1841L43.8183 31.2008L43.8133 30.3008ZM43.3076 27.4636L47.1375 27.4423L47.1427 28.3823L43.3128 28.4036L43.3076 27.4636ZM44.4111 31.7075L46.8911 31.6938L46.9079 34.7337L44.428 34.7475L44.4228 33.8075L45.8727 33.7995L45.8664 32.6495L44.4164 32.6575L44.4111 31.7075ZM43.7911 31.711L44.8011 31.7054L44.8202 35.1453L43.8102 35.1509L43.7911 31.711ZM62.0105 27.9399C61.9015 28.1305 61.763 28.4012 61.6844 28.6517C61.4194 29.5532 60.8568 30.8863 59.953 32.0013C59.0094 33.1666 57.8146 34.0932 55.9387 34.8436L54.7529 33.8002C56.7894 33.1689 57.8946 32.2928 58.7691 31.2979C59.4447 30.5141 60.0181 29.3109 60.174 28.57L56.804 28.5887L57.2577 27.4462C57.6977 27.4438 59.7976 27.4321 60.1076 27.4304C60.4176 27.4287 60.7574 27.3868 60.977 27.3056L62.0105 27.9399ZM58.7417 26.368C58.5037 26.7193 58.2462 27.1807 58.1374 27.3913C57.4641 28.6051 56.2819 30.0217 54.8474 31.0096L53.7228 30.1859C55.4669 29.1062 56.3397 27.8113 56.8249 26.9486C56.9736 26.7078 57.181 26.2466 57.2691 25.8961L58.7417 26.368ZM71.0317 26.3398C71.0133 26.6199 71.0051 26.9399 71.0074 27.3499C71.0102 27.8599 71.0156 28.8299 71.0183 29.3199C71.0303 31.4799 70.6154 32.4022 69.8699 33.2263C69.214 33.96 68.1867 34.4457 67.458 34.6897L66.4019 33.5856C67.4006 33.35 68.1985 32.9656 68.8048 32.3122C69.4807 31.5585 69.6165 30.8077 69.6079 29.2477C69.6051 28.7477 69.5998 27.7878 69.5974 27.3578C69.5951 26.9478 69.5633 26.6279 69.5218 26.3482L71.0317 26.3398ZM66.4023 26.4555C66.3836 26.6856 66.3648 26.9057 66.3665 27.2157C66.369 27.6557 66.3822 30.0356 66.3853 30.5956C66.3867 30.8456 66.4088 31.2355 66.4301 31.4654L64.9701 31.4735C64.9891 31.2934 65.017 30.9032 65.0152 30.5932C65.0121 30.0232 64.999 27.6633 64.9966 27.2233C64.9956 27.0433 64.9836 26.6933 64.9523 26.4635L66.4023 26.4555ZM82.5571 27.2759C82.4578 27.4064 82.2692 27.6475 82.18 27.788C81.7143 28.5706 80.7713 29.8458 79.7852 30.5513L78.7407 29.7271C79.5479 29.2326 80.323 28.3483 80.5803 27.8568C79.9703 27.8602 75.9904 27.8823 75.3604 27.8858C74.9504 27.8881 74.6105 27.91 74.1408 27.9626L74.133 26.5626C74.5234 26.6204 74.9436 26.6681 75.3536 26.6658C75.9836 26.6623 80.2235 26.6388 80.7435 26.6359C81.0235 26.6344 81.5733 26.5913 81.763 26.5403L82.5571 27.2759ZM78.4946 28.6384C78.5084 31.1184 78.4597 33.1587 75.7479 34.6438L74.5726 33.7003C74.902 33.5884 75.2611 33.4164 75.6295 33.1344C76.8846 32.2474 77.1188 31.1961 77.1097 29.5561C77.1079 29.2361 77.0965 28.9762 77.0446 28.6465L78.4946 28.6384Z" fill="white"/>
<g clip-path="url(#clip0_335_384)">
<path d="M83.2657 104.765C89.8927 104.839 95.2045 110.272 95.1299 116.899V116.899C95.0554 123.526 89.6227 128.838 82.9957 128.763L26.9993 128.133C20.3723 128.059 15.0605 122.626 15.135 115.999V115.999C15.2095 109.372 20.6422 104.06 27.2692 104.135L83.2657 104.765Z" fill="white"/>
<path d="M34.8928 115.421L40.3824 115.483L40.37 116.593L34.8803 116.531L34.8928 115.421ZM38.1872 115.939C38.497 117.732 39.1688 119.36 40.3999 120.154C40.1272 120.391 39.722 120.856 39.5283 121.184C38.1997 120.159 37.5405 118.311 37.1851 116.117L38.1872 115.939ZM39.2939 111.791L40.1829 112.771C38.8068 113.305 36.8739 113.554 35.2028 113.645C35.166 113.354 35.0012 112.893 34.8544 112.611C36.4559 112.489 38.229 112.219 39.2939 111.791ZM31.0421 113.678L34.2819 113.714L34.2695 114.824L31.0297 114.788L31.0421 113.678ZM32.4046 111.693L33.5331 111.826C33.1292 113.952 32.5191 116.625 32.0289 118.419L31.0548 117.888C31.5024 116.323 32.0722 113.68 32.4046 111.693ZM31.5665 117.744L32.2259 116.912C33.199 117.523 34.4088 118.436 34.9511 119.132L34.2203 120.084C33.7082 119.378 32.5392 118.395 31.5665 117.744ZM33.852 113.71L34.052 113.712L34.2623 113.684L34.9708 113.822C34.6969 117.719 33.7021 119.918 31.6984 121.126C31.5418 120.824 31.2367 120.391 30.9893 120.158C32.6992 119.287 33.624 117.087 33.8495 113.93L33.852 113.71ZM36.9719 112.845L38.1718 112.858L38.1434 115.388C38.1211 117.368 37.6955 119.643 35.1382 121.165C34.9214 120.882 34.5154 120.518 34.2081 120.284C36.6039 118.891 36.9257 116.954 36.9436 115.365L36.9719 112.845ZM42.2934 111.854L43.3633 111.866L43.2585 121.186L42.1886 121.174L42.2934 111.854ZM40.9864 115.13L44.2862 115.167L44.2736 116.287L40.9739 116.25L40.9864 115.13ZM42.2396 115.744L42.9059 116.082C42.5809 117.408 41.9813 119.151 41.3205 120.104C41.2247 119.733 40.9608 119.19 40.7846 118.848C41.3729 118.115 41.9785 116.731 42.2396 115.744ZM43.3328 116.356C43.5897 116.629 44.4463 117.829 44.6329 118.131L43.8626 119.043C43.6493 118.45 43.0819 117.324 42.7777 116.81L43.3328 116.356ZM41.0047 112.62L41.7869 112.429C42.0488 113.152 42.2283 114.084 42.2713 114.704L41.4391 114.895C41.416 114.285 41.2367 113.333 41.0047 112.62ZM43.7873 112.401L44.735 112.612C44.4862 113.389 44.1957 114.326 43.9592 114.903L43.2515 114.695C43.4484 114.078 43.6794 113.1 43.7873 112.401ZM44.8554 112.573L50.0651 112.632L50.0554 113.492L44.8458 113.433L44.8554 112.573ZM45.0814 113.826L49.8411 113.879L49.832 114.689L45.0723 114.636L45.0814 113.826ZM44.5475 115.06L50.2971 115.125L50.2873 115.995L44.5377 115.93L44.5475 115.06ZM46.8034 111.875L47.9433 111.888L47.9017 115.588L46.7618 115.575L46.8034 111.875ZM45.053 116.346L48.8528 116.389L48.8432 117.238L46.1634 117.208L46.1179 121.258L44.9979 121.245L45.053 116.346ZM48.5828 116.385L49.7027 116.398L49.6599 120.208C49.6543 120.708 49.5613 120.967 49.2096 121.123C48.8679 121.269 48.3978 121.274 47.7579 121.267C47.7111 120.976 47.5856 120.575 47.4587 120.303C47.8284 120.327 48.2484 120.332 48.3684 120.333C48.4984 120.335 48.5388 120.295 48.5401 120.185L48.5828 116.385ZM45.668 117.683L48.9578 117.72L48.9491 118.5L45.6593 118.463L45.668 117.683ZM45.6539 118.943L48.9437 118.98L48.9349 119.76L45.6451 119.723L45.6539 118.943ZM56.5745 113.615C56.423 114.634 56.2099 115.801 55.8466 116.977C55.2239 118.99 54.35 120.221 53.2601 120.208C52.1402 120.196 51.2341 118.955 51.2531 117.266C51.2789 114.966 53.3111 113.008 55.9009 113.038C58.3708 113.065 59.9213 114.803 59.8967 116.993C59.8731 119.093 58.5664 120.568 56.0422 120.93L55.2955 119.741C55.686 119.696 55.9666 119.649 56.2372 119.592C57.5106 119.296 58.5208 118.397 58.5373 116.927C58.555 115.358 57.5877 114.227 55.8578 114.207C53.7379 114.183 52.5585 115.9 52.5443 117.16C52.533 118.17 52.9275 118.664 53.3074 118.669C53.7374 118.674 54.1246 118.038 54.5597 116.693C54.8603 115.756 55.0932 114.609 55.205 113.56L56.5745 113.615ZM61.1622 112.957L65.4419 113.005L65.4308 113.995L61.151 113.947L61.1622 112.957ZM60.9657 115.305L65.4955 115.356L65.4842 116.356L60.9545 116.305L60.9657 115.305ZM62.732 112.094L63.8819 112.107L63.8643 113.667L62.7144 113.654L62.732 112.094ZM62.7247 116.295L63.8747 116.307L63.817 121.437L62.667 121.424L62.7247 116.295ZM62.7008 117.534L63.5253 118.024C63.0932 119.099 62.2401 120.259 61.4126 120.92C61.2658 120.638 60.9904 120.225 60.7529 120.003C61.5286 119.501 62.3199 118.5 62.7008 117.534ZM63.7151 118.046C64.0525 118.28 65.142 119.222 65.3994 119.455L64.6496 120.316C64.3049 119.843 63.485 118.943 63.0695 118.539L63.7151 118.046ZM61.6596 114.072L62.5818 113.883C62.7573 114.285 62.9011 114.836 62.927 115.207L61.9644 115.426C61.9485 115.066 61.8249 114.494 61.6596 114.072ZM63.9221 113.868L64.9897 114.09C64.8042 114.578 64.6386 115.076 64.4947 115.414L63.587 115.204C63.7013 114.825 63.8576 114.267 63.9221 113.868ZM66.8382 115.121L66.8312 115.741L68.7511 115.762L68.7581 115.142L66.8382 115.121ZM66.8206 116.681L66.8136 117.311L68.7334 117.332L68.7405 116.702L66.8206 116.681ZM66.8556 113.571L66.8486 114.191L68.7685 114.212L68.7755 113.592L66.8556 113.571ZM65.7974 112.519L69.9071 112.565L69.8417 118.385L65.7319 118.338L65.7974 112.519ZM67.8253 118.052L68.9052 118.064L68.8832 120.024C68.8802 120.284 68.8999 120.314 69.0199 120.316C69.0599 120.316 69.2199 120.318 69.2799 120.319C69.4199 120.32 69.4512 120.2 69.4834 119.121C69.6913 119.303 70.1593 119.488 70.4485 119.562C70.3423 121 70.0583 121.357 69.3983 121.35C69.2283 121.348 68.9683 121.345 68.8083 121.343C67.9584 121.334 67.7922 120.992 67.803 120.032L67.8253 118.052ZM66.2748 118.085L67.3548 118.097C67.2267 119.705 66.8839 120.842 65.2165 121.483C65.1095 121.222 64.8141 120.808 64.5864 120.606C65.9618 120.131 66.1711 119.303 66.2748 118.085ZM61.0261 117.055L65.3758 117.104L65.3645 118.104L61.0148 118.055L61.0261 117.055ZM74.8135 116.47C75.6298 118.58 77.4043 119.97 80.2185 120.502C79.9457 120.748 79.5999 121.265 79.4262 121.593C76.4937 120.91 74.7715 119.32 73.7601 116.769L74.8135 116.47ZM77.8801 115.905L78.1101 115.908L78.3306 115.86L79.1466 116.219C78.313 119.2 76.3154 120.758 73.7063 121.548C73.5598 121.237 73.275 120.773 73.0378 120.521C75.3644 119.947 77.2312 118.468 77.8777 116.115L77.8801 115.905ZM71.2952 113.631L80.0247 113.729L80.0116 114.889L71.2822 114.791L71.2952 113.631ZM74.1003 115.862L78.0001 115.906L77.987 117.066L73.7473 117.019L74.1003 115.862ZM73.8118 112.169L75.0617 112.183C74.9641 113.752 74.7597 118.59 71.8504 121.177C71.604 120.855 71.2274 120.55 70.8201 120.306C73.7061 118.008 73.7381 113.388 73.8118 112.169Z" fill="#222547"/>
</g>
</g>
<path d="M71.1838 76.2499H79L72.7275 65.4999H75.75L64.375 47.5833L60.4912 53.6928L69.12 67.2916H65.9513L71.1838 76.2499ZM66 65.4999L54.625 47.5833L43.25 65.4999H46.2725L40 76.2499H51.375V83.4166H57.875V76.2499H69.25L62.9775 65.4999H66ZM59.76 61.9166H57.0625L63.3025 72.6666H45.9638L52.2363 61.9166H49.49L54.625 53.8541L59.76 61.9166ZM61.125 78.0416V83.4166H67.625V78.0416H61.125Z" fill="white"/>
<defs>
<filter id="filter0_d_335_384" x="0" y="0" width="116" height="130.898" filterUnits="userSpaceOnUse" color-interpolation-filters="sRGB">
<feFlood flood-opacity="0" result="BackgroundImageFix"/>
<feColorMatrix in="SourceAlpha" type="matrix" values="0 0 0 0 0 0 0 0 0 0 0 0 0 0 0 0 0 0 127 0" result="hardAlpha"/>
<feOffset dy="2"/>
<feComposite in2="hardAlpha" operator="out"/>
<feColorMatrix type="matrix" values="0 0 0 0 0 0 0 0 0 0 0 0 0 0 0 0 0 0 0.25 0"/>
<feBlend mode="normal" in2="BackgroundImageFix" result="effect1_dropShadow_335_384"/>
<feBlend mode="normal" in="SourceGraphic" in2="effect1_dropShadow_335_384" result="shape"/>
</filter>
<linearGradient id="paint0_linear_335_384" x1="58" y1="0" x2="58" y2="116" gradientUnits="userSpaceOnUse">
<stop stop-color="#DC5DCB"/>
<stop offset="1" stop-color="#748DED"/>
</linearGradient>
<clipPath id="clip0_335_384">
<path d="M83.2657 104.765C89.8927 104.839 95.2045 110.272 95.1299 116.899V116.899C95.0554 123.526 89.6227 128.838 82.9957 128.763L26.9993 128.133C20.3723 128.059 15.0605 122.626 15.135 115.999V115.999C15.2095 109.372 20.6422 104.06 27.2692 104.135L83.2657 104.765Z" fill="white"/>
</clipPath>
</defs>
</svg>
