<svg width="193" height="178" viewBox="0 0 193 178" fill="none" xmlns="http://www.w3.org/2000/svg">
<g filter="url(#filter0_f_290_273)">
<path d="M60 79.7168C60 96.1008 74.673 104.83 85.4113 112.646C89.2 115.402 92.85 118 96.5 118C100.15 118 103.8 115.406 107.589 112.643C118.331 104.834 133 96.1008 133 79.7202C133 63.3395 112.925 51.7127 96.5 67.4667C80.075 51.7127 60 63.3328 60 79.7168Z" fill="white"/>
</g>
<g filter="url(#filter1_f_290_273)">
<path d="M60 79.7168C60 96.1008 74.673 104.83 85.4113 112.646C89.2 115.402 92.85 118 96.5 118C100.15 118 103.8 115.406 107.589 112.643C118.331 104.834 133 96.1008 133 79.7202C133 63.3395 112.925 51.7127 96.5 67.4667C80.075 51.7127 60 63.3328 60 79.7168Z" fill="url(#paint0_linear_290_273)"/>
</g>
<g filter="url(#filter2_f_290_273)">
<path d="M60 79.7168C60 96.1008 74.673 104.83 85.4113 112.646C89.2 115.402 92.85 118 96.5 118C100.15 118 103.8 115.406 107.589 112.643C118.331 104.834 133 96.1008 133 79.7202C133 63.3395 112.925 51.7127 96.5 67.4667C80.075 51.7127 60 63.3328 60 79.7168Z" fill="url(#paint1_linear_290_273)"/>
</g>
<g filter="url(#filter3_f_290_273)">
<path d="M60 79.7168C60 96.1008 74.673 104.83 85.4113 112.646C89.2 115.402 92.85 118 96.5 118C100.15 118 103.8 115.406 107.589 112.643C118.331 104.834 133 96.1008 133 79.7202C133 63.3395 112.925 51.7127 96.5 67.4667C80.075 51.7127 60 63.3328 60 79.7168Z" fill="url(#paint2_linear_290_273)"/>
</g>
<g filter="url(#filter4_d_290_273)">
<path d="M60 82.5001C60 98.8841 74.673 107.613 85.4113 115.43C89.2 118.186 92.85 120.783 96.5 120.783C100.15 120.783 103.8 118.189 107.589 115.426C118.331 107.617 133 98.8841 133 82.5035C133 66.1229 112.925 54.4961 96.5 70.25C80.075 54.4961 60 66.1161 60 82.5001Z" fill="white"/>
<path d="M84.8228 116.238L84.8231 116.238C86.7085 117.61 88.6217 118.989 90.5329 120.02C92.4454 121.052 94.4405 121.783 96.5 121.783C98.5593 121.783 100.554 121.053 102.467 120.021C104.378 118.99 106.291 117.61 108.177 116.235C109.165 115.517 110.193 114.787 111.244 114.039C115.845 110.77 120.9 107.178 125.043 102.872C130.167 97.547 134 91.0332 134 82.5035C134 73.8935 128.724 66.5394 121.298 63.405C114.029 60.3369 104.799 61.3404 96.5 68.882C88.2009 61.3404 78.9707 60.3351 71.7019 63.402C64.2761 66.5351 59 73.8884 59 82.5001C59 91.0316 62.8337 97.5454 67.9582 102.871C72.0944 107.17 77.139 110.757 81.7324 114.024C82.7921 114.778 83.8278 115.514 84.8228 116.238Z" stroke="white" stroke-width="2"/>
</g>
<path d="M62.5 73.5C52.389 91 75.1725 107.164 85.9108 114.981C89.6995 117.736 92.6876 120 96.3376 120C99.9876 120 110.815 112.268 114.5 110C127.5 102 137.5 83.5 130 72C112 53 100.338 72 96.3376 70.5C92.3376 69 72.611 56 62.5 73.5Z" fill="url(#paint3_linear_290_273)"/>
<g filter="url(#filter5_d_290_273)">
<path d="M83.6018 85.5349V97.1713H81.1415V87.8701H81.0734L78.4086 89.5406V87.3588L81.2893 85.5349H83.6018ZM90.9299 97.4269C89.9526 97.4232 89.1117 97.1826 88.4072 96.7054C87.7064 96.2281 87.1666 95.5368 86.7878 94.6315C86.4128 93.7262 86.2272 92.6372 86.231 91.3644C86.231 90.0955 86.4185 89.0141 86.7935 88.1201C87.1723 87.2262 87.7121 86.5463 88.4128 86.0804C89.1174 85.6107 89.9564 85.3758 90.9299 85.3758C91.9034 85.3758 92.7405 85.6107 93.4413 86.0804C94.1458 86.5501 94.6875 87.2319 95.0663 88.1258C95.445 89.016 95.6325 90.0955 95.6288 91.3644C95.6288 92.641 95.4394 93.7319 95.0606 94.6372C94.6856 95.5425 94.1477 96.2338 93.4469 96.711C92.7462 97.1883 91.9072 97.4269 90.9299 97.4269ZM90.9299 95.3872C91.5966 95.3872 92.1288 95.0519 92.5265 94.3815C92.9242 93.711 93.1212 92.7054 93.1174 91.3644C93.1174 90.4819 93.0265 89.747 92.8447 89.1599C92.6666 88.5728 92.4128 88.1315 92.0833 87.836C91.7575 87.5406 91.3731 87.3929 90.9299 87.3929C90.267 87.3929 89.7367 87.7243 89.339 88.3872C88.9413 89.0501 88.7405 90.0425 88.7367 91.3644C88.7367 92.2584 88.8257 93.0046 89.0038 93.6031C89.1856 94.1978 89.4413 94.6447 89.7708 94.944C90.1003 95.2394 90.4867 95.3872 90.9299 95.3872ZM101.946 97.4269C100.968 97.4232 100.127 97.1826 99.4228 96.7054C98.722 96.2281 98.1823 95.5368 97.8035 94.6315C97.4285 93.7262 97.2429 92.6372 97.2467 91.3644C97.2467 90.0955 97.4342 89.0141 97.8092 88.1201C98.1879 87.2262 98.7277 86.5463 99.4285 86.0804C100.133 85.6107 100.972 85.3758 101.946 85.3758C102.919 85.3758 103.756 85.6107 104.457 86.0804C105.161 86.5501 105.703 87.2319 106.082 88.1258C106.461 89.016 106.648 90.0955 106.644 91.3644C106.644 92.641 106.455 93.7319 106.076 94.6372C105.701 95.5425 105.163 96.2338 104.463 96.711C103.762 97.1883 102.923 97.4269 101.946 97.4269ZM101.946 95.3872C102.612 95.3872 103.144 95.0519 103.542 94.3815C103.94 93.711 104.137 92.7054 104.133 91.3644C104.133 90.4819 104.042 89.747 103.86 89.1599C103.682 88.5728 103.428 88.1315 103.099 87.836C102.773 87.5406 102.389 87.3929 101.946 87.3929C101.283 87.3929 100.752 87.7243 100.355 88.3872C99.9569 89.0501 99.7561 90.0425 99.7523 91.3644C99.7523 92.2584 99.8413 93.0046 100.019 93.6031C100.201 94.1978 100.457 94.6447 100.786 94.944C101.116 95.2394 101.502 95.3872 101.946 95.3872ZM112.94 95.5349V95.0747C112.94 94.7252 113.014 94.4042 113.161 94.1116C113.312 93.8162 113.529 93.5804 113.813 93.4042C114.1 93.2252 114.45 93.1358 114.862 93.1358C115.279 93.1358 115.63 93.2238 115.914 93.4C116.201 93.5761 116.417 93.8119 116.562 94.1073C116.71 94.4 116.784 94.7224 116.784 95.0747V95.5349C116.784 95.8843 116.71 96.2068 116.562 96.5022C116.414 96.7948 116.197 97.0292 115.91 97.2054C115.623 97.3843 115.274 97.4738 114.862 97.4738C114.444 97.4738 114.093 97.3843 113.809 97.2054C113.525 97.0292 113.309 96.7948 113.161 96.5022C113.014 96.2068 112.94 95.8843 112.94 95.5349ZM114.18 95.0747V95.5349C114.18 95.7366 114.228 95.9269 114.325 96.1059C114.424 96.2849 114.603 96.3744 114.862 96.3744C115.12 96.3744 115.296 96.2863 115.39 96.1102C115.487 95.934 115.535 95.7423 115.535 95.5349V95.0747C115.535 94.8673 115.49 94.6741 115.399 94.4951C115.308 94.3162 115.129 94.2267 114.862 94.2267C114.606 94.2267 114.428 94.3162 114.329 94.4951C114.23 94.6741 114.18 94.8673 114.18 95.0747ZM108.461 90.5406V90.0804C108.461 89.7281 108.536 89.4056 108.687 89.113C108.838 88.8176 109.055 88.5818 109.339 88.4056C109.626 88.2295 109.973 88.1414 110.379 88.1414C110.799 88.1414 111.151 88.2295 111.436 88.4056C111.72 88.5818 111.936 88.8176 112.083 89.113C112.231 89.4056 112.305 89.7281 112.305 90.0804V90.5406C112.305 90.8929 112.23 91.2153 112.079 91.5079C111.931 91.8005 111.714 92.0349 111.427 92.211C111.143 92.3843 110.794 92.471 110.379 92.471C109.964 92.471 109.613 92.3829 109.326 92.2068C109.042 92.0278 108.826 91.7934 108.678 91.5037C108.534 91.211 108.461 90.89 108.461 90.5406ZM109.71 90.0804V90.5406C109.71 90.748 109.758 90.9397 109.855 91.1159C109.954 91.292 110.129 91.3801 110.379 91.3801C110.64 91.3801 110.818 91.292 110.911 91.1159C111.008 90.9397 111.056 90.748 111.056 90.5406V90.0804C111.056 89.873 111.011 89.6798 110.92 89.5008C110.829 89.3218 110.649 89.2323 110.379 89.2323C110.126 89.2323 109.951 89.3233 109.855 89.5051C109.758 89.6869 109.71 89.8787 109.71 90.0804ZM109.024 97.1713L115.024 88.444H116.14L110.14 97.1713H109.024Z" fill="#222547"/>
</g>
<defs>
<filter id="filter0_f_290_273" x="0" y="0" width="193" height="178" filterUnits="userSpaceOnUse" color-interpolation-filters="sRGB">
<feFlood flood-opacity="0" result="BackgroundImageFix"/>
<feBlend mode="normal" in="SourceGraphic" in2="BackgroundImageFix" result="shape"/>
<feGaussianBlur stdDeviation="30" result="effect1_foregroundBlur_290_273"/>
</filter>
<filter id="filter1_f_290_273" x="20" y="20" width="153" height="138" filterUnits="userSpaceOnUse" color-interpolation-filters="sRGB">
<feFlood flood-opacity="0" result="BackgroundImageFix"/>
<feBlend mode="normal" in="SourceGraphic" in2="BackgroundImageFix" result="shape"/>
<feGaussianBlur stdDeviation="20" result="effect1_foregroundBlur_290_273"/>
</filter>
<filter id="filter2_f_290_273" x="20" y="20" width="153" height="138" filterUnits="userSpaceOnUse" color-interpolation-filters="sRGB">
<feFlood flood-opacity="0" result="BackgroundImageFix"/>
<feBlend mode="normal" in="SourceGraphic" in2="BackgroundImageFix" result="shape"/>
<feGaussianBlur stdDeviation="20" result="effect1_foregroundBlur_290_273"/>
</filter>
<filter id="filter3_f_290_273" x="20" y="20" width="153" height="138" filterUnits="userSpaceOnUse" color-interpolation-filters="sRGB">
<feFlood flood-opacity="0" result="BackgroundImageFix"/>
<feBlend mode="normal" in="SourceGraphic" in2="BackgroundImageFix" result="shape"/>
<feGaussianBlur stdDeviation="20" result="effect1_foregroundBlur_290_273"/>
</filter>
<filter id="filter4_d_290_273" x="54" y="56.7824" width="85" height="70.0009" filterUnits="userSpaceOnUse" color-interpolation-filters="sRGB">
<feFlood flood-opacity="0" result="BackgroundImageFix"/>
<feColorMatrix in="SourceAlpha" type="matrix" values="0 0 0 0 0 0 0 0 0 0 0 0 0 0 0 0 0 0 127 0" result="hardAlpha"/>
<feOffset/>
<feGaussianBlur stdDeviation="2"/>
<feComposite in2="hardAlpha" operator="out"/>
<feColorMatrix type="matrix" values="0 0 0 0 0 0 0 0 0 0 0 0 0 0 0 0 0 0 0.6 0"/>
<feBlend mode="normal" in2="BackgroundImageFix" result="effect1_dropShadow_290_273"/>
<feBlend mode="normal" in="SourceGraphic" in2="effect1_dropShadow_290_273" result="shape"/>
</filter>
<filter id="filter5_d_290_273" x="77.4087" y="85.3758" width="40.375" height="14.098" filterUnits="userSpaceOnUse" color-interpolation-filters="sRGB">
<feFlood flood-opacity="0" result="BackgroundImageFix"/>
<feColorMatrix in="SourceAlpha" type="matrix" values="0 0 0 0 0 0 0 0 0 0 0 0 0 0 0 0 0 0 127 0" result="hardAlpha"/>
<feOffset dy="1"/>
<feGaussianBlur stdDeviation="0.5"/>
<feComposite in2="hardAlpha" operator="out"/>
<feColorMatrix type="matrix" values="0 0 0 0 1 0 0 0 0 1 0 0 0 0 1 0 0 0 0.6 0"/>
<feBlend mode="normal" in2="BackgroundImageFix" result="effect1_dropShadow_290_273"/>
<feBlend mode="normal" in="SourceGraphic" in2="effect1_dropShadow_290_273" result="shape"/>
</filter>
<linearGradient id="paint0_linear_290_273" x1="60" y1="89" x2="133" y2="89" gradientUnits="userSpaceOnUse">
<stop stop-color="white"/>
<stop offset="0.115" stop-color="#FFEBB5"/>
<stop offset="0.2" stop-color="#FFDEB8"/>
<stop offset="0.34" stop-color="#FFC5C6"/>
<stop offset="0.485" stop-color="#FFB6F8"/>
<stop offset="0.635" stop-color="#BEB9FF"/>
<stop offset="0.769097" stop-color="#AFD0F7"/>
<stop offset="0.914403" stop-color="#ACF5FD"/>
</linearGradient>
<linearGradient id="paint1_linear_290_273" x1="60" y1="89" x2="133" y2="89" gradientUnits="userSpaceOnUse">
<stop stop-color="white"/>
<stop offset="0.115" stop-color="#FFEBB5"/>
<stop offset="0.2" stop-color="#FFDEB8"/>
<stop offset="0.34" stop-color="#FFC5C6"/>
<stop offset="0.485" stop-color="#FFB6F8"/>
<stop offset="0.635" stop-color="#BEB9FF"/>
<stop offset="0.769097" stop-color="#AFD0F7"/>
<stop offset="0.914403" stop-color="#ACF5FD"/>
</linearGradient>
<linearGradient id="paint2_linear_290_273" x1="60" y1="89" x2="133" y2="89" gradientUnits="userSpaceOnUse">
<stop stop-color="white"/>
<stop offset="0.115" stop-color="#FFEBB5"/>
<stop offset="0.2" stop-color="#FFDEB8"/>
<stop offset="0.34" stop-color="#FFC5C6"/>
<stop offset="0.485" stop-color="#FFB6F8"/>
<stop offset="0.635" stop-color="#BEB9FF"/>
<stop offset="0.769097" stop-color="#AFD0F7"/>
<stop offset="0.914403" stop-color="#ACF5FD"/>
</linearGradient>
<linearGradient id="paint3_linear_290_273" x1="96.5" y1="63.3917" x2="96.5" y2="121.392" gradientUnits="userSpaceOnUse">
<stop stop-color="white"/>
<stop offset="0.115" stop-color="#F9F0D7"/>
<stop offset="0.2" stop-color="#F3E2CF"/>
<stop offset="0.34" stop-color="#FFDDDE"/>
<stop offset="0.485" stop-color="#FFD9FB"/>
<stop offset="0.635" stop-color="#D4D1FF"/>
<stop offset="0.82" stop-color="#AFCBEB"/>
<stop offset="1" stop-color="#D7FAFE"/>
</linearGradient>
</defs>
</svg>
