<svg width="193" height="178" viewBox="0 0 193 178" fill="none" xmlns="http://www.w3.org/2000/svg">
<g filter="url(#filter0_f_125_6)">
<path d="M60 79.7168C60 96.1008 74.673 104.83 85.4113 112.646C89.2 115.402 92.85 118 96.5 118C100.15 118 103.8 115.406 107.589 112.643C118.331 104.834 133 96.1008 133 79.7202C133 63.3395 112.925 51.7127 96.5 67.4667C80.075 51.7127 60 63.3328 60 79.7168Z" fill="white"/>
</g>
<g filter="url(#filter1_f_125_6)">
<path d="M60 79.7168C60 96.1008 74.673 104.83 85.4113 112.646C89.2 115.402 92.85 118 96.5 118C100.15 118 103.8 115.406 107.589 112.643C118.331 104.834 133 96.1008 133 79.7202C133 63.3395 112.925 51.7127 96.5 67.4667C80.075 51.7127 60 63.3328 60 79.7168Z" fill="url(#paint0_linear_125_6)"/>
</g>
<g filter="url(#filter2_f_125_6)">
<path d="M60 79.7168C60 96.1008 74.673 104.83 85.4113 112.646C89.2 115.402 92.85 118 96.5 118C100.15 118 103.8 115.406 107.589 112.643C118.331 104.834 133 96.1008 133 79.7202C133 63.3395 112.925 51.7127 96.5 67.4667C80.075 51.7127 60 63.3328 60 79.7168Z" fill="url(#paint1_linear_125_6)"/>
</g>
<g filter="url(#filter3_f_125_6)">
<path d="M60 79.7168C60 96.1008 74.673 104.83 85.4113 112.646C89.2 115.402 92.85 118 96.5 118C100.15 118 103.8 115.406 107.589 112.643C118.331 104.834 133 96.1008 133 79.7202C133 63.3395 112.925 51.7127 96.5 67.4667C80.075 51.7127 60 63.3328 60 79.7168Z" fill="url(#paint2_linear_125_6)"/>
</g>
<g filter="url(#filter4_d_125_6)">
<path d="M60 82.5001C60 98.8841 74.673 107.613 85.4113 115.43C89.2 118.186 92.85 120.783 96.5 120.783C100.15 120.783 103.8 118.189 107.589 115.426C118.331 107.617 133 98.8841 133 82.5035C133 66.1229 112.925 54.4961 96.5 70.25C80.075 54.4961 60 66.1161 60 82.5001Z" fill="white"/>
<path d="M84.8228 116.238L84.8231 116.238C86.7085 117.61 88.6217 118.989 90.5329 120.02C92.4454 121.052 94.4405 121.783 96.5 121.783C98.5593 121.783 100.554 121.053 102.467 120.021C104.378 118.99 106.291 117.61 108.177 116.235C109.165 115.517 110.193 114.787 111.244 114.039C115.845 110.77 120.9 107.178 125.043 102.872C130.167 97.547 134 91.0332 134 82.5035C134 73.8935 128.724 66.5394 121.298 63.405C114.029 60.3369 104.799 61.3404 96.5 68.882C88.2009 61.3404 78.9707 60.3351 71.7019 63.402C64.2761 66.5351 59 73.8884 59 82.5001C59 91.0316 62.8337 97.5454 67.9582 102.871C72.0944 107.17 77.139 110.757 81.7324 114.024C82.7921 114.778 83.8278 115.514 84.8228 116.238Z" stroke="white" stroke-width="2"/>
</g>
<path d="M72.7749 106.279C82.5082 113.579 74.6729 108.222 85.4112 116.038C89.1999 118.794 92.8499 121.392 96.4999 121.392C100.15 121.392 103.8 118.797 107.589 116.035C118.331 108.225 112.317 112.971 123.875 102.933C107.589 96.5458 101.975 103.237 94.0666 107.496C86.1582 111.754 63.0416 98.9792 72.7749 106.279Z" fill="url(#paint3_linear_125_6)"/>
<g filter="url(#filter5_d_125_6)">
<path d="M82.9221 97.1713V95.3985L87.0641 91.5633C87.4164 91.2224 87.7118 90.9156 87.9505 90.6429C88.1929 90.3701 88.3766 90.1031 88.5016 89.8417C88.6266 89.5766 88.6891 89.2906 88.6891 88.9838C88.6891 88.6429 88.6115 88.3493 88.4562 88.1031C88.3009 87.8531 88.0887 87.6618 87.8198 87.5292C87.5509 87.3929 87.2459 87.3247 86.905 87.3247C86.549 87.3247 86.2384 87.3966 85.9732 87.5406C85.7081 87.6845 85.5035 87.891 85.3596 88.1599C85.2156 88.4288 85.1437 88.7489 85.1437 89.1201H82.8084C82.8084 88.3588 82.9808 87.6978 83.3255 87.1372C83.6702 86.5766 84.1531 86.1429 84.7743 85.836C85.3956 85.5292 86.1115 85.3758 86.9221 85.3758C87.7554 85.3758 88.4808 85.5235 89.0982 85.819C89.7194 86.1107 90.2024 86.516 90.5471 87.0349C90.8918 87.5538 91.0641 88.1485 91.0641 88.819C91.0641 89.2584 90.977 89.6921 90.8028 90.1201C90.6323 90.5482 90.3274 91.0235 89.888 91.5463C89.4486 92.0652 88.8293 92.6883 88.03 93.4156L86.3312 95.0804V95.1599H91.2175V97.1713H82.9221ZM97.5627 97.4269C96.5854 97.4232 95.7445 97.1826 95.04 96.7054C94.3392 96.2281 93.7994 95.5368 93.4207 94.6315C93.0457 93.7262 92.8601 92.6372 92.8638 91.3644C92.8638 90.0955 93.0513 89.0141 93.4263 88.1201C93.8051 87.2262 94.3449 86.5463 95.0457 86.0804C95.7502 85.6107 96.5892 85.3758 97.5627 85.3758C98.5362 85.3758 99.3733 85.6107 100.074 86.0804C100.779 86.5501 101.32 87.2319 101.699 88.1258C102.078 89.016 102.265 90.0955 102.262 91.3644C102.262 92.641 102.072 93.7319 101.693 94.6372C101.318 95.5425 100.781 96.2338 100.08 96.711C99.379 97.1883 98.54 97.4269 97.5627 97.4269ZM97.5627 95.3872C98.2294 95.3872 98.7616 95.0519 99.1593 94.3815C99.557 93.711 99.754 92.7054 99.7502 91.3644C99.7502 90.4819 99.6593 89.747 99.4775 89.1599C99.2994 88.5728 99.0457 88.1315 98.7161 87.836C98.3904 87.5406 98.0059 87.3929 97.5627 87.3929C96.8998 87.3929 96.3695 87.7243 95.9718 88.3872C95.5741 89.0501 95.3733 90.0425 95.3695 91.3644C95.3695 92.2584 95.4585 93.0046 95.6366 93.6031C95.8184 94.1978 96.0741 94.6447 96.4036 94.944C96.7332 95.2394 97.1195 95.3872 97.5627 95.3872ZM108.557 95.5349V95.0747C108.557 94.7252 108.631 94.4042 108.779 94.1116C108.929 93.8162 109.147 93.5804 109.431 93.4042C109.718 93.2252 110.067 93.1358 110.479 93.1358C110.897 93.1358 111.247 93.2238 111.531 93.4C111.818 93.5761 112.034 93.8119 112.179 94.1073C112.327 94.4 112.401 94.7224 112.401 95.0747V95.5349C112.401 95.8843 112.327 96.2068 112.179 96.5022C112.031 96.7948 111.814 97.0292 111.527 97.2054C111.24 97.3843 110.891 97.4738 110.479 97.4738C110.061 97.4738 109.71 97.3843 109.426 97.2054C109.142 97.0292 108.926 96.7948 108.779 96.5022C108.631 96.2068 108.557 95.8843 108.557 95.5349ZM109.797 95.0747V95.5349C109.797 95.7366 109.845 95.9269 109.942 96.1059C110.041 96.2849 110.22 96.3744 110.479 96.3744C110.737 96.3744 110.914 96.2863 111.007 96.1102C111.104 95.934 111.152 95.7423 111.152 95.5349V95.0747C111.152 94.8673 111.107 94.6741 111.016 94.4951C110.925 94.3162 110.746 94.2267 110.479 94.2267C110.223 94.2267 110.046 94.3162 109.946 94.4951C109.847 94.6741 109.797 94.8673 109.797 95.0747ZM104.078 90.5406V90.0804C104.078 89.7281 104.154 89.4056 104.304 89.113C104.455 88.8176 104.672 88.5818 104.956 88.4056C105.243 88.2295 105.59 88.1414 105.996 88.1414C106.416 88.1414 106.769 88.2295 107.053 88.4056C107.337 88.5818 107.553 88.8176 107.7 89.113C107.848 89.4056 107.922 89.7281 107.922 90.0804V90.5406C107.922 90.8929 107.847 91.2153 107.696 91.5079C107.548 91.8005 107.331 92.0349 107.044 92.211C106.76 92.3843 106.411 92.471 105.996 92.471C105.581 92.471 105.23 92.3829 104.943 92.2068C104.659 92.0278 104.443 91.7934 104.296 91.5037C104.151 91.211 104.078 90.89 104.078 90.5406ZM105.327 90.0804V90.5406C105.327 90.748 105.375 90.9397 105.472 91.1159C105.571 91.292 105.746 91.3801 105.996 91.3801C106.257 91.3801 106.435 91.292 106.529 91.1159C106.625 90.9397 106.673 90.748 106.673 90.5406V90.0804C106.673 89.873 106.628 89.6798 106.537 89.5008C106.446 89.3218 106.266 89.2323 105.996 89.2323C105.743 89.2323 105.568 89.3233 105.472 89.5051C105.375 89.6869 105.327 89.8787 105.327 90.0804ZM104.641 97.1713L110.641 88.444H111.757L105.757 97.1713H104.641Z" fill="#222547"/>
</g>
<defs>
<filter id="filter0_f_125_6" x="0" y="0" width="193" height="178" filterUnits="userSpaceOnUse" color-interpolation-filters="sRGB">
<feFlood flood-opacity="0" result="BackgroundImageFix"/>
<feBlend mode="normal" in="SourceGraphic" in2="BackgroundImageFix" result="shape"/>
<feGaussianBlur stdDeviation="30" result="effect1_foregroundBlur_125_6"/>
</filter>
<filter id="filter1_f_125_6" x="20" y="20" width="153" height="138" filterUnits="userSpaceOnUse" color-interpolation-filters="sRGB">
<feFlood flood-opacity="0" result="BackgroundImageFix"/>
<feBlend mode="normal" in="SourceGraphic" in2="BackgroundImageFix" result="shape"/>
<feGaussianBlur stdDeviation="20" result="effect1_foregroundBlur_125_6"/>
</filter>
<filter id="filter2_f_125_6" x="20" y="20" width="153" height="138" filterUnits="userSpaceOnUse" color-interpolation-filters="sRGB">
<feFlood flood-opacity="0" result="BackgroundImageFix"/>
<feBlend mode="normal" in="SourceGraphic" in2="BackgroundImageFix" result="shape"/>
<feGaussianBlur stdDeviation="20" result="effect1_foregroundBlur_125_6"/>
</filter>
<filter id="filter3_f_125_6" x="20" y="20" width="153" height="138" filterUnits="userSpaceOnUse" color-interpolation-filters="sRGB">
<feFlood flood-opacity="0" result="BackgroundImageFix"/>
<feBlend mode="normal" in="SourceGraphic" in2="BackgroundImageFix" result="shape"/>
<feGaussianBlur stdDeviation="20" result="effect1_foregroundBlur_125_6"/>
</filter>
<filter id="filter4_d_125_6" x="54" y="56.7824" width="85" height="70.0009" filterUnits="userSpaceOnUse" color-interpolation-filters="sRGB">
<feFlood flood-opacity="0" result="BackgroundImageFix"/>
<feColorMatrix in="SourceAlpha" type="matrix" values="0 0 0 0 0 0 0 0 0 0 0 0 0 0 0 0 0 0 127 0" result="hardAlpha"/>
<feOffset/>
<feGaussianBlur stdDeviation="2"/>
<feComposite in2="hardAlpha" operator="out"/>
<feColorMatrix type="matrix" values="0 0 0 0 0 0 0 0 0 0 0 0 0 0 0 0 0 0 0.6 0"/>
<feBlend mode="normal" in2="BackgroundImageFix" result="effect1_dropShadow_125_6"/>
<feBlend mode="normal" in="SourceGraphic" in2="effect1_dropShadow_125_6" result="shape"/>
</filter>
<filter id="filter5_d_125_6" x="81.8083" y="85.3758" width="31.5925" height="14.098" filterUnits="userSpaceOnUse" color-interpolation-filters="sRGB">
<feFlood flood-opacity="0" result="BackgroundImageFix"/>
<feColorMatrix in="SourceAlpha" type="matrix" values="0 0 0 0 0 0 0 0 0 0 0 0 0 0 0 0 0 0 127 0" result="hardAlpha"/>
<feOffset dy="1"/>
<feGaussianBlur stdDeviation="0.5"/>
<feComposite in2="hardAlpha" operator="out"/>
<feColorMatrix type="matrix" values="0 0 0 0 1 0 0 0 0 1 0 0 0 0 1 0 0 0 0.6 0"/>
<feBlend mode="normal" in2="BackgroundImageFix" result="effect1_dropShadow_125_6"/>
<feBlend mode="normal" in="SourceGraphic" in2="effect1_dropShadow_125_6" result="shape"/>
</filter>
<linearGradient id="paint0_linear_125_6" x1="60" y1="89" x2="133" y2="89" gradientUnits="userSpaceOnUse">
<stop stop-color="white"/>
<stop offset="0.115" stop-color="#FFEBB5"/>
<stop offset="0.2" stop-color="#FFDEB8"/>
<stop offset="0.34" stop-color="#FFC5C6"/>
<stop offset="0.485" stop-color="#FFB6F8"/>
<stop offset="0.635" stop-color="#BEB9FF"/>
<stop offset="0.769097" stop-color="#AFD0F7"/>
<stop offset="0.914403" stop-color="#ACF5FD"/>
</linearGradient>
<linearGradient id="paint1_linear_125_6" x1="60" y1="89" x2="133" y2="89" gradientUnits="userSpaceOnUse">
<stop stop-color="white"/>
<stop offset="0.115" stop-color="#FFEBB5"/>
<stop offset="0.2" stop-color="#FFDEB8"/>
<stop offset="0.34" stop-color="#FFC5C6"/>
<stop offset="0.485" stop-color="#FFB6F8"/>
<stop offset="0.635" stop-color="#BEB9FF"/>
<stop offset="0.769097" stop-color="#AFD0F7"/>
<stop offset="0.914403" stop-color="#ACF5FD"/>
</linearGradient>
<linearGradient id="paint2_linear_125_6" x1="60" y1="89" x2="133" y2="89" gradientUnits="userSpaceOnUse">
<stop stop-color="white"/>
<stop offset="0.115" stop-color="#FFEBB5"/>
<stop offset="0.2" stop-color="#FFDEB8"/>
<stop offset="0.34" stop-color="#FFC5C6"/>
<stop offset="0.485" stop-color="#FFB6F8"/>
<stop offset="0.635" stop-color="#BEB9FF"/>
<stop offset="0.769097" stop-color="#AFD0F7"/>
<stop offset="0.914403" stop-color="#ACF5FD"/>
</linearGradient>
<linearGradient id="paint3_linear_125_6" x1="96.5" y1="63.3917" x2="96.5" y2="121.392" gradientUnits="userSpaceOnUse">
<stop stop-color="white"/>
<stop offset="0.115" stop-color="#F9F0D7"/>
<stop offset="0.2" stop-color="#F3E2CF"/>
<stop offset="0.34" stop-color="#FFDDDE"/>
<stop offset="0.485" stop-color="#FFD9FB"/>
<stop offset="0.635" stop-color="#D4D1FF"/>
<stop offset="0.82" stop-color="#AFCBEB"/>
<stop offset="1" stop-color="#D7FAFE"/>
</linearGradient>
</defs>
</svg>
