<svg width="193" height="178" viewBox="0 0 193 178" fill="none" xmlns="http://www.w3.org/2000/svg">
<g filter="url(#filter0_f_290_207)">
<path d="M60 79.7168C60 96.1008 74.673 104.83 85.4113 112.646C89.2 115.402 92.85 118 96.5 118C100.15 118 103.8 115.406 107.589 112.643C118.331 104.834 133 96.1008 133 79.7202C133 63.3395 112.925 51.7127 96.5 67.4667C80.075 51.7127 60 63.3328 60 79.7168Z" fill="white"/>
</g>
<g filter="url(#filter1_f_290_207)">
<path d="M60 79.7168C60 96.1008 74.673 104.83 85.4113 112.646C89.2 115.402 92.85 118 96.5 118C100.15 118 103.8 115.406 107.589 112.643C118.331 104.834 133 96.1008 133 79.7202C133 63.3395 112.925 51.7127 96.5 67.4667C80.075 51.7127 60 63.3328 60 79.7168Z" fill="url(#paint0_linear_290_207)"/>
</g>
<g filter="url(#filter2_f_290_207)">
<path d="M60 79.7168C60 96.1008 74.673 104.83 85.4113 112.646C89.2 115.402 92.85 118 96.5 118C100.15 118 103.8 115.406 107.589 112.643C118.331 104.834 133 96.1008 133 79.7202C133 63.3395 112.925 51.7127 96.5 67.4667C80.075 51.7127 60 63.3328 60 79.7168Z" fill="url(#paint1_linear_290_207)"/>
</g>
<g filter="url(#filter3_f_290_207)">
<path d="M60 79.7168C60 96.1008 74.673 104.83 85.4113 112.646C89.2 115.402 92.85 118 96.5 118C100.15 118 103.8 115.406 107.589 112.643C118.331 104.834 133 96.1008 133 79.7202C133 63.3395 112.925 51.7127 96.5 67.4667C80.075 51.7127 60 63.3328 60 79.7168Z" fill="url(#paint2_linear_290_207)"/>
</g>
<g filter="url(#filter4_d_290_207)">
<path d="M60 82.5001C60 98.8841 74.673 107.613 85.4113 115.43C89.2 118.186 92.85 120.783 96.5 120.783C100.15 120.783 103.8 118.189 107.589 115.426C118.331 107.617 133 98.8841 133 82.5035C133 66.1229 112.925 54.4961 96.5 70.25C80.075 54.4961 60 66.1161 60 82.5001Z" fill="white"/>
<path d="M84.8228 116.238L84.8231 116.238C86.7085 117.61 88.6217 118.989 90.5329 120.02C92.4454 121.052 94.4405 121.783 96.5 121.783C98.5593 121.783 100.554 121.053 102.467 120.021C104.378 118.99 106.291 117.61 108.177 116.235C109.165 115.517 110.193 114.787 111.244 114.039C115.845 110.77 120.9 107.178 125.043 102.872C130.167 97.547 134 91.0332 134 82.5035C134 73.8935 128.724 66.5394 121.298 63.405C114.029 60.3369 104.799 61.3404 96.5 68.882C88.2009 61.3404 78.9707 60.3351 71.7019 63.402C64.2761 66.5351 59 73.8884 59 82.5001C59 91.0316 62.8337 97.5454 67.9582 102.871C72.0944 107.17 77.139 110.757 81.7324 114.024C82.7921 114.778 83.8278 115.514 84.8228 116.238Z" stroke="white" stroke-width="2"/>
</g>
<path d="M64 95.4999C64 101.5 74.6733 108.222 85.4116 116.038C89.2003 118.794 92.8503 121.392 96.5003 121.392C100.15 121.392 114.711 110.263 118.5 107.5C129.242 99.6903 132.014 93.0525 133 88C137 67.5 98 86.5 92 94.5C86 102.5 64 89.4998 64 95.4999Z" fill="url(#paint3_linear_290_207)"/>
<g filter="url(#filter5_d_290_207)">
<path d="M82.3631 95.1258V93.1883L87.2211 85.5349H88.8915V88.2167H87.9029L84.8404 93.0633V93.1542H91.7438V95.1258H82.3631ZM87.9484 97.1713V94.5349L87.9938 93.6769V85.5349H90.3006V97.1713H87.9484ZM97.9455 97.4269C96.9682 97.4232 96.1273 97.1826 95.4228 96.7054C94.722 96.2281 94.1823 95.5368 93.8035 94.6315C93.4285 93.7262 93.2429 92.6372 93.2467 91.3644C93.2467 90.0955 93.4342 89.0141 93.8092 88.1201C94.1879 87.2262 94.7277 86.5463 95.4285 86.0804C96.133 85.6107 96.972 85.3758 97.9455 85.3758C98.919 85.3758 99.7561 85.6107 100.457 86.0804C101.161 86.5501 101.703 87.2319 102.082 88.1258C102.461 89.016 102.648 90.0955 102.644 91.3644C102.644 92.641 102.455 93.7319 102.076 94.6372C101.701 95.5425 101.163 96.2338 100.463 96.711C99.7618 97.1883 98.9228 97.4269 97.9455 97.4269ZM97.9455 95.3872C98.6122 95.3872 99.1444 95.0519 99.5421 94.3815C99.9398 93.711 100.137 92.7054 100.133 91.3644C100.133 90.4819 100.042 89.747 99.8603 89.1599C99.6823 88.5728 99.4285 88.1315 99.0989 87.836C98.7732 87.5406 98.3887 87.3929 97.9455 87.3929C97.2826 87.3929 96.7523 87.7243 96.3546 88.3872C95.9569 89.0501 95.7561 90.0425 95.7523 91.3644C95.7523 92.2584 95.8413 93.0046 96.0194 93.6031C96.2012 94.1978 96.4569 94.6447 96.7864 94.944C97.116 95.2394 97.5023 95.3872 97.9455 95.3872ZM108.94 95.5349V95.0747C108.94 94.7252 109.014 94.4042 109.161 94.1116C109.312 93.8162 109.529 93.5804 109.813 93.4042C110.1 93.2252 110.45 93.1358 110.862 93.1358C111.279 93.1358 111.63 93.2238 111.914 93.4C112.201 93.5761 112.417 93.8119 112.562 94.1073C112.71 94.4 112.784 94.7224 112.784 95.0747V95.5349C112.784 95.8843 112.71 96.2068 112.562 96.5022C112.414 96.7948 112.197 97.0292 111.91 97.2054C111.623 97.3843 111.274 97.4738 110.862 97.4738C110.444 97.4738 110.093 97.3843 109.809 97.2054C109.525 97.0292 109.309 96.7948 109.161 96.5022C109.014 96.2068 108.94 95.8843 108.94 95.5349ZM110.18 95.0747V95.5349C110.18 95.7366 110.228 95.9269 110.325 96.1059C110.424 96.2849 110.603 96.3744 110.862 96.3744C111.12 96.3744 111.296 96.2863 111.39 96.1102C111.487 95.934 111.535 95.7423 111.535 95.5349V95.0747C111.535 94.8673 111.49 94.6741 111.399 94.4951C111.308 94.3162 111.129 94.2267 110.862 94.2267C110.606 94.2267 110.428 94.3162 110.329 94.4951C110.23 94.6741 110.18 94.8673 110.18 95.0747ZM104.461 90.5406V90.0804C104.461 89.7281 104.536 89.4056 104.687 89.113C104.838 88.8176 105.055 88.5818 105.339 88.4056C105.626 88.2295 105.973 88.1414 106.379 88.1414C106.799 88.1414 107.151 88.2295 107.436 88.4056C107.72 88.5818 107.936 88.8176 108.083 89.113C108.231 89.4056 108.305 89.7281 108.305 90.0804V90.5406C108.305 90.8929 108.23 91.2153 108.079 91.5079C107.931 91.8005 107.714 92.0349 107.427 92.211C107.143 92.3843 106.794 92.471 106.379 92.471C105.964 92.471 105.613 92.3829 105.326 92.2068C105.042 92.0278 104.826 91.7934 104.678 91.5037C104.534 91.211 104.461 90.89 104.461 90.5406ZM105.71 90.0804V90.5406C105.71 90.748 105.758 90.9397 105.855 91.1159C105.954 91.292 106.129 91.3801 106.379 91.3801C106.64 91.3801 106.818 91.292 106.911 91.1159C107.008 90.9397 107.056 90.748 107.056 90.5406V90.0804C107.056 89.873 107.011 89.6798 106.92 89.5008C106.829 89.3218 106.649 89.2323 106.379 89.2323C106.126 89.2323 105.951 89.3233 105.855 89.5051C105.758 89.6869 105.71 89.8787 105.71 90.0804ZM105.024 97.1713L111.024 88.444H112.14L106.14 97.1713H105.024Z" fill="#222547"/>
</g>
<defs>
<filter id="filter0_f_290_207" x="0" y="0" width="193" height="178" filterUnits="userSpaceOnUse" color-interpolation-filters="sRGB">
<feFlood flood-opacity="0" result="BackgroundImageFix"/>
<feBlend mode="normal" in="SourceGraphic" in2="BackgroundImageFix" result="shape"/>
<feGaussianBlur stdDeviation="30" result="effect1_foregroundBlur_290_207"/>
</filter>
<filter id="filter1_f_290_207" x="20" y="20" width="153" height="138" filterUnits="userSpaceOnUse" color-interpolation-filters="sRGB">
<feFlood flood-opacity="0" result="BackgroundImageFix"/>
<feBlend mode="normal" in="SourceGraphic" in2="BackgroundImageFix" result="shape"/>
<feGaussianBlur stdDeviation="20" result="effect1_foregroundBlur_290_207"/>
</filter>
<filter id="filter2_f_290_207" x="20" y="20" width="153" height="138" filterUnits="userSpaceOnUse" color-interpolation-filters="sRGB">
<feFlood flood-opacity="0" result="BackgroundImageFix"/>
<feBlend mode="normal" in="SourceGraphic" in2="BackgroundImageFix" result="shape"/>
<feGaussianBlur stdDeviation="20" result="effect1_foregroundBlur_290_207"/>
</filter>
<filter id="filter3_f_290_207" x="20" y="20" width="153" height="138" filterUnits="userSpaceOnUse" color-interpolation-filters="sRGB">
<feFlood flood-opacity="0" result="BackgroundImageFix"/>
<feBlend mode="normal" in="SourceGraphic" in2="BackgroundImageFix" result="shape"/>
<feGaussianBlur stdDeviation="20" result="effect1_foregroundBlur_290_207"/>
</filter>
<filter id="filter4_d_290_207" x="54" y="56.7824" width="85" height="70.0009" filterUnits="userSpaceOnUse" color-interpolation-filters="sRGB">
<feFlood flood-opacity="0" result="BackgroundImageFix"/>
<feColorMatrix in="SourceAlpha" type="matrix" values="0 0 0 0 0 0 0 0 0 0 0 0 0 0 0 0 0 0 127 0" result="hardAlpha"/>
<feOffset/>
<feGaussianBlur stdDeviation="2"/>
<feComposite in2="hardAlpha" operator="out"/>
<feColorMatrix type="matrix" values="0 0 0 0 0 0 0 0 0 0 0 0 0 0 0 0 0 0 0.6 0"/>
<feBlend mode="normal" in2="BackgroundImageFix" result="effect1_dropShadow_290_207"/>
<feBlend mode="normal" in="SourceGraphic" in2="effect1_dropShadow_290_207" result="shape"/>
</filter>
<filter id="filter5_d_290_207" x="81.363" y="85.3758" width="32.4207" height="14.098" filterUnits="userSpaceOnUse" color-interpolation-filters="sRGB">
<feFlood flood-opacity="0" result="BackgroundImageFix"/>
<feColorMatrix in="SourceAlpha" type="matrix" values="0 0 0 0 0 0 0 0 0 0 0 0 0 0 0 0 0 0 127 0" result="hardAlpha"/>
<feOffset dy="1"/>
<feGaussianBlur stdDeviation="0.5"/>
<feComposite in2="hardAlpha" operator="out"/>
<feColorMatrix type="matrix" values="0 0 0 0 1 0 0 0 0 1 0 0 0 0 1 0 0 0 0.6 0"/>
<feBlend mode="normal" in2="BackgroundImageFix" result="effect1_dropShadow_290_207"/>
<feBlend mode="normal" in="SourceGraphic" in2="effect1_dropShadow_290_207" result="shape"/>
</filter>
<linearGradient id="paint0_linear_290_207" x1="60" y1="89" x2="133" y2="89" gradientUnits="userSpaceOnUse">
<stop stop-color="white"/>
<stop offset="0.115" stop-color="#FFEBB5"/>
<stop offset="0.2" stop-color="#FFDEB8"/>
<stop offset="0.34" stop-color="#FFC5C6"/>
<stop offset="0.485" stop-color="#FFB6F8"/>
<stop offset="0.635" stop-color="#BEB9FF"/>
<stop offset="0.769097" stop-color="#AFD0F7"/>
<stop offset="0.914403" stop-color="#ACF5FD"/>
</linearGradient>
<linearGradient id="paint1_linear_290_207" x1="60" y1="89" x2="133" y2="89" gradientUnits="userSpaceOnUse">
<stop stop-color="white"/>
<stop offset="0.115" stop-color="#FFEBB5"/>
<stop offset="0.2" stop-color="#FFDEB8"/>
<stop offset="0.34" stop-color="#FFC5C6"/>
<stop offset="0.485" stop-color="#FFB6F8"/>
<stop offset="0.635" stop-color="#BEB9FF"/>
<stop offset="0.769097" stop-color="#AFD0F7"/>
<stop offset="0.914403" stop-color="#ACF5FD"/>
</linearGradient>
<linearGradient id="paint2_linear_290_207" x1="60" y1="89" x2="133" y2="89" gradientUnits="userSpaceOnUse">
<stop stop-color="white"/>
<stop offset="0.115" stop-color="#FFEBB5"/>
<stop offset="0.2" stop-color="#FFDEB8"/>
<stop offset="0.34" stop-color="#FFC5C6"/>
<stop offset="0.485" stop-color="#FFB6F8"/>
<stop offset="0.635" stop-color="#BEB9FF"/>
<stop offset="0.769097" stop-color="#AFD0F7"/>
<stop offset="0.914403" stop-color="#ACF5FD"/>
</linearGradient>
<linearGradient id="paint3_linear_290_207" x1="96.5" y1="63.3917" x2="96.5" y2="121.392" gradientUnits="userSpaceOnUse">
<stop stop-color="white"/>
<stop offset="0.115" stop-color="#F9F0D7"/>
<stop offset="0.2" stop-color="#F3E2CF"/>
<stop offset="0.34" stop-color="#FFDDDE"/>
<stop offset="0.485" stop-color="#FFD9FB"/>
<stop offset="0.635" stop-color="#D4D1FF"/>
<stop offset="0.82" stop-color="#AFCBEB"/>
<stop offset="1" stop-color="#D7FAFE"/>
</linearGradient>
</defs>
</svg>
