<svg width="193" height="178" viewBox="0 0 193 178" fill="none" xmlns="http://www.w3.org/2000/svg">
<g filter="url(#filter0_f_290_230)">
<path d="M60 79.7168C60 96.1008 74.673 104.83 85.4113 112.646C89.2 115.402 92.85 118 96.5 118C100.15 118 103.8 115.406 107.589 112.643C118.331 104.834 133 96.1008 133 79.7202C133 63.3395 112.925 51.7127 96.5 67.4667C80.075 51.7127 60 63.3328 60 79.7168Z" fill="white"/>
</g>
<g filter="url(#filter1_f_290_230)">
<path d="M60 79.7168C60 96.1008 74.673 104.83 85.4113 112.646C89.2 115.402 92.85 118 96.5 118C100.15 118 103.8 115.406 107.589 112.643C118.331 104.834 133 96.1008 133 79.7202C133 63.3395 112.925 51.7127 96.5 67.4667C80.075 51.7127 60 63.3328 60 79.7168Z" fill="url(#paint0_linear_290_230)"/>
</g>
<g filter="url(#filter2_f_290_230)">
<path d="M60 79.7168C60 96.1008 74.673 104.83 85.4113 112.646C89.2 115.402 92.85 118 96.5 118C100.15 118 103.8 115.406 107.589 112.643C118.331 104.834 133 96.1008 133 79.7202C133 63.3395 112.925 51.7127 96.5 67.4667C80.075 51.7127 60 63.3328 60 79.7168Z" fill="url(#paint1_linear_290_230)"/>
</g>
<g filter="url(#filter3_f_290_230)">
<path d="M60 79.7168C60 96.1008 74.673 104.83 85.4113 112.646C89.2 115.402 92.85 118 96.5 118C100.15 118 103.8 115.406 107.589 112.643C118.331 104.834 133 96.1008 133 79.7202C133 63.3395 112.925 51.7127 96.5 67.4667C80.075 51.7127 60 63.3328 60 79.7168Z" fill="url(#paint2_linear_290_230)"/>
</g>
<g filter="url(#filter4_d_290_230)">
<path d="M60 82.5001C60 98.8841 74.673 107.613 85.4113 115.43C89.2 118.186 92.85 120.783 96.5 120.783C100.15 120.783 103.8 118.189 107.589 115.426C118.331 107.617 133 98.8841 133 82.5035C133 66.1229 112.925 54.4961 96.5 70.25C80.075 54.4961 60 66.1161 60 82.5001Z" fill="white"/>
<path d="M84.8228 116.238L84.8231 116.238C86.7085 117.61 88.6217 118.989 90.5329 120.02C92.4454 121.052 94.4405 121.783 96.5 121.783C98.5593 121.783 100.554 121.053 102.467 120.021C104.378 118.99 106.291 117.61 108.177 116.235C109.165 115.517 110.193 114.787 111.244 114.039C115.845 110.77 120.9 107.178 125.043 102.872C130.167 97.547 134 91.0332 134 82.5035C134 73.8935 128.724 66.5394 121.298 63.405C114.029 60.3369 104.799 61.3404 96.5 68.882C88.2009 61.3404 78.9707 60.3351 71.7019 63.402C64.2761 66.5351 59 73.8884 59 82.5001C59 91.0316 62.8337 97.5454 67.9582 102.871C72.0944 107.17 77.139 110.757 81.7324 114.024C82.7921 114.778 83.8278 115.514 84.8228 116.238Z" stroke="white" stroke-width="2"/>
</g>
<path d="M61.0732 79.9805C58.5 99 75.3349 108.164 86.0732 115.981C89.8619 118.736 92.85 121 96.5 121C100.15 121 110.5 111.5 115 109.5C125.742 101.69 131.5 92.5195 132.5 82C127 48.5195 99.9269 74.0195 92.5 81C85.0731 87.9805 63.6463 60.961 61.0732 79.9805Z" fill="url(#paint3_linear_290_230)"/>
<g filter="url(#filter5_d_290_230)">
<path d="M87.1458 97.3304C86.5473 97.3266 85.9697 97.2262 85.4128 97.0292C84.8598 96.8322 84.3636 96.5122 83.9242 96.069C83.4848 95.6258 83.1363 95.0387 82.8788 94.3076C82.625 93.5766 82.4981 92.6788 82.4981 91.6144C82.5019 90.6372 82.6136 89.7641 82.8333 88.9951C83.0568 88.2224 83.375 87.5671 83.7878 87.0292C84.2045 86.4913 84.7026 86.0822 85.2822 85.8019C85.8617 85.5179 86.5113 85.3758 87.231 85.3758C88.0075 85.3758 88.6931 85.5273 89.2878 85.8304C89.8825 86.1296 90.3598 86.5368 90.7197 87.0519C91.0833 87.5671 91.303 88.1447 91.3788 88.7849H88.9526C88.8579 88.3796 88.6591 88.0614 88.356 87.8304C88.053 87.5993 87.678 87.4838 87.231 87.4838C86.4735 87.4838 85.8977 87.8133 85.5038 88.4724C85.1136 89.1315 84.9147 90.0273 84.9072 91.1599H84.9867C85.161 90.8152 85.3958 90.5216 85.6913 90.2792C85.9905 90.033 86.3295 89.8455 86.7083 89.7167C87.0909 89.5841 87.4943 89.5179 87.9185 89.5179C88.6079 89.5179 89.2216 89.6807 89.7594 90.0065C90.2973 90.3285 90.7216 90.7716 91.0322 91.336C91.3428 91.9004 91.4981 92.5463 91.4981 93.2735C91.4981 94.0614 91.3144 94.7622 90.9469 95.3758C90.5833 95.9894 90.0738 96.4705 89.4185 96.819C88.767 97.1637 88.0094 97.3341 87.1458 97.3304ZM87.1344 95.3985C87.5132 95.3985 87.8522 95.3076 88.1515 95.1258C88.4507 94.944 88.6856 94.6978 88.856 94.3872C89.0265 94.0766 89.1117 93.7281 89.1117 93.3417C89.1117 92.9554 89.0265 92.6088 88.856 92.3019C88.6894 91.9951 88.4583 91.7508 88.1628 91.569C87.8674 91.3872 87.5303 91.2963 87.1515 91.2963C86.8674 91.2963 86.6041 91.3493 86.3617 91.4554C86.1231 91.5614 85.9128 91.7091 85.731 91.8985C85.553 92.0879 85.4128 92.3076 85.3106 92.5576C85.2083 92.8038 85.1572 93.0671 85.1572 93.3474C85.1572 93.7224 85.2424 94.0652 85.4128 94.3758C85.5871 94.6864 85.8219 94.9345 86.1174 95.1201C86.4166 95.3057 86.7556 95.3985 87.1344 95.3985ZM97.8049 97.4269C96.8276 97.4232 95.9867 97.1826 95.2822 96.7054C94.5814 96.2281 94.0416 95.5368 93.6628 94.6315C93.2878 93.7262 93.1022 92.6372 93.106 91.3644C93.106 90.0955 93.2935 89.0141 93.6685 88.1201C94.0473 87.2262 94.5871 86.5463 95.2878 86.0804C95.9924 85.6107 96.8314 85.3758 97.8049 85.3758C98.7784 85.3758 99.6155 85.6107 100.316 86.0804C101.021 86.5501 101.562 87.2319 101.941 88.1258C102.32 89.016 102.508 90.0955 102.504 91.3644C102.504 92.641 102.314 93.7319 101.936 94.6372C101.561 95.5425 101.023 96.2338 100.322 96.711C99.6212 97.1883 98.7822 97.4269 97.8049 97.4269ZM97.8049 95.3872C98.4716 95.3872 99.0038 95.0519 99.4015 94.3815C99.7992 93.711 99.9962 92.7054 99.9924 91.3644C99.9924 90.4819 99.9015 89.747 99.7197 89.1599C99.5416 88.5728 99.2878 88.1315 98.9583 87.836C98.6325 87.5406 98.2481 87.3929 97.8049 87.3929C97.142 87.3929 96.6117 87.7243 96.214 88.3872C95.8163 89.0501 95.6155 90.0425 95.6117 91.3644C95.6117 92.2584 95.7007 93.0046 95.8788 93.6031C96.0606 94.1978 96.3163 94.6447 96.6458 94.944C96.9753 95.2394 97.3617 95.3872 97.8049 95.3872ZM108.799 95.5349V95.0747C108.799 94.7252 108.873 94.4042 109.021 94.1116C109.171 93.8162 109.389 93.5804 109.673 93.4042C109.96 93.2252 110.309 93.1358 110.721 93.1358C111.139 93.1358 111.49 93.2238 111.774 93.4C112.061 93.5761 112.276 93.8119 112.421 94.1073C112.569 94.4 112.643 94.7224 112.643 95.0747V95.5349C112.643 95.8843 112.569 96.2068 112.421 96.5022C112.274 96.7948 112.056 97.0292 111.769 97.2054C111.482 97.3843 111.133 97.4738 110.721 97.4738C110.303 97.4738 109.953 97.3843 109.669 97.2054C109.384 97.0292 109.169 96.7948 109.021 96.5022C108.873 96.2068 108.799 95.8843 108.799 95.5349ZM110.039 95.0747V95.5349C110.039 95.7366 110.088 95.9269 110.184 96.1059C110.284 96.2849 110.463 96.3744 110.721 96.3744C110.98 96.3744 111.156 96.2863 111.249 96.1102C111.346 95.934 111.394 95.7423 111.394 95.5349V95.0747C111.394 94.8673 111.349 94.6741 111.258 94.4951C111.167 94.3162 110.988 94.2267 110.721 94.2267C110.465 94.2267 110.288 94.3162 110.188 94.4951C110.089 94.6741 110.039 94.8673 110.039 95.0747ZM104.321 90.5406V90.0804C104.321 89.7281 104.396 89.4056 104.546 89.113C104.697 88.8176 104.914 88.5818 105.198 88.4056C105.485 88.2295 105.832 88.1414 106.238 88.1414C106.659 88.1414 107.011 88.2295 107.295 88.4056C107.579 88.5818 107.795 88.8176 107.943 89.113C108.09 89.4056 108.164 89.7281 108.164 90.0804V90.5406C108.164 90.8929 108.089 91.2153 107.938 91.5079C107.791 91.8005 107.573 92.0349 107.286 92.211C107.002 92.3843 106.653 92.471 106.238 92.471C105.823 92.471 105.473 92.3829 105.186 92.2068C104.901 92.0278 104.686 91.7934 104.538 91.5037C104.393 91.211 104.321 90.89 104.321 90.5406ZM105.569 90.0804V90.5406C105.569 90.748 105.617 90.9397 105.714 91.1159C105.813 91.292 105.988 91.3801 106.238 91.3801C106.499 91.3801 106.677 91.292 106.771 91.1159C106.867 90.9397 106.916 90.748 106.916 90.5406V90.0804C106.916 89.873 106.87 89.6798 106.779 89.5008C106.688 89.3218 106.508 89.2323 106.238 89.2323C105.985 89.2323 105.811 89.3233 105.714 89.5051C105.617 89.6869 105.569 89.8787 105.569 90.0804ZM104.883 97.1713L110.883 88.444H111.999L105.999 97.1713H104.883Z" fill="#222547"/>
</g>
<defs>
<filter id="filter0_f_290_230" x="0" y="0" width="193" height="178" filterUnits="userSpaceOnUse" color-interpolation-filters="sRGB">
<feFlood flood-opacity="0" result="BackgroundImageFix"/>
<feBlend mode="normal" in="SourceGraphic" in2="BackgroundImageFix" result="shape"/>
<feGaussianBlur stdDeviation="30" result="effect1_foregroundBlur_290_230"/>
</filter>
<filter id="filter1_f_290_230" x="20" y="20" width="153" height="138" filterUnits="userSpaceOnUse" color-interpolation-filters="sRGB">
<feFlood flood-opacity="0" result="BackgroundImageFix"/>
<feBlend mode="normal" in="SourceGraphic" in2="BackgroundImageFix" result="shape"/>
<feGaussianBlur stdDeviation="20" result="effect1_foregroundBlur_290_230"/>
</filter>
<filter id="filter2_f_290_230" x="20" y="20" width="153" height="138" filterUnits="userSpaceOnUse" color-interpolation-filters="sRGB">
<feFlood flood-opacity="0" result="BackgroundImageFix"/>
<feBlend mode="normal" in="SourceGraphic" in2="BackgroundImageFix" result="shape"/>
<feGaussianBlur stdDeviation="20" result="effect1_foregroundBlur_290_230"/>
</filter>
<filter id="filter3_f_290_230" x="20" y="20" width="153" height="138" filterUnits="userSpaceOnUse" color-interpolation-filters="sRGB">
<feFlood flood-opacity="0" result="BackgroundImageFix"/>
<feBlend mode="normal" in="SourceGraphic" in2="BackgroundImageFix" result="shape"/>
<feGaussianBlur stdDeviation="20" result="effect1_foregroundBlur_290_230"/>
</filter>
<filter id="filter4_d_290_230" x="54" y="56.7824" width="85" height="70.0009" filterUnits="userSpaceOnUse" color-interpolation-filters="sRGB">
<feFlood flood-opacity="0" result="BackgroundImageFix"/>
<feColorMatrix in="SourceAlpha" type="matrix" values="0 0 0 0 0 0 0 0 0 0 0 0 0 0 0 0 0 0 127 0" result="hardAlpha"/>
<feOffset/>
<feGaussianBlur stdDeviation="2"/>
<feComposite in2="hardAlpha" operator="out"/>
<feColorMatrix type="matrix" values="0 0 0 0 0 0 0 0 0 0 0 0 0 0 0 0 0 0 0.6 0"/>
<feBlend mode="normal" in2="BackgroundImageFix" result="effect1_dropShadow_290_230"/>
<feBlend mode="normal" in="SourceGraphic" in2="effect1_dropShadow_290_230" result="shape"/>
</filter>
<filter id="filter5_d_290_230" x="81.498" y="85.3758" width="32.145" height="14.098" filterUnits="userSpaceOnUse" color-interpolation-filters="sRGB">
<feFlood flood-opacity="0" result="BackgroundImageFix"/>
<feColorMatrix in="SourceAlpha" type="matrix" values="0 0 0 0 0 0 0 0 0 0 0 0 0 0 0 0 0 0 127 0" result="hardAlpha"/>
<feOffset dy="1"/>
<feGaussianBlur stdDeviation="0.5"/>
<feComposite in2="hardAlpha" operator="out"/>
<feColorMatrix type="matrix" values="0 0 0 0 1 0 0 0 0 1 0 0 0 0 1 0 0 0 0.6 0"/>
<feBlend mode="normal" in2="BackgroundImageFix" result="effect1_dropShadow_290_230"/>
<feBlend mode="normal" in="SourceGraphic" in2="effect1_dropShadow_290_230" result="shape"/>
</filter>
<linearGradient id="paint0_linear_290_230" x1="60" y1="89" x2="133" y2="89" gradientUnits="userSpaceOnUse">
<stop stop-color="white"/>
<stop offset="0.115" stop-color="#FFEBB5"/>
<stop offset="0.2" stop-color="#FFDEB8"/>
<stop offset="0.34" stop-color="#FFC5C6"/>
<stop offset="0.485" stop-color="#FFB6F8"/>
<stop offset="0.635" stop-color="#BEB9FF"/>
<stop offset="0.769097" stop-color="#AFD0F7"/>
<stop offset="0.914403" stop-color="#ACF5FD"/>
</linearGradient>
<linearGradient id="paint1_linear_290_230" x1="60" y1="89" x2="133" y2="89" gradientUnits="userSpaceOnUse">
<stop stop-color="white"/>
<stop offset="0.115" stop-color="#FFEBB5"/>
<stop offset="0.2" stop-color="#FFDEB8"/>
<stop offset="0.34" stop-color="#FFC5C6"/>
<stop offset="0.485" stop-color="#FFB6F8"/>
<stop offset="0.635" stop-color="#BEB9FF"/>
<stop offset="0.769097" stop-color="#AFD0F7"/>
<stop offset="0.914403" stop-color="#ACF5FD"/>
</linearGradient>
<linearGradient id="paint2_linear_290_230" x1="60" y1="89" x2="133" y2="89" gradientUnits="userSpaceOnUse">
<stop stop-color="white"/>
<stop offset="0.115" stop-color="#FFEBB5"/>
<stop offset="0.2" stop-color="#FFDEB8"/>
<stop offset="0.34" stop-color="#FFC5C6"/>
<stop offset="0.485" stop-color="#FFB6F8"/>
<stop offset="0.635" stop-color="#BEB9FF"/>
<stop offset="0.769097" stop-color="#AFD0F7"/>
<stop offset="0.914403" stop-color="#ACF5FD"/>
</linearGradient>
<linearGradient id="paint3_linear_290_230" x1="96.4999" y1="63.3917" x2="96.4999" y2="121.392" gradientUnits="userSpaceOnUse">
<stop stop-color="white"/>
<stop offset="0.115" stop-color="#F9F0D7"/>
<stop offset="0.2" stop-color="#F3E2CF"/>
<stop offset="0.34" stop-color="#FFDDDE"/>
<stop offset="0.485" stop-color="#FFD9FB"/>
<stop offset="0.635" stop-color="#D4D1FF"/>
<stop offset="0.82" stop-color="#AFCBEB"/>
<stop offset="1" stop-color="#D7FAFE"/>
</linearGradient>
</defs>
</svg>
