<svg width="193" height="178" viewBox="0 0 193 178" fill="none" xmlns="http://www.w3.org/2000/svg">
<g filter="url(#filter0_f_290_251)">
<path d="M60 79.7168C60 96.1008 74.673 104.83 85.4113 112.646C89.2 115.402 92.85 118 96.5 118C100.15 118 103.8 115.406 107.589 112.643C118.331 104.834 133 96.1008 133 79.7202C133 63.3395 112.925 51.7127 96.5 67.4667C80.075 51.7127 60 63.3328 60 79.7168Z" fill="white"/>
</g>
<g filter="url(#filter1_f_290_251)">
<path d="M60 79.7168C60 96.1008 74.673 104.83 85.4113 112.646C89.2 115.402 92.85 118 96.5 118C100.15 118 103.8 115.406 107.589 112.643C118.331 104.834 133 96.1008 133 79.7202C133 63.3395 112.925 51.7127 96.5 67.4667C80.075 51.7127 60 63.3328 60 79.7168Z" fill="url(#paint0_linear_290_251)"/>
</g>
<g filter="url(#filter2_f_290_251)">
<path d="M60 79.7168C60 96.1008 74.673 104.83 85.4113 112.646C89.2 115.402 92.85 118 96.5 118C100.15 118 103.8 115.406 107.589 112.643C118.331 104.834 133 96.1008 133 79.7202C133 63.3395 112.925 51.7127 96.5 67.4667C80.075 51.7127 60 63.3328 60 79.7168Z" fill="url(#paint1_linear_290_251)"/>
</g>
<g filter="url(#filter3_f_290_251)">
<path d="M60 79.7168C60 96.1008 74.673 104.83 85.4113 112.646C89.2 115.402 92.85 118 96.5 118C100.15 118 103.8 115.406 107.589 112.643C118.331 104.834 133 96.1008 133 79.7202C133 63.3395 112.925 51.7127 96.5 67.4667C80.075 51.7127 60 63.3328 60 79.7168Z" fill="url(#paint2_linear_290_251)"/>
</g>
<g filter="url(#filter4_d_290_251)">
<path d="M60 82.5001C60 98.8841 74.673 107.613 85.4113 115.43C89.2 118.186 92.85 120.783 96.5 120.783C100.15 120.783 103.8 118.189 107.589 115.426C118.331 107.617 133 98.8841 133 82.5035C133 66.1229 112.925 54.4961 96.5 70.25C80.075 54.4961 60 66.1161 60 82.5001Z" fill="white"/>
<path d="M84.8228 116.238L84.8231 116.238C86.7085 117.61 88.6217 118.989 90.5329 120.02C92.4454 121.052 94.4405 121.783 96.5 121.783C98.5593 121.783 100.554 121.053 102.467 120.021C104.378 118.99 106.291 117.61 108.177 116.235C109.165 115.517 110.193 114.787 111.244 114.039C115.845 110.77 120.9 107.178 125.043 102.872C130.167 97.547 134 91.0332 134 82.5035C134 73.8935 128.724 66.5394 121.298 63.405C114.029 60.3369 104.799 61.3404 96.5 68.882C88.2009 61.3404 78.9707 60.3351 71.7019 63.402C64.2761 66.5351 59 73.8884 59 82.5001C59 91.0316 62.8337 97.5454 67.9582 102.871C72.0944 107.17 77.139 110.757 81.7324 114.024C82.7921 114.778 83.8278 115.514 84.8228 116.238Z" stroke="white" stroke-width="2"/>
</g>
<path d="M60.9108 78.9805C58.3376 98 75.1725 107.164 85.9108 114.981C89.6995 117.736 92.6876 120 96.3376 120C99.9876 120 111.338 111.045 114.838 108.5C125.58 100.69 132.838 91.5 132.838 81.5C123.5 48.5 97.4084 72.2417 89.5 76.5C81.5916 80.7583 63.484 59.961 60.9108 78.9805Z" fill="url(#paint3_linear_290_251)"/>
<g filter="url(#filter5_d_290_251)">
<path d="M87.013 97.3304C86.138 97.3304 85.3596 97.1883 84.6778 96.9042C83.9997 96.6163 83.4675 96.2243 83.0812 95.7281C82.6948 95.2319 82.5016 94.6694 82.5016 94.0406C82.5016 93.5557 82.6115 93.1107 82.8312 92.7054C83.0547 92.2963 83.3577 91.9572 83.7403 91.6883C84.1228 91.4156 84.5509 91.2413 85.0243 91.1656V91.086C84.4031 90.961 83.8993 90.6599 83.513 90.1826C83.1266 89.7016 82.9334 89.1429 82.9334 88.5065C82.9334 87.9042 83.1096 87.3682 83.4618 86.8985C83.8141 86.4251 84.2971 86.0538 84.9107 85.7849C85.5281 85.5122 86.2289 85.3758 87.013 85.3758C87.7971 85.3758 88.4959 85.5122 89.1096 85.7849C89.727 86.0576 90.2118 86.4307 90.5641 86.9042C90.9164 87.3739 91.0944 87.908 91.0982 88.5065C91.0944 89.1466 90.8975 89.7054 90.5073 90.1826C90.1172 90.6599 89.6172 90.961 89.0073 91.086V91.1656C89.4732 91.2413 89.8956 91.4156 90.2744 91.6883C90.6569 91.9572 90.96 92.2963 91.1834 92.7054C91.4107 93.1107 91.5262 93.5557 91.53 94.0406C91.5262 94.6694 91.3312 95.2319 90.9448 95.7281C90.5584 96.2243 90.0244 96.6163 89.3425 96.9042C88.6645 97.1883 87.888 97.3304 87.013 97.3304ZM87.013 95.5235C87.4031 95.5235 87.744 95.4535 88.0357 95.3133C88.3274 95.1694 88.5547 94.9724 88.7175 94.7224C88.8842 94.4686 88.9675 94.1769 88.9675 93.8474C88.9675 93.5103 88.8823 93.2129 88.7119 92.9554C88.5414 92.694 88.3103 92.4894 88.0187 92.3417C87.727 92.1902 87.3918 92.1144 87.013 92.1144C86.638 92.1144 86.3028 92.1902 86.0073 92.3417C85.7118 92.4894 85.4789 92.694 85.3084 92.9554C85.1418 93.2129 85.0584 93.5103 85.0584 93.8474C85.0584 94.1769 85.1399 94.4686 85.3028 94.7224C85.4656 94.9724 85.6948 95.1694 85.9903 95.3133C86.2857 95.4535 86.6266 95.5235 87.013 95.5235ZM87.013 90.3247C87.3387 90.3247 87.6285 90.2584 87.8823 90.1258C88.1361 89.9932 88.335 89.8095 88.4789 89.5747C88.6228 89.3398 88.6948 89.069 88.6948 88.7622C88.6948 88.4591 88.6228 88.194 88.4789 87.9667C88.335 87.7357 88.138 87.5557 87.888 87.4269C87.638 87.2944 87.3463 87.2281 87.013 87.2281C86.6834 87.2281 86.3918 87.2944 86.138 87.4269C85.8842 87.5557 85.6853 87.7357 85.5414 87.9667C85.4012 88.194 85.3312 88.4591 85.3312 88.7622C85.3312 89.069 85.4031 89.3398 85.5471 89.5747C85.691 89.8095 85.8899 89.9932 86.1437 90.1258C86.3975 90.2584 86.6872 90.3247 87.013 90.3247ZM97.8127 97.4269C96.8354 97.4232 95.9945 97.1826 95.29 96.7054C94.5892 96.2281 94.0494 95.5368 93.6707 94.6315C93.2957 93.7262 93.1101 92.6372 93.1138 91.3644C93.1138 90.0955 93.3013 89.0141 93.6763 88.1201C94.0551 87.2262 94.5949 86.5463 95.2957 86.0804C96.0002 85.6107 96.8392 85.3758 97.8127 85.3758C98.7862 85.3758 99.6233 85.6107 100.324 86.0804C101.029 86.5501 101.57 87.2319 101.949 88.1258C102.328 89.016 102.515 90.0955 102.512 91.3644C102.512 92.641 102.322 93.7319 101.943 94.6372C101.568 95.5425 101.031 96.2338 100.33 96.711C99.629 97.1883 98.79 97.4269 97.8127 97.4269ZM97.8127 95.3872C98.4794 95.3872 99.0116 95.0519 99.4093 94.3815C99.807 93.711 100.004 92.7054 100 91.3644C100 90.4819 99.9093 89.747 99.7275 89.1599C99.5494 88.5728 99.2957 88.1315 98.9661 87.836C98.6404 87.5406 98.2559 87.3929 97.8127 87.3929C97.1498 87.3929 96.6195 87.7243 96.2218 88.3872C95.8241 89.0501 95.6233 90.0425 95.6195 91.3644C95.6195 92.2584 95.7085 93.0046 95.8866 93.6031C96.0684 94.1978 96.3241 94.6447 96.6536 94.944C96.9832 95.2394 97.3695 95.3872 97.8127 95.3872ZM108.807 95.5349V95.0747C108.807 94.7252 108.881 94.4042 109.029 94.1116C109.179 93.8162 109.397 93.5804 109.681 93.4042C109.968 93.2252 110.317 93.1358 110.729 93.1358C111.147 93.1358 111.497 93.2238 111.781 93.4C112.068 93.5761 112.284 93.8119 112.429 94.1073C112.577 94.4 112.651 94.7224 112.651 95.0747V95.5349C112.651 95.8843 112.577 96.2068 112.429 96.5022C112.281 96.7948 112.064 97.0292 111.777 97.2054C111.49 97.3843 111.141 97.4738 110.729 97.4738C110.311 97.4738 109.96 97.3843 109.676 97.2054C109.392 97.0292 109.176 96.7948 109.029 96.5022C108.881 96.2068 108.807 95.8843 108.807 95.5349ZM110.047 95.0747V95.5349C110.047 95.7366 110.095 95.9269 110.192 96.1059C110.291 96.2849 110.47 96.3744 110.729 96.3744C110.987 96.3744 111.164 96.2863 111.257 96.1102C111.354 95.934 111.402 95.7423 111.402 95.5349V95.0747C111.402 94.8673 111.357 94.6741 111.266 94.4951C111.175 94.3162 110.996 94.2267 110.729 94.2267C110.473 94.2267 110.296 94.3162 110.196 94.4951C110.097 94.6741 110.047 94.8673 110.047 95.0747ZM104.328 90.5406V90.0804C104.328 89.7281 104.404 89.4056 104.554 89.113C104.705 88.8176 104.922 88.5818 105.206 88.4056C105.493 88.2295 105.84 88.1414 106.246 88.1414C106.666 88.1414 107.019 88.2295 107.303 88.4056C107.587 88.5818 107.803 88.8176 107.95 89.113C108.098 89.4056 108.172 89.7281 108.172 90.0804V90.5406C108.172 90.8929 108.097 91.2153 107.946 91.5079C107.798 91.8005 107.581 92.0349 107.294 92.211C107.01 92.3843 106.661 92.471 106.246 92.471C105.831 92.471 105.48 92.3829 105.193 92.2068C104.909 92.0278 104.693 91.7934 104.546 91.5037C104.401 91.211 104.328 90.89 104.328 90.5406ZM105.577 90.0804V90.5406C105.577 90.748 105.625 90.9397 105.722 91.1159C105.821 91.292 105.996 91.3801 106.246 91.3801C106.507 91.3801 106.685 91.292 106.779 91.1159C106.875 90.9397 106.923 90.748 106.923 90.5406V90.0804C106.923 89.873 106.878 89.6798 106.787 89.5008C106.696 89.3218 106.516 89.2323 106.246 89.2323C105.993 89.2323 105.818 89.3233 105.722 89.5051C105.625 89.6869 105.577 89.8787 105.577 90.0804ZM104.891 97.1713L110.891 88.444H112.007L106.007 97.1713H104.891Z" fill="#222547"/>
</g>
<defs>
<filter id="filter0_f_290_251" x="0" y="0" width="193" height="178" filterUnits="userSpaceOnUse" color-interpolation-filters="sRGB">
<feFlood flood-opacity="0" result="BackgroundImageFix"/>
<feBlend mode="normal" in="SourceGraphic" in2="BackgroundImageFix" result="shape"/>
<feGaussianBlur stdDeviation="30" result="effect1_foregroundBlur_290_251"/>
</filter>
<filter id="filter1_f_290_251" x="20" y="20" width="153" height="138" filterUnits="userSpaceOnUse" color-interpolation-filters="sRGB">
<feFlood flood-opacity="0" result="BackgroundImageFix"/>
<feBlend mode="normal" in="SourceGraphic" in2="BackgroundImageFix" result="shape"/>
<feGaussianBlur stdDeviation="20" result="effect1_foregroundBlur_290_251"/>
</filter>
<filter id="filter2_f_290_251" x="20" y="20" width="153" height="138" filterUnits="userSpaceOnUse" color-interpolation-filters="sRGB">
<feFlood flood-opacity="0" result="BackgroundImageFix"/>
<feBlend mode="normal" in="SourceGraphic" in2="BackgroundImageFix" result="shape"/>
<feGaussianBlur stdDeviation="20" result="effect1_foregroundBlur_290_251"/>
</filter>
<filter id="filter3_f_290_251" x="20" y="20" width="153" height="138" filterUnits="userSpaceOnUse" color-interpolation-filters="sRGB">
<feFlood flood-opacity="0" result="BackgroundImageFix"/>
<feBlend mode="normal" in="SourceGraphic" in2="BackgroundImageFix" result="shape"/>
<feGaussianBlur stdDeviation="20" result="effect1_foregroundBlur_290_251"/>
</filter>
<filter id="filter4_d_290_251" x="54" y="56.7824" width="85" height="70.0009" filterUnits="userSpaceOnUse" color-interpolation-filters="sRGB">
<feFlood flood-opacity="0" result="BackgroundImageFix"/>
<feColorMatrix in="SourceAlpha" type="matrix" values="0 0 0 0 0 0 0 0 0 0 0 0 0 0 0 0 0 0 127 0" result="hardAlpha"/>
<feOffset/>
<feGaussianBlur stdDeviation="2"/>
<feComposite in2="hardAlpha" operator="out"/>
<feColorMatrix type="matrix" values="0 0 0 0 0 0 0 0 0 0 0 0 0 0 0 0 0 0 0.6 0"/>
<feBlend mode="normal" in2="BackgroundImageFix" result="effect1_dropShadow_290_251"/>
<feBlend mode="normal" in="SourceGraphic" in2="effect1_dropShadow_290_251" result="shape"/>
</filter>
<filter id="filter5_d_290_251" x="81.5017" y="85.3758" width="32.1492" height="14.098" filterUnits="userSpaceOnUse" color-interpolation-filters="sRGB">
<feFlood flood-opacity="0" result="BackgroundImageFix"/>
<feColorMatrix in="SourceAlpha" type="matrix" values="0 0 0 0 0 0 0 0 0 0 0 0 0 0 0 0 0 0 127 0" result="hardAlpha"/>
<feOffset dy="1"/>
<feGaussianBlur stdDeviation="0.5"/>
<feComposite in2="hardAlpha" operator="out"/>
<feColorMatrix type="matrix" values="0 0 0 0 1 0 0 0 0 1 0 0 0 0 1 0 0 0 0.6 0"/>
<feBlend mode="normal" in2="BackgroundImageFix" result="effect1_dropShadow_290_251"/>
<feBlend mode="normal" in="SourceGraphic" in2="effect1_dropShadow_290_251" result="shape"/>
</filter>
<linearGradient id="paint0_linear_290_251" x1="60" y1="89" x2="133" y2="89" gradientUnits="userSpaceOnUse">
<stop stop-color="white"/>
<stop offset="0.115" stop-color="#FFEBB5"/>
<stop offset="0.2" stop-color="#FFDEB8"/>
<stop offset="0.34" stop-color="#FFC5C6"/>
<stop offset="0.485" stop-color="#FFB6F8"/>
<stop offset="0.635" stop-color="#BEB9FF"/>
<stop offset="0.769097" stop-color="#AFD0F7"/>
<stop offset="0.914403" stop-color="#ACF5FD"/>
</linearGradient>
<linearGradient id="paint1_linear_290_251" x1="60" y1="89" x2="133" y2="89" gradientUnits="userSpaceOnUse">
<stop stop-color="white"/>
<stop offset="0.115" stop-color="#FFEBB5"/>
<stop offset="0.2" stop-color="#FFDEB8"/>
<stop offset="0.34" stop-color="#FFC5C6"/>
<stop offset="0.485" stop-color="#FFB6F8"/>
<stop offset="0.635" stop-color="#BEB9FF"/>
<stop offset="0.769097" stop-color="#AFD0F7"/>
<stop offset="0.914403" stop-color="#ACF5FD"/>
</linearGradient>
<linearGradient id="paint2_linear_290_251" x1="60" y1="89" x2="133" y2="89" gradientUnits="userSpaceOnUse">
<stop stop-color="white"/>
<stop offset="0.115" stop-color="#FFEBB5"/>
<stop offset="0.2" stop-color="#FFDEB8"/>
<stop offset="0.34" stop-color="#FFC5C6"/>
<stop offset="0.485" stop-color="#FFB6F8"/>
<stop offset="0.635" stop-color="#BEB9FF"/>
<stop offset="0.769097" stop-color="#AFD0F7"/>
<stop offset="0.914403" stop-color="#ACF5FD"/>
</linearGradient>
<linearGradient id="paint3_linear_290_251" x1="96.4999" y1="63.3917" x2="96.4999" y2="121.392" gradientUnits="userSpaceOnUse">
<stop stop-color="white"/>
<stop offset="0.115" stop-color="#F9F0D7"/>
<stop offset="0.2" stop-color="#F3E2CF"/>
<stop offset="0.34" stop-color="#FFDDDE"/>
<stop offset="0.485" stop-color="#FFD9FB"/>
<stop offset="0.635" stop-color="#D4D1FF"/>
<stop offset="0.82" stop-color="#AFCBEB"/>
<stop offset="1" stop-color="#D7FAFE"/>
</linearGradient>
</defs>
</svg>
