<svg width="36" height="41" viewBox="0 0 36 41" fill="none" xmlns="http://www.w3.org/2000/svg">
<path d="M26 21.6667L18 29.6667L10 21.6667H26Z" fill="white" stroke="white" stroke-width="2" stroke-linejoin="round"/>
<path d="M8.70206 3.54545V13H7.17862L2.72372 6.56001H2.64524V13H0.932528V3.54545H2.4652L6.91548 9.99006H6.99858V3.54545H8.70206ZM10.5683 13V3.54545H16.7174V4.98118H12.281V7.54794H16.3989V8.98366H12.281V11.5643H16.7544V13H10.5683ZM19.8959 3.54545L21.9779 7.00781H22.0518L24.143 3.54545H26.0958L23.1828 8.27273L26.142 13H24.1569L22.0518 9.56072H21.9779L19.8728 13H17.8969L20.8838 8.27273L17.9339 3.54545H19.8959ZM27.0249 4.98118V3.54545H34.5682V4.98118H31.646V13H29.9471V4.98118H27.0249Z" fill="white"/>
</svg>
