<svg width="295" height="112" viewBox="0 0 295 112" fill="none" xmlns="http://www.w3.org/2000/svg">
<g filter="url(#filter0_f_108_52)">
<path d="M32.4683 35.176H55.5803V40.522H32.4683V35.176ZM31.5503 47.866H56.0123V53.266H31.5503V47.866ZM40.8923 30.424H47.1023V38.848H40.8923V30.424ZM41.1083 53.104H47.3183V80.806H41.1083V53.104ZM41.0543 59.8L45.5363 62.392C43.2683 68.224 38.7323 74.542 34.3043 78.16C33.4943 76.648 31.9823 74.434 30.6863 73.246C34.8443 70.492 39.0563 65.038 41.0543 59.8ZM46.5623 62.5C48.3983 63.742 54.3383 68.764 55.7423 70.006L51.7463 74.704C49.8563 72.166 45.3743 67.36 43.1063 65.2L46.5623 62.5ZM35.2223 41.17L40.1903 40.09C41.1623 42.25 41.9723 45.22 42.1343 47.218L36.9503 48.46C36.8423 46.516 36.1403 43.438 35.2223 41.17ZM47.4263 39.928L53.2043 41.062C52.2323 43.708 51.3683 46.408 50.6123 48.244L45.6983 47.164C46.2923 45.112 47.1023 42.088 47.4263 39.928ZM63.2483 46.516V49.864H73.6163V46.516H63.2483ZM63.2483 54.94V58.342H73.6163V54.94H63.2483ZM63.2483 38.146V41.494H73.6163V38.146H63.2483ZM57.4703 32.53H79.6643V63.958H57.4703V32.53ZM68.7563 62.284H74.5883V72.868C74.5883 74.272 74.6963 74.434 75.3443 74.434C75.5603 74.434 76.4243 74.434 76.7483 74.434C77.5043 74.434 77.6663 73.786 77.7743 67.954C78.9083 68.926 81.4463 69.898 83.0123 70.276C82.5263 78.052 81.0143 79.996 77.4503 79.996C76.5323 79.996 75.1283 79.996 74.2643 79.996C69.6743 79.996 68.7563 78.16 68.7563 72.976V62.284ZM60.3863 62.554H66.2183C65.6243 71.248 63.8423 77.404 54.8783 80.968C54.2843 79.564 52.6643 77.35 51.4223 76.27C58.8203 73.624 59.9003 69.142 60.3863 62.554ZM31.9823 57.316H55.4723V62.716H31.9823V57.316ZM87.6563 42.682H134.042V53.374H127.616V47.65H93.7583V52.618H87.6563V42.682ZM127.13 30.046L131.396 34.366C120.218 36.688 104.018 37.66 90.3563 37.876C90.2483 36.526 89.6543 34.366 89.1143 33.178C102.452 32.908 118.166 31.882 127.13 30.046ZM94.1903 38.038L99.2663 35.932C100.832 37.714 102.398 40.198 102.992 42.034L97.5383 44.302C97.0523 42.574 95.5943 39.928 94.1903 38.038ZM105.854 36.958L111.038 35.068C112.496 37.066 113.954 39.766 114.44 41.656L108.932 43.654C108.554 41.872 107.258 39.01 105.854 36.958ZM119.408 52.078L123.728 49C126.86 51.268 130.64 54.724 132.314 57.262L127.67 60.718C126.104 58.234 122.486 54.562 119.408 52.078ZM105.53 48.946L108.662 45.652C111.362 46.732 114.818 48.514 116.546 49.972L113.306 53.59C111.632 52.132 108.338 50.134 105.53 48.946ZM122.972 35.068L129.344 37.12C127.346 39.982 125.294 42.898 123.62 44.788L118.76 42.952C120.218 40.738 122.054 37.444 122.972 35.068ZM120.002 62.068H121.298L122.324 61.906L126.374 64.498C119.678 75.028 105.26 79.294 89.8163 81.022C89.2223 79.51 87.6023 76.918 86.4143 75.676C101.534 74.596 114.926 71.14 120.002 62.986V62.068ZM102.452 65.146C108.554 71.41 120.974 74.434 135.662 75.19C134.312 76.54 132.746 79.24 131.936 80.914C116.87 79.618 104.72 75.622 97.4303 67.09L102.452 65.146ZM105.26 57.748L110.822 59.692C106.34 65.308 98.8343 69.79 91.9763 72.49C91.0043 71.356 88.8443 69.196 87.6023 68.224C94.6223 66.064 101.588 62.338 105.26 57.748ZM100.94 50.026H106.88V53.752C106.88 54.994 107.258 55.102 109.094 55.102C109.904 55.102 113.63 55.102 114.764 55.102C116.114 55.102 116.438 54.778 116.654 52.564C117.788 53.32 120.056 54.022 121.568 54.292C121.028 58.504 119.516 59.584 115.466 59.584C114.17 59.584 109.526 59.584 108.284 59.584C102.344 59.584 100.94 58.288 100.94 53.806V50.026ZM95.9723 49.972L100.832 52.078C99.3743 55.534 97.1063 58.99 93.5963 61.258L89.1683 57.64C92.2463 55.912 94.6763 52.942 95.9723 49.972ZM103.856 62.068H121.46V66.496H99.4283L103.856 62.068ZM151.322 45.328H188.852V50.458H151.322V45.328ZM151.754 61.096H181.4V66.172H151.754V61.096ZM158.666 41.764H164.768V54.022H174.65V41.764H181.022V58.936H158.666V41.764ZM179.726 61.096H180.968L182.102 60.826L186.152 62.878C180.32 74.596 167.252 79.078 152.078 80.968C151.592 79.348 150.404 76.918 149.378 75.568C163.202 74.38 175.352 70.546 179.726 61.906V61.096ZM162.824 65.038C167.684 71.086 177.782 74.38 190.202 75.46C188.852 76.81 187.232 79.402 186.422 81.022C173.3 79.402 163.31 75.082 157.262 67.036L162.824 65.038ZM163.148 30.154H169.898V38.254H163.148V30.154ZM146.948 35.014H189.122V40.792H146.948V35.014ZM143.762 35.014H149.972V50.242C149.972 59.044 149.162 72.328 144.248 80.698C143.114 79.618 140.414 77.836 138.902 77.134C143.438 69.466 143.762 58.18 143.762 50.242V35.014ZM219.493 36.7273H227.797V62.2315C227.797 65.0952 227.113 67.6009 225.745 69.7486C224.39 71.8963 222.491 73.571 220.05 74.7727C217.608 75.9616 214.763 76.5561 211.516 76.5561C208.256 76.5561 205.405 75.9616 202.964 74.7727C200.522 73.571 198.623 71.8963 197.268 69.7486C195.913 67.6009 195.236 65.0952 195.236 62.2315V36.7273H203.539V61.522C203.539 63.0178 203.865 64.3473 204.517 65.5107C205.182 66.674 206.115 67.5881 207.317 68.2528C208.518 68.9176 209.918 69.25 211.516 69.25C213.127 69.25 214.527 68.9176 215.716 68.2528C216.917 67.5881 217.844 66.674 218.496 65.5107C219.161 64.3473 219.493 63.0178 219.493 61.522V36.7273ZM234.628 76V36.7273H250.123C253.101 36.7273 255.639 37.2962 257.735 38.4339C259.832 39.5589 261.43 41.125 262.529 43.1321C263.642 45.1264 264.198 47.4276 264.198 50.0355C264.198 52.6435 263.635 54.9446 262.51 56.9389C261.385 58.9332 259.755 60.4865 257.62 61.5987C255.498 62.7109 252.929 63.267 249.912 63.267H240.036V56.6129H248.569C250.167 56.6129 251.484 56.3381 252.52 55.7884C253.568 55.2259 254.348 54.4524 254.859 53.468C255.383 52.4709 255.645 51.3267 255.645 50.0355C255.645 48.7315 255.383 47.5937 254.859 46.6222C254.348 45.6378 253.568 44.8771 252.52 44.3402C251.471 43.7905 250.142 43.5156 248.531 43.5156H242.931V76H234.628Z" fill="url(#paint0_linear_108_52)"/>
</g>
<g filter="url(#filter1_f_108_52)">
<path d="M32.4683 35.176H55.5803V40.522H32.4683V35.176ZM31.5503 47.866H56.0123V53.266H31.5503V47.866ZM40.8923 30.424H47.1023V38.848H40.8923V30.424ZM41.1083 53.104H47.3183V80.806H41.1083V53.104ZM41.0543 59.8L45.5363 62.392C43.2683 68.224 38.7323 74.542 34.3043 78.16C33.4943 76.648 31.9823 74.434 30.6863 73.246C34.8443 70.492 39.0563 65.038 41.0543 59.8ZM46.5623 62.5C48.3983 63.742 54.3383 68.764 55.7423 70.006L51.7463 74.704C49.8563 72.166 45.3743 67.36 43.1063 65.2L46.5623 62.5ZM35.2223 41.17L40.1903 40.09C41.1623 42.25 41.9723 45.22 42.1343 47.218L36.9503 48.46C36.8423 46.516 36.1403 43.438 35.2223 41.17ZM47.4263 39.928L53.2043 41.062C52.2323 43.708 51.3683 46.408 50.6123 48.244L45.6983 47.164C46.2923 45.112 47.1023 42.088 47.4263 39.928ZM63.2483 46.516V49.864H73.6163V46.516H63.2483ZM63.2483 54.94V58.342H73.6163V54.94H63.2483ZM63.2483 38.146V41.494H73.6163V38.146H63.2483ZM57.4703 32.53H79.6643V63.958H57.4703V32.53ZM68.7563 62.284H74.5883V72.868C74.5883 74.272 74.6963 74.434 75.3443 74.434C75.5603 74.434 76.4243 74.434 76.7483 74.434C77.5043 74.434 77.6663 73.786 77.7743 67.954C78.9083 68.926 81.4463 69.898 83.0123 70.276C82.5263 78.052 81.0143 79.996 77.4503 79.996C76.5323 79.996 75.1283 79.996 74.2643 79.996C69.6743 79.996 68.7563 78.16 68.7563 72.976V62.284ZM60.3863 62.554H66.2183C65.6243 71.248 63.8423 77.404 54.8783 80.968C54.2843 79.564 52.6643 77.35 51.4223 76.27C58.8203 73.624 59.9003 69.142 60.3863 62.554ZM31.9823 57.316H55.4723V62.716H31.9823V57.316ZM87.6563 42.682H134.042V53.374H127.616V47.65H93.7583V52.618H87.6563V42.682ZM127.13 30.046L131.396 34.366C120.218 36.688 104.018 37.66 90.3563 37.876C90.2483 36.526 89.6543 34.366 89.1143 33.178C102.452 32.908 118.166 31.882 127.13 30.046ZM94.1903 38.038L99.2663 35.932C100.832 37.714 102.398 40.198 102.992 42.034L97.5383 44.302C97.0523 42.574 95.5943 39.928 94.1903 38.038ZM105.854 36.958L111.038 35.068C112.496 37.066 113.954 39.766 114.44 41.656L108.932 43.654C108.554 41.872 107.258 39.01 105.854 36.958ZM119.408 52.078L123.728 49C126.86 51.268 130.64 54.724 132.314 57.262L127.67 60.718C126.104 58.234 122.486 54.562 119.408 52.078ZM105.53 48.946L108.662 45.652C111.362 46.732 114.818 48.514 116.546 49.972L113.306 53.59C111.632 52.132 108.338 50.134 105.53 48.946ZM122.972 35.068L129.344 37.12C127.346 39.982 125.294 42.898 123.62 44.788L118.76 42.952C120.218 40.738 122.054 37.444 122.972 35.068ZM120.002 62.068H121.298L122.324 61.906L126.374 64.498C119.678 75.028 105.26 79.294 89.8163 81.022C89.2223 79.51 87.6023 76.918 86.4143 75.676C101.534 74.596 114.926 71.14 120.002 62.986V62.068ZM102.452 65.146C108.554 71.41 120.974 74.434 135.662 75.19C134.312 76.54 132.746 79.24 131.936 80.914C116.87 79.618 104.72 75.622 97.4303 67.09L102.452 65.146ZM105.26 57.748L110.822 59.692C106.34 65.308 98.8343 69.79 91.9763 72.49C91.0043 71.356 88.8443 69.196 87.6023 68.224C94.6223 66.064 101.588 62.338 105.26 57.748ZM100.94 50.026H106.88V53.752C106.88 54.994 107.258 55.102 109.094 55.102C109.904 55.102 113.63 55.102 114.764 55.102C116.114 55.102 116.438 54.778 116.654 52.564C117.788 53.32 120.056 54.022 121.568 54.292C121.028 58.504 119.516 59.584 115.466 59.584C114.17 59.584 109.526 59.584 108.284 59.584C102.344 59.584 100.94 58.288 100.94 53.806V50.026ZM95.9723 49.972L100.832 52.078C99.3743 55.534 97.1063 58.99 93.5963 61.258L89.1683 57.64C92.2463 55.912 94.6763 52.942 95.9723 49.972ZM103.856 62.068H121.46V66.496H99.4283L103.856 62.068ZM151.322 45.328H188.852V50.458H151.322V45.328ZM151.754 61.096H181.4V66.172H151.754V61.096ZM158.666 41.764H164.768V54.022H174.65V41.764H181.022V58.936H158.666V41.764ZM179.726 61.096H180.968L182.102 60.826L186.152 62.878C180.32 74.596 167.252 79.078 152.078 80.968C151.592 79.348 150.404 76.918 149.378 75.568C163.202 74.38 175.352 70.546 179.726 61.906V61.096ZM162.824 65.038C167.684 71.086 177.782 74.38 190.202 75.46C188.852 76.81 187.232 79.402 186.422 81.022C173.3 79.402 163.31 75.082 157.262 67.036L162.824 65.038ZM163.148 30.154H169.898V38.254H163.148V30.154ZM146.948 35.014H189.122V40.792H146.948V35.014ZM143.762 35.014H149.972V50.242C149.972 59.044 149.162 72.328 144.248 80.698C143.114 79.618 140.414 77.836 138.902 77.134C143.438 69.466 143.762 58.18 143.762 50.242V35.014ZM219.493 36.7273H227.797V62.2315C227.797 65.0952 227.113 67.6009 225.745 69.7486C224.39 71.8963 222.491 73.571 220.05 74.7727C217.608 75.9616 214.763 76.5561 211.516 76.5561C208.256 76.5561 205.405 75.9616 202.964 74.7727C200.522 73.571 198.623 71.8963 197.268 69.7486C195.913 67.6009 195.236 65.0952 195.236 62.2315V36.7273H203.539V61.522C203.539 63.0178 203.865 64.3473 204.517 65.5107C205.182 66.674 206.115 67.5881 207.317 68.2528C208.518 68.9176 209.918 69.25 211.516 69.25C213.127 69.25 214.527 68.9176 215.716 68.2528C216.917 67.5881 217.844 66.674 218.496 65.5107C219.161 64.3473 219.493 63.0178 219.493 61.522V36.7273ZM234.628 76V36.7273H250.123C253.101 36.7273 255.639 37.2962 257.735 38.4339C259.832 39.5589 261.43 41.125 262.529 43.1321C263.642 45.1264 264.198 47.4276 264.198 50.0355C264.198 52.6435 263.635 54.9446 262.51 56.9389C261.385 58.9332 259.755 60.4865 257.62 61.5987C255.498 62.7109 252.929 63.267 249.912 63.267H240.036V56.6129H248.569C250.167 56.6129 251.484 56.3381 252.52 55.7884C253.568 55.2259 254.348 54.4524 254.859 53.468C255.383 52.4709 255.645 51.3267 255.645 50.0355C255.645 48.7315 255.383 47.5937 254.859 46.6222C254.348 45.6378 253.568 44.8771 252.52 44.3402C251.471 43.7905 250.142 43.5156 248.531 43.5156H242.931V76H234.628Z" fill="url(#paint1_linear_108_52)"/>
</g>
<g filter="url(#filter2_f_108_52)">
<path d="M32.4683 35.176H55.5803V40.522H32.4683V35.176ZM31.5503 47.866H56.0123V53.266H31.5503V47.866ZM40.8923 30.424H47.1023V38.848H40.8923V30.424ZM41.1083 53.104H47.3183V80.806H41.1083V53.104ZM41.0543 59.8L45.5363 62.392C43.2683 68.224 38.7323 74.542 34.3043 78.16C33.4943 76.648 31.9823 74.434 30.6863 73.246C34.8443 70.492 39.0563 65.038 41.0543 59.8ZM46.5623 62.5C48.3983 63.742 54.3383 68.764 55.7423 70.006L51.7463 74.704C49.8563 72.166 45.3743 67.36 43.1063 65.2L46.5623 62.5ZM35.2223 41.17L40.1903 40.09C41.1623 42.25 41.9723 45.22 42.1343 47.218L36.9503 48.46C36.8423 46.516 36.1403 43.438 35.2223 41.17ZM47.4263 39.928L53.2043 41.062C52.2323 43.708 51.3683 46.408 50.6123 48.244L45.6983 47.164C46.2923 45.112 47.1023 42.088 47.4263 39.928ZM63.2483 46.516V49.864H73.6163V46.516H63.2483ZM63.2483 54.94V58.342H73.6163V54.94H63.2483ZM63.2483 38.146V41.494H73.6163V38.146H63.2483ZM57.4703 32.53H79.6643V63.958H57.4703V32.53ZM68.7563 62.284H74.5883V72.868C74.5883 74.272 74.6963 74.434 75.3443 74.434C75.5603 74.434 76.4243 74.434 76.7483 74.434C77.5043 74.434 77.6663 73.786 77.7743 67.954C78.9083 68.926 81.4463 69.898 83.0123 70.276C82.5263 78.052 81.0143 79.996 77.4503 79.996C76.5323 79.996 75.1283 79.996 74.2643 79.996C69.6743 79.996 68.7563 78.16 68.7563 72.976V62.284ZM60.3863 62.554H66.2183C65.6243 71.248 63.8423 77.404 54.8783 80.968C54.2843 79.564 52.6643 77.35 51.4223 76.27C58.8203 73.624 59.9003 69.142 60.3863 62.554ZM31.9823 57.316H55.4723V62.716H31.9823V57.316ZM87.6563 42.682H134.042V53.374H127.616V47.65H93.7583V52.618H87.6563V42.682ZM127.13 30.046L131.396 34.366C120.218 36.688 104.018 37.66 90.3563 37.876C90.2483 36.526 89.6543 34.366 89.1143 33.178C102.452 32.908 118.166 31.882 127.13 30.046ZM94.1903 38.038L99.2663 35.932C100.832 37.714 102.398 40.198 102.992 42.034L97.5383 44.302C97.0523 42.574 95.5943 39.928 94.1903 38.038ZM105.854 36.958L111.038 35.068C112.496 37.066 113.954 39.766 114.44 41.656L108.932 43.654C108.554 41.872 107.258 39.01 105.854 36.958ZM119.408 52.078L123.728 49C126.86 51.268 130.64 54.724 132.314 57.262L127.67 60.718C126.104 58.234 122.486 54.562 119.408 52.078ZM105.53 48.946L108.662 45.652C111.362 46.732 114.818 48.514 116.546 49.972L113.306 53.59C111.632 52.132 108.338 50.134 105.53 48.946ZM122.972 35.068L129.344 37.12C127.346 39.982 125.294 42.898 123.62 44.788L118.76 42.952C120.218 40.738 122.054 37.444 122.972 35.068ZM120.002 62.068H121.298L122.324 61.906L126.374 64.498C119.678 75.028 105.26 79.294 89.8163 81.022C89.2223 79.51 87.6023 76.918 86.4143 75.676C101.534 74.596 114.926 71.14 120.002 62.986V62.068ZM102.452 65.146C108.554 71.41 120.974 74.434 135.662 75.19C134.312 76.54 132.746 79.24 131.936 80.914C116.87 79.618 104.72 75.622 97.4303 67.09L102.452 65.146ZM105.26 57.748L110.822 59.692C106.34 65.308 98.8343 69.79 91.9763 72.49C91.0043 71.356 88.8443 69.196 87.6023 68.224C94.6223 66.064 101.588 62.338 105.26 57.748ZM100.94 50.026H106.88V53.752C106.88 54.994 107.258 55.102 109.094 55.102C109.904 55.102 113.63 55.102 114.764 55.102C116.114 55.102 116.438 54.778 116.654 52.564C117.788 53.32 120.056 54.022 121.568 54.292C121.028 58.504 119.516 59.584 115.466 59.584C114.17 59.584 109.526 59.584 108.284 59.584C102.344 59.584 100.94 58.288 100.94 53.806V50.026ZM95.9723 49.972L100.832 52.078C99.3743 55.534 97.1063 58.99 93.5963 61.258L89.1683 57.64C92.2463 55.912 94.6763 52.942 95.9723 49.972ZM103.856 62.068H121.46V66.496H99.4283L103.856 62.068ZM151.322 45.328H188.852V50.458H151.322V45.328ZM151.754 61.096H181.4V66.172H151.754V61.096ZM158.666 41.764H164.768V54.022H174.65V41.764H181.022V58.936H158.666V41.764ZM179.726 61.096H180.968L182.102 60.826L186.152 62.878C180.32 74.596 167.252 79.078 152.078 80.968C151.592 79.348 150.404 76.918 149.378 75.568C163.202 74.38 175.352 70.546 179.726 61.906V61.096ZM162.824 65.038C167.684 71.086 177.782 74.38 190.202 75.46C188.852 76.81 187.232 79.402 186.422 81.022C173.3 79.402 163.31 75.082 157.262 67.036L162.824 65.038ZM163.148 30.154H169.898V38.254H163.148V30.154ZM146.948 35.014H189.122V40.792H146.948V35.014ZM143.762 35.014H149.972V50.242C149.972 59.044 149.162 72.328 144.248 80.698C143.114 79.618 140.414 77.836 138.902 77.134C143.438 69.466 143.762 58.18 143.762 50.242V35.014ZM219.493 36.7273H227.797V62.2315C227.797 65.0952 227.113 67.6009 225.745 69.7486C224.39 71.8963 222.491 73.571 220.05 74.7727C217.608 75.9616 214.763 76.5561 211.516 76.5561C208.256 76.5561 205.405 75.9616 202.964 74.7727C200.522 73.571 198.623 71.8963 197.268 69.7486C195.913 67.6009 195.236 65.0952 195.236 62.2315V36.7273H203.539V61.522C203.539 63.0178 203.865 64.3473 204.517 65.5107C205.182 66.674 206.115 67.5881 207.317 68.2528C208.518 68.9176 209.918 69.25 211.516 69.25C213.127 69.25 214.527 68.9176 215.716 68.2528C216.917 67.5881 217.844 66.674 218.496 65.5107C219.161 64.3473 219.493 63.0178 219.493 61.522V36.7273ZM234.628 76V36.7273H250.123C253.101 36.7273 255.639 37.2962 257.735 38.4339C259.832 39.5589 261.43 41.125 262.529 43.1321C263.642 45.1264 264.198 47.4276 264.198 50.0355C264.198 52.6435 263.635 54.9446 262.51 56.9389C261.385 58.9332 259.755 60.4865 257.62 61.5987C255.498 62.7109 252.929 63.267 249.912 63.267H240.036V56.6129H248.569C250.167 56.6129 251.484 56.3381 252.52 55.7884C253.568 55.2259 254.348 54.4524 254.859 53.468C255.383 52.4709 255.645 51.3267 255.645 50.0355C255.645 48.7315 255.383 47.5937 254.859 46.6222C254.348 45.6378 253.568 44.8771 252.52 44.3402C251.471 43.7905 250.142 43.5156 248.531 43.5156H242.931V76H234.628Z" fill="url(#paint2_linear_108_52)"/>
</g>
<path d="M32.4683 35.176H55.5803V40.522H32.4683V35.176ZM31.5503 47.866H56.0123V53.266H31.5503V47.866ZM40.8923 30.424H47.1023V38.848H40.8923V30.424ZM41.1083 53.104H47.3183V80.806H41.1083V53.104ZM41.0543 59.8L45.5363 62.392C43.2683 68.224 38.7323 74.542 34.3043 78.16C33.4943 76.648 31.9823 74.434 30.6863 73.246C34.8443 70.492 39.0563 65.038 41.0543 59.8ZM46.5623 62.5C48.3983 63.742 54.3383 68.764 55.7423 70.006L51.7463 74.704C49.8563 72.166 45.3743 67.36 43.1063 65.2L46.5623 62.5ZM35.2223 41.17L40.1903 40.09C41.1623 42.25 41.9723 45.22 42.1343 47.218L36.9503 48.46C36.8423 46.516 36.1403 43.438 35.2223 41.17ZM47.4263 39.928L53.2043 41.062C52.2323 43.708 51.3683 46.408 50.6123 48.244L45.6983 47.164C46.2923 45.112 47.1023 42.088 47.4263 39.928ZM63.2483 46.516V49.864H73.6163V46.516H63.2483ZM63.2483 54.94V58.342H73.6163V54.94H63.2483ZM63.2483 38.146V41.494H73.6163V38.146H63.2483ZM57.4703 32.53H79.6643V63.958H57.4703V32.53ZM68.7563 62.284H74.5883V72.868C74.5883 74.272 74.6963 74.434 75.3443 74.434C75.5603 74.434 76.4243 74.434 76.7483 74.434C77.5043 74.434 77.6663 73.786 77.7743 67.954C78.9083 68.926 81.4463 69.898 83.0123 70.276C82.5263 78.052 81.0143 79.996 77.4503 79.996C76.5323 79.996 75.1283 79.996 74.2643 79.996C69.6743 79.996 68.7563 78.16 68.7563 72.976V62.284ZM60.3863 62.554H66.2183C65.6243 71.248 63.8423 77.404 54.8783 80.968C54.2843 79.564 52.6643 77.35 51.4223 76.27C58.8203 73.624 59.9003 69.142 60.3863 62.554ZM31.9823 57.316H55.4723V62.716H31.9823V57.316ZM92.7863 45.76L98.0783 47.704C96.6743 51.7 94.5683 55.696 90.8963 58.18L85.9283 54.778C89.2223 52.726 91.5443 49.27 92.7863 45.76ZM99.6443 45.328H105.422V54.562C105.422 56.128 105.962 56.344 108.716 56.344C110.012 56.344 115.52 56.344 117.194 56.344C119.3 56.344 119.678 55.804 119.948 52.456C121.136 53.266 123.512 54.076 125.078 54.4C124.376 59.962 122.756 61.366 117.734 61.366C116.276 61.366 109.58 61.366 108.122 61.366C101.318 61.366 99.6443 59.8 99.6443 54.616V45.328ZM101.804 43.006L104.882 39.28C108.068 40.414 112.28 42.466 114.386 44.086L111.146 48.244C109.202 46.516 105.098 44.302 101.804 43.006ZM122.594 49.216L127.184 46.138C130.424 48.892 134.42 52.996 136.202 55.858L131.288 59.314C129.668 56.506 125.834 52.24 122.594 49.216ZM118.922 41.872L124.484 44.302C116.654 54.886 102.992 61.474 88.8983 65.2C88.1963 63.85 86.4683 61.204 85.3343 59.908C99.3743 56.938 112.334 51.106 118.922 41.872ZM107.366 61.96H114.008V76.216H107.366V61.96ZM91.8683 64.552H98.2943V80.86H91.8683V64.552ZM123.62 64.552H130.154V80.806H123.62V64.552ZM95.1083 72.868H127.022V78.862H95.1083V72.868ZM107.312 30.208H114.008V37.876H107.312V30.208ZM87.5483 34.15H134.15V45.544H127.508V39.928H93.8663V45.544H87.5483V34.15ZM151.322 45.328H188.852V50.458H151.322V45.328ZM151.754 61.096H181.4V66.172H151.754V61.096ZM158.666 41.764H164.768V54.022H174.65V41.764H181.022V58.936H158.666V41.764ZM179.726 61.096H180.968L182.102 60.826L186.152 62.878C180.32 74.596 167.252 79.078 152.078 80.968C151.592 79.348 150.404 76.918 149.378 75.568C163.202 74.38 175.352 70.546 179.726 61.906V61.096ZM162.824 65.038C167.684 71.086 177.782 74.38 190.202 75.46C188.852 76.81 187.232 79.402 186.422 81.022C173.3 79.402 163.31 75.082 157.262 67.036L162.824 65.038ZM163.148 30.154H169.898V38.254H163.148V30.154ZM146.948 35.014H189.122V40.792H146.948V35.014ZM143.762 35.014H149.972V50.242C149.972 59.044 149.162 72.328 144.248 80.698C143.114 79.618 140.414 77.836 138.902 77.134C143.438 69.466 143.762 58.18 143.762 50.242V35.014ZM219.493 36.7273H227.797V62.2315C227.797 65.0952 227.113 67.6009 225.745 69.7486C224.39 71.8963 222.491 73.571 220.05 74.7727C217.608 75.9616 214.763 76.5561 211.516 76.5561C208.256 76.5561 205.405 75.9616 202.964 74.7727C200.522 73.571 198.623 71.8963 197.268 69.7486C195.913 67.6009 195.236 65.0952 195.236 62.2315V36.7273H203.539V61.522C203.539 63.0178 203.865 64.3473 204.517 65.5107C205.182 66.674 206.115 67.5881 207.317 68.2528C208.518 68.9176 209.918 69.25 211.516 69.25C213.127 69.25 214.527 68.9176 215.716 68.2528C216.917 67.5881 217.844 66.674 218.496 65.5107C219.161 64.3473 219.493 63.0178 219.493 61.522V36.7273ZM234.628 76V36.7273H250.123C253.101 36.7273 255.639 37.2962 257.735 38.4339C259.832 39.5589 261.43 41.125 262.529 43.1321C263.642 45.1264 264.198 47.4276 264.198 50.0355C264.198 52.6435 263.635 54.9446 262.51 56.9389C261.385 58.9332 259.755 60.4865 257.62 61.5987C255.498 62.7109 252.929 63.267 249.912 63.267H240.036V56.6129H248.569C250.167 56.6129 251.484 56.3381 252.52 55.7884C253.568 55.2259 254.348 54.4524 254.859 53.468C255.383 52.4709 255.645 51.3267 255.645 50.0355C255.645 48.7315 255.383 47.5937 254.859 46.6222C254.348 45.6378 253.568 44.8771 252.52 44.3402C251.471 43.7905 250.142 43.5156 248.531 43.5156H242.931V76H234.628Z" fill="white"/>
<defs>
<filter id="filter0_f_108_52" x="0.686279" y="0.0460052" width="293.511" height="110.976" filterUnits="userSpaceOnUse" color-interpolation-filters="sRGB">
<feFlood flood-opacity="0" result="BackgroundImageFix"/>
<feBlend mode="normal" in="SourceGraphic" in2="BackgroundImageFix" result="shape"/>
<feGaussianBlur stdDeviation="15" result="effect1_foregroundBlur_108_52"/>
</filter>
<filter id="filter1_f_108_52" x="0.686279" y="0.0460052" width="293.511" height="110.976" filterUnits="userSpaceOnUse" color-interpolation-filters="sRGB">
<feFlood flood-opacity="0" result="BackgroundImageFix"/>
<feBlend mode="normal" in="SourceGraphic" in2="BackgroundImageFix" result="shape"/>
<feGaussianBlur stdDeviation="15" result="effect1_foregroundBlur_108_52"/>
</filter>
<filter id="filter2_f_108_52" x="0.686279" y="0.0460052" width="293.511" height="110.976" filterUnits="userSpaceOnUse" color-interpolation-filters="sRGB">
<feFlood flood-opacity="0" result="BackgroundImageFix"/>
<feBlend mode="normal" in="SourceGraphic" in2="BackgroundImageFix" result="shape"/>
<feGaussianBlur stdDeviation="15" result="effect1_foregroundBlur_108_52"/>
</filter>
<linearGradient id="paint0_linear_108_52" x1="4" y1="56" x2="292" y2="56" gradientUnits="userSpaceOnUse">
<stop stop-color="white"/>
<stop offset="0.115" stop-color="#FFEBB5"/>
<stop offset="0.2" stop-color="#FFDEB8"/>
<stop offset="0.34" stop-color="#FFC5C6"/>
<stop offset="0.485" stop-color="#FFB6F8"/>
<stop offset="0.635" stop-color="#BEB9FF"/>
<stop offset="0.769097" stop-color="#AFD0F7"/>
<stop offset="0.914403" stop-color="#ACF5FD"/>
</linearGradient>
<linearGradient id="paint1_linear_108_52" x1="4" y1="56" x2="292" y2="56" gradientUnits="userSpaceOnUse">
<stop stop-color="white"/>
<stop offset="0.115" stop-color="#FFEBB5"/>
<stop offset="0.2" stop-color="#FFDEB8"/>
<stop offset="0.34" stop-color="#FFC5C6"/>
<stop offset="0.485" stop-color="#FFB6F8"/>
<stop offset="0.635" stop-color="#BEB9FF"/>
<stop offset="0.769097" stop-color="#AFD0F7"/>
<stop offset="0.914403" stop-color="#ACF5FD"/>
</linearGradient>
<linearGradient id="paint2_linear_108_52" x1="4" y1="56" x2="292" y2="56" gradientUnits="userSpaceOnUse">
<stop stop-color="white"/>
<stop offset="0.115" stop-color="#FFEBB5"/>
<stop offset="0.2" stop-color="#FFDEB8"/>
<stop offset="0.34" stop-color="#FFC5C6"/>
<stop offset="0.485" stop-color="#FFB6F8"/>
<stop offset="0.635" stop-color="#BEB9FF"/>
<stop offset="0.769097" stop-color="#AFD0F7"/>
<stop offset="0.914403" stop-color="#ACF5FD"/>
</linearGradient>
</defs>
</svg>
