<svg width="92" height="92" viewBox="0 0 92 92" fill="none" xmlns="http://www.w3.org/2000/svg">
<rect x="1" y="1" width="90" height="90" rx="45" fill="url(#paint0_linear_59_32)"/>
<rect x="1" y="1" width="90" height="90" rx="45" stroke="white" stroke-width="2"/>
<path d="M67.4066 63.9067C66.4966 64.27 66.0419 64.452 65.9866 64.8287C65.9313 65.2053 66.3133 65.528 67.0766 66.1727L67.2739 66.3393C67.4906 66.5227 67.5986 66.6147 67.6606 66.7393C67.7233 66.864 67.7319 67.008 67.7499 67.296L67.7659 67.558C67.8279 68.5713 67.8593 69.078 68.1886 69.2527C68.5179 69.4273 68.9273 69.1547 69.7459 68.6087L69.9579 68.4673C70.1906 68.312 70.3066 68.234 70.4399 68.2133C70.5733 68.1927 70.7079 68.2293 70.9773 68.304L71.2226 68.372C72.1706 68.6347 72.6446 68.766 72.9026 68.4973C73.1613 68.2287 73.0326 67.7373 72.7759 66.7553M72.9999 65.2233C73.5239 64.3727 73.7853 63.9473 73.6159 63.606C73.4466 63.266 72.9573 63.2347 71.9799 63.174L71.7266 63.158C71.4493 63.1407 71.3106 63.132 71.1899 63.068C71.0693 63.004 70.9806 62.892 70.8033 62.668L70.6413 62.464C70.0173 61.6753 69.7046 61.2807 69.3413 61.3387C68.9786 61.3973 68.8046 61.8693 68.4573 62.814" stroke="white" stroke-width="1.5" stroke-linecap="round"/>
<path d="M65.964 64.8273C64.4073 65.966 63.216 68.144 63.832 72.0007C64.378 70.3927 66.0226 69.1053 67.8606 68.4853" stroke="white" stroke-width="1.5" stroke-linecap="round" stroke-linejoin="round"/>
<path d="M67.8533 70.6667C67.8533 70.6667 68.2759 71.5933 68.7959 71.9133C69.3159 72.2313 70.3333 72.1867 70.3333 72.1867C70.3333 72.1867 69.4066 72.6087 69.0866 73.1287C68.7679 73.6487 68.8133 74.6667 68.8133 74.6667C68.8133 74.6667 68.3906 73.74 67.8706 73.42C67.3513 73.1027 66.3333 73.1467 66.3333 73.1467C66.3333 73.1467 67.2599 72.7247 67.5799 72.2047C67.8986 71.6847 67.8533 70.6667 67.8533 70.6667ZM73.3199 70C73.3199 70 73.0386 70.618 72.6919 70.8307C72.3453 71.0433 71.6666 71.0133 71.6666 71.0133C71.6666 71.0133 72.2846 71.2947 72.4973 71.6413C72.7099 71.988 72.6799 72.6667 72.6799 72.6667C72.6799 72.6667 72.9613 72.0487 73.3079 71.836C73.6546 71.6233 74.3333 71.6533 74.3333 71.6533C74.3333 71.6533 73.7153 71.372 73.5026 71.0253C73.2899 70.6787 73.3199 70 73.3199 70Z" stroke="white" stroke-linejoin="round"/>
<path d="M30.9759 21.149C31.3685 21.7708 31.5651 22.0823 31.4309 22.3361C31.2968 22.5898 30.9223 22.6202 30.1721 22.6785L29.9778 22.6937C29.7649 22.7106 29.6582 22.7187 29.5648 22.7677C29.4715 22.8167 29.4027 22.9007 29.2644 23.0687L29.1384 23.2222C28.6508 23.8137 28.4069 24.11 28.1293 24.0715C27.8516 24.0336 27.7233 23.6865 27.4672 22.9935L27.4007 22.8138C27.3278 22.6167 27.2916 22.5181 27.2198 22.4463C27.1481 22.3752 27.0495 22.3384 26.8523 22.2655L26.6733 22.1996C25.9791 21.9429 25.6326 21.8146 25.5947 21.5369C25.5568 21.2593 25.8525 21.0154 26.4446 20.5278L26.5974 20.4023C26.7654 20.2635 26.85 20.1947 26.899 20.1013C26.948 20.008 26.9562 19.9018 26.9725 19.6883L26.9877 19.4941C27.046 18.7439 27.0752 18.3688 27.3301 18.2352C27.5844 18.1011 27.8959 18.2977 28.5178 18.6902L28.6788 18.7917C28.8555 18.9032 28.9436 18.9592 29.0457 18.9726C29.1472 18.9872 29.251 18.9574 29.4581 18.8985L29.6471 18.8448C30.3768 18.6377 30.742 18.5339 30.9374 18.7293C31.1328 18.9242 31.029 19.2893 30.8213 20.0191M35.7342 23.6562C35.4483 24.2652 34.585 24.3906 33.4119 24.1013M35.7342 23.6562C36.0451 22.9935 35.6111 21.8892 34.6667 20.6637M35.7342 23.6562C35.3661 24.4402 34.0443 24.4227 32.3333 23.753M35.7342 23.6562C36.2405 22.5758 34.7682 20.3236 32.3333 18.2837M24.2658 15.5105C23.9555 16.1732 24.3889 17.2768 25.3333 18.5024M24.2658 15.5105C24.5517 14.9015 25.415 14.7761 26.5881 15.0648M24.2658 15.5105C23.8534 16.389 24.7506 18.0427 26.4102 19.7274M24.2658 15.5105C24.7961 14.3823 27.3079 14.9161 30.1085 16.6667M34.0221 13.9804C34.0798 14.5194 34.3056 15.0246 34.6667 15.4212M34.0221 13.9804C33.4796 14.4278 33.3046 14.5107 32.6209 14.6425M34.0221 13.9804L34.2023 13.75M32.6209 14.6425C32.9835 15.042 33.2087 15.5467 33.2649 16.0833M32.6209 14.6425L32.3333 14.6332" stroke="white" stroke-width="1.5" stroke-linecap="round"/>
<path d="M45.5 52C48.0543 52 50.125 49.8174 50.125 47.125C50.125 44.4326 48.0543 42.25 45.5 42.25C42.9457 42.25 40.875 44.4326 40.875 47.125C40.875 49.8174 42.9457 52 45.5 52Z" stroke="white" stroke-width="2"/>
<path d="M30.0834 47.7165C30.0834 42.7359 30.0834 40.2464 31.2381 38.4589C31.74 37.6821 32.3823 37.0173 33.1282 36.5024C34.2382 35.7338 35.6287 35.4591 37.7578 35.3616C38.7737 35.3616 39.6479 34.5654 39.8467 33.5335C39.9987 32.7777 40.3936 32.1003 40.9647 31.6159C41.5358 31.1315 42.248 30.8698 42.981 30.875H48.0191C49.5423 30.875 50.8542 31.9881 51.1533 33.5335C51.3522 34.5654 52.2263 35.3616 53.2423 35.3616C55.3698 35.4591 56.7604 35.7354 57.8719 36.5024C58.6196 37.0191 59.2625 37.6838 59.762 38.4589C60.9167 40.2464 60.9167 42.7359 60.9167 47.7165C60.9167 52.6971 60.9167 55.185 59.762 56.9741C59.2601 57.7509 58.6178 58.4157 57.8719 58.9306C56.1437 60.125 53.7372 60.125 48.9256 60.125H42.0745C37.2629 60.125 34.8564 60.125 33.1282 58.9306C32.3827 58.4151 31.7409 57.7497 31.2396 56.9725C30.9047 56.4466 30.658 55.864 30.5104 55.25M56.2917 42.25H54.75" stroke="white" stroke-width="2" stroke-linecap="round"/>
<circle cx="46" cy="46" r="40" stroke="white" stroke-width="2"/>
<defs>
<linearGradient id="paint0_linear_59_32" x1="46" y1="0" x2="46" y2="92" gradientUnits="userSpaceOnUse">
<stop stop-color="#DC5DCB"/>
<stop offset="1" stop-color="#3148A7"/>
</linearGradient>
</defs>
</svg>
