<svg width="180" height="68" viewBox="0 0 180 68" fill="none" xmlns="http://www.w3.org/2000/svg">
<rect x="1" y="1" width="178" height="66" rx="33" fill="url(#paint0_linear_59_196)"/>
<rect x="1" y="1" width="178" height="66" rx="33" stroke="white" stroke-width="2"/>
<path d="M63.3 39.535H71.835V40.57H63.3V39.535ZM61.53 28.375H72.33V29.425H61.53V28.375ZM62.67 34.975H72.57V41.185H71.385V36.01H63.81V41.23H62.67V34.975ZM71.865 28.375H73.02C73.02 28.375 73.005 28.72 72.99 28.87C72.735 32.035 72.495 33.31 72.015 33.775C71.715 34.105 71.385 34.195 70.89 34.24C70.425 34.255 69.495 34.255 68.565 34.18C68.535 33.88 68.4 33.43 68.205 33.16C69.15 33.235 70.08 33.235 70.425 33.235C70.74 33.235 70.905 33.22 71.07 33.1C71.43 32.755 71.67 31.555 71.865 28.555V28.375ZM66.15 28.765H67.395C66.81 31.405 65.625 34.03 61.23 35.29C61.11 35.02 60.825 34.57 60.57 34.345C64.725 33.265 65.67 30.895 66.15 28.765ZM82.68 27.415L83.76 27.595C83.07 29.2 81.99 30.985 80.355 32.38C80.175 32.155 79.845 31.825 79.605 31.69C81.12 30.43 82.155 28.75 82.68 27.415ZM82.695 28.555H85.83V29.485H82.14L82.695 28.555ZM80.79 30.94H88.35V36.955H87.375V31.885H81.735V36.955H80.79V30.94ZM79.395 36.67H89.4V37.63H79.395V36.67ZM83.055 31.33H83.88V32.44C83.88 33.49 83.685 34.63 82.23 35.425C82.125 35.23 81.855 34.93 81.66 34.795C82.92 34.15 83.055 33.22 83.055 32.41V31.33ZM85.14 37.12C85.785 38.86 87.285 39.91 89.625 40.27C89.385 40.51 89.085 40.93 88.935 41.23C86.445 40.705 84.915 39.445 84.18 37.315L85.14 37.12ZM83.91 35.185H85.035C84.72 38.455 83.79 40.36 79.395 41.23C79.305 40.96 79.035 40.555 78.84 40.33C82.92 39.595 83.64 37.99 83.91 35.185ZM84.99 31.345H85.83V33.67C85.83 33.91 85.875 33.94 86.145 33.94C86.265 33.94 86.94 33.94 87.105 33.94C87.3 33.94 87.345 33.925 87.375 33.85C87.54 33.97 87.87 34.09 88.11 34.135C88.02 34.57 87.765 34.72 87.225 34.72C87.075 34.72 86.205 34.72 86.055 34.72C85.185 34.72 84.99 34.51 84.99 33.655V31.345ZM85.485 28.555H85.725L85.89 28.51L86.61 28.99C86.175 29.875 85.47 30.925 84.9 31.585C84.705 31.42 84.345 31.21 84.12 31.09C84.63 30.475 85.2 29.455 85.485 28.765V28.555ZM76.725 28.825H79.86V36.61H76.725V35.59H78.885V29.845H76.725V28.825ZM76.11 28.825H77.055V37.885H76.11V28.825ZM99.405 28.12C99.375 28.3 99.33 28.885 99.33 29.065C99.285 30.04 99.315 32.935 99.33 34.135L98.19 33.55C98.19 32.89 98.175 29.905 98.13 29.08C98.1 28.675 98.055 28.255 98.025 28.12H99.405ZM91.425 30.22C93.465 30.19 97.215 30.055 99.525 30.055C101.355 30.055 103.215 30.055 103.92 30.07L103.905 31.18C103.065 31.135 101.715 31.105 99.51 31.105C96.93 31.105 93.72 31.21 91.455 31.375L91.425 30.22ZM99.3 34.57C99.3 36.58 98.37 37.585 97.005 37.585C95.745 37.585 94.53 36.7 94.53 35.065C94.53 33.58 95.76 32.47 97.185 32.47C98.925 32.47 99.81 33.76 99.81 35.485C99.81 37.525 98.82 39.775 95.34 40.81L94.335 39.835C97.065 39.19 98.655 37.855 98.655 35.38C98.655 34.03 97.995 33.46 97.185 33.46C96.39 33.46 95.655 34.075 95.655 35.05C95.655 35.995 96.36 36.535 97.185 36.535C98.115 36.535 98.715 35.755 98.475 34.15L99.3 34.57ZM108.57 28.96C108.9 28.99 109.32 29.005 109.62 29.005C110.415 29.005 113.97 28.9 114.765 28.825C115.215 28.78 115.425 28.75 115.59 28.69L116.28 29.575C116.01 29.755 115.71 29.95 115.425 30.175C114.69 30.745 112.65 32.5 111.48 33.46C112.17 33.235 112.89 33.16 113.565 33.16C116.055 33.16 117.84 34.645 117.84 36.67C117.84 39.085 115.845 40.66 112.665 40.66C110.625 40.66 109.38 39.775 109.38 38.515C109.38 37.495 110.31 36.565 111.69 36.565C113.685 36.565 114.69 37.975 114.795 39.49L113.715 39.67C113.625 38.395 112.89 37.48 111.69 37.48C111 37.48 110.475 37.9 110.475 38.425C110.475 39.16 111.3 39.595 112.485 39.595C115.035 39.595 116.64 38.545 116.64 36.67C116.64 35.185 115.23 34.09 113.265 34.09C110.775 34.09 109.425 35.14 107.535 37.075L106.665 36.205C107.91 35.185 109.845 33.565 110.7 32.83C111.54 32.14 113.43 30.565 114.18 29.89C113.385 29.935 110.385 30.055 109.605 30.1C109.26 30.13 108.93 30.145 108.6 30.19L108.57 28.96Z" fill="white"/>
<path d="M150.61 39.86C149.245 40.405 148.563 40.678 148.48 41.243C148.397 41.808 148.97 42.292 150.115 43.259L150.411 43.509C150.736 43.784 150.898 43.922 150.991 44.109C151.085 44.296 151.098 44.512 151.125 44.944L151.149 45.337C151.242 46.857 151.289 47.617 151.783 47.879C152.277 48.141 152.891 47.732 154.119 46.913L154.437 46.701C154.786 46.468 154.96 46.351 155.16 46.32C155.36 46.289 155.562 46.344 155.966 46.456L156.334 46.558C157.756 46.952 158.467 47.149 158.854 46.746C159.242 46.343 159.049 45.606 158.664 44.133M159 41.835C159.786 40.559 160.178 39.921 159.924 39.409C159.67 38.899 158.936 38.852 157.47 38.761L157.09 38.737C156.674 38.711 156.466 38.698 156.285 38.602C156.104 38.506 155.971 38.338 155.705 38.002L155.462 37.696C154.526 36.513 154.057 35.921 153.512 36.008C152.968 36.096 152.707 36.804 152.186 38.221" stroke="white" stroke-width="1.5" stroke-linecap="round"/>
<path d="M148.446 41.241C146.111 42.949 144.324 46.216 145.248 52.001C146.067 49.589 148.534 47.658 151.291 46.728" stroke="white" stroke-width="1.5" stroke-linecap="round" stroke-linejoin="round"/>
<path d="M151.28 50C151.28 50 151.914 51.39 152.694 51.87C153.474 52.347 155 52.28 155 52.28C155 52.28 153.61 52.913 153.13 53.693C152.652 54.473 152.72 56 152.72 56C152.72 56 152.086 54.61 151.306 54.13C150.527 53.654 149 53.72 149 53.72C149 53.72 150.39 53.087 150.87 52.307C151.348 51.527 151.28 50 151.28 50ZM159.48 49C159.48 49 159.058 49.927 158.538 50.246C158.018 50.565 157 50.52 157 50.52C157 50.52 157.927 50.942 158.246 51.462C158.565 51.982 158.52 53 158.52 53C158.52 53 158.942 52.073 159.462 51.754C159.982 51.435 161 51.48 161 51.48C161 51.48 160.073 51.058 159.754 50.538C159.435 50.018 159.48 49 159.48 49Z" stroke="white" stroke-linejoin="round"/>
<rect x="5.75" y="5.75" width="168.5" height="56.5" rx="28.25" stroke="white" stroke-width="1.5"/>
<path d="M29.3941 22.07C29.955 22.9583 30.2358 23.4033 30.0441 23.7658C29.8525 24.1283 29.3175 24.1717 28.2458 24.255L27.9683 24.2767C27.6641 24.3008 27.5116 24.3125 27.3783 24.3825C27.245 24.4525 27.1466 24.5725 26.9491 24.8125L26.7691 25.0317C26.0725 25.8767 25.7241 26.3 25.3275 26.245C24.9308 26.1908 24.7475 25.695 24.3816 24.705L24.2866 24.4483C24.1825 24.1667 24.1308 24.0258 24.0283 23.9233C23.9258 23.8217 23.785 23.7692 23.5033 23.665L23.2475 23.5708C22.2558 23.2042 21.7608 23.0208 21.7066 22.6242C21.6525 22.2275 22.075 21.8792 22.9208 21.1825L23.1391 21.0033C23.3791 20.805 23.5 20.7067 23.57 20.5733C23.64 20.44 23.6516 20.2883 23.675 19.9833L23.6966 19.7058C23.78 18.6342 23.8216 18.0983 24.1858 17.9075C24.5491 17.7158 24.9941 17.9967 25.8825 18.5575L26.1125 18.7025C26.365 18.8617 26.4908 18.9417 26.6366 18.9608C26.7816 18.9817 26.93 18.9392 27.2258 18.855L27.4958 18.7783C28.5383 18.4825 29.06 18.3342 29.3391 18.6133C29.6183 18.8917 29.47 19.4133 29.1733 20.4558M36.1916 25.6517C35.7833 26.5217 34.55 26.7008 32.8741 26.2875M36.1916 25.6517C36.6358 24.705 36.0158 23.1275 34.6666 21.3767M36.1916 25.6517C35.6658 26.7717 33.7775 26.7467 31.3333 25.79M36.1916 25.6517C36.915 24.1083 34.8116 20.8908 31.3333 17.9767M19.8083 14.015C19.365 14.9617 19.9841 16.5383 21.3333 18.2892M19.8083 14.015C20.2166 13.145 21.45 12.9658 23.1258 13.3783M19.8083 14.015C19.2191 15.27 20.5008 17.6325 22.8716 20.0392M19.8083 14.015C20.5658 12.4033 24.1541 13.1658 28.155 15.6667M33.7458 11.8292C33.8283 12.5992 34.1508 13.3208 34.6666 13.8875M33.7458 11.8292C32.9708 12.4683 32.7208 12.5867 31.7441 12.775M33.7458 11.8292L34.0033 11.5M31.7441 12.775C32.2621 13.3458 32.5838 14.0668 32.6641 14.8333M31.7441 12.775L31.3333 12.7617" stroke="white" stroke-width="1.5" stroke-linecap="round"/>
<defs>
<linearGradient id="paint0_linear_59_196" x1="90" y1="0" x2="90" y2="68" gradientUnits="userSpaceOnUse">
<stop stop-color="#DC5DCB"/>
<stop offset="1" stop-color="#3148A7"/>
</linearGradient>
</defs>
</svg>
