<svg width="10" height="19" viewBox="0 0 10 19" fill="none" xmlns="http://www.w3.org/2000/svg">
<path d="M3.54545 1H6.45455M1 7.90909H1.36364L2.11055 8.03345C4.02369 8.35186 5.97631 8.35186 7.88945 8.03345L8.63636 7.90909H9M1 13H1.36364L2.11055 12.8756C4.02369 12.5572 5.97631 12.5572 7.88945 12.8756L8.63636 13H9M6.09091 3.18182H3.90909C3.03517 3.61915 2.30019 4.29105 1.78642 5.12234C1.27264 5.95362 1.00035 6.91149 1 7.88873V16.2727C1 16.6585 1.15325 17.0285 1.42603 17.3012C1.69881 17.574 2.06878 17.7273 2.45455 17.7273H7.54545C7.93122 17.7273 8.30119 17.574 8.57397 17.3012C8.84675 17.0285 9 16.6585 9 16.2727V7.88873C8.99965 6.91149 8.72736 5.95362 8.21358 5.12234C7.69981 4.29105 6.96483 3.61915 6.09091 3.18182Z" stroke="white"/>
</svg>
