<svg width="43" height="45" viewBox="0 0 43 45" fill="none" xmlns="http://www.w3.org/2000/svg">
<path d="M12.5314 35.99C12.5114 36.13 12.4414 36.62 12.4414 36.87C12.4414 37.46 12.4414 38.31 12.4414 38.89C12.4414 39.7 12.4414 42.68 12.4414 43.52C12.4414 44.1 12.1114 44.46 11.4014 44.46C10.8614 44.46 10.2814 44.44 9.77137 44.38L9.65137 43.14C10.0814 43.22 10.5114 43.25 10.7614 43.25C11.0214 43.25 11.1214 43.16 11.1314 42.9C11.1314 42.52 11.1314 39.36 11.1314 38.89C11.1314 38.54 11.1314 37.47 11.1314 36.86C11.1314 36.61 11.0914 36.17 11.0514 35.99H12.5314ZM7.63137 37.59C7.93137 37.63 8.28137 37.66 8.60137 37.66C9.21137 37.66 14.0614 37.66 14.7714 37.66C15.0514 37.66 15.4914 37.64 15.7514 37.6V38.91C15.4414 38.88 15.0514 38.87 14.7814 38.87C14.0614 38.87 9.25137 38.87 8.60137 38.87C8.30137 38.87 7.91137 38.88 7.63137 38.91V37.59ZM10.1814 40.3C9.72137 41.18 8.80137 42.49 8.25137 43.09L7.17137 42.35C7.84137 41.71 8.64137 40.61 9.05137 39.76L10.1814 40.3ZM14.4814 39.73C14.9914 40.37 15.7914 41.64 16.1914 42.36L15.0114 43.01C14.5814 42.15 13.8714 40.94 13.3914 40.32L14.4814 39.73ZM17.5614 39.37C17.9314 39.4 18.6514 39.44 19.1714 39.44C20.3514 39.44 23.6514 39.44 24.5414 39.44C25.0114 39.44 25.4514 39.39 25.7214 39.37V40.95C25.4814 40.94 24.9714 40.89 24.5514 40.89C23.6414 40.89 20.3514 40.89 19.1714 40.89C18.6114 40.89 17.9414 40.92 17.5614 40.95V39.37ZM31.8886 36.46C31.7586 36.76 31.6186 37.13 31.4686 37.58C31.0986 38.7 30.0586 41.92 29.6286 42.96L28.1586 43.01C28.6986 41.73 29.7386 38.45 30.0686 37.29C30.2086 36.79 30.2586 36.47 30.2986 36.14L31.8886 36.46ZM33.6786 39.69C34.3986 40.77 35.4186 42.74 35.8786 43.85L34.5286 44.45C34.0786 43.24 33.1486 41.17 32.4386 40.21L33.6786 39.69ZM28.0586 42.56C29.4486 42.51 32.7186 42.14 34.1186 41.95L34.4086 43.23C32.9286 43.42 29.4886 43.78 28.1386 43.92C27.8886 43.95 27.5086 44 27.1986 44.04L26.9586 42.57C27.2986 42.58 27.7386 42.57 28.0586 42.56Z" fill="#222547"/>
<path d="M35.3334 29.3333H8.66669M8.66669 14.6667L14.084 10.3333M35.3334 14.6667L24.4987 6C23.7895 5.43266 22.9083 5.12357 22 5.12357C21.0918 5.12357 20.2106 5.43266 19.5014 6L18.4587 6.83333M26.6667 7.33333V4.66667C26.6667 4.48986 26.7369 4.32029 26.8619 4.19526C26.987 4.07024 27.1565 4 27.3334 4H30.6667C30.8435 4 31.0131 4.07024 31.1381 4.19526C31.2631 4.32029 31.3334 4.48986 31.3334 4.66667V11.3333M11.3334 29.3333V12.6667M32.6667 12.6667V18M32.6667 29.3333V23.3333" stroke="#222547" stroke-width="1.5" stroke-linecap="round"/>
<path d="M26 29.3333V22.6666C26 20.7813 26 19.8386 25.4133 19.2533C24.8293 18.6666 23.8867 18.6666 22 18.6666C20.1133 18.6666 19.172 18.6666 18.5867 19.2533M18 29.3333V22.6666" stroke="#222547" stroke-width="1.5" stroke-linecap="round" stroke-linejoin="round"/>
<path d="M24.6667 12.6667C24.6667 13.3739 24.3858 14.0522 23.8857 14.5523C23.3856 15.0524 22.7073 15.3333 22 15.3333C21.2928 15.3333 20.6145 15.0524 20.1144 14.5523C19.6143 14.0522 19.3334 13.3739 19.3334 12.6667C19.3334 11.9594 19.6143 11.2811 20.1144 10.781C20.6145 10.281 21.2928 10 22 10C22.7073 10 23.3856 10.281 23.8857 10.781C24.3858 11.2811 24.6667 11.9594 24.6667 12.6667Z" stroke="#222547" stroke-width="1.5"/>
</svg>
