<svg width="43" height="45" viewBox="0 0 43 45" fill="none" xmlns="http://www.w3.org/2000/svg">
<path d="M3.73 36.33C4 36.37 4.43 36.39 4.77 36.39C5.4 36.39 8.03 36.39 8.61 36.39C8.93 36.39 9.42 36.37 9.69 36.33V37.63C9.43 37.61 8.96 37.59 8.59 37.59C8.04 37.59 5.36 37.59 4.77 37.59C4.44 37.59 4.02 37.6 3.73 37.63V36.33ZM10.54 39.24C10.47 39.37 10.38 39.55 10.35 39.65C10.04 40.62 9.61 41.6 8.87 42.42C7.86 43.55 6.58 44.22 5.3 44.59L4.3 43.46C5.81 43.14 7 42.49 7.77 41.7C8.3 41.16 8.62 40.53 8.79 39.98C8.29 39.98 4.86 39.98 3.97 39.98C3.72 39.98 3.22 39.99 2.8 40.02V38.72C3.23 38.76 3.65 38.79 3.97 38.79C4.65 38.79 8.23 38.79 8.91 38.79C9.24 38.79 9.51 38.75 9.65 38.68L10.54 39.24ZM18.58 37.07C18.87 37.49 19.3 38.21 19.53 38.67L18.63 39.06C18.34 38.43 18.08 37.95 17.71 37.43L18.58 37.07ZM19.92 36.52C20.22 36.92 20.67 37.63 20.9 38.08L20.02 38.5C19.7 37.87 19.43 37.42 19.06 36.92L19.92 36.52ZM11.85 41.16C12.14 40.91 12.36 40.7 12.67 40.39C13.12 39.94 13.9 38.96 14.59 38.14C15.19 37.43 15.78 37.32 16.55 38.05C17.23 38.69 17.99 39.48 18.59 40.13C19.26 40.85 20.29 41.95 21.06 42.77L19.95 43.96C19.28 43.13 18.44 42.09 17.85 41.4C17.26 40.71 16.38 39.74 16.02 39.37C15.69 39.05 15.48 39.07 15.2 39.43C14.8 39.94 14.1 40.92 13.69 41.47C13.46 41.78 13.23 42.14 13.05 42.4L11.85 41.16ZM29.52 36.24C29.5 36.52 29.49 36.84 29.49 37.25C29.49 37.76 29.49 38.73 29.49 39.22C29.49 41.38 29.07 42.3 28.32 43.12C27.66 43.85 26.63 44.33 25.9 44.57L24.85 43.46C25.85 43.23 26.65 42.85 27.26 42.2C27.94 41.45 28.08 40.7 28.08 39.14C28.08 38.64 28.08 37.68 28.08 37.25C28.08 36.84 28.05 36.52 28.01 36.24H29.52ZM24.89 36.33C24.87 36.56 24.85 36.78 24.85 37.09C24.85 37.53 24.85 39.91 24.85 40.47C24.85 40.72 24.87 41.11 24.89 41.34H23.43C23.45 41.16 23.48 40.77 23.48 40.46C23.48 39.89 23.48 37.53 23.48 37.09C23.48 36.91 23.47 36.56 23.44 36.33H24.89ZM32.56 41.16C33.87 40.87 35.35 40.2 36.14 39.72C37.12 39.13 38.12 38.24 38.64 37.59L39.63 38.56C39.03 39.21 37.82 40.15 36.73 40.79C35.83 41.32 34.29 41.99 33.15 42.33L32.56 41.16ZM36.03 40.51L37.39 40.25V43.8C37.39 44.16 37.4 44.69 37.46 44.89H35.97C36 44.69 36.03 44.16 36.03 43.8V40.51Z" fill="#222547"/>
<path d="M20.75 7.5C22.1307 7.5 23.25 6.38071 23.25 5C23.25 3.61929 22.1307 2.5 20.75 2.5C19.3693 2.5 18.25 3.61929 18.25 5C18.25 6.38071 19.3693 7.5 20.75 7.5Z" stroke="#222547" stroke-width="1.6" stroke-linecap="round" stroke-linejoin="round"/>
<path d="M29.5 12.5C30.8807 12.5 32 11.3807 32 10C32 8.61929 30.8807 7.5 29.5 7.5C28.1193 7.5 27 8.61929 27 10C27 11.3807 28.1193 12.5 29.5 12.5Z" stroke="#222547" stroke-width="1.6" stroke-linecap="round" stroke-linejoin="round"/>
<path d="M32 22.5C33.3807 22.5 34.5 21.3807 34.5 20C34.5 18.6193 33.3807 17.5 32 17.5C30.6193 17.5 29.5 18.6193 29.5 20C29.5 21.3807 30.6193 22.5 32 22.5Z" stroke="#222547" stroke-width="1.6" stroke-linecap="round" stroke-linejoin="round"/>
<path d="M18.25 12.5C19.0708 12.5 19.8835 12.6617 20.6418 12.9758C21.4 13.2898 22.089 13.7502 22.6694 14.3306C23.2498 14.9109 23.7101 15.5999 24.0242 16.3582C24.3383 17.1165 24.5 17.9292 24.5 18.75V23.125C24.4997 24.1706 24.1249 25.1815 23.4435 25.9746C22.7622 26.7676 21.8193 27.2905 20.7857 27.4484C19.7521 27.6063 18.6962 27.3888 17.8091 26.8354C16.922 26.2819 16.2625 25.429 15.95 24.4313C15.4167 22.7104 14.2917 21.5833 12.575 21.05C11.5777 20.7376 10.7252 20.0786 10.1717 19.1922C9.61819 18.3058 9.40026 17.2505 9.55735 16.2173C9.71444 15.1842 10.2362 14.2414 11.0281 13.5595C11.8201 12.8777 12.83 12.5018 13.875 12.5H18.25Z" stroke="#222547" stroke-width="1.6" stroke-linecap="round" stroke-linejoin="round"/>
</svg>
