<svg width="43" height="45" viewBox="0 0 43 45" fill="none" xmlns="http://www.w3.org/2000/svg">
<path d="M24.3529 5.33158C24.3529 5.33158 24.4919 7.90655 26.592 10.177C28.6921 12.4487 31.0713 12.6003 31.0713 12.6003L32.1914 11.3886C33.0825 10.4247 33.583 9.11743 33.583 7.75427C33.583 6.39112 33.0825 5.0838 32.1914 4.11991C31.3003 3.15601 30.0918 2.6145 28.8316 2.6145C27.5715 2.6145 26.3629 3.15601 25.4718 4.11991L24.3517 5.33158L21.5001 8.41631M31.0713 12.599L24.7154 19.4769L20.9684 23.5276L20.7751 23.738C20.0766 24.4922 19.7274 24.87 19.3432 25.1941C18.8895 25.5766 18.3989 25.9049 17.8799 26.1732C17.4401 26.3993 16.9724 26.5679 16.036 26.9051L12.0714 28.3351M12.0714 28.3351L11.1023 28.6854C10.8764 28.7673 10.6339 28.7795 10.402 28.7205C10.17 28.6615 9.95793 28.5337 9.78945 28.3515C9.62098 28.1692 9.50284 27.9398 9.44831 27.6889C9.39378 27.438 9.40501 27.1756 9.48076 26.9313L9.80459 25.883M12.0714 28.3351L9.80459 25.883M9.80459 25.883L11.1265 21.5944C11.4383 20.5814 11.5941 20.0756 11.8032 19.5998C12.0521 19.036 12.3538 18.5084 12.7082 18.0169C13.0079 17.6012 13.3571 17.2235 14.0543 16.4693L17.2709 12.9911" stroke="#DC5DCB" stroke-width="1.5" stroke-linecap="round"/>
<path d="M12.76 36.91C13.16 36.92 13.54 36.93 13.81 36.93C14.54 36.93 18.6 36.93 19.32 36.93C19.57 36.93 19.94 36.93 20.31 36.92C20.29 37.22 20.29 37.58 20.29 37.89C20.29 38.5 20.29 42.18 20.29 42.79C20.29 43.18 20.3 44.14 20.31 44.18H18.92C18.92 44.14 18.95 43.36 18.95 42.81C18.95 42.23 18.95 38.21 18.95 38.21H14.11C14.11 38.21 14.11 42.22 14.11 42.81C14.11 43.29 14.12 44.13 14.12 44.18H12.75C12.75 44.13 12.77 43.25 12.77 42.77C12.77 42.17 12.77 38.47 12.77 37.89C12.77 37.6 12.77 37.2 12.76 36.91ZM19.44 42.36V43.63H13.43V42.36H19.44ZM29.29 35.81C29.54 36.18 29.89 36.81 30.08 37.18L29.28 37.53C29.07 37.12 28.76 36.52 28.49 36.14L29.29 35.81ZM30.47 35.36C30.73 35.74 31.1 36.37 31.28 36.72L30.48 37.06C30.27 36.65 29.95 36.06 29.68 35.69L30.47 35.36ZM30.18 38.01C30.07 38.21 29.93 38.48 29.85 38.73C29.58 39.62 29.01 40.96 28.11 42.07C27.16 43.23 25.95 44.15 24.07 44.89L22.89 43.84C24.94 43.22 26.05 42.35 26.92 41.36C27.6 40.58 28.18 39.38 28.34 38.64H24.97L25.43 37.5C25.88 37.5 27.97 37.5 28.29 37.5C28.6 37.5 28.93 37.46 29.16 37.38L30.18 38.01ZM26.92 36.43C26.69 36.78 26.43 37.24 26.31 37.45C25.64 38.66 24.44 40.07 23.01 41.05L21.88 40.22C23.64 39.15 24.51 37.86 25.01 37C25.16 36.76 25.37 36.29 25.46 35.95L26.92 36.43Z" fill="#DC5DCB"/>
</svg>
