<svg width="43" height="45" viewBox="0 0 43 45" fill="none" xmlns="http://www.w3.org/2000/svg">
<path d="M24.3529 5.33158C24.3529 5.33158 24.4918 7.90655 26.5919 10.177C28.692 12.4487 31.0712 12.6003 31.0712 12.6003L32.1913 11.3886C33.0824 10.4247 33.583 9.11743 33.583 7.75427C33.583 6.39112 33.0824 5.0838 32.1913 4.11991C31.3003 3.15601 30.0917 2.6145 28.8316 2.6145C27.5714 2.6145 26.3628 3.15601 25.4718 4.11991L24.3517 5.33158L21.5 8.41631M31.0712 12.599L24.7154 19.4769L20.9683 23.5276L20.775 23.738C20.0766 24.4922 19.7274 24.87 19.3431 25.1941C18.8894 25.5766 18.3988 25.9049 17.8798 26.1732C17.44 26.3993 16.9724 26.5679 16.0359 26.9051L12.0714 28.3351M12.0714 28.3351L11.1023 28.6854C10.8764 28.7673 10.6338 28.7795 10.4019 28.7205C10.17 28.6615 9.95786 28.5337 9.78939 28.3515C9.62092 28.1692 9.50278 27.9398 9.44825 27.6889C9.39371 27.438 9.40495 27.1756 9.4807 26.9313L9.80453 25.883M12.0714 28.3351L9.80453 25.883M9.80453 25.883L11.1264 21.5944C11.4382 20.5814 11.5941 20.0756 11.8031 19.5998C12.052 19.036 12.3537 18.5084 12.7082 18.0169C13.0078 17.6012 13.357 17.2235 14.0542 16.4693L17.2708 12.9911" stroke="#222547" stroke-width="1.5" stroke-linecap="round"/>
<path d="M13.34 36.44H14.51V44.89H13.34V36.44ZM11.9 38.32H15.57V39.44H11.9V38.32ZM13.41 38.77L14.11 39.08C13.73 40.51 13.02 42.29 12.25 43.28C12.14 42.93 11.88 42.43 11.69 42.13C12.39 41.33 13.09 39.88 13.41 38.77ZM14.9 35.61L15.7 36.54C14.68 36.93 13.29 37.2 12.12 37.35C12.07 37.09 11.92 36.69 11.78 36.44C12.89 36.25 14.13 35.96 14.9 35.61ZM14.48 39.71C14.73 39.92 15.6 40.82 15.79 41.05L15.11 41.99C14.87 41.51 14.27 40.6 13.96 40.18L14.48 39.71ZM16.59 35.54L17.76 35.77C17.39 37.3 16.76 38.77 16.04 39.71C15.82 39.53 15.3 39.2 15.02 39.06C15.75 38.23 16.31 36.89 16.59 35.54ZM16.42 39.52L17.55 39.74C17.29 41.07 16.82 42.41 16.25 43.25C16.03 43.07 15.53 42.77 15.26 42.63C15.81 41.89 16.21 40.69 16.42 39.52ZM16.78 37.15H21.07V38.26H16.43L16.78 37.15ZM17.88 37.64H19.06V43.54C19.06 44.11 18.95 44.45 18.6 44.65C18.25 44.84 17.77 44.89 17.13 44.89C17.07 44.55 16.89 44.01 16.72 43.69C17.14 43.7 17.56 43.7 17.7 43.7C17.83 43.7 17.88 43.67 17.88 43.53V37.64ZM19.3 39.76L20.34 39.44C20.76 40.53 21.14 41.9 21.27 42.83L20.16 43.18C20.06 42.26 19.68 40.83 19.3 39.76ZM24.43 36.9V37.99H28.57V36.9H24.43ZM23.26 35.86H29.82V39.03H23.26V35.86ZM21.97 39.55H30.98V40.64H21.97V39.55ZM24.1 41.22H29V42.31H24.1V41.22ZM28.56 41.22H29.86C29.86 41.22 29.83 41.56 29.8 41.72C29.59 43.36 29.35 44.15 28.98 44.49C28.68 44.78 28.35 44.85 27.88 44.88C27.5 44.91 26.84 44.9 26.15 44.88C26.13 44.53 25.96 44.05 25.73 43.73C26.4 43.79 27.14 43.8 27.44 43.8C27.67 43.8 27.8 43.79 27.93 43.7C28.2 43.5 28.4 42.79 28.55 41.38L28.56 41.22ZM24.1 39.85L25.39 40.03C25.11 40.98 24.74 42.11 24.45 42.84L23.15 42.64C23.46 41.91 23.85 40.76 24.1 39.85Z" fill="#222547"/>
</svg>
