<svg width="85" height="70" viewBox="0 0 85 70" fill="none" xmlns="http://www.w3.org/2000/svg">
<g filter="url(#filter0_d_290_55)">
<path d="M6 25.7168C6 42.1008 20.673 50.8301 31.4113 58.6465C35.2 61.4024 38.85 64 42.5 64C46.15 64 49.8 61.4058 53.5887 58.6431C64.3307 50.8335 79 42.1008 79 25.7202C79 9.33955 58.925 -2.28725 42.5 13.4667C26.075 -2.28725 6 9.33281 6 25.7168Z" fill="white"/>
<path d="M30.8228 59.455L30.8231 59.4552C32.7085 60.8267 34.6217 62.2058 36.5329 63.2368C38.4454 64.2686 40.4405 65 42.5 65C44.5593 65 46.5543 64.2696 48.4671 63.2377C50.3783 62.2066 52.2911 60.827 54.1767 59.452C55.1647 58.7337 56.1927 58.0032 57.2444 57.256C61.8454 53.9867 66.9 50.3951 71.0432 46.0891C76.1673 40.7637 80 34.2499 80 25.7202C80 17.1101 74.7239 9.75605 67.2983 6.62168C60.0295 3.55354 50.7992 4.55712 42.5 12.0987C34.2009 4.55712 24.9707 3.55182 17.7019 6.61867C10.2761 9.75178 5 17.1051 5 25.7168C5 34.2483 8.83369 40.762 13.9582 46.0879C18.0944 50.3866 23.139 53.974 27.7324 57.2406C28.7921 57.9942 29.8278 58.7307 30.8228 59.455Z" stroke="white" stroke-width="2"/>
</g>
<path d="M6.49999 22.5C4.68605 42 22 50.5 32 58.6431C35.7887 61.399 38.85 64 42.5 64C46.15 64 49.2113 61.4058 53 58.6431C60.5 53.1742 80.5 40 79 24.5C78.1243 15.4509 62.5 1.00001 44.5 17C26.5 33 8.31393 3.00001 6.49999 22.5Z" fill="url(#paint0_linear_290_55)"/>
<g filter="url(#filter1_d_290_55)">
<path d="M33.0129 39.3304C32.1379 39.3304 31.3595 39.1883 30.6776 38.9042C29.9996 38.6163 29.4674 38.2243 29.081 37.7281C28.6947 37.2319 28.5015 36.6694 28.5015 36.0406C28.5015 35.5557 28.6113 35.1107 28.831 34.7054C29.0545 34.2963 29.3576 33.9572 29.7401 33.6883C30.1227 33.4156 30.5507 33.2413 31.0242 33.1656V33.086C30.403 32.961 29.8992 32.6599 29.5129 32.1826C29.1265 31.7016 28.9333 31.1429 28.9333 30.5065C28.9333 29.9042 29.1095 29.3682 29.4617 28.8985C29.814 28.4251 30.297 28.0538 30.9106 27.7849C31.528 27.5122 32.2288 27.3758 33.0129 27.3758C33.797 27.3758 34.4958 27.5122 35.1095 27.7849C35.7269 28.0576 36.2117 28.4307 36.564 28.9042C36.9163 29.3739 37.0943 29.908 37.0981 30.5065C37.0943 31.1466 36.8973 31.7054 36.5072 32.1826C36.117 32.6599 35.617 32.961 35.0072 33.086V33.1656C35.4731 33.2413 35.8954 33.4156 36.2742 33.6883C36.6568 33.9572 36.9598 34.2963 37.1833 34.7054C37.4106 35.1107 37.5261 35.5557 37.5299 36.0406C37.5261 36.6694 37.331 37.2319 36.9447 37.7281C36.5583 38.2243 36.0242 38.6163 35.3424 38.9042C34.6644 39.1883 33.8879 39.3304 33.0129 39.3304ZM33.0129 37.5235C33.403 37.5235 33.7439 37.4535 34.0356 37.3133C34.3273 37.1694 34.5545 36.9724 34.7174 36.7224C34.8841 36.4686 34.9674 36.1769 34.9674 35.8474C34.9674 35.5103 34.8822 35.2129 34.7117 34.9554C34.5413 34.694 34.3102 34.4894 34.0185 34.3417C33.7269 34.1902 33.3917 34.1144 33.0129 34.1144C32.6379 34.1144 32.3026 34.1902 32.0072 34.3417C31.7117 34.4894 31.4788 34.694 31.3083 34.9554C31.1417 35.2129 31.0583 35.5103 31.0583 35.8474C31.0583 36.1769 31.1398 36.4686 31.3026 36.7224C31.4655 36.9724 31.6947 37.1694 31.9901 37.3133C32.2856 37.4535 32.6265 37.5235 33.0129 37.5235ZM33.0129 32.3247C33.3386 32.3247 33.6284 32.2584 33.8822 32.1258C34.136 31.9932 34.3348 31.8095 34.4788 31.5747C34.6227 31.3398 34.6947 31.069 34.6947 30.7622C34.6947 30.4591 34.6227 30.194 34.4788 29.9667C34.3348 29.7357 34.1379 29.5557 33.8879 29.4269C33.6379 29.2944 33.3462 29.2281 33.0129 29.2281C32.6833 29.2281 32.3917 29.2944 32.1379 29.4269C31.8841 29.5557 31.6852 29.7357 31.5413 29.9667C31.4011 30.194 31.331 30.4591 31.331 30.7622C31.331 31.069 31.403 31.3398 31.547 31.5747C31.6909 31.8095 31.8898 31.9932 32.1435 32.1258C32.3973 32.2584 32.6871 32.3247 33.0129 32.3247ZM43.8126 39.4269C42.8353 39.4232 41.9944 39.1826 41.2899 38.7054C40.5891 38.2281 40.0493 37.5368 39.6705 36.6315C39.2955 35.7262 39.1099 34.6372 39.1137 33.3644C39.1137 32.0955 39.3012 31.0141 39.6762 30.1201C40.055 29.2262 40.5948 28.5463 41.2955 28.0804C42.0001 27.6107 42.8391 27.3758 43.8126 27.3758C44.7861 27.3758 45.6232 27.6107 46.3239 28.0804C47.0285 28.5501 47.5702 29.2319 47.9489 30.1258C48.3277 31.016 48.5152 32.0955 48.5114 33.3644C48.5114 34.641 48.3221 35.7319 47.9433 36.6372C47.5683 37.5425 47.0304 38.2338 46.3296 38.711C45.6289 39.1883 44.7899 39.4269 43.8126 39.4269ZM43.8126 37.3872C44.4792 37.3872 45.0114 37.0519 45.4092 36.3815C45.8069 35.711 46.0039 34.7054 46.0001 33.3644C46.0001 32.4819 45.9092 31.747 45.7274 31.1599C45.5493 30.5728 45.2955 30.1315 44.966 29.836C44.6402 29.5406 44.2558 29.3929 43.8126 29.3929C43.1497 29.3929 42.6194 29.7243 42.2217 30.3872C41.8239 31.0501 41.6232 32.0425 41.6194 33.3644C41.6194 34.2584 41.7084 35.0046 41.8864 35.6031C42.0683 36.1978 42.3239 36.6447 42.6535 36.944C42.983 37.2394 43.3694 37.3872 43.8126 37.3872ZM54.8069 37.5349V37.0747C54.8069 36.7252 54.8808 36.4042 55.0285 36.1116C55.1791 35.8162 55.3964 35.5804 55.6805 35.4042C55.9674 35.2252 56.3168 35.1358 56.7288 35.1358C57.1464 35.1358 57.4972 35.2238 57.7813 35.4C58.0683 35.5761 58.2842 35.8119 58.4291 36.1073C58.5768 36.4 58.6506 36.7224 58.6506 37.0747V37.5349C58.6506 37.8843 58.5768 38.2068 58.4291 38.5022C58.2813 38.7948 58.064 39.0292 57.7771 39.2054C57.4901 39.3843 57.1407 39.4738 56.7288 39.4738C56.3112 39.4738 55.9603 39.3843 55.6762 39.2054C55.3921 39.0292 55.1762 38.7948 55.0285 38.5022C54.8808 38.2068 54.8069 37.8843 54.8069 37.5349ZM56.047 37.0747V37.5349C56.047 37.7366 56.0953 37.9269 56.1918 38.1059C56.2913 38.2849 56.4703 38.3744 56.7288 38.3744C56.9873 38.3744 57.1634 38.2863 57.2572 38.1102C57.3538 37.934 57.4021 37.7423 57.4021 37.5349V37.0747C57.4021 36.8673 57.3566 36.6741 57.2657 36.4951C57.1748 36.3162 56.9958 36.2267 56.7288 36.2267C56.4731 36.2267 56.2955 36.3162 56.1961 36.4951C56.0967 36.6741 56.047 36.8673 56.047 37.0747ZM50.3282 32.5406V32.0804C50.3282 31.7281 50.4035 31.4056 50.5541 31.113C50.7046 30.8176 50.922 30.5818 51.206 30.4056C51.493 30.2295 51.8396 30.1414 52.2458 30.1414C52.6663 30.1414 53.0185 30.2295 53.3026 30.4056C53.5867 30.5818 53.8026 30.8176 53.9504 31.113C54.0981 31.4056 54.172 31.7281 54.172 32.0804V32.5406C54.172 32.8929 54.0967 33.2153 53.9461 33.5079C53.7984 33.8005 53.581 34.0349 53.2941 34.211C53.01 34.3843 52.6606 34.471 52.2458 34.471C51.831 34.471 51.4802 34.3829 51.1933 34.2068C50.9092 34.0278 50.6933 33.7934 50.5455 33.5037C50.4006 33.211 50.3282 32.89 50.3282 32.5406ZM51.5768 32.0804V32.5406C51.5768 32.748 51.6251 32.9397 51.7217 33.1159C51.8211 33.292 51.9958 33.3801 52.2458 33.3801C52.5072 33.3801 52.6847 33.292 52.7785 33.1159C52.8751 32.9397 52.9234 32.748 52.9234 32.5406V32.0804C52.9234 31.873 52.8779 31.6798 52.787 31.5008C52.6961 31.3218 52.5157 31.2323 52.2458 31.2323C51.993 31.2323 51.8183 31.3233 51.7217 31.5051C51.6251 31.6869 51.5768 31.8787 51.5768 32.0804ZM50.8907 39.1713L56.8907 30.444H58.0072L52.0072 39.1713H50.8907Z" fill="#222547"/>
</g>
<defs>
<filter id="filter0_d_290_55" x="0" y="-0.000946045" width="85" height="70.0009" filterUnits="userSpaceOnUse" color-interpolation-filters="sRGB">
<feFlood flood-opacity="0" result="BackgroundImageFix"/>
<feColorMatrix in="SourceAlpha" type="matrix" values="0 0 0 0 0 0 0 0 0 0 0 0 0 0 0 0 0 0 127 0" result="hardAlpha"/>
<feOffset/>
<feGaussianBlur stdDeviation="2"/>
<feComposite in2="hardAlpha" operator="out"/>
<feColorMatrix type="matrix" values="0 0 0 0 0 0 0 0 0 0 0 0 0 0 0 0 0 0 0.6 0"/>
<feBlend mode="normal" in2="BackgroundImageFix" result="effect1_dropShadow_290_55"/>
<feBlend mode="normal" in="SourceGraphic" in2="effect1_dropShadow_290_55" result="shape"/>
</filter>
<filter id="filter1_d_290_55" x="27.5015" y="27.3758" width="32.1491" height="14.098" filterUnits="userSpaceOnUse" color-interpolation-filters="sRGB">
<feFlood flood-opacity="0" result="BackgroundImageFix"/>
<feColorMatrix in="SourceAlpha" type="matrix" values="0 0 0 0 0 0 0 0 0 0 0 0 0 0 0 0 0 0 127 0" result="hardAlpha"/>
<feOffset dy="1"/>
<feGaussianBlur stdDeviation="0.5"/>
<feComposite in2="hardAlpha" operator="out"/>
<feColorMatrix type="matrix" values="0 0 0 0 1 0 0 0 0 1 0 0 0 0 1 0 0 0 0.6 0"/>
<feBlend mode="normal" in2="BackgroundImageFix" result="effect1_dropShadow_290_55"/>
<feBlend mode="normal" in="SourceGraphic" in2="effect1_dropShadow_290_55" result="shape"/>
</filter>
<linearGradient id="paint0_linear_290_55" x1="42.5" y1="6" x2="42.5" y2="64" gradientUnits="userSpaceOnUse">
<stop stop-color="white"/>
<stop offset="0.115" stop-color="#F9F0D7"/>
<stop offset="0.2" stop-color="#F3E2CF"/>
<stop offset="0.34" stop-color="#FFDDDE"/>
<stop offset="0.485" stop-color="#FFD9FB"/>
<stop offset="0.635" stop-color="#D4D1FF"/>
<stop offset="0.82" stop-color="#AFCBEB"/>
<stop offset="1" stop-color="#D7FAFE"/>
</linearGradient>
</defs>
</svg>
