<svg width="85" height="70" viewBox="0 0 85 70" fill="none" xmlns="http://www.w3.org/2000/svg">
<g filter="url(#filter0_d_86_307)">
<path d="M6 25.7168C6 42.1008 20.673 50.8301 31.4113 58.6465C35.2 61.4024 38.85 64 42.5 64C46.15 64 49.8 61.4058 53.5887 58.6431C64.3307 50.8335 79 42.1008 79 25.7202C79 9.33955 58.925 -2.28725 42.5 13.4667C26.075 -2.28725 6 9.33281 6 25.7168Z" fill="white"/>
<path d="M30.8228 59.455L30.8231 59.4552C32.7085 60.8267 34.6217 62.2058 36.5329 63.2368C38.4454 64.2686 40.4405 65 42.5 65C44.5593 65 46.5543 64.2696 48.4671 63.2377C50.3783 62.2066 52.2911 60.827 54.1767 59.452C55.1647 58.7337 56.1927 58.0032 57.2444 57.256C61.8454 53.9867 66.9 50.3951 71.0432 46.0891C76.1673 40.7637 80 34.2499 80 25.7202C80 17.1102 74.7239 9.75605 67.2983 6.62168C60.0295 3.55354 50.7992 4.55712 42.5 12.0987C34.2009 4.55712 24.9707 3.55182 17.7019 6.61867C10.2761 9.75178 5 17.1051 5 25.7168C5 34.2483 8.83369 40.762 13.9582 46.0879C18.0944 50.3866 23.139 53.974 27.7324 57.2406C28.7921 57.9942 29.8278 58.7307 30.8228 59.455Z" stroke="white" stroke-width="2"/>
</g>
<path d="M6 25.7168C6 44.4336 20.673 50.8301 31.4113 58.6465C35.2 61.4024 38.85 64 42.5 64C46.15 64 49.8 61.4058 53.5887 58.6431C64.3307 50.8335 79 42.1008 79 25.7202C73.5 14.5 58.925 9.96284 42.5 25.7168C26.075 41.4708 6 7 6 25.7168Z" fill="url(#paint0_linear_86_307)"/>
<g filter="url(#filter1_d_86_307)">
<path d="M33.1457 39.3304C32.5472 39.3266 31.9695 39.2262 31.4127 39.0292C30.8597 38.8322 30.3635 38.5122 29.9241 38.069C29.4847 37.6258 29.1362 37.0387 28.8786 36.3076C28.6248 35.5766 28.4979 34.6788 28.4979 33.6144C28.5017 32.6372 28.6135 31.7641 28.8332 30.9951C29.0567 30.2224 29.3748 29.5671 29.7877 29.0292C30.2044 28.4913 30.7025 28.0822 31.282 27.8019C31.8616 27.5179 32.5112 27.3758 33.2309 27.3758C34.0074 27.3758 34.693 27.5273 35.2877 27.8304C35.8824 28.1296 36.3597 28.5368 36.7195 29.0519C37.0832 29.5671 37.3029 30.1447 37.3786 30.7849H34.9525C34.8578 30.3796 34.6589 30.0614 34.3559 29.8304C34.0529 29.5993 33.6779 29.4838 33.2309 29.4838C32.4733 29.4838 31.8976 29.8133 31.5036 30.4724C31.1135 31.1315 30.9146 32.0273 30.907 33.1599H30.9866C31.1608 32.8152 31.3957 32.5216 31.6911 32.2792C31.9904 32.033 32.3294 31.8455 32.7082 31.7167C33.0908 31.5841 33.4942 31.5179 33.9184 31.5179C34.6078 31.5179 35.2214 31.6807 35.7593 32.0065C36.2972 32.3285 36.7214 32.7716 37.032 33.336C37.3426 33.9004 37.4979 34.5463 37.4979 35.2735C37.4979 36.0614 37.3142 36.7622 36.9468 37.3758C36.5832 37.9894 36.0737 38.4705 35.4184 38.819C34.7669 39.1637 34.0093 39.3341 33.1457 39.3304ZM33.1343 37.3985C33.5131 37.3985 33.8521 37.3076 34.1514 37.1258C34.4506 36.944 34.6854 36.6978 34.8559 36.3872C35.0264 36.0766 35.1116 35.7281 35.1116 35.3417C35.1116 34.9554 35.0264 34.6088 34.8559 34.3019C34.6892 33.9951 34.4582 33.7508 34.1627 33.569C33.8673 33.3872 33.5301 33.2963 33.1514 33.2963C32.8673 33.2963 32.604 33.3493 32.3616 33.4554C32.1229 33.5614 31.9127 33.7091 31.7309 33.8985C31.5529 34.0879 31.4127 34.3076 31.3104 34.5576C31.2082 34.8038 31.157 35.0671 31.157 35.3474C31.157 35.7224 31.2423 36.0652 31.4127 36.3758C31.587 36.6864 31.8218 36.9345 32.1173 37.1201C32.4165 37.3057 32.7555 37.3985 33.1343 37.3985ZM43.8048 39.4269C42.8275 39.4232 41.9866 39.1826 41.282 38.7054C40.5813 38.2281 40.0415 37.5368 39.6627 36.6315C39.2877 35.7262 39.1021 34.6372 39.1059 33.3644C39.1059 32.0955 39.2934 31.0141 39.6684 30.1201C40.0472 29.2262 40.587 28.5463 41.2877 28.0804C41.9923 27.6107 42.8313 27.3758 43.8048 27.3758C44.7783 27.3758 45.6154 27.6107 46.3161 28.0804C47.0207 28.5501 47.5623 29.2319 47.9411 30.1258C48.3199 31.016 48.5074 32.0955 48.5036 33.3644C48.5036 34.641 48.3142 35.7319 47.9354 36.6372C47.5604 37.5425 47.0226 38.2338 46.3218 38.711C45.6211 39.1883 44.782 39.4269 43.8048 39.4269ZM43.8048 37.3872C44.4714 37.3872 45.0036 37.0519 45.4014 36.3815C45.7991 35.711 45.9961 34.7054 45.9923 33.3644C45.9923 32.4819 45.9014 31.747 45.7195 31.1599C45.5415 30.5728 45.2877 30.1315 44.9582 29.836C44.6324 29.5406 44.2479 29.3929 43.8048 29.3929C43.1419 29.3929 42.6116 29.7243 42.2139 30.3872C41.8161 31.0501 41.6154 32.0425 41.6116 33.3644C41.6116 34.2584 41.7006 35.0046 41.8786 35.6031C42.0604 36.1978 42.3161 36.6447 42.6457 36.944C42.9752 37.2394 43.3616 37.3872 43.8048 37.3872ZM54.7991 37.5349V37.0747C54.7991 36.7252 54.8729 36.4042 55.0207 36.1116C55.1712 35.8162 55.3886 35.5804 55.6727 35.4042C55.9596 35.2252 56.309 35.1358 56.721 35.1358C57.1386 35.1358 57.4894 35.2238 57.7735 35.4C58.0604 35.5761 58.2764 35.8119 58.4212 36.1073C58.569 36.4 58.6428 36.7224 58.6428 37.0747V37.5349C58.6428 37.8843 58.569 38.2068 58.4212 38.5022C58.2735 38.7948 58.0562 39.0292 57.7693 39.2054C57.4823 39.3843 57.1329 39.4738 56.721 39.4738C56.3033 39.4738 55.9525 39.3843 55.6684 39.2054C55.3843 39.0292 55.1684 38.7948 55.0207 38.5022C54.8729 38.2068 54.7991 37.8843 54.7991 37.5349ZM56.0391 37.0747V37.5349C56.0391 37.7366 56.0874 37.9269 56.184 38.1059C56.2835 38.2849 56.4624 38.3744 56.721 38.3744C56.9795 38.3744 57.1556 38.2863 57.2494 38.1102C57.346 37.934 57.3943 37.7423 57.3943 37.5349V37.0747C57.3943 36.8673 57.3488 36.6741 57.2579 36.4951C57.167 36.3162 56.988 36.2267 56.721 36.2267C56.4653 36.2267 56.2877 36.3162 56.1883 36.4951C56.0889 36.6741 56.0391 36.8673 56.0391 37.0747ZM50.3204 32.5406V32.0804C50.3204 31.7281 50.3957 31.4056 50.5462 31.113C50.6968 30.8176 50.9141 30.5818 51.1982 30.4056C51.4852 30.2295 51.8318 30.1414 52.238 30.1414C52.6585 30.1414 53.0107 30.2295 53.2948 30.4056C53.5789 30.5818 53.7948 30.8176 53.9426 31.113C54.0903 31.4056 54.1641 31.7281 54.1641 32.0804V32.5406C54.1641 32.8929 54.0889 33.2153 53.9383 33.5079C53.7906 33.8005 53.5732 34.0349 53.2863 34.211C53.0022 34.3843 52.6528 34.471 52.238 34.471C51.8232 34.471 51.4724 34.3829 51.1854 34.2068C50.9014 34.0278 50.6854 33.7934 50.5377 33.5037C50.3928 33.211 50.3204 32.89 50.3204 32.5406ZM51.569 32.0804V32.5406C51.569 32.748 51.6173 32.9397 51.7139 33.1159C51.8133 33.292 51.988 33.3801 52.238 33.3801C52.4994 33.3801 52.6769 33.292 52.7707 33.1159C52.8673 32.9397 52.9156 32.748 52.9156 32.5406V32.0804C52.9156 31.873 52.8701 31.6798 52.7792 31.5008C52.6883 31.3218 52.5079 31.2323 52.238 31.2323C51.9852 31.2323 51.8104 31.3233 51.7139 31.5051C51.6173 31.6869 51.569 31.8787 51.569 32.0804ZM50.8829 39.1713L56.8829 30.444H57.9994L51.9994 39.1713H50.8829Z" fill="#222547"/>
</g>
<defs>
<filter id="filter0_d_86_307" x="0" y="-0.000946045" width="85" height="70.0009" filterUnits="userSpaceOnUse" color-interpolation-filters="sRGB">
<feFlood flood-opacity="0" result="BackgroundImageFix"/>
<feColorMatrix in="SourceAlpha" type="matrix" values="0 0 0 0 0 0 0 0 0 0 0 0 0 0 0 0 0 0 127 0" result="hardAlpha"/>
<feOffset/>
<feGaussianBlur stdDeviation="2"/>
<feComposite in2="hardAlpha" operator="out"/>
<feColorMatrix type="matrix" values="0 0 0 0 0 0 0 0 0 0 0 0 0 0 0 0 0 0 0.6 0"/>
<feBlend mode="normal" in2="BackgroundImageFix" result="effect1_dropShadow_86_307"/>
<feBlend mode="normal" in="SourceGraphic" in2="effect1_dropShadow_86_307" result="shape"/>
</filter>
<filter id="filter1_d_86_307" x="27.4979" y="27.3758" width="32.1449" height="14.098" filterUnits="userSpaceOnUse" color-interpolation-filters="sRGB">
<feFlood flood-opacity="0" result="BackgroundImageFix"/>
<feColorMatrix in="SourceAlpha" type="matrix" values="0 0 0 0 0 0 0 0 0 0 0 0 0 0 0 0 0 0 127 0" result="hardAlpha"/>
<feOffset dy="1"/>
<feGaussianBlur stdDeviation="0.5"/>
<feComposite in2="hardAlpha" operator="out"/>
<feColorMatrix type="matrix" values="0 0 0 0 1 0 0 0 0 1 0 0 0 0 1 0 0 0 0.6 0"/>
<feBlend mode="normal" in2="BackgroundImageFix" result="effect1_dropShadow_86_307"/>
<feBlend mode="normal" in="SourceGraphic" in2="effect1_dropShadow_86_307" result="shape"/>
</filter>
<linearGradient id="paint0_linear_86_307" x1="42.5" y1="6" x2="42.5" y2="64" gradientUnits="userSpaceOnUse">
<stop stop-color="white"/>
<stop offset="0.115" stop-color="#F9F0D7"/>
<stop offset="0.2" stop-color="#F3E2CF"/>
<stop offset="0.34" stop-color="#FFDDDE"/>
<stop offset="0.485" stop-color="#FFD9FB"/>
<stop offset="0.635" stop-color="#D4D1FF"/>
<stop offset="0.82" stop-color="#AFCBEB"/>
<stop offset="1" stop-color="#D7FAFE"/>
</linearGradient>
</defs>
</svg>
