<svg width="85" height="70" viewBox="0 0 85 70" fill="none" xmlns="http://www.w3.org/2000/svg">
<g filter="url(#filter0_d_288_61)">
<path d="M6 25.7168C6 42.1008 20.673 50.8301 31.4113 58.6465C35.2 61.4024 38.85 64 42.5 64C46.15 64 49.8 61.4058 53.5887 58.6431C64.3307 50.8335 79 42.1008 79 25.7202C79 9.33955 58.925 -2.28725 42.5 13.4667C26.075 -2.28725 6 9.33281 6 25.7168Z" fill="white"/>
<path d="M30.8228 59.455L30.8231 59.4552C32.7085 60.8267 34.6217 62.2058 36.5329 63.2368C38.4454 64.2686 40.4405 65 42.5 65C44.5593 65 46.5543 64.2696 48.4671 63.2377C50.3783 62.2066 52.2911 60.827 54.1767 59.452C55.1647 58.7337 56.1927 58.0032 57.2444 57.256C61.8454 53.9867 66.9 50.3951 71.0432 46.0891C76.1673 40.7637 80 34.2499 80 25.7202C80 17.1102 74.7239 9.75605 67.2983 6.62168C60.0295 3.55354 50.7992 4.55712 42.5 12.0987C34.2009 4.55712 24.9707 3.55182 17.7019 6.61867C10.2761 9.75178 5 17.1051 5 25.7168C5 34.2483 8.83369 40.762 13.9582 46.0879C18.0944 50.3866 23.139 53.974 27.7324 57.2406C28.7921 57.9942 29.8278 58.7307 30.8228 59.455Z" stroke="white" stroke-width="2"/>
</g>
<path d="M6.49999 32.5C11.5 46 20.673 50.8301 31.4113 58.6465C35.2 61.4024 38.85 64 42.5 64C46.15 64 49.8 61.4058 53.5887 58.6431C64.3307 50.8335 72.5 47.5 79 32.5C82.7773 23.7832 60.425 21.246 44 37C27.575 52.754 1.50001 19 6.49999 32.5Z" fill="url(#paint0_linear_288_61)"/>
<g filter="url(#filter1_d_288_61)">
<path d="M28.363 37.1258V35.1883L33.221 27.5349H34.8914V30.2167H33.9028L30.8403 35.0633V35.1542H37.7437V37.1258H28.363ZM33.9482 39.1713V36.5349L33.9937 35.6769V27.5349H36.3005V39.1713H33.9482ZM43.9454 39.4269C42.9681 39.4232 42.1272 39.1826 41.4227 38.7054C40.7219 38.2281 40.1821 37.5368 39.8033 36.6315C39.4283 35.7262 39.2427 34.6372 39.2465 33.3644C39.2465 32.0955 39.434 31.0141 39.809 30.1201C40.1878 29.2262 40.7276 28.5463 41.4283 28.0804C42.1329 27.6107 42.9719 27.3758 43.9454 27.3758C44.9189 27.3758 45.756 27.6107 46.4568 28.0804C47.1613 28.5501 47.703 29.2319 48.0818 30.1258C48.4605 31.016 48.648 32.0955 48.6443 33.3644C48.6443 34.641 48.4549 35.7319 48.0761 36.6372C47.7011 37.5425 47.1632 38.2338 46.4624 38.711C45.7617 39.1883 44.9227 39.4269 43.9454 39.4269ZM43.9454 37.3872C44.6121 37.3872 45.1443 37.0519 45.542 36.3815C45.9397 35.711 46.1367 34.7054 46.1329 33.3644C46.1329 32.4819 46.042 31.747 45.8602 31.1599C45.6821 30.5728 45.4283 30.1315 45.0988 29.836C44.773 29.5406 44.3886 29.3929 43.9454 29.3929C43.2825 29.3929 42.7522 29.7243 42.3545 30.3872C41.9568 31.0501 41.756 32.0425 41.7522 33.3644C41.7522 34.2584 41.8412 35.0046 42.0193 35.6031C42.2011 36.1978 42.4568 36.6447 42.7863 36.944C43.1158 37.2394 43.5022 37.3872 43.9454 37.3872ZM54.9397 37.5349V37.0747C54.9397 36.7252 55.0136 36.4042 55.1613 36.1116C55.3119 35.8162 55.5292 35.5804 55.8133 35.4042C56.1002 35.2252 56.4497 35.1358 56.8616 35.1358C57.2792 35.1358 57.6301 35.2238 57.9141 35.4C58.2011 35.5761 58.417 35.8119 58.5619 36.1073C58.7096 36.4 58.7835 36.7224 58.7835 37.0747V37.5349C58.7835 37.8843 58.7096 38.2068 58.5619 38.5022C58.4141 38.7948 58.1968 39.0292 57.9099 39.2054C57.6229 39.3843 57.2735 39.4738 56.8616 39.4738C56.444 39.4738 56.0931 39.3843 55.809 39.2054C55.5249 39.0292 55.309 38.7948 55.1613 38.5022C55.0136 38.2068 54.9397 37.8843 54.9397 37.5349ZM56.1798 37.0747V37.5349C56.1798 37.7366 56.2281 37.9269 56.3247 38.1059C56.4241 38.2849 56.6031 38.3744 56.8616 38.3744C57.1201 38.3744 57.2962 38.2863 57.39 38.1102C57.4866 37.934 57.5349 37.7423 57.5349 37.5349V37.0747C57.5349 36.8673 57.4894 36.6741 57.3985 36.4951C57.3076 36.3162 57.1286 36.2267 56.8616 36.2267C56.6059 36.2267 56.4283 36.3162 56.3289 36.4951C56.2295 36.6741 56.1798 36.8673 56.1798 37.0747ZM50.461 32.5406V32.0804C50.461 31.7281 50.5363 31.4056 50.6869 31.113C50.8374 30.8176 51.0548 30.5818 51.3389 30.4056C51.6258 30.2295 51.9724 30.1414 52.3786 30.1414C52.7991 30.1414 53.1514 30.2295 53.4354 30.4056C53.7195 30.5818 53.9354 30.8176 54.0832 31.113C54.2309 31.4056 54.3048 31.7281 54.3048 32.0804V32.5406C54.3048 32.8929 54.2295 33.2153 54.0789 33.5079C53.9312 33.8005 53.7139 34.0349 53.4269 34.211C53.1428 34.3843 52.7934 34.471 52.3786 34.471C51.9639 34.471 51.613 34.3829 51.3261 34.2068C51.042 34.0278 50.8261 33.7934 50.6783 33.5037C50.5335 33.211 50.461 32.89 50.461 32.5406ZM51.7096 32.0804V32.5406C51.7096 32.748 51.7579 32.9397 51.8545 33.1159C51.9539 33.292 52.1286 33.3801 52.3786 33.3801C52.64 33.3801 52.8176 33.292 52.9113 33.1159C53.0079 32.9397 53.0562 32.748 53.0562 32.5406V32.0804C53.0562 31.873 53.0107 31.6798 52.9198 31.5008C52.8289 31.3218 52.6485 31.2323 52.3786 31.2323C52.1258 31.2323 51.9511 31.3233 51.8545 31.5051C51.7579 31.6869 51.7096 31.8787 51.7096 32.0804ZM51.0235 39.1713L57.0235 30.444H58.14L52.14 39.1713H51.0235Z" fill="#222547"/>
</g>
<defs>
<filter id="filter0_d_288_61" x="0" y="-0.000946045" width="85" height="70.0009" filterUnits="userSpaceOnUse" color-interpolation-filters="sRGB">
<feFlood flood-opacity="0" result="BackgroundImageFix"/>
<feColorMatrix in="SourceAlpha" type="matrix" values="0 0 0 0 0 0 0 0 0 0 0 0 0 0 0 0 0 0 127 0" result="hardAlpha"/>
<feOffset/>
<feGaussianBlur stdDeviation="2"/>
<feComposite in2="hardAlpha" operator="out"/>
<feColorMatrix type="matrix" values="0 0 0 0 0 0 0 0 0 0 0 0 0 0 0 0 0 0 0.6 0"/>
<feBlend mode="normal" in2="BackgroundImageFix" result="effect1_dropShadow_288_61"/>
<feBlend mode="normal" in="SourceGraphic" in2="effect1_dropShadow_288_61" result="shape"/>
</filter>
<filter id="filter1_d_288_61" x="27.363" y="27.3758" width="32.4204" height="14.098" filterUnits="userSpaceOnUse" color-interpolation-filters="sRGB">
<feFlood flood-opacity="0" result="BackgroundImageFix"/>
<feColorMatrix in="SourceAlpha" type="matrix" values="0 0 0 0 0 0 0 0 0 0 0 0 0 0 0 0 0 0 127 0" result="hardAlpha"/>
<feOffset dy="1"/>
<feGaussianBlur stdDeviation="0.5"/>
<feComposite in2="hardAlpha" operator="out"/>
<feColorMatrix type="matrix" values="0 0 0 0 1 0 0 0 0 1 0 0 0 0 1 0 0 0 0.6 0"/>
<feBlend mode="normal" in2="BackgroundImageFix" result="effect1_dropShadow_288_61"/>
<feBlend mode="normal" in="SourceGraphic" in2="effect1_dropShadow_288_61" result="shape"/>
</filter>
<linearGradient id="paint0_linear_288_61" x1="42.5" y1="6" x2="42.5" y2="64" gradientUnits="userSpaceOnUse">
<stop stop-color="white"/>
<stop offset="0.115" stop-color="#F9F0D7"/>
<stop offset="0.2" stop-color="#F3E2CF"/>
<stop offset="0.34" stop-color="#FFDDDE"/>
<stop offset="0.485" stop-color="#FFD9FB"/>
<stop offset="0.635" stop-color="#D4D1FF"/>
<stop offset="0.82" stop-color="#AFCBEB"/>
<stop offset="1" stop-color="#D7FAFE"/>
</linearGradient>
</defs>
</svg>
