<?xml version="1.0" encoding="UTF-8" standalone="no"?>
<svg
   width="85"
   height="70"
   viewBox="0 0 85 70"
   fill="none"
   version="1.1"
   id="svg28"
   xmlns="http://www.w3.org/2000/svg"
   xmlns:svg="http://www.w3.org/2000/svg">
  <g
     filter="url(#filter2_d_245_58)"
     id="g4">
    <path
       d="M 6,25.7168 C 6,42.1008 20.673,50.8301 31.4113,58.6465 35.2,61.4024 38.85,64 42.5,64 46.15,64 49.8,61.4058 53.5887,58.6431 64.3307,50.8335 79,42.1008 79,25.7202 79,9.33955 58.925,-2.28725 42.5,13.4667 26.075,-2.28725 6,9.33281 6,25.7168 Z"
       fill="url(#paint1_linear_245_58)"
       id="path3"
       style="display:inline" />
    <path
       d="M 6,25.7168 C 6,42.1008 20.673,50.8301 31.4113,58.6465 35.2,61.4024 38.85,64 42.5,64 46.15,64 49.8,61.4058 53.5887,58.6431 64.3307,50.8335 79,42.1008 79,25.7202 79,9.33955 58.925,-2.28725 42.5,13.4667 26.075,-2.28725 6,9.33281 6,25.7168 Z"
       fill="url(#paint1_linear_245_58)"
       id="path28"
       style="display:inline;fill:none;stroke:#ffffff;stroke-opacity:1" />
  </g>
  <g
     filter="url(#filter3_d_245_58)"
     id="g5"
     style="display:inline">
    <path
       d="m 29.6016,27.5349 v 11.6364 h -2.4602 v -9.3012 h -0.0682 l -2.6647,1.6705 v -2.1818 l 2.8806,-1.8239 z m 7.3282,11.892 c -0.9773,-0.0037 -1.8182,-0.2443 -2.5228,-0.7215 -0.7007,-0.4773 -1.2405,-1.1686 -1.6193,-2.0739 -0.375,-0.9053 -0.5606,-1.9943 -0.5568,-3.2671 0,-1.2689 0.1875,-2.3503 0.5625,-3.2443 0.3788,-0.8939 0.9186,-1.5738 1.6193,-2.0397 0.7046,-0.4697 1.5436,-0.7046 2.5171,-0.7046 0.9735,0 1.8106,0.2349 2.5113,0.7046 0.7046,0.4697 1.2462,1.1515 1.625,2.0454 0.3788,0.8902 0.5663,1.9697 0.5625,3.2386 0,1.2766 -0.1894,2.3675 -0.5682,3.2728 -0.375,0.9053 -0.9128,1.5966 -1.6136,2.0738 -0.7007,0.4773 -1.5398,0.7159 -2.517,0.7159 z m 0,-2.0397 c 0.6666,0 1.1988,-0.3353 1.5966,-1.0057 0.3977,-0.6705 0.5947,-1.6761 0.5909,-3.0171 0,-0.8825 -0.0909,-1.6174 -0.2728,-2.2045 -0.178,-0.5871 -0.4318,-1.0284 -0.7613,-1.3239 -0.3258,-0.2954 -0.7103,-0.4431 -1.1534,-0.4431 -0.6629,0 -1.1932,0.3314 -1.5909,0.9943 -0.3978,0.6629 -0.5985,1.6553 -0.6023,2.9772 0,0.894 0.089,1.6402 0.267,2.2387 0.1818,0.5947 0.4375,1.0416 0.7671,1.3409 0.3295,0.2954 0.7159,0.4432 1.1591,0.4432 z m 11.0156,2.0397 c -0.9773,-0.0037 -1.8182,-0.2443 -2.5227,-0.7215 -0.7008,-0.4773 -1.2406,-1.1686 -1.6194,-2.0739 -0.375,-0.9053 -0.5606,-1.9943 -0.5568,-3.2671 0,-1.2689 0.1875,-2.3503 0.5625,-3.2443 0.3788,-0.8939 0.9186,-1.5738 1.6193,-2.0397 0.7046,-0.4697 1.5436,-0.7046 2.5171,-0.7046 0.9735,0 1.8106,0.2349 2.5114,0.7046 0.7045,0.4697 1.2462,1.1515 1.625,2.0454 0.3787,0.8902 0.5662,1.9697 0.5625,3.2386 0,1.2766 -0.1894,2.3675 -0.5682,3.2728 -0.375,0.9053 -0.9129,1.5966 -1.6137,2.0738 -0.7007,0.4773 -1.5397,0.7159 -2.517,0.7159 z m 0,-2.0397 c 0.6667,0 1.1989,-0.3353 1.5966,-1.0057 0.3977,-0.6705 0.5947,-1.6761 0.5909,-3.0171 0,-0.8825 -0.0909,-1.6174 -0.2727,-2.2045 -0.1781,-0.5871 -0.4319,-1.0284 -0.7614,-1.3239 -0.3258,-0.2954 -0.7102,-0.4431 -1.1534,-0.4431 -0.6629,0 -1.1932,0.3314 -1.5909,0.9943 -0.3977,0.6629 -0.5985,1.6553 -0.6023,2.9772 0,0.894 0.089,1.6402 0.2671,2.2387 0.1818,0.5947 0.4375,1.0416 0.767,1.3409 0.3295,0.2954 0.7159,0.4432 1.1591,0.4432 z m 10.9943,0.1477 v -0.4602 c 0,-0.3495 0.0739,-0.6705 0.2216,-0.9631 0.1506,-0.2954 0.3679,-0.5312 0.652,-0.7074 0.2869,-0.179 0.6364,-0.2684 1.0483,-0.2684 0.4176,0 0.7685,0.088 1.0525,0.2642 0.287,0.1761 0.5029,0.4119 0.6478,0.7073 0.1477,0.2927 0.2216,0.6151 0.2216,0.9674 v 0.4602 c 0,0.3494 -0.0739,0.6719 -0.2216,0.9673 -0.1478,0.2926 -0.3651,0.527 -0.652,0.7032 -0.287,0.1789 -0.6364,0.2684 -1.0483,0.2684 -0.4176,0 -0.7685,-0.0895 -1.0526,-0.2684 -0.2841,-0.1762 -0.5,-0.4106 -0.6477,-0.7032 -0.1477,-0.2954 -0.2216,-0.6179 -0.2216,-0.9673 z m 1.2401,-0.4602 v 0.4602 c 0,0.2017 0.0483,0.392 0.1449,0.571 0.0994,0.179 0.2784,0.2685 0.5369,0.2685 0.2585,0 0.4346,-0.0881 0.5284,-0.2642 0.0966,-0.1762 0.1449,-0.3679 0.1449,-0.5753 v -0.4602 c 0,-0.2074 -0.0455,-0.4006 -0.1364,-0.5796 -0.0909,-0.1789 -0.2699,-0.2684 -0.5369,-0.2684 -0.2557,0 -0.4333,0.0895 -0.5327,0.2684 -0.0994,0.179 -0.1491,0.3722 -0.1491,0.5796 z M 54.461,32.5406 v -0.4602 c 0,-0.3523 0.0753,-0.6748 0.2259,-0.9674 0.1505,-0.2954 0.3679,-0.5312 0.652,-0.7074 0.2869,-0.1761 0.6335,-0.2642 1.0397,-0.2642 0.4205,0 0.7728,0.0881 1.0568,0.2642 0.2841,0.1762 0.5,0.412 0.6478,0.7074 0.1477,0.2926 0.2216,0.6151 0.2216,0.9674 v 0.4602 c 0,0.3523 -0.0753,0.6747 -0.2259,0.9673 -0.1477,0.2926 -0.365,0.527 -0.652,0.7031 -0.2841,0.1733 -0.6335,0.26 -1.0483,0.26 -0.4147,0 -0.7656,-0.0881 -1.0525,-0.2642 -0.2841,-0.179 -0.5,-0.4134 -0.6478,-0.7031 C 54.5335,33.211 54.461,32.89 54.461,32.5406 Z m 1.2486,-0.4602 v 0.4602 c 0,0.2074 0.0483,0.3991 0.1449,0.5753 0.0994,0.1761 0.2741,0.2642 0.5241,0.2642 0.2614,0 0.439,-0.0881 0.5327,-0.2642 0.0966,-0.1762 0.1449,-0.3679 0.1449,-0.5753 v -0.4602 c 0,-0.2074 -0.0455,-0.4006 -0.1364,-0.5796 -0.0909,-0.179 -0.2713,-0.2685 -0.5412,-0.2685 -0.2528,0 -0.4275,0.091 -0.5241,0.2728 -0.0966,0.1818 -0.1449,0.3736 -0.1449,0.5753 z m -0.6861,7.0909 6,-8.7273 H 62.14 l -6,8.7273 z"
       fill="#222547"
       id="path5" />
  </g>
  <defs
     id="defs28">
    <filter
       id="filter0_d_245_58"
       x="2"
       y="2"
       width="81"
       height="66"
       filterUnits="userSpaceOnUse"
       color-interpolation-filters="sRGB">
      <feFlood
         flood-opacity="0"
         result="BackgroundImageFix"
         id="feFlood5" />
      <feColorMatrix
         in="SourceAlpha"
         type="matrix"
         values="0 0 0 0 0 0 0 0 0 0 0 0 0 0 0 0 0 0 127 0"
         result="hardAlpha"
         id="feColorMatrix5" />
      <feOffset
         id="feOffset5" />
      <feGaussianBlur
         stdDeviation="2"
         id="feGaussianBlur5" />
      <feComposite
         in2="hardAlpha"
         operator="out"
         id="feComposite5" />
      <feColorMatrix
         type="matrix"
         values="0 0 0 0 0 0 0 0 0 0 0 0 0 0 0 0 0 0 0.6 0"
         id="feColorMatrix6" />
      <feBlend
         mode="normal"
         in2="BackgroundImageFix"
         result="effect1_dropShadow_245_58"
         id="feBlend6" />
      <feBlend
         mode="normal"
         in="SourceGraphic"
         in2="effect1_dropShadow_245_58"
         result="shape"
         id="feBlend7" />
    </filter>
    <filter
       id="filter1_d_245_58"
       x="23.4084"
       y="27.3758"
       width="40.375"
       height="14.098"
       filterUnits="userSpaceOnUse"
       color-interpolation-filters="sRGB">
      <feFlood
         flood-opacity="0"
         result="BackgroundImageFix"
         id="feFlood7" />
      <feColorMatrix
         in="SourceAlpha"
         type="matrix"
         values="0 0 0 0 0 0 0 0 0 0 0 0 0 0 0 0 0 0 127 0"
         result="hardAlpha"
         id="feColorMatrix7" />
      <feOffset
         dy="1"
         id="feOffset7" />
      <feGaussianBlur
         stdDeviation="0.5"
         id="feGaussianBlur7" />
      <feComposite
         in2="hardAlpha"
         operator="out"
         id="feComposite7" />
      <feColorMatrix
         type="matrix"
         values="0 0 0 0 1 0 0 0 0 1 0 0 0 0 1 0 0 0 0.6 0"
         id="feColorMatrix8" />
      <feBlend
         mode="normal"
         in2="BackgroundImageFix"
         result="effect1_dropShadow_245_58"
         id="feBlend8" />
      <feBlend
         mode="normal"
         in="SourceGraphic"
         in2="effect1_dropShadow_245_58"
         result="shape"
         id="feBlend9" />
    </filter>
    <filter
       id="filter2_d_245_58"
       x="0"
       y="-0.000953674"
       width="85"
       height="70.001"
       filterUnits="userSpaceOnUse"
       color-interpolation-filters="sRGB">
      <feFlood
         flood-opacity="0"
         result="BackgroundImageFix"
         id="feFlood9" />
      <feColorMatrix
         in="SourceAlpha"
         type="matrix"
         values="0 0 0 0 0 0 0 0 0 0 0 0 0 0 0 0 0 0 127 0"
         result="hardAlpha"
         id="feColorMatrix9" />
      <feOffset
         id="feOffset9" />
      <feGaussianBlur
         stdDeviation="2"
         id="feGaussianBlur9" />
      <feComposite
         in2="hardAlpha"
         operator="out"
         id="feComposite9" />
      <feColorMatrix
         type="matrix"
         values="0 0 0 0 0 0 0 0 0 0 0 0 0 0 0 0 0 0 0.6 0"
         id="feColorMatrix10" />
      <feBlend
         mode="normal"
         in2="BackgroundImageFix"
         result="effect1_dropShadow_245_58"
         id="feBlend10" />
      <feBlend
         mode="normal"
         in="SourceGraphic"
         in2="effect1_dropShadow_245_58"
         result="shape"
         id="feBlend11" />
    </filter>
    <filter
       id="filter3_d_245_58"
       x="23.4084"
       y="27.3758"
       width="40.375"
       height="14.098"
       filterUnits="userSpaceOnUse"
       color-interpolation-filters="sRGB">
      <feFlood
         flood-opacity="0"
         result="BackgroundImageFix"
         id="feFlood11" />
      <feColorMatrix
         in="SourceAlpha"
         type="matrix"
         values="0 0 0 0 0 0 0 0 0 0 0 0 0 0 0 0 0 0 127 0"
         result="hardAlpha"
         id="feColorMatrix11" />
      <feOffset
         dy="1"
         id="feOffset11" />
      <feGaussianBlur
         stdDeviation="0.5"
         id="feGaussianBlur11" />
      <feComposite
         in2="hardAlpha"
         operator="out"
         id="feComposite11" />
      <feColorMatrix
         type="matrix"
         values="0 0 0 0 1 0 0 0 0 1 0 0 0 0 1 0 0 0 0.6 0"
         id="feColorMatrix12" />
      <feBlend
         mode="normal"
         in2="BackgroundImageFix"
         result="effect1_dropShadow_245_58"
         id="feBlend12" />
      <feBlend
         mode="normal"
         in="SourceGraphic"
         in2="effect1_dropShadow_245_58"
         result="shape"
         id="feBlend13" />
    </filter>
    <linearGradient
       id="paint0_linear_245_58"
       x1="6"
       y1="35"
       x2="79"
       y2="35"
       gradientUnits="userSpaceOnUse">
      <stop
         stop-color="white"
         id="stop13" />
      <stop
         offset="0.115"
         stop-color="#FFEBB5"
         id="stop14" />
      <stop
         offset="0.2"
         stop-color="#FFDEB8"
         id="stop15" />
      <stop
         offset="0.34"
         stop-color="#FFC5C6"
         id="stop16" />
      <stop
         offset="0.485"
         stop-color="#FFB6F8"
         id="stop17" />
      <stop
         offset="0.635"
         stop-color="#BEB9FF"
         id="stop18" />
      <stop
         offset="0.769097"
         stop-color="#AFD0F7"
         id="stop19" />
      <stop
         offset="0.914403"
         stop-color="#ACF5FD"
         id="stop20" />
    </linearGradient>
    <linearGradient
       id="paint1_linear_245_58"
       x1="42.5"
       y1="6"
       x2="42.5"
       y2="64"
       gradientUnits="userSpaceOnUse">
      <stop
         stop-color="white"
         id="stop21" />
      <stop
         offset="0.115"
         stop-color="#F9F0D7"
         id="stop22" />
      <stop
         offset="0.2"
         stop-color="#F3E2CF"
         id="stop23" />
      <stop
         offset="0.34"
         stop-color="#FFDDDE"
         id="stop24" />
      <stop
         offset="0.485"
         stop-color="#FFD9FB"
         id="stop25" />
      <stop
         offset="0.635"
         stop-color="#D4D1FF"
         id="stop26" />
      <stop
         offset="0.82"
         stop-color="#AFCBEB"
         id="stop27" />
      <stop
         offset="1"
         stop-color="#D7FAFE"
         id="stop28" />
    </linearGradient>
  </defs>
</svg>
