<svg width="85" height="70" viewBox="0 0 85 70" fill="none" xmlns="http://www.w3.org/2000/svg">
<g filter="url(#filter0_d_86_327)">
<path d="M6 25.7168C6 42.1008 20.673 50.8301 31.4113 58.6465C35.2 61.4024 38.85 64 42.5 64C46.15 64 49.8 61.4058 53.5887 58.6431C64.3307 50.8335 79 42.1008 79 25.7202C79 9.33955 58.925 -2.28725 42.5 13.4667C26.075 -2.28725 6 9.33281 6 25.7168Z" fill="url(#paint0_linear_86_327)"/>
</g>
<g filter="url(#filter1_d_86_327)">
<path d="M29.6016 27.5349V39.1713H27.1414V29.8701H27.0732L24.4085 31.5406V29.3588L27.2891 27.5349H29.6016ZM36.9298 39.4269C35.9525 39.4232 35.1116 39.1826 34.407 38.7054C33.7063 38.2281 33.1665 37.5368 32.7877 36.6315C32.4127 35.7262 32.2271 34.6372 32.2309 33.3644C32.2309 32.0955 32.4184 31.0141 32.7934 30.1201C33.1722 29.2262 33.712 28.5463 34.4127 28.0804C35.1173 27.6107 35.9563 27.3758 36.9298 27.3758C37.9033 27.3758 38.7404 27.6107 39.4411 28.0804C40.1457 28.55 40.6873 29.2319 41.0661 30.1258C41.4449 31.016 41.6324 32.0955 41.6286 33.3644C41.6286 34.641 41.4392 35.7319 41.0604 36.6372C40.6854 37.5425 40.1476 38.2338 39.4468 38.711C38.7461 39.1883 37.907 39.4269 36.9298 39.4269ZM36.9298 37.3872C37.5964 37.3872 38.1286 37.0519 38.5264 36.3815C38.9241 35.711 39.1211 34.7054 39.1173 33.3644C39.1173 32.4819 39.0264 31.747 38.8445 31.1599C38.6665 30.5728 38.4127 30.1315 38.0832 29.836C37.7574 29.5406 37.3729 29.3929 36.9298 29.3929C36.2669 29.3929 35.7366 29.7243 35.3389 30.3872C34.9411 31.05 34.7404 32.0425 34.7366 33.3644C34.7366 34.2584 34.8256 35.0046 35.0036 35.6031C35.1854 36.1978 35.4411 36.6447 35.7707 36.944C36.1002 37.2394 36.4866 37.3872 36.9298 37.3872ZM47.9454 39.4269C46.9681 39.4232 46.1272 39.1826 45.4227 38.7054C44.7219 38.2281 44.1821 37.5368 43.8033 36.6315C43.4283 35.7262 43.2427 34.6372 43.2465 33.3644C43.2465 32.0955 43.434 31.0141 43.809 30.1201C44.1878 29.2262 44.7276 28.5463 45.4283 28.0804C46.1329 27.6107 46.9719 27.3758 47.9454 27.3758C48.9189 27.3758 49.756 27.6107 50.4568 28.0804C51.1613 28.55 51.703 29.2319 52.0818 30.1258C52.4605 31.016 52.648 32.0955 52.6443 33.3644C52.6443 34.641 52.4549 35.7319 52.0761 36.6372C51.7011 37.5425 51.1632 38.2338 50.4624 38.711C49.7617 39.1883 48.9227 39.4269 47.9454 39.4269ZM47.9454 37.3872C48.6121 37.3872 49.1443 37.0519 49.542 36.3815C49.9397 35.711 50.1367 34.7054 50.1329 33.3644C50.1329 32.4819 50.042 31.747 49.8602 31.1599C49.6821 30.5728 49.4283 30.1315 49.0988 29.836C48.773 29.5406 48.3886 29.3929 47.9454 29.3929C47.2825 29.3929 46.7522 29.7243 46.3545 30.3872C45.9568 31.05 45.756 32.0425 45.7522 33.3644C45.7522 34.2584 45.8412 35.0046 46.0193 35.6031C46.2011 36.1978 46.4568 36.6447 46.7863 36.944C47.1158 37.2394 47.5022 37.3872 47.9454 37.3872ZM58.9397 37.5349V37.0747C58.9397 36.7252 59.0136 36.4042 59.1613 36.1116C59.3119 35.8161 59.5292 35.5804 59.8133 35.4042C60.1002 35.2252 60.4497 35.1357 60.8616 35.1357C61.2792 35.1357 61.6301 35.2238 61.9141 35.4C62.2011 35.5761 62.417 35.8119 62.5619 36.1073C62.7096 36.4 62.7835 36.7224 62.7835 37.0747V37.5349C62.7835 37.8843 62.7096 38.2068 62.5619 38.5022C62.4141 38.7948 62.1968 39.0292 61.9099 39.2054C61.6229 39.3843 61.2735 39.4738 60.8616 39.4738C60.444 39.4738 60.0931 39.3843 59.809 39.2054C59.5249 39.0292 59.309 38.7948 59.1613 38.5022C59.0136 38.2068 58.9397 37.8843 58.9397 37.5349ZM60.1798 37.0747V37.5349C60.1798 37.7366 60.2281 37.9269 60.3247 38.1059C60.4241 38.2849 60.6031 38.3744 60.8616 38.3744C61.1201 38.3744 61.2962 38.2863 61.39 38.1102C61.4866 37.934 61.5349 37.7423 61.5349 37.5349V37.0747C61.5349 36.8673 61.4894 36.6741 61.3985 36.4951C61.3076 36.3161 61.1286 36.2267 60.8616 36.2267C60.6059 36.2267 60.4283 36.3161 60.3289 36.4951C60.2295 36.6741 60.1798 36.8673 60.1798 37.0747ZM54.461 32.5406V32.0804C54.461 31.7281 54.5363 31.4056 54.6869 31.113C54.8374 30.8176 55.0548 30.5818 55.3389 30.4056C55.6258 30.2295 55.9724 30.1414 56.3786 30.1414C56.7991 30.1414 57.1514 30.2295 57.4354 30.4056C57.7195 30.5818 57.9354 30.8176 58.0832 31.113C58.2309 31.4056 58.3048 31.7281 58.3048 32.0804V32.5406C58.3048 32.8929 58.2295 33.2153 58.0789 33.5079C57.9312 33.8005 57.7139 34.0349 57.4269 34.211C57.1428 34.3843 56.7934 34.471 56.3786 34.471C55.9639 34.471 55.613 34.3829 55.3261 34.2068C55.042 34.0278 54.8261 33.7934 54.6783 33.5036C54.5335 33.211 54.461 32.89 54.461 32.5406ZM55.7096 32.0804V32.5406C55.7096 32.748 55.7579 32.9397 55.8545 33.1159C55.9539 33.292 56.1286 33.3801 56.3786 33.3801C56.64 33.3801 56.8176 33.292 56.9113 33.1159C57.0079 32.9397 57.0562 32.748 57.0562 32.5406V32.0804C57.0562 31.873 57.0107 31.6798 56.9198 31.5008C56.8289 31.3218 56.6485 31.2323 56.3786 31.2323C56.1258 31.2323 55.9511 31.3232 55.8545 31.5051C55.7579 31.6869 55.7096 31.8786 55.7096 32.0804ZM55.0235 39.1713L61.0235 30.444H62.14L56.14 39.1713H55.0235Z" fill="#222547"/>
</g>
<g filter="url(#filter2_d_86_327)">
<path d="M6 25.7168C6 42.1008 20.673 50.8301 31.4113 58.6465C35.2 61.4024 38.85 64 42.5 64C46.15 64 49.8 61.4058 53.5887 58.6431C64.3307 50.8335 79 42.1008 79 25.7202C79 9.33955 58.925 -2.28725 42.5 13.4667C26.075 -2.28725 6 9.33281 6 25.7168Z" fill="url(#paint1_linear_86_327)"/>
<path d="M30.8228 59.455L30.8231 59.4552L53.5887 58.6431L54.1767 59.452C54.177 59.4517 54.1773 59.4515 54.1776 59.4513C55.1653 58.7333 56.193 58.003 57.2443 57.256C61.8453 53.9867 66.9 50.3951 71.0432 46.0891C76.1673 40.7637 80 34.2499 80 25.7202C80 17.1102 74.7239 9.75605 67.2983 6.62168C60.0295 3.55354 50.7992 4.55712 42.5 12.0987C34.2009 4.55712 24.9707 3.55181 17.7019 6.61867C10.2761 9.75178 5 17.1051 5 25.7168C5 34.2483 8.83369 40.762 13.9582 46.0879C18.0944 50.3866 23.139 53.974 27.7324 57.2406C28.7921 57.9942 29.8278 58.7307 30.8228 59.455Z" stroke="white" stroke-width="2"/>
</g>
<g filter="url(#filter3_d_86_327)">
<path d="M29.6016 27.5349V39.1713H27.1414V29.8701H27.0732L24.4085 31.5406V29.3588L27.2891 27.5349H29.6016ZM36.9298 39.4269C35.9525 39.4232 35.1116 39.1826 34.407 38.7054C33.7063 38.2281 33.1665 37.5368 32.7877 36.6315C32.4127 35.7262 32.2271 34.6372 32.2309 33.3644C32.2309 32.0955 32.4184 31.0141 32.7934 30.1201C33.1722 29.2262 33.712 28.5463 34.4127 28.0804C35.1173 27.6107 35.9563 27.3758 36.9298 27.3758C37.9033 27.3758 38.7404 27.6107 39.4411 28.0804C40.1457 28.55 40.6873 29.2319 41.0661 30.1258C41.4449 31.016 41.6324 32.0955 41.6286 33.3644C41.6286 34.641 41.4392 35.7319 41.0604 36.6372C40.6854 37.5425 40.1476 38.2338 39.4468 38.711C38.7461 39.1883 37.907 39.4269 36.9298 39.4269ZM36.9298 37.3872C37.5964 37.3872 38.1286 37.0519 38.5264 36.3815C38.9241 35.711 39.1211 34.7054 39.1173 33.3644C39.1173 32.4819 39.0264 31.747 38.8445 31.1599C38.6665 30.5728 38.4127 30.1315 38.0832 29.836C37.7574 29.5406 37.3729 29.3929 36.9298 29.3929C36.2669 29.3929 35.7366 29.7243 35.3389 30.3872C34.9411 31.05 34.7404 32.0425 34.7366 33.3644C34.7366 34.2584 34.8256 35.0046 35.0036 35.6031C35.1854 36.1978 35.4411 36.6447 35.7707 36.944C36.1002 37.2394 36.4866 37.3872 36.9298 37.3872ZM47.9454 39.4269C46.9681 39.4232 46.1272 39.1826 45.4227 38.7054C44.7219 38.2281 44.1821 37.5368 43.8033 36.6315C43.4283 35.7262 43.2427 34.6372 43.2465 33.3644C43.2465 32.0955 43.434 31.0141 43.809 30.1201C44.1878 29.2262 44.7276 28.5463 45.4283 28.0804C46.1329 27.6107 46.9719 27.3758 47.9454 27.3758C48.9189 27.3758 49.756 27.6107 50.4568 28.0804C51.1613 28.55 51.703 29.2319 52.0818 30.1258C52.4605 31.016 52.648 32.0955 52.6443 33.3644C52.6443 34.641 52.4549 35.7319 52.0761 36.6372C51.7011 37.5425 51.1632 38.2338 50.4624 38.711C49.7617 39.1883 48.9227 39.4269 47.9454 39.4269ZM47.9454 37.3872C48.6121 37.3872 49.1443 37.0519 49.542 36.3815C49.9397 35.711 50.1367 34.7054 50.1329 33.3644C50.1329 32.4819 50.042 31.747 49.8602 31.1599C49.6821 30.5728 49.4283 30.1315 49.0988 29.836C48.773 29.5406 48.3886 29.3929 47.9454 29.3929C47.2825 29.3929 46.7522 29.7243 46.3545 30.3872C45.9568 31.05 45.756 32.0425 45.7522 33.3644C45.7522 34.2584 45.8412 35.0046 46.0193 35.6031C46.2011 36.1978 46.4568 36.6447 46.7863 36.944C47.1158 37.2394 47.5022 37.3872 47.9454 37.3872ZM58.9397 37.5349V37.0747C58.9397 36.7252 59.0136 36.4042 59.1613 36.1116C59.3119 35.8161 59.5292 35.5804 59.8133 35.4042C60.1002 35.2252 60.4497 35.1357 60.8616 35.1357C61.2792 35.1357 61.6301 35.2238 61.9141 35.4C62.2011 35.5761 62.417 35.8119 62.5619 36.1073C62.7096 36.4 62.7835 36.7224 62.7835 37.0747V37.5349C62.7835 37.8843 62.7096 38.2068 62.5619 38.5022C62.4141 38.7948 62.1968 39.0292 61.9099 39.2054C61.6229 39.3843 61.2735 39.4738 60.8616 39.4738C60.444 39.4738 60.0931 39.3843 59.809 39.2054C59.5249 39.0292 59.309 38.7948 59.1613 38.5022C59.0136 38.2068 58.9397 37.8843 58.9397 37.5349ZM60.1798 37.0747V37.5349C60.1798 37.7366 60.2281 37.9269 60.3247 38.1059C60.4241 38.2849 60.6031 38.3744 60.8616 38.3744C61.1201 38.3744 61.2962 38.2863 61.39 38.1102C61.4866 37.934 61.5349 37.7423 61.5349 37.5349V37.0747C61.5349 36.8673 61.4894 36.6741 61.3985 36.4951C61.3076 36.3161 61.1286 36.2267 60.8616 36.2267C60.6059 36.2267 60.4283 36.3161 60.3289 36.4951C60.2295 36.6741 60.1798 36.8673 60.1798 37.0747ZM54.461 32.5406V32.0804C54.461 31.7281 54.5363 31.4056 54.6869 31.113C54.8374 30.8176 55.0548 30.5818 55.3389 30.4056C55.6258 30.2295 55.9724 30.1414 56.3786 30.1414C56.7991 30.1414 57.1514 30.2295 57.4354 30.4056C57.7195 30.5818 57.9354 30.8176 58.0832 31.113C58.2309 31.4056 58.3048 31.7281 58.3048 32.0804V32.5406C58.3048 32.8929 58.2295 33.2153 58.0789 33.5079C57.9312 33.8005 57.7139 34.0349 57.4269 34.211C57.1428 34.3843 56.7934 34.471 56.3786 34.471C55.9639 34.471 55.613 34.3829 55.3261 34.2068C55.042 34.0278 54.8261 33.7934 54.6783 33.5036C54.5335 33.211 54.461 32.89 54.461 32.5406ZM55.7096 32.0804V32.5406C55.7096 32.748 55.7579 32.9397 55.8545 33.1159C55.9539 33.292 56.1286 33.3801 56.3786 33.3801C56.64 33.3801 56.8176 33.292 56.9113 33.1159C57.0079 32.9397 57.0562 32.748 57.0562 32.5406V32.0804C57.0562 31.873 57.0107 31.6798 56.9198 31.5008C56.8289 31.3218 56.6485 31.2323 56.3786 31.2323C56.1258 31.2323 55.9511 31.3232 55.8545 31.5051C55.7579 31.6869 55.7096 31.8786 55.7096 32.0804ZM55.0235 39.1713L61.0235 30.444H62.14L56.14 39.1713H55.0235Z" fill="#222547"/>
</g>
<defs>
<filter id="filter0_d_86_327" x="2" y="2" width="81" height="66" filterUnits="userSpaceOnUse" color-interpolation-filters="sRGB">
<feFlood flood-opacity="0" result="BackgroundImageFix"/>
<feColorMatrix in="SourceAlpha" type="matrix" values="0 0 0 0 0 0 0 0 0 0 0 0 0 0 0 0 0 0 127 0" result="hardAlpha"/>
<feOffset/>
<feGaussianBlur stdDeviation="2"/>
<feComposite in2="hardAlpha" operator="out"/>
<feColorMatrix type="matrix" values="0 0 0 0 0 0 0 0 0 0 0 0 0 0 0 0 0 0 0.6 0"/>
<feBlend mode="normal" in2="BackgroundImageFix" result="effect1_dropShadow_86_327"/>
<feBlend mode="normal" in="SourceGraphic" in2="effect1_dropShadow_86_327" result="shape"/>
</filter>
<filter id="filter1_d_86_327" x="23.4084" y="27.3758" width="40.375" height="14.098" filterUnits="userSpaceOnUse" color-interpolation-filters="sRGB">
<feFlood flood-opacity="0" result="BackgroundImageFix"/>
<feColorMatrix in="SourceAlpha" type="matrix" values="0 0 0 0 0 0 0 0 0 0 0 0 0 0 0 0 0 0 127 0" result="hardAlpha"/>
<feOffset dy="1"/>
<feGaussianBlur stdDeviation="0.5"/>
<feComposite in2="hardAlpha" operator="out"/>
<feColorMatrix type="matrix" values="0 0 0 0 1 0 0 0 0 1 0 0 0 0 1 0 0 0 0.6 0"/>
<feBlend mode="normal" in2="BackgroundImageFix" result="effect1_dropShadow_86_327"/>
<feBlend mode="normal" in="SourceGraphic" in2="effect1_dropShadow_86_327" result="shape"/>
</filter>
<filter id="filter2_d_86_327" x="0" y="-0.000953674" width="85" height="70.001" filterUnits="userSpaceOnUse" color-interpolation-filters="sRGB">
<feFlood flood-opacity="0" result="BackgroundImageFix"/>
<feColorMatrix in="SourceAlpha" type="matrix" values="0 0 0 0 0 0 0 0 0 0 0 0 0 0 0 0 0 0 127 0" result="hardAlpha"/>
<feOffset/>
<feGaussianBlur stdDeviation="2"/>
<feComposite in2="hardAlpha" operator="out"/>
<feColorMatrix type="matrix" values="0 0 0 0 0 0 0 0 0 0 0 0 0 0 0 0 0 0 0.6 0"/>
<feBlend mode="normal" in2="BackgroundImageFix" result="effect1_dropShadow_86_327"/>
<feBlend mode="normal" in="SourceGraphic" in2="effect1_dropShadow_86_327" result="shape"/>
</filter>
<filter id="filter3_d_86_327" x="23.4084" y="27.3758" width="40.375" height="14.098" filterUnits="userSpaceOnUse" color-interpolation-filters="sRGB">
<feFlood flood-opacity="0" result="BackgroundImageFix"/>
<feColorMatrix in="SourceAlpha" type="matrix" values="0 0 0 0 0 0 0 0 0 0 0 0 0 0 0 0 0 0 127 0" result="hardAlpha"/>
<feOffset dy="1"/>
<feGaussianBlur stdDeviation="0.5"/>
<feComposite in2="hardAlpha" operator="out"/>
<feColorMatrix type="matrix" values="0 0 0 0 1 0 0 0 0 1 0 0 0 0 1 0 0 0 0.6 0"/>
<feBlend mode="normal" in2="BackgroundImageFix" result="effect1_dropShadow_86_327"/>
<feBlend mode="normal" in="SourceGraphic" in2="effect1_dropShadow_86_327" result="shape"/>
</filter>
<linearGradient id="paint0_linear_86_327" x1="6" y1="35" x2="79" y2="35" gradientUnits="userSpaceOnUse">
<stop stop-color="white"/>
<stop offset="0.115" stop-color="#FFEBB5"/>
<stop offset="0.2" stop-color="#FFDEB8"/>
<stop offset="0.34" stop-color="#FFC5C6"/>
<stop offset="0.485" stop-color="#FFB6F8"/>
<stop offset="0.635" stop-color="#BEB9FF"/>
<stop offset="0.769097" stop-color="#AFD0F7"/>
<stop offset="0.914403" stop-color="#ACF5FD"/>
</linearGradient>
<linearGradient id="paint1_linear_86_327" x1="42.5" y1="6" x2="42.5" y2="64" gradientUnits="userSpaceOnUse">
<stop stop-color="white"/>
<stop offset="0.115" stop-color="#F9F0D7"/>
<stop offset="0.2" stop-color="#F3E2CF"/>
<stop offset="0.34" stop-color="#FFDDDE"/>
<stop offset="0.485" stop-color="#FFD9FB"/>
<stop offset="0.635" stop-color="#D4D1FF"/>
<stop offset="0.82" stop-color="#AFCBEB"/>
<stop offset="1" stop-color="#D7FAFE"/>
</linearGradient>
</defs>
</svg>
