<svg width="85" height="70" viewBox="0 0 85 70" fill="none" xmlns="http://www.w3.org/2000/svg">
<g filter="url(#filter0_d_290_49)">
<path d="M6 25.7168C6 42.1008 20.673 50.8301 31.4113 58.6465C35.2 61.4024 38.85 64 42.5 64C46.15 64 49.8 61.4058 53.5887 58.6431C64.3307 50.8335 79 42.1008 79 25.7202C79 9.33955 58.925 -2.28725 42.5 13.4667C26.075 -2.28725 6 9.33281 6 25.7168Z" fill="white"/>
<path d="M30.8228 59.455L30.8231 59.4552C32.7085 60.8267 34.6217 62.2058 36.5329 63.2368C38.4454 64.2686 40.4405 65 42.5 65C44.5593 65 46.5543 64.2696 48.4671 63.2377C50.3783 62.2066 52.2911 60.827 54.1767 59.452C55.1647 58.7337 56.1927 58.0032 57.2444 57.256C61.8454 53.9867 66.9 50.3951 71.0432 46.0891C76.1673 40.7637 80 34.2499 80 25.7202C80 17.1101 74.7239 9.75605 67.2983 6.62168C60.0295 3.55354 50.7992 4.55712 42.5 12.0987C34.2009 4.55712 24.9707 3.55182 17.7019 6.61867C10.2761 9.75178 5 17.1051 5 25.7168C5 34.2483 8.83369 40.762 13.9582 46.0879C18.0944 50.3866 23.139 53.974 27.7324 57.2406C28.7921 57.9942 29.8278 58.7307 30.8228 59.455Z" stroke="white" stroke-width="2"/>
</g>
<path d="M10.5 40.5C14 47.5 20.8733 51.23 31.6117 59.0463C35.4004 61.8022 38.9617 64.9031 42.6117 64.9031C46.2617 64.9031 55.823 58.1658 59.6117 55.4031C70.3537 47.5935 76.0764 39.7706 78 34C81 25 55 43 38.5 48C22 53 6.99995 33.5 10.5 40.5Z" fill="url(#paint0_linear_290_49)"/>
<g filter="url(#filter1_d_290_49)">
<path d="M28.922 39.1713V37.3985L33.064 33.5633C33.4163 33.2224 33.7117 32.9156 33.9504 32.6429C34.1928 32.3701 34.3765 32.1031 34.5015 31.8417C34.6265 31.5766 34.689 31.2906 34.689 30.9838C34.689 30.6429 34.6113 30.3493 34.456 30.1031C34.3007 29.8531 34.0886 29.6618 33.8197 29.5292C33.5507 29.3929 33.2458 29.3247 32.9049 29.3247C32.5488 29.3247 32.2382 29.3966 31.9731 29.5406C31.7079 29.6845 31.5034 29.891 31.3595 30.1599C31.2155 30.4288 31.1435 30.7489 31.1435 31.1201H28.8083C28.8083 30.3588 28.9807 29.6978 29.3254 29.1372C29.6701 28.5766 30.153 28.1429 30.7742 27.836C31.3954 27.5292 32.1113 27.3758 32.922 27.3758C33.7553 27.3758 34.4807 27.5235 35.0981 27.819C35.7193 28.1107 36.2023 28.516 36.547 29.0349C36.8917 29.5538 37.064 30.1485 37.064 30.819C37.064 31.2584 36.9769 31.6921 36.8026 32.1201C36.6322 32.5482 36.3273 33.0235 35.8879 33.5463C35.4485 34.0652 34.8292 34.6883 34.0299 35.4156L32.331 37.0804V37.1599H37.2174V39.1713H28.922ZM43.5626 39.4269C42.5853 39.4232 41.7444 39.1826 41.0399 38.7054C40.3391 38.2281 39.7993 37.5368 39.4205 36.6315C39.0455 35.7262 38.8599 34.6372 38.8637 33.3644C38.8637 32.0955 39.0512 31.0141 39.4262 30.1201C39.805 29.2262 40.3448 28.5463 41.0455 28.0804C41.7501 27.6107 42.5891 27.3758 43.5626 27.3758C44.5361 27.3758 45.3732 27.6107 46.0739 28.0804C46.7785 28.5501 47.3202 29.2319 47.6989 30.1258C48.0777 31.016 48.2652 32.0955 48.2614 33.3644C48.2614 34.641 48.0721 35.7319 47.6933 36.6372C47.3183 37.5425 46.7804 38.2338 46.0796 38.711C45.3789 39.1883 44.5399 39.4269 43.5626 39.4269ZM43.5626 37.3872C44.2292 37.3872 44.7614 37.0519 45.1592 36.3815C45.5569 35.711 45.7539 34.7054 45.7501 33.3644C45.7501 32.4819 45.6592 31.747 45.4774 31.1599C45.2993 30.5728 45.0455 30.1315 44.716 29.836C44.3902 29.5406 44.0058 29.3929 43.5626 29.3929C42.8997 29.3929 42.3694 29.7243 41.9717 30.3872C41.5739 31.0501 41.3732 32.0425 41.3694 33.3644C41.3694 34.2584 41.4584 35.0046 41.6364 35.6031C41.8183 36.1978 42.0739 36.6447 42.4035 36.944C42.733 37.2394 43.1194 37.3872 43.5626 37.3872ZM54.5569 37.5349V37.0747C54.5569 36.7252 54.6308 36.4042 54.7785 36.1116C54.9291 35.8162 55.1464 35.5804 55.4305 35.4042C55.7174 35.2252 56.0668 35.1358 56.4788 35.1358C56.8964 35.1358 57.2472 35.2238 57.5313 35.4C57.8183 35.5761 58.0342 35.8119 58.1791 36.1073C58.3268 36.4 58.4006 36.7224 58.4006 37.0747V37.5349C58.4006 37.8843 58.3268 38.2068 58.1791 38.5022C58.0313 38.7948 57.814 39.0292 57.5271 39.2054C57.2401 39.3843 56.8907 39.4738 56.4788 39.4738C56.0612 39.4738 55.7103 39.3843 55.4262 39.2054C55.1421 39.0292 54.9262 38.7948 54.7785 38.5022C54.6308 38.2068 54.5569 37.8843 54.5569 37.5349ZM55.797 37.0747V37.5349C55.797 37.7366 55.8453 37.9269 55.9418 38.1059C56.0413 38.2849 56.2203 38.3744 56.4788 38.3744C56.7373 38.3744 56.9134 38.2863 57.0072 38.1102C57.1038 37.934 57.1521 37.7423 57.1521 37.5349V37.0747C57.1521 36.8673 57.1066 36.6741 57.0157 36.4951C56.9248 36.3162 56.7458 36.2267 56.4788 36.2267C56.2231 36.2267 56.0455 36.3162 55.9461 36.4951C55.8467 36.6741 55.797 36.8673 55.797 37.0747ZM50.0782 32.5406V32.0804C50.0782 31.7281 50.1535 31.4056 50.3041 31.113C50.4546 30.8176 50.672 30.5818 50.956 30.4056C51.243 30.2295 51.5896 30.1414 51.9958 30.1414C52.4163 30.1414 52.7685 30.2295 53.0526 30.4056C53.3367 30.5818 53.5526 30.8176 53.7004 31.113C53.8481 31.4056 53.922 31.7281 53.922 32.0804V32.5406C53.922 32.8929 53.8467 33.2153 53.6961 33.5079C53.5484 33.8005 53.331 34.0349 53.0441 34.211C52.76 34.3843 52.4106 34.471 51.9958 34.471C51.581 34.471 51.2302 34.3829 50.9433 34.2068C50.6592 34.0278 50.4433 33.7934 50.2955 33.5037C50.1506 33.211 50.0782 32.89 50.0782 32.5406ZM51.3268 32.0804V32.5406C51.3268 32.748 51.3751 32.9397 51.4717 33.1159C51.5711 33.292 51.7458 33.3801 51.9958 33.3801C52.2572 33.3801 52.4347 33.292 52.5285 33.1159C52.6251 32.9397 52.6734 32.748 52.6734 32.5406V32.0804C52.6734 31.873 52.6279 31.6798 52.537 31.5008C52.4461 31.3218 52.2657 31.2323 51.9958 31.2323C51.743 31.2323 51.5683 31.3233 51.4717 31.5051C51.3751 31.6869 51.3268 31.8787 51.3268 32.0804ZM50.6407 39.1713L56.6407 30.444H57.7572L51.7572 39.1713H50.6407Z" fill="#222547"/>
</g>
<defs>
<filter id="filter0_d_290_49" x="0" y="-0.000946045" width="85" height="70.0009" filterUnits="userSpaceOnUse" color-interpolation-filters="sRGB">
<feFlood flood-opacity="0" result="BackgroundImageFix"/>
<feColorMatrix in="SourceAlpha" type="matrix" values="0 0 0 0 0 0 0 0 0 0 0 0 0 0 0 0 0 0 127 0" result="hardAlpha"/>
<feOffset/>
<feGaussianBlur stdDeviation="2"/>
<feComposite in2="hardAlpha" operator="out"/>
<feColorMatrix type="matrix" values="0 0 0 0 0 0 0 0 0 0 0 0 0 0 0 0 0 0 0.6 0"/>
<feBlend mode="normal" in2="BackgroundImageFix" result="effect1_dropShadow_290_49"/>
<feBlend mode="normal" in="SourceGraphic" in2="effect1_dropShadow_290_49" result="shape"/>
</filter>
<filter id="filter1_d_290_49" x="27.8083" y="27.3758" width="31.5923" height="14.098" filterUnits="userSpaceOnUse" color-interpolation-filters="sRGB">
<feFlood flood-opacity="0" result="BackgroundImageFix"/>
<feColorMatrix in="SourceAlpha" type="matrix" values="0 0 0 0 0 0 0 0 0 0 0 0 0 0 0 0 0 0 127 0" result="hardAlpha"/>
<feOffset dy="1"/>
<feGaussianBlur stdDeviation="0.5"/>
<feComposite in2="hardAlpha" operator="out"/>
<feColorMatrix type="matrix" values="0 0 0 0 1 0 0 0 0 1 0 0 0 0 1 0 0 0 0.6 0"/>
<feBlend mode="normal" in2="BackgroundImageFix" result="effect1_dropShadow_290_49"/>
<feBlend mode="normal" in="SourceGraphic" in2="effect1_dropShadow_290_49" result="shape"/>
</filter>
<linearGradient id="paint0_linear_290_49" x1="42.6117" y1="6.40311" x2="42.6117" y2="64.4031" gradientUnits="userSpaceOnUse">
<stop stop-color="white"/>
<stop offset="0.115" stop-color="#F9F0D7"/>
<stop offset="0.2" stop-color="#F3E2CF"/>
<stop offset="0.34" stop-color="#FFDDDE"/>
<stop offset="0.485" stop-color="#FFD9FB"/>
<stop offset="0.635" stop-color="#D4D1FF"/>
<stop offset="0.82" stop-color="#AFCBEB"/>
<stop offset="1" stop-color="#D7FAFE"/>
</linearGradient>
</defs>
</svg>
