<svg width="180" height="68" viewBox="0 0 180 68" fill="none" xmlns="http://www.w3.org/2000/svg">
<rect x="1" y="1" width="178" height="66" rx="33" fill="url(#paint0_linear_22_137)"/>
<rect x="1" y="1" width="178" height="66" rx="33" stroke="white" stroke-width="2"/>
<path d="M150.61 39.86C149.245 40.405 148.563 40.678 148.48 41.243C148.397 41.808 148.97 42.292 150.115 43.259L150.411 43.509C150.736 43.784 150.898 43.922 150.991 44.109C151.085 44.296 151.098 44.512 151.125 44.944L151.149 45.337C151.242 46.857 151.289 47.617 151.783 47.879C152.277 48.141 152.891 47.732 154.119 46.913L154.437 46.701C154.786 46.468 154.96 46.351 155.16 46.32C155.36 46.289 155.562 46.344 155.966 46.456L156.334 46.558C157.756 46.952 158.467 47.149 158.854 46.746C159.242 46.343 159.049 45.606 158.664 44.133M159 41.835C159.786 40.559 160.178 39.921 159.924 39.409C159.67 38.899 158.936 38.852 157.47 38.761L157.09 38.737C156.674 38.711 156.466 38.698 156.285 38.602C156.104 38.506 155.971 38.338 155.705 38.002L155.462 37.696C154.526 36.513 154.057 35.921 153.512 36.008C152.968 36.096 152.707 36.804 152.186 38.221" stroke="white" stroke-width="1.5" stroke-linecap="round"/>
<path d="M148.446 41.241C146.111 42.949 144.324 46.216 145.248 52.001C146.067 49.589 148.534 47.658 151.291 46.728" stroke="white" stroke-width="1.5" stroke-linecap="round" stroke-linejoin="round"/>
<path d="M151.28 50C151.28 50 151.914 51.39 152.694 51.87C153.474 52.347 155 52.28 155 52.28C155 52.28 153.61 52.913 153.13 53.693C152.652 54.473 152.72 56 152.72 56C152.72 56 152.086 54.61 151.306 54.13C150.527 53.654 149 53.72 149 53.72C149 53.72 150.39 53.087 150.87 52.307C151.348 51.527 151.28 50 151.28 50ZM159.48 49C159.48 49 159.058 49.927 158.538 50.246C158.018 50.565 157 50.52 157 50.52C157 50.52 157.927 50.942 158.246 51.462C158.565 51.982 158.52 53 158.52 53C158.52 53 158.942 52.073 159.462 51.754C159.982 51.435 161 51.48 161 51.48C161 51.48 160.073 51.058 159.754 50.538C159.435 50.018 159.48 49 159.48 49Z" stroke="white" stroke-linejoin="round"/>
<path d="M39.3942 20.07C39.955 20.9583 40.2359 21.4033 40.0442 21.7658C39.8525 22.1283 39.3175 22.1717 38.2459 22.255L37.9684 22.2767C37.6642 22.3008 37.5117 22.3125 37.3784 22.3825C37.245 22.4525 37.1467 22.5725 36.9492 22.8125L36.7692 23.0317C36.0725 23.8767 35.7242 24.3 35.3275 24.245C34.9309 24.1908 34.7475 23.695 34.3817 22.705L34.2867 22.4483C34.1825 22.1667 34.1309 22.0258 34.0284 21.9233C33.9259 21.8217 33.785 21.7692 33.5034 21.665L33.2475 21.5708C32.2559 21.2042 31.7609 21.0208 31.7067 20.6242C31.6525 20.2275 32.075 19.8792 32.9209 19.1825L33.1392 19.0033C33.3792 18.805 33.5 18.7067 33.57 18.5733C33.64 18.44 33.6517 18.2883 33.675 17.9833L33.6967 17.7058C33.78 16.6342 33.8217 16.0983 34.1859 15.9075C34.5492 15.7158 34.9942 15.9967 35.8825 16.5575L36.1125 16.7025C36.365 16.8617 36.4909 16.9417 36.6367 16.9608C36.7817 16.9817 36.93 16.9392 37.2259 16.855L37.4959 16.7783C38.5384 16.4825 39.06 16.3342 39.3392 16.6133C39.6184 16.8917 39.47 17.4133 39.1734 18.4558M46.1917 23.6517C45.7834 24.5217 44.55 24.7008 42.8742 24.2875M46.1917 23.6517C46.6359 22.705 46.0159 21.1275 44.6667 19.3767M46.1917 23.6517C45.6659 24.7717 43.7775 24.7467 41.3334 23.79M46.1917 23.6517C46.915 22.1083 44.8117 18.8908 41.3334 15.9767M29.8084 12.015C29.365 12.9617 29.9842 14.5383 31.3334 16.2892M29.8084 12.015C30.2167 11.145 31.45 10.9658 33.1259 11.3783M29.8084 12.015C29.2192 13.27 30.5009 15.6325 32.8717 18.0392M29.8084 12.015C30.5659 10.4033 34.1542 11.1658 38.155 13.6667M43.7459 9.82917C43.8284 10.5992 44.1509 11.3208 44.6667 11.8875M43.7459 9.82917C42.9709 10.4683 42.7209 10.5867 41.7442 10.775M43.7459 9.82917L44.0034 9.5M41.7442 10.775C42.2622 11.3458 42.5839 12.0668 42.6642 12.8333M41.7442 10.775L41.3334 10.7617" stroke="white" stroke-width="1.5" stroke-linecap="round"/>
<path d="M82.32 56.44H87.68V57.53H82.32V56.44ZM80.97 49.09H88.09V50.19H80.97V49.09ZM81.64 53.6H88.53V57.91H87.24V54.69H82.86V57.92H81.64V53.6ZM87.61 49.09H88.85C88.85 49.09 88.84 49.41 88.82 49.56C88.68 51.6 88.52 52.48 88.2 52.82C87.95 53.1 87.67 53.18 87.3 53.23C86.97 53.26 86.4 53.26 85.81 53.23C85.79 52.9 85.64 52.43 85.44 52.13C85.98 52.18 86.51 52.18 86.75 52.18C86.93 52.18 87.04 52.16 87.16 52.07C87.37 51.87 87.51 51.09 87.61 49.26V49.09ZM83.83 49.54H85.16C84.81 51.3 84.09 52.99 80.97 53.89C80.85 53.59 80.55 53.1 80.28 52.85C83.1 52.15 83.55 50.79 83.83 49.54ZM95.02 48.52L96.15 48.71C95.66 49.88 94.94 51.03 93.79 51.96C93.62 51.72 93.27 51.34 93.02 51.19C94.04 50.42 94.69 49.4 95.02 48.52ZM95.23 49.3H97.28V50.24H94.68L95.23 49.3ZM93.84 50.94H99.08V54.99H98.07V51.9H94.8V54.99H93.84V50.94ZM93.03 54.68H99.7V55.67H93.03V54.68ZM95.35 51.39H96.15V52.14C96.15 52.82 96.03 53.57 95.18 54.05C95.08 53.86 94.82 53.55 94.64 53.42C95.28 53.07 95.35 52.56 95.35 52.11V51.39ZM96.94 55.22C97.38 56.17 98.33 56.73 99.85 56.9C99.6 57.14 99.29 57.6 99.14 57.91C97.44 57.59 96.49 56.79 95.94 55.4L96.94 55.22ZM95.81 53.87H97C96.83 56.06 96.35 57.32 93.19 57.91C93.1 57.62 92.82 57.18 92.61 56.94C95.4 56.5 95.68 55.6 95.81 53.87ZM96.61 51.39H97.43V52.7C97.43 52.89 97.45 52.9 97.57 52.9C97.62 52.9 97.84 52.9 97.91 52.9C98.02 52.9 98.05 52.88 98.07 52.79C98.22 52.91 98.55 53.03 98.79 53.08C98.69 53.53 98.46 53.68 98.02 53.68C97.89 53.68 97.56 53.68 97.44 53.68C96.75 53.68 96.61 53.45 96.61 52.7V51.39ZM96.92 49.3H97.18L97.35 49.26L98.12 49.76C97.79 50.36 97.25 51.12 96.81 51.6C96.61 51.43 96.24 51.2 96 51.07C96.35 50.63 96.75 49.94 96.92 49.51V49.3ZM91.33 49.43H93.34V54.86H91.33V53.79H92.34V50.5H91.33V49.43ZM90.65 49.43H91.62V55.72H90.65V49.43Z" fill="white"/>
<path d="M90.5 33C93.0543 33 95.125 30.8174 95.125 28.125C95.125 25.4326 93.0543 23.25 90.5 23.25C87.9457 23.25 85.875 25.4326 85.875 28.125C85.875 30.8174 87.9457 33 90.5 33Z" stroke="white" stroke-width="2"/>
<path d="M75.0833 28.7165C75.0833 23.7359 75.0833 21.2464 76.238 19.4589C76.7399 18.6821 77.3822 18.0173 78.1281 17.5024C79.2381 16.7338 80.6287 16.4591 82.7577 16.3616C83.7737 16.3616 84.6478 15.5654 84.8467 14.5335C84.9987 13.7777 85.3936 13.1003 85.9646 12.6159C86.5357 12.1315 87.2479 11.8698 87.9809 11.875H93.0191C94.5422 11.875 95.8542 12.9881 96.1533 14.5335C96.3521 15.5654 97.2263 16.3616 98.2422 16.3616C100.37 16.4591 101.76 16.7354 102.872 17.5024C103.62 18.0191 104.262 18.6838 104.762 19.4589C105.917 21.2464 105.917 23.7359 105.917 28.7165C105.917 33.6971 105.917 36.185 104.762 37.9741C104.26 38.7509 103.618 39.4157 102.872 39.9306C101.144 41.125 98.7371 41.125 93.9256 41.125H87.0744C82.2629 41.125 79.8563 41.125 78.1281 39.9306C77.3826 39.4151 76.7409 38.7497 76.2396 37.9725C75.9046 37.4466 75.658 36.864 75.5104 36.25M101.292 23.25H99.75" stroke="white" stroke-width="2" stroke-linecap="round"/>
<defs>
<linearGradient id="paint0_linear_22_137" x1="90" y1="0" x2="90" y2="68" gradientUnits="userSpaceOnUse">
<stop stop-color="#DC5DCB"/>
<stop offset="1" stop-color="#3148A7"/>
</linearGradient>
</defs>
</svg>
